<svg id="Capa_1" data-name="Capa 1" xmlns="http://www.w3.org/2000/svg" viewBox="0 0 340.16 425.2"><defs><style>.cls-1{fill:#1d1d1b;}.cls-2{fill:none;stroke:#fff;stroke-miterlimit:10;}</style></defs><title>personajes</title><path class="cls-1" d="M66.85,238.07a26.52,26.52,0,0,1-18.15,7.21,25.38,25.38,0,0,1-15.76-5.85,22.87,22.87,0,0,1-6.07-8.05l-2.16,3.76c7.26.48,13.08-5.5,15.22-12,2.63-7.9.64-16.31-.73-24.25-1.25-7.22-1.46-14.75,1.69-21.56,2.8-6.05,7.85-10.73,14.49-12.06,7.47-1.49,14.25,2.78,18.68,8.47a2.51,2.51,0,0,0,3.54,0,2.56,2.56,0,0,0,0-3.53c-4.41-5.67-10.92-9.86-18.22-10.21a23.71,23.71,0,0,0-18.67,8.38,33.2,33.2,0,0,0-7.41,21c-.15,8.4,2.87,16.46,2.91,24.84,0,4-.68,8.27-3.13,11.59a9.8,9.8,0,0,1-8.37,4.34c-2.07-.14-2.88,2.18-2.16,3.76,5.86,12.86,21.83,19.27,35.14,15.12a34.47,34.47,0,0,0,12.7-7.41c2.39-2.16-1.15-5.69-3.54-3.54Z"/><path class="cls-1" d="M266.08,173.82c4-5.18,9.78-9.13,16.56-8.77,6.5.34,12.2,4.5,15.41,10,3.68,6.3,4.37,13.74,3.38,20.86-1.12,8.15-3.5,16.23-1.93,24.5,1.44,7.53,7.57,15.28,15.95,14.73l-2.16-3.76c-4.9,10.76-17.83,16.26-29.09,12.94a28.31,28.31,0,0,1-10.92-6.27c-2.39-2.15-5.94,1.38-3.54,3.54,5.93,5.34,13.47,8.8,21.55,8.69a30.87,30.87,0,0,0,19.21-7.1,26.42,26.42,0,0,0,7.11-9.28c.72-1.58-.09-3.9-2.16-3.76-6.92.46-10.82-6.85-11.37-12.81-.79-8.43,2.18-16.59,2.71-24.94.47-7.44-1.21-15.37-5.5-21.55a24.63,24.63,0,0,0-17.9-10.74c-8.23-.76-15.94,3.84-20.85,10.18a2.59,2.59,0,0,0,0,3.54,2.53,2.53,0,0,0,3.54,0Z"/><path class="cls-1" d="M170.13,124.46c-21.93.23-43.69,5.08-62.89,15.92C90.41,149.87,75.66,164,67.5,181.7a73.32,73.32,0,0,0-2.87,54.71c6.42,18.35,19.68,33.47,35.71,44.17,18.06,12.05,39.56,18.52,61.14,19.88a131.1,131.1,0,0,0,64.7-12.16c17.68-8.47,33.55-21.68,43.35-38.82a73.88,73.88,0,0,0,7.86-54.29c-4.62-18.68-16.61-34.69-31.7-46.32-16.95-13.07-37.6-20.68-58.74-23.35a135.17,135.17,0,0,0-16.82-1.06c-3.22,0-3.22,5,0,5,21.15,0,42.39,5,60.81,15.57,16,9.17,29.78,22.56,37.48,39.47a68.15,68.15,0,0,1,2,51.15C264.3,252.8,251.38,267.1,236.13,277c-17.42,11.31-38,17.41-58.65,18.53-21.08,1.15-42.59-2.58-61.64-11.85C99,275.49,83.94,263,74.68,246.55a68.57,68.57,0,0,1-6.91-50.92c4.54-17.39,15.91-32.45,30.23-43.24,16.28-12.28,36.09-19.63,56.29-22a149.74,149.74,0,0,1,15.84-.92C173.35,129.43,173.36,124.43,170.13,124.46Z"/><path class="cls-1" d="M271.12,183.83c-14.5,2.08-29.45,2.87-44,.78a84.3,84.3,0,0,1-28.73-9.09A57.71,57.71,0,0,1,181.68,162c-.51-.59-1-1.2-1.48-1.82l-.4-.53c-.22-.29-.43-.59-.65-.89-.78-1.09-1.52-2.22-2.21-3.36a52,52,0,0,1-3.1-6c0-.1-.09-.2-.13-.29-.17-.39.17.42,0,0l-.27-.64c-.15-.38-.3-.77-.44-1.15-.23-.64-.45-1.29-.65-1.94s-.35-1.39-.56-2.08c0,0,0-.06,0-.09-.34-1.79-3.28-1.8-3.61,0a29.12,29.12,0,0,1-1.67,5.3c-.07.19-.15.37-.22.56a2.15,2.15,0,0,1-.13.3c-.21.47-.42,1-.64,1.42-.47,1-1,2-1.51,2.94s-1.27,2.2-2,3.26c-.38.58-.76,1.15-1.16,1.71s-1,1.38-1.18,1.61a58.71,58.71,0,0,1-6.47,7,54.71,54.71,0,0,1-8.78,6.59,78.4,78.4,0,0,1-27.13,10c-13.76,2.55-28,2.28-41.84.73-2.13-.23-4.26-.51-6.39-.81a1.93,1.93,0,0,0-2.3,1.31,1.87,1.87,0,0,0,1.3,2.3c15,2.16,30.31,3,45.39.87a87.25,87.25,0,0,0,29.88-9.4,61.85,61.85,0,0,0,17.57-14.15,54.38,54.38,0,0,0,8.44-13.4,49.66,49.66,0,0,0,1.82-4.85,10.74,10.74,0,0,0,.57-2.16.3.3,0,0,0,0-.1h-3.61a29,29,0,0,0,1.75,5.46,54.82,54.82,0,0,0,7.7,13.22,61,61,0,0,0,16.31,14.35,82.9,82.9,0,0,0,28.34,10.33c14.26,2.57,28.91,2.35,43.27.69q3.29-.37,6.57-.86a1.88,1.88,0,0,0,1.31-2.3,1.92,1.92,0,0,0-2.31-1.31Z"/><path class="cls-1" d="M180.74,256.33c0,5.39-1.94,11.87-7,14.62-4.64,2.52-9.37-.45-11.77-4.55a20.22,20.22,0,0,1-2.55-10.07,1.25,1.25,0,0,0-2.5,0c.05,6.34,2.51,14,8.62,17,5.7,2.79,11.57-.31,14.66-5.36a22.6,22.6,0,0,0,3.05-11.61,1.25,1.25,0,0,0-2.5,0Z"/><rect class="cls-2" width="340.16" height="425.2"/></svg>