<svg id="Capa_1" data-name="Capa 1" xmlns="http://www.w3.org/2000/svg" viewBox="0 0 340.16 425.2"><defs><style>.cls-1{fill:#1d1d1b;}.cls-2{fill:none;stroke:#fff;stroke-miterlimit:10;}</style></defs><title>personajes</title><path class="cls-1" d="M101.71,174.08c1.1,9.55,2,19.11,2.81,28.68s1.19,19.14,2.18,28.67a66.47,66.47,0,0,0,2.92,14.79,50.25,50.25,0,0,0,7.22,13.24,111,111,0,0,0,9.43,11.86c3.61,3.77,8,6.52,12.18,9.61A168.86,168.86,0,0,0,153,291c5.23,3.09,10.55,6,15.83,9,2.8,1.6,5.32-2.72,2.52-4.31-9-5.14-18.26-10-26.54-16.26-4-3.06-8.41-5.8-12.25-9.11a64.74,64.74,0,0,1-9.37-10.73c-2.94-4-6-8-7.88-12.52a51.17,51.17,0,0,1-3.32-13.3c-1.19-9.27-1.43-18.69-2.19-28-.87-10.6-1.86-21.19-3.07-31.76a2.57,2.57,0,0,0-2.5-2.5,2.51,2.51,0,0,0-2.5,2.5Z"/><path class="cls-1" d="M171.33,300.11c14.6-6.43,28.71-15,40.55-25.72a67.19,67.19,0,0,0,13.91-17c4-7.19,5.55-15,6.34-23.09a244.77,244.77,0,0,0,1.06-29.66c-.08-3.21-5.08-3.22-5,0a247.68,247.68,0,0,1-.7,25.56c-.61,7.7-1.49,15.5-4.92,22.53-6.33,13-18.32,22.48-30.16,30.25a160.64,160.64,0,0,1-23.6,12.81,2.51,2.51,0,0,0-.9,3.42,2.55,2.55,0,0,0,3.42.9Z"/><path class="cls-1" d="M126.29,193.31a19.08,19.08,0,0,1,24.86-1.19c1.25,1,3-.76,1.77-1.76a21.6,21.6,0,0,0-28.39,1.19c-1.17,1.11.6,2.87,1.76,1.76Z"/><path class="cls-1" d="M215,191.55a21.61,21.61,0,0,0-28.4-1.19c-1.26,1,.52,2.75,1.77,1.76a19.08,19.08,0,0,1,24.86,1.19c1.17,1.11,2.94-.65,1.77-1.76Z"/><path class="cls-1" d="M181,234.35a8,8,0,0,0-7.69,5.39c-.25.77,1,1.1,1.21.34A6.68,6.68,0,0,1,181,235.6c.81,0,.8-1.22,0-1.25Z"/><path class="cls-1" d="M159.11,235.6a6.69,6.69,0,0,1,6.49,4.48c.25.76,1.45.43,1.2-.34a7.94,7.94,0,0,0-7.69-5.39c-.8,0-.8,1.28,0,1.25Z"/><path class="cls-1" d="M146.37,257.11c1.32,2.5,2.48,5.29,4.23,7.52a20,20,0,0,0,5.17,4.54,28.06,28.06,0,0,0,14.28,4.08.63.63,0,0,0,0-1.25,26.8,26.8,0,0,1-13.65-3.91,18,18,0,0,1-5.06-4.53,58.55,58.55,0,0,1-3.89-7.08c-.38-.71-1.46-.08-1.08.63Z"/><path class="cls-1" d="M170.44,256.42c-2.79-3.74-7.53-2.86-11.53-2.11-2.53.47-5,1.15-7.48,1.75s-5.35.72-7.19-1.48c-.52-.62-1.4.27-.89.88,3,3.63,7.78,1.92,11.63,1a59.68,59.68,0,0,1,7.83-1.48c2.42-.26,5,0,6.55,2.1.47.64,1.56,0,1.08-.63Z"/><path class="cls-1" d="M142.13,257.44a7.44,7.44,0,0,1,1.48-2.48,2.89,2.89,0,0,1,1.06-.81c.55-.21,1.11-.39,1.66-.59a.62.62,0,1,0-.33-1.2c-.59.21-1.2.4-1.78.63a4.23,4.23,0,0,0-1.5,1.09,8.89,8.89,0,0,0-1.79,3,.62.62,0,0,0,1.2.34Z"/><path class="cls-1" d="M192.67,256.48a66.83,66.83,0,0,1-3.78,6.91,17.86,17.86,0,0,1-5.17,4.7A26.85,26.85,0,0,1,170.07,272a.63.63,0,0,0,0,1.25,28.09,28.09,0,0,0,14.28-4.08,20.21,20.21,0,0,0,5.17-4.54c1.75-2.23,2.9-5,4.23-7.52.37-.71-.7-1.34-1.08-.63Z"/><path class="cls-1" d="M195.61,255c-.22.75-1.62,1.46-2.24,1.9a24.59,24.59,0,0,1-2.35,1.49,26.85,26.85,0,0,1-5.54,2,49.4,49.4,0,0,1-11.89,2.07,54.71,54.71,0,0,1-17.44-1.63,41.8,41.8,0,0,1-6.31-2,18.4,18.4,0,0,1-2.57-1.51c-.71-.48-2.52-1.4-2.77-2.26a.62.62,0,0,0-1.2.33,2.8,2.8,0,0,0,1.24,1.5c.92.69,1.84,1.37,2.82,2a20.71,20.71,0,0,0,5.46,2.31,52.45,52.45,0,0,0,11.61,2.4c2.73.16,5.49.25,8.23.18a49.76,49.76,0,0,0,12.94-2.08,29.18,29.18,0,0,0,6.43-2.37,30.22,30.22,0,0,0,2.85-1.92c.78-.57,1.65-1,1.94-2a.63.63,0,0,0-1.21-.33Z"/><path class="cls-1" d="M170.75,257.05c1.56-2.09,4.14-2.36,6.56-2.1a59.53,59.53,0,0,1,7.82,1.48c3.86.95,8.59,2.66,11.63-1,.51-.61-.37-1.5-.88-.88-1.79,2.13-4.46,2.12-7,1.54s-5.1-1.33-7.7-1.81c-4-.75-8.75-1.62-11.53,2.11-.49.64.6,1.27,1.07.63Z"/><path class="cls-1" d="M199.18,257.1a8.89,8.89,0,0,0-1.79-3,4.07,4.07,0,0,0-1.46-1.07c-.59-.24-1.21-.44-1.81-.65a.63.63,0,0,0-.77.43.63.63,0,0,0,.43.77c.54.2,1.09.38,1.62.58a2.79,2.79,0,0,1,1.1.82,7.44,7.44,0,0,1,1.48,2.48.63.63,0,0,0,.77.43.63.63,0,0,0,.43-.77Z"/><path class="cls-1" d="M204.15,277.55c.12,12.32,2,24.81,6.54,36.31A72.77,72.77,0,0,0,219.42,330a93.46,93.46,0,0,0,13.84,14.76,46.23,46.23,0,0,0,16.85,10,40.82,40.82,0,0,0,19.08,1.12A40.11,40.11,0,0,0,297,335.68a48.89,48.89,0,0,0,5.48-21.06c.31-6.73.05-14.48-4.41-19.93a2.51,2.51,0,0,0-3.92.5,34.36,34.36,0,0,1-17.48,17.51c-3.24,1.38-8,2.42-10.66-.61s-2.26-7.54-1.51-11c2-9.49,8.54-17.11,14.15-24.7,5.39-7.29,9.77-15,11.27-24.08a43.91,43.91,0,0,0-2.71-24.69A35.89,35.89,0,0,0,280.11,217c-3.28-3.43-7.09-6.35-10.14-10-5.65-6.78-7.45-16.19-7-24.83.27-5,.45-9.9.4-14.86a155.51,155.51,0,0,0-1.75-21.87,110.34,110.34,0,0,0-6.38-24.24,84.57,84.57,0,0,0-14-23.77A75,75,0,0,0,217.4,78.93C206,73.29,193.55,70.38,181,69.19a117.23,117.23,0,0,0-42.3,3.68,83.56,83.56,0,0,0-29.72,14.87,75.46,75.46,0,0,0-18.38,21.58,97.11,97.11,0,0,0-9.71,24.48,136.22,136.22,0,0,0-3.69,23.77,175.23,175.23,0,0,0-.28,18.48c.11,3.29.52,6.62.43,9.91-.2,7.65-2.65,16-7.76,21.78-3.15,3.57-7,6.47-10.18,10a36.36,36.36,0,0,0-6.68,10.52,43.91,43.91,0,0,0-2.28,24.84c1.68,9.08,6.28,16.75,11.73,24.06,5.63,7.56,12,15.28,13.73,24.83.61,3.43.66,8.19-2.26,10.67s-7.72,1.19-10.89-.32A34.76,34.76,0,0,1,46,295.19a2.52,2.52,0,0,0-3.93-.5c-4.18,5.11-4.59,12.15-4.45,18.49a51.55,51.55,0,0,0,4.06,19.49,39.81,39.81,0,0,0,47.18,22.42,45.09,45.09,0,0,0,17.61-10,88.87,88.87,0,0,0,13.9-14.72,71.38,71.38,0,0,0,8.46-16c4.91-12.67,7-26.49,7.12-40,0-3.22-5-3.22-5,0a114.12,114.12,0,0,1-4.92,32.88,76.3,76.3,0,0,1-6.56,15.37A63,63,0,0,1,108.88,336c-4.55,4.51-9.3,9-15.09,11.89a35,35,0,0,1-44.68-12A40.86,40.86,0,0,1,42.86,317a57,57,0,0,1,0-10.53c.26-2.81.93-6,2.77-8.28l-3.93-.5A39.05,39.05,0,0,0,59.4,316.26c4,2,8.65,3.5,13.13,2.39s7.3-4.82,8.21-9.11c2-9.33-2.88-18.9-8-26.36-5.35-7.78-12.1-14.91-15.44-23.89a41.29,41.29,0,0,1-1.71-23.91,33,33,0,0,1,4.75-10.9c2.55-3.75,6.08-6.67,9.35-9.76a36.66,36.66,0,0,0,8.64-11.51A46.81,46.81,0,0,0,82,189.56a33.7,33.7,0,0,0,.27-6c-.24-4.55-.47-9.1-.48-13.65a162.1,162.1,0,0,1,1.27-21c.08-.61,0,.23,0-.22,0-.24.06-.47.1-.7.07-.5.14-1,.22-1.49.16-1,.32-2,.5-3q.55-3,1.24-6a107.1,107.1,0,0,1,3.61-12.27c.37-1,.75-2,1.15-3,.1-.25.19-.49.29-.73s.32-.75.14-.33c.23-.55.47-1.1.71-1.64q1.36-3.06,3-6t3.49-5.82c.62-.94,1.27-1.87,1.93-2.78.83-1.14,1.12-1.52,1.9-2.49A69.73,69.73,0,0,1,124,83.88c10.73-5.55,23-8.54,35.17-9.69a113.21,113.21,0,0,1,41.72,3.71,81.52,81.52,0,0,1,15.7,6.23,75,75,0,0,1,6.79,4.05c1.08.71,2.13,1.46,3.17,2.24.72.54,1.63,1.26,2.57,2a70.52,70.52,0,0,1,17.24,21.37q1.58,2.94,2.92,6l.32.72.14.33c.23.55.45,1.1.67,1.65.4,1,.77,2,1.14,3a108.26,108.26,0,0,1,3.55,12.27q.69,3,1.21,6c.18,1,.34,2,.5,3,.07.46.14.92.2,1.39,0,.13.11.77.07.46a5,5,0,0,0,.07.55c.47,3.68.79,7.38,1,11.09.31,5.89.28,11.79,0,17.68-.08,1.88-.19,3.76-.29,5.64a36.68,36.68,0,0,0,.42,7,44.56,44.56,0,0,0,3.88,13.37,39.11,39.11,0,0,0,8.95,11.31c3.22,3,6.57,5.9,9,9.62a33.66,33.66,0,0,1,4.6,11.19,41.55,41.55,0,0,1-2.21,23.89c-3.52,8.94-10.4,16-15.68,23.91-5,7.38-9.76,17.24-7.26,26.34a11.27,11.27,0,0,0,8.84,8.49c4.57.75,9.09-.81,13.08-3a39.25,39.25,0,0,0,16.92-18.14l-3.93.5c3.28,4,3.12,10.56,3,15.44a45.12,45.12,0,0,1-3.57,16.92,35.42,35.42,0,0,1-23.51,19.93,34.93,34.93,0,0,1-16.91,0,37.89,37.89,0,0,1-15.37-8.11A93.1,93.1,0,0,1,224.87,329a66.75,66.75,0,0,1-8.47-14.33c-5.12-11.62-7.13-24.5-7.25-37.13,0-3.22-5-3.22-5,0Z"/><path class="cls-1" d="M206.22,163.84c1.37,10.4,8.63,18.72,14.52,26.94,6.38,8.9,12.53,18.21,15.88,28.72A49,49,0,0,1,239,237.72c-.17,2.41,3.58,2.4,3.75,0,.76-11-2.62-21.76-7.67-31.39s-12-18.3-18.25-27.34c-3.08-4.46-6.14-9.68-6.86-15.15A1.94,1.94,0,0,0,208.1,162a1.9,1.9,0,0,0-1.88,1.88Z"/><path class="cls-1" d="M103.45,127.68c-7.19,9.6-13.66,22-10.89,34.37,1.5,6.7,6.11,12.82,12.68,15.16a43.48,43.48,0,0,0,9.79,2,98.51,98.51,0,0,0,12.85.54,107.43,107.43,0,0,0,30-4.5c9-2.8,17.94-7.24,23.64-15a26.5,26.5,0,0,0,1.68-2.62c1.57-2.81-2.75-5.33-4.32-2.52a27.58,27.58,0,0,1-1.61,2.52c-.07.1-.42.54-.17.23l-.44.54c-.32.39-.66.77-1,1.14a31.16,31.16,0,0,1-4.4,3.86,48.18,48.18,0,0,1-11.57,5.92,94.93,94.93,0,0,1-27.77,5.24,109.77,109.77,0,0,1-13.08-.06c-1-.07-2-.15-2.92-.25l-1.28-.14L114,174s-.4,0-.07,0-.2,0-.27,0c-1.54-.23-3.07-.5-4.57-.87-.65-.16-1.29-.33-1.92-.54l-.78-.27-.37-.14c-.49-.17.41.21.08,0-.5-.26-1-.49-1.5-.79-.26-.16-.52-.32-.77-.5l-.44-.32s.32.28-.06-.05a20.45,20.45,0,0,1-1.61-1.48c-.24-.25-.48-.52-.71-.78l-.34-.42c-.27-.32.21.32-.11-.15a21.8,21.8,0,0,1-1.34-2.09c-.2-.35-.38-.71-.55-1.07-.09-.18-.17-.37-.26-.55-.15-.34.15.37,0,0l-.15-.39a21.52,21.52,0,0,1-.8-2.59c-.12-.49-.22-1-.3-1.46,0-.11-.11-.7-.08-.49s0-.47-.07-.62a26,26,0,0,1-.08-3.3,22.92,22.92,0,0,1,.32-3.22,45.8,45.8,0,0,1,7-16.73c1.11-1.72,2.29-3.4,3.52-5a2.52,2.52,0,0,0-.9-3.42,2.55,2.55,0,0,0-3.42.9Z"/><path class="cls-1" d="M172.88,168.92c8.22,3.28,17.52,4.72,26.17,2.27a27.63,27.63,0,0,0,17.85-14.73A62.2,62.2,0,0,0,221,142.81a2.5,2.5,0,0,0-4.82-1.33c-1.48,7.07-3.13,14.51-8.66,19.6-5.29,4.87-12.67,6.69-19.71,6.28a43.31,43.31,0,0,1-13.57-3.26,2.52,2.52,0,0,0-3.08,1.74,2.57,2.57,0,0,0,1.75,3.08Z"/><path class="cls-1" d="M233.82,156.62c-.69-1.36-1.42-2.69-2.2-4.08s-1.53-2.88-2.42-4.15l-2.54-4-.63-1-.7-.94-1.42-1.88-1.41-1.87-.71-.93L221,137l-3.1-3.49a21.41,21.41,0,0,0-1.65-1.65l-1.7-1.6-1.69-1.59L211,127.18l-1.82-1.44-.91-.72-1-.64-3.86-2.55-4.08-2.19a18.89,18.89,0,0,0-2.08-1l-2.12-.91a70.72,70.72,0,0,0-17.79-4.6A82.3,82.3,0,0,0,159,113a111.64,111.64,0,0,0-18.2,3.34,135.55,135.55,0,0,0-17.54,6q-4.28,1.8-8.41,3.89c-1.36.71-2.72,1.43-4,2.2-.65.37-1.29.77-1.93,1.16l-.89.6c-.3.2-.48.37-.73.54l-4.88,3.45.83-5.65a139.13,139.13,0,0,0,1.42-16.3l0-1.1.82-.7a39.68,39.68,0,0,1,9.31-5.75c3.23-1.5,6.41-2.73,9.6-4a125.29,125.29,0,0,1,20-6.18,108.8,108.8,0,0,1,20.82-2.45,75.5,75.5,0,0,1,20.92,2.32,55.66,55.66,0,0,1,10,3.65,40,40,0,0,1,4.63,2.57c1.48,1,3,1.84,4.42,2.85a68,68,0,0,1,14.95,14.62A71.19,71.19,0,0,1,233.82,156.62Zm0,0a73.71,73.71,0,0,0-15.68-37,66,66,0,0,0-14.87-13.44c-1.4-.91-2.88-1.69-4.31-2.56a38.44,38.44,0,0,0-4.41-2.29,52.41,52.41,0,0,0-9.4-3.14,75.87,75.87,0,0,0-19.86-1.72,104.55,104.55,0,0,0-19.91,2.69,128.62,128.62,0,0,0-19.2,6.1c-3.14,1.3-6.34,2.57-9.32,4a34.9,34.9,0,0,0-8.11,5l.84-1.8A140.08,140.08,0,0,1,108,129.3L104,127.1c.38-.3.8-.65,1.16-.88l1.07-.71c.71-.43,1.41-.86,2.12-1.27,1.42-.81,2.85-1.55,4.28-2.29q4.32-2.15,8.76-4a130.24,130.24,0,0,1,18.25-6,113.7,113.7,0,0,1,19-3.15,85.83,85.83,0,0,1,19.28.69A69,69,0,0,1,196.4,115l2.18,1a20,20,0,0,1,2.15,1.12l4.15,2.45,3.92,2.81,1,.71.91.79,1.81,1.58,1.8,1.58,1.67,1.73,1.66,1.73a19.21,19.21,0,0,1,1.6,1.77l3,3.72.75.94.66,1,1.32,2,1.32,2,.66,1,.57,1,2.31,4.15a42.29,42.29,0,0,1,2,4.2C232.42,153.68,233.1,155.16,233.82,156.62Z"/><rect class="cls-2" width="340.16" height="425.2"/></svg>