<svg id="Capa_1" data-name="Capa 1" xmlns="http://www.w3.org/2000/svg" viewBox="0 0 340.16 425.2"><defs><style>.cls-1{fill:#1d1d1b;}.cls-2{fill:none;stroke:#fff;stroke-miterlimit:10;}</style></defs><title>personajes</title><g id="Scooby"><path class="cls-1" d="M101.15,199a213.27,213.27,0,0,0-.81,29.37,413.35,413.35,0,0,0,3.38,41.58q.87,6.74,1.93,13.45c.36,2.32.75,4.63,1.15,6.94.19,1.13.39,2.27.6,3.4.1.56.2,1.13.31,1.7.05.25.09.49.14.74,0,.09.14,1,.14.57,0,3.22,5,3.22,5,0a15.05,15.05,0,0,0-.46-2.64l-.57-3.16c-.37-2.09-.73-4.17-1.07-6.26q-1-6-1.8-12-1.53-11.07-2.47-22.22a344.11,344.11,0,0,1-1.35-36.75c.1-4.92.34-9.85.88-14.75a2.51,2.51,0,0,0-2.5-2.5,2.56,2.56,0,0,0-2.5,2.5Z"/><path class="cls-1" d="M234.29,198.62a195,195,0,0,1,.49,29.5c-.6,13.9-2,27.79-3.87,41.57q-.91,6.68-2,13.31-.57,3.5-1.19,7c-.2,1.13-.41,2.27-.62,3.4a19.39,19.39,0,0,0-.59,3.36c0,3.22,5,3.23,5,0,0,.41.16-.66.19-.81l.27-1.46.57-3.16c.37-2.08.73-4.17,1.07-6.25q1-6,1.84-12,1.62-11.34,2.75-22.72a348.17,348.17,0,0,0,1.86-37,146.25,146.25,0,0,0-.76-14.8,2.58,2.58,0,0,0-2.5-2.5,2.51,2.51,0,0,0-2.5,2.5Z"/><path class="cls-1" d="M107.12,40.28c-1.28,7.07-.63,15.76,3.69,21.71a17,17,0,0,0,7.34,5.72,1.25,1.25,0,0,0,1.58-1.2,40.18,40.18,0,0,1,1.16-13.86,22.91,22.91,0,0,1,1.4-3.87c.5-1,1.16-1.92,1.7-2.9a13.29,13.29,0,0,0,1.34-4.3c1.33-7.93.34-16.36-.6-24.28-.27-2.24-.56-4.47-.91-6.7-.26-1.59-2.67-.91-2.41.66a166.69,166.69,0,0,1,1.81,17.12,62.48,62.48,0,0,1-.21,12,13,13,0,0,1-1.11,4.1c-.43.83-1,1.58-1.45,2.41a25,25,0,0,0-1.62,3.89,41,41,0,0,0-1.6,15.73l1.58-1.21c-8.57-3.59-10.23-13.88-9.55-22.13,0-.35.07-.7.1-1.06,0-.14.12-.87.06-.5,0-.23.07-.45.11-.67.28-1.57-2.13-2.25-2.41-.66Z"/><path class="cls-1" d="M230.29,41.11c1.53,6,1.58,13.54-1.69,19a13,13,0,0,1-6.11,5.23l1.58,1.21a43.38,43.38,0,0,0-1-13.49A24.26,24.26,0,0,0,220,45.39a10.29,10.29,0,0,1-1.45-3.7A48.4,48.4,0,0,1,218,30.22c.15-4,.51-8,1-12,.24-2.11.51-4.22.84-6.32.26-1.57-2.15-2.25-2.41-.66a165,165,0,0,0-1.82,17,65.51,65.51,0,0,0,.25,12.37A17,17,0,0,0,217,45.15c.85,1.94,2.15,3.59,2.87,5.62a38.49,38.49,0,0,1,1.74,15.74,1.25,1.25,0,0,0,1.58,1.2,16.52,16.52,0,0,0,9.73-11.58,33.29,33.29,0,0,0,.36-12.89,25.93,25.93,0,0,0-.54-2.79,1.25,1.25,0,0,0-2.41.66Z"/><path class="cls-1" d="M170.9,175.61c.15.65.24,1.32.35,2,0,.13,0,.27.05.4-.14-1,0-.2,0,0,0,.43.1.85.14,1.28.1,1,.17,1.93.22,2.9a56.63,56.63,0,0,1-.12,7.37q-.09,1-.21,2c0,.1-.06.49,0,0,0,.14,0,.29-.07.43-.06.45-.13.89-.21,1.33a41.6,41.6,0,0,1-1,4.29,29.84,29.84,0,0,1-9.9,15.48,34.48,34.48,0,0,1-23.13,7.06c-17.35-1.19-29.27-17.5-36.66-31.71a73.07,73.07,0,0,1-5.21-11.57,21.38,21.38,0,0,1-.58-2.26c0-.14-.17-1.12-.11-.6,0-.4-.08-.81-.11-1.22a17.36,17.36,0,0,1,0-2c0-.28,0-.55.08-.83-.08.63.12-.56.16-.74a17.07,17.07,0,0,1,.49-1.73c0-.14.34-.89.23-.62s.11-.24.12-.25c.08-.18.17-.35.26-.53.27-.53.56-1,.88-1.54.18-.28.37-.55.56-.82l.24-.32.1-.13a26.15,26.15,0,0,1,2.69-2.78c.25-.23.52-.45.78-.67l.57-.45.58-.44c.32-.22.63-.45,1-.66a46,46,0,0,1,7.16-3.92l.86-.38.07,0,.38-.16,1.89-.74c1.14-.43,2.3-.83,3.46-1.2,3.12-1,6.29-1.75,9.49-2.44l.49-.09c2.33-.39,2.15-3.46.6-4.57-3-2.12-6-4.6-7.72-7.83a4.8,4.8,0,0,1-.57-1.36c-.07-.24-.14-.49-.19-.73s-.06-.28-.08-.41c-.06-.32,0,.45,0,0a11.31,11.31,0,0,1,0-1.54c-.06.68,0-.09.07-.25s.14-.52.22-.79a3.4,3.4,0,0,0,.12-.34c.12-.33-.19.41,0,.1s.21-.43.33-.64a10.2,10.2,0,0,1,.84-1.29c-.33.44,0-.05.18-.21s.32-.36.49-.53a14.22,14.22,0,0,1,1-1l.55-.46c.52-.44-.14.08.19-.15s.79-.57,1.2-.83c.71-.46,1.44-.89,2.19-1.28s1.22-.59,1.84-.88c.37-.17-.67.28,0,0l.2-.08a2.56,2.56,0,0,0,1.74-3.07,2.52,2.52,0,0,0-3.07-1.75,27.42,27.42,0,0,0-8.21,4.8c-4.33,3.67-6.21,9-3.84,14.38,2,4.46,6.06,7.76,9.93,10.51l.6-4.57A68.63,68.63,0,0,0,103,152.43c-4.9,2.83-9.67,6.74-12,12a18.12,18.12,0,0,0-1.58,8.92c.35,4.13,2,7.8,3.69,11.53a99.23,99.23,0,0,0,15.45,24.71c5.87,6.63,13.29,12.26,22,14.52,9.15,2.39,19.09.75,27.4-3.62a33.36,33.36,0,0,0,15-16.19c4-9.13,4.66-19.75,2.86-29.5,0-.18-.07-.36-.1-.54-.69-3.15-5.51-1.82-4.83,1.33Z"/><path class="cls-1" d="M170.22,113.43c-11,0-21.14,4.56-29.4,11.6a55,55,0,0,0-7.25,7.46c-.93,1.16-2.72,2.89-2.76,4.53a21.17,21.17,0,0,0,.28,3,58.39,58.39,0,0,0,1.4,7.3,45.92,45.92,0,0,0,9.18,18.2c5.88,6.9,14.16,10.76,23.07,11.85,9.6,1.17,20.07-.56,28-6.33,10.3-7.49,15.55-20.09,16.77-32.47a4.16,4.16,0,0,0-.73-3.47,59,59,0,0,0-4.59-5.15c-7-7.06-15.7-13.12-25.48-15.46a37.45,37.45,0,0,0-8.5-1c-3.21,0-3.22,5,0,5,13.09.07,24.61,8.33,32.93,17.68.55.61,1.08,1.23,1.6,1.87.15.19.29.38.45.57s-.5-.66-.22-.28l-.34-1.27c0,.33,0,.66-.06,1l-.12,1.15c0,.24-.06.48-.08.72-.06.48.09-.6,0-.19l-.06.44a52.93,52.93,0,0,1-2.09,8.87c-.3.92-.62,1.84-1,2.74l-.25.63c-.16.41.14-.32-.09.21s-.43,1-.66,1.46a40.36,40.36,0,0,1-3.1,5.42c-.28.42-.58.83-.88,1.24a3,3,0,0,1-.2.27l-.63.77c-.72.86-1.48,1.68-2.28,2.47a25,25,0,0,1-5.26,4,33.09,33.09,0,0,1-15.2,4.38c-5.73.3-11.93-.45-16.84-2.65a32.2,32.2,0,0,1-3.45-1.79c-.49-.29-1-.6-1.43-.92-.23-.15-.46-.31-.68-.48s-.85-.63-.53-.39a32.18,32.18,0,0,1-4.87-4.75l-.49-.6-.2-.26c.28.36.05.06,0,0-.34-.46-.68-.93-1-1.4-.59-.88-1.15-1.78-1.67-2.7s-1-1.81-1.41-2.74c-.2-.42-.39-.84-.58-1.27-.05-.12-.1-.24-.16-.36s.17.41.07.15l-.33-.81a52.24,52.24,0,0,1-2.72-9.65c-.11-.62-.22-1.25-.31-1.87,0-.13,0-.26-.05-.39-.09-.54.06.57,0,.19l-.09-.77c-.07-.62-.08-1.26-.17-1.87a2.17,2.17,0,0,1,0-.26l-.34,1.27c.11-.18.24-.36.36-.53l.44-.63.26-.34c.07-.1.53-.7.25-.34s.18-.22.24-.29.25-.32.38-.47c.34-.42.69-.83,1-1.24.8-.92,1.63-1.81,2.49-2.68A45.49,45.49,0,0,1,156.85,121a37.57,37.57,0,0,1,13.37-2.55C173.44,118.42,173.45,113.42,170.22,113.43Z"/><path class="cls-1" d="M160.28,66.86c-6.25-3.65-14.51-2.55-20.09,1.75a30.86,30.86,0,0,0-8,9.8c-.78,1.41,1.38,2.67,2.16,1.26,2.88-5.23,7-10.32,13-12a16.29,16.29,0,0,1,9.93.55A8.59,8.59,0,0,1,159,69a1.25,1.25,0,0,0,1.26-2.16Z"/><path class="cls-1" d="M178.66,66.54c.24-.33-.14.17.21-.25s.63-.76,1-1.12a19.5,19.5,0,0,1,3.34-2.93c3.15-2.12,6.8-2.65,9.89,0s5,6.79,6.38,10.58c.56,1.49,3,.85,2.41-.67-2.13-5.73-5.75-13.67-12.81-14.23-4-.33-7.73,2.19-10.43,4.92a21.36,21.36,0,0,0-2.1,2.45c-.95,1.31,1.22,2.56,2.15,1.26Z"/><path class="cls-1" d="M106.27,154.17a143.77,143.77,0,0,1-1.82-18.29,53.44,53.44,0,0,1,.31-8.1,24.1,24.1,0,0,1,.53-2.69c.11-.45.24-.9.39-1.33a6.34,6.34,0,0,1,.43-1c3.9-8,8.3-15.84,12.45-23.73,2.78-5.29,5.55-10.58,8.22-15.92a2.53,2.53,0,0,0-2.16-3.76c-1,0-2-.16-3-.29.59.07.06,0-.2,0l-.75-.12c-.59-.1-1.18-.2-1.76-.32-1.35-.27-2.68-.6-4-1-5.86-1.69-11.88-4.7-15.26-10a9.87,9.87,0,0,1-1.56-4c-.08-.44,0,.31,0-.13,0-.22,0-.44-.06-.66s0-.7,0-1.06a7.86,7.86,0,0,1,.2-1.83,21.15,21.15,0,0,1,3.55-7.9,41.31,41.31,0,0,1,5.12-6.13c1.1-1.11,2.29-2.09,3.42-3.16a3.55,3.55,0,0,0,1-2.18c.3-1.4.63-2.78,1-4.17q.8-3.11,1.77-6.17c.36-1.15.75-2.28,1.16-3.41.2-.56.41-1.11.63-1.67.12-.31.24-.62.37-.93l.17-.42,0-.12a41.35,41.35,0,0,1,3.4-6.45c.29-.44.6-.87.91-1.29-.33.44.09-.1.21-.24s.36-.41.54-.62.66-.67,1-1c.11-.1.8-.62.21-.19q.3-.23.6-.42c.18-.11.36-.22.55-.32s.73-.35.33-.18.25-.09.34-.11.44-.11.65-.18c.62-.18-.3,0,.08,0,.2,0,.4,0,.6,0s.88.09.44,0,.33.08.46.12.43.13.64.2c.41.13,0,0-.11-.06l.33.16a11.3,11.3,0,0,1,1.63,1,12.72,12.72,0,0,1,2.59,2.75,15,15,0,0,1,1,1.79l.21.47c-.05-.11-.14-.36,0,.11s.26.73.37,1.1a17.48,17.48,0,0,1,.76,4,33.43,33.43,0,0,1-.5,8.48,55.6,55.6,0,0,1-2,7.81c-.31.94-.64,1.88-1,2.8l-.41,1.05-.18.43c-.25.62.21-.47,0-.07-.1.22-.19.43-.28.65a2.54,2.54,0,0,0,.89,3.42l11.29,5.51a4.15,4.15,0,0,0,3.19.42c1.26-.35,2.55-.61,3.84-.84a87.83,87.83,0,0,1,9.34-1.09,170.56,170.56,0,0,1,22.38-.18c1.69.1,3.37.23,5.05.4s2.59.27,4.17.53c1.22.21,2.44.44,3.64.76,1.35.36,2.44,1,3.84.31,4-1.85,7.94-3.88,11.91-5.82a2.55,2.55,0,0,0,.89-3.42c-.1-.23-.19-.46-.3-.69s.27.67.07.16l-.18-.43-.46-1.17a63.49,63.49,0,0,1-2.11-6.61c-1.41-5.44-2.22-11.21-.57-16.5a12.26,12.26,0,0,1,4.41-6.25,14.54,14.54,0,0,1,1.41-.84c.6-.33-.15,0,.22-.1s.53-.17.8-.24.86-.1.12-.06l.61,0c.2,0,.41,0,.61,0s.46.13-.22,0c.15,0,.3,0,.44.08s1.37.53.69.19a10.33,10.33,0,0,1,1.17.66c.07,0,.65.47.35.23s.3.27.39.35a13.5,13.5,0,0,1,1.07,1.07l.48.56.24.29c.23.27-.25-.34,0-.05.36.47.7,1,1,1.46a34.48,34.48,0,0,1,1.73,3c.58,1.11,1.1,2.24,1.59,3.39-.18-.43.12.3.18.44l.33.83c.24.63.48,1.25.71,1.88.8,2.23,1.51,4.5,2.15,6.78.71,2.53,1.14,5.14,1.86,7.65.33,1.13,1.47,1.81,2.3,2.57a52.16,52.16,0,0,1,4.93,5.15,32.45,32.45,0,0,1,2.37,3.2,27.79,27.79,0,0,1,2.24,4.07c.19.41-.1-.26.07.15l.2.51c.12.33.24.67.35,1a16.82,16.82,0,0,1,.56,2.33c.08.44,0-.31,0,.13a4.57,4.57,0,0,1,0,.52c0,.36,0,.71,0,1.06s0,.7,0,1.06c0,0-.07.59,0,.32s-.08.4-.09.46c-1.24,6-7.55,10.1-12.9,12.09A45.09,45.09,0,0,1,221,78.19l-.85.13-.56.08-.59.08-.76.08c-.7.07-1.4.12-2.1.16l-.8,0a2.54,2.54,0,0,0-2.16,3.77c4.84,9.66,10.17,19.08,15.4,28.54,2,3.54,3.95,7.08,5.8,10.69a15.15,15.15,0,0,1,1.64,4.75,40.65,40.65,0,0,1,.54,7.26,132.39,132.39,0,0,1-1.92,20.84,2.59,2.59,0,0,0,1.75,3.08,2.53,2.53,0,0,0,3.08-1.75,157.56,157.56,0,0,0,2.05-19.63c.15-5.17.1-10.87-2.11-15.65-1.56-3.36-3.47-6.59-5.25-9.83-2.64-4.79-5.31-9.57-7.94-14.37-3-5.44-5.94-10.9-8.72-16.46l-2.16,3.76a45.41,45.41,0,0,0,8.21-.95,37.6,37.6,0,0,0,14.9-6c4.92-3.56,9-8.83,8.78-15.18-.2-5.67-3.2-10.76-6.63-15.1a46.06,46.06,0,0,0-7.3-7.47l.64,1.1a99,99,0,0,0-2.59-10.17c-1.85-6-4.13-12.25-8.06-17.24a13.15,13.15,0,0,0-6.48-4.78,9.7,9.7,0,0,0-8.13,1.63c-7,4.86-8.46,13.51-7.46,21.46A57.39,57.39,0,0,0,206,47.88l.89-3.42L194.94,50.3l1.92-.25a37.88,37.88,0,0,0-8.16-1.72c-3.61-.48-7.25-.73-10.89-.87a163.85,163.85,0,0,0-23.65.7,63.11,63.11,0,0,0-10.83,1.89l1.92.25L133.3,44.46l.89,3.42a58,58,0,0,0,4.31-13.61c1.42-7.64,1.4-16.6-4.37-22.56-2.24-2.31-5.39-4.27-8.73-4.11a10.94,10.94,0,0,0-7.14,3.56c-4.36,4.44-6.75,10.77-8.68,16.56a99.6,99.6,0,0,0-3.3,12.39l.64-1.1a46,46,0,0,0-6.09,6c-3.44,4-6.67,8.76-7.57,14.07C91.1,71.87,104,79.89,114.67,82.71a46.53,46.53,0,0,0,10,1.61l-2.15-3.76c-4.9,9.79-10.09,19.44-15.2,29.12-1.81,3.42-3.65,6.83-5.36,10.31-2.13,4.3-2.48,9.19-2.48,13.92a140.84,140.84,0,0,0,2,21.59,2.54,2.54,0,0,0,3.08,1.75,2.57,2.57,0,0,0,1.74-3.08Z"/><path class="cls-1" d="M211.76,124.19c.18.07.81.34.33.13s.2.09.35.16l.89.42c.72.36,1.43.75,2.11,1.17.38.23.76.48,1.13.73l.49.35.29.21c.24.18-.38-.31,0,0a17.71,17.71,0,0,1,2.18,2.06l.41.5c-.39-.5.05.09.14.23a11.82,11.82,0,0,1,.76,1.34c.16.31-.16-.42,0-.09a3.4,3.4,0,0,1,.12.34c.07.23.15.46.21.7s.09.42.13.63c-.12-.67,0,.27,0,.47s0,.52,0,.78c0,.44.09-.33,0,.25a11.57,11.57,0,0,1-.53,1.8c.14-.35-.23.45-.32.62-.19.36-.39.7-.61,1a14.16,14.16,0,0,1-1.48,1.89,33.5,33.5,0,0,1-5.59,4.84,2.52,2.52,0,0,0-1.19,2.49,2.46,2.46,0,0,0,1.79,2.08A72,72,0,0,1,226.63,153c.44.17.88.33,1.31.51l.67.27c.15.06.84.35.36.14.9.39,1.79.79,2.67,1.23a44.3,44.3,0,0,1,5.36,3.05c.41.27.81.55,1.21.85l.5.37c-.42-.32.21.17.32.26a27.88,27.88,0,0,1,2.21,2c.33.34.65.69,1,1l.46.54.19.24c.23.29-.34-.48,0,.05a19.55,19.55,0,0,1,1.47,2.34c.11.21.21.41.31.62s.29.68.11.22c.18.46.35.93.49,1.4s.25.91.35,1.37l.12.7c-.09-.56,0,.18,0,.36a16.92,16.92,0,0,1,0,3c0,.15,0,.3-.05.45,0,0,.06-.39,0-.09s-.09.54-.14.81c-.12.6-.27,1.19-.44,1.78a56.12,56.12,0,0,1-3.53,8.32q-2.25,4.69-4.9,9.19c-6.26,10.52-15,21.25-27.15,24.92-12.28,3.72-27.65-.92-35-11.74a34.24,34.24,0,0,1-2.26-3.89c-1.44-2.88-5.75-.35-4.32,2.52,6.63,13.27,22.2,20.89,36.82,19.17,14.07-1.66,24.87-11.64,32.65-22.85a113,113,0,0,0,10.49-19.11c2.17-4.95,3.71-10,2.43-15.39-2.06-8.68-10.3-14.27-18-17.69a78.53,78.53,0,0,0-11.23-4,45.67,45.67,0,0,0-6.2-1.44l-.31-.05.6,4.57c5.61-4,12.75-10.29,10.71-18.06-1.2-4.57-5.29-7.87-9.28-10a28.43,28.43,0,0,0-3.55-1.62,2.5,2.5,0,0,0-1.33,4.82Z"/><path class="cls-1" d="M122.5,221c8,14.84,19.59,29.74,36,35.63A36.64,36.64,0,0,0,178.73,258c7.42-1.64,14.1-5.69,19.7-10.73,8.15-7.33,14.21-16.82,19-26.59a2.57,2.57,0,0,0-.9-3.42,2.53,2.53,0,0,0-3.42.9c-4.14,8.43-9.16,16.57-15.8,23.27-5,5-10.9,9.13-17.44,11.1a30.8,30.8,0,0,1-17.84,0,45.38,45.38,0,0,1-17.41-10.26c-7.38-6.73-13.1-15-17.81-23.79-1.53-2.84-5.85-.31-4.32,2.52Z"/><path class="cls-1" d="M148.83,221.9a24.12,24.12,0,0,0,11.68,15.22A20.84,20.84,0,0,0,177,238.33a22.53,22.53,0,0,0,10.72-9.18,29.71,29.71,0,0,0,3.65-7.75,1.25,1.25,0,0,0-2.41-.66c-1.63,5.69-5.6,11.55-10.93,14.4a17.91,17.91,0,0,1-15.08.39,19.71,19.71,0,0,1-9-8.11,22.11,22.11,0,0,1-2.71-6.18c-.38-1.56-2.79-.9-2.41.66Z"/><path class="cls-1" d="M226.5,296.73v19.94c0,.34-.19,1.33,0,1.64-.24-.4.18-.91.06-.5-.05.14-.07.3-.11.45-.14.56-.31,1.13-.49,1.68a30.68,30.68,0,0,1-2.27,5.21A42.8,42.8,0,0,1,207,341.86c-8.07,4.65-17.35,7.1-26.67,8.1a100.59,100.59,0,0,1-33-1.56,53.77,53.77,0,0,1-20.17-8.77l-.86-.65-.49-.38c-.6-.49-1.19-1-1.77-1.52-1-.91-2-1.88-2.9-2.89q-.6-.66-1.17-1.35l-.6-.74,0,0c-.12-.16-.24-.31-.35-.47-.68-.91-1.32-1.85-1.91-2.82s-1-1.77-1.5-2.69c-.2-.41-.4-.82-.59-1.24-.09-.18-.17-.37-.26-.56-.34-.75.15.38-.08-.18a37.27,37.27,0,0,1-1.35-4c-.2-.75-.34-1.5-.49-2.25-.11-.59,0,.69,0,.36a11.75,11.75,0,0,0,0-1.78V296.74l-4.91.66a46.92,46.92,0,0,0,7.62,13.43,58.85,58.85,0,0,0,28.43,19.56A80,80,0,0,0,169.34,334a96.18,96.18,0,0,0,25.55-3.31c10.89-3.07,21.31-8.8,28.49-17.71a39.72,39.72,0,0,0,7.9-15c.05-.19.09-.38.13-.56.71-3.14-4.11-4.47-4.82-1.33a28.48,28.48,0,0,1-1.25,4l-.31.75c.37-.92-.07.17-.18.41-.3.65-.62,1.29-.95,1.92a41.87,41.87,0,0,1-2.57,4.26c-.28.4-.56.79-.85,1.18l-.4.53c.39-.51-.11.14-.24.3-.64.79-1.3,1.55-2,2.3a47.64,47.64,0,0,1-5.11,4.73l-.33.26c.36-.28.06,0,0,0l-.7.52c-.55.4-1.1.78-1.66,1.16-1.18.79-2.39,1.53-3.64,2.23a53.77,53.77,0,0,1-7.92,3.63,80.34,80.34,0,0,1-22.28,4.47A86.29,86.29,0,0,1,150.75,327a57.74,57.74,0,0,1-18-7.39,50.67,50.67,0,0,1-11.52-9.89q-.51-.58-1-1.17l-.47-.58c-.13-.16-.67-.85-.29-.36-.61-.79-1.19-1.6-1.76-2.43-.94-1.38-1.82-2.81-2.62-4.28-.59-1.08-1.13-2.19-1.64-3.32,0-.1-.08-.2-.13-.3-.2-.45.25.63.1.23-.07-.18-.15-.35-.22-.53s-.17-.47-.26-.71c0-.07,0-.15-.08-.23-.89-2.6-4.91-2.27-4.91.66v16.49a33.09,33.09,0,0,0,.33,7.11c1.75,8,6.7,15.46,12.85,20.81,13.83,12,33.31,14.9,51,14.36,18.27-.56,38-5.55,50.37-20a42.94,42.94,0,0,0,8.14-14,13.54,13.54,0,0,0,.79-4.53V296.73C231.5,293.52,226.5,293.51,226.5,296.73Z"/><path class="cls-1" d="M173.75,414.39l-25.92-26.6-3.65-3.74v2.65l25.92-26.6,3.65-3.74H171.1L197,383l3.66,3.75v-2.65l-25.92,26.59-3.66,3.75c-1.68,1.73,1,4.38,2.65,2.65l25.93-26.59,3.65-3.75a1.91,1.91,0,0,0,0-2.65l-25.92-26.6-3.66-3.74a1.9,1.9,0,0,0-2.65,0L145.18,380.3l-3.65,3.75a1.91,1.91,0,0,0,0,2.65l25.92,26.59L171.1,417C172.79,418.77,175.44,416.12,173.75,414.39Z"/><path class="cls-1" d="M157.87,380.51l12.3-8.2-.94-.54V380l.46-.61L165.35,381a.64.64,0,0,0-.28,1.05l6.15,5.94-.09-.76-5.61,10.58,1-.13-9.77-10.58-.28,1.05,7-2a.63.63,0,0,0,.27-1l-5.7-5.64a.63.63,0,0,0-.88.89l5.7,5.64.28-1.05-7,1.95a.64.64,0,0,0-.28,1.05l9.77,10.58a.64.64,0,0,0,1-.13l5.61-10.58a.67.67,0,0,0-.1-.76L166,381.17l-.28,1.05,4.34-1.65a.65.65,0,0,0,.46-.6v-8.2a.63.63,0,0,0-.94-.54l-12.3,8.2C156.57,379.87,157.19,381,157.87,380.51Z"/><path class="cls-1" d="M175,372.38a40.26,40.26,0,0,1,5.05,1.2c2.48.76,5.76,1.79,7.31,4.05s-.72,5.33-1.9,7.22a85.57,85.57,0,0,1-6.45,8.71c-1.39,1.69-2.81,3.35-4.29,5l1.07.44v-27.2a.63.63,0,0,0-1.25,0V399a.63.63,0,0,0,1.07.44,99.88,99.88,0,0,0,10.85-13.82c1.32-2.08,3.45-5.17,2.43-7.75s-4.22-3.94-6.65-4.84a38.46,38.46,0,0,0-6.91-1.83C174.57,371,174.24,372.25,175,372.38Z"/><path class="cls-1" d="M178.55,377.16v10.3a.63.63,0,0,0,1.07.44,18.17,18.17,0,0,0,2.8-4.14c1.07-2.17,1.68-5.21-.72-6.79a3.43,3.43,0,0,0-2.69-.41.62.62,0,0,0,.33,1.2l.15,0s.12,0,0,0l.26,0a2.21,2.21,0,0,1,1.1.24,2.62,2.62,0,0,1,1.27,2.51c-.09,2-1.35,3.88-2.48,5.42a14.18,14.18,0,0,1-.93,1.15l1.07.44v-10.3A.63.63,0,0,0,178.55,377.16Z"/><path class="cls-1" d="M165.47,332.72l.46-.48c.17-.17.35-.33.53-.49l.31-.27c.32-.27-.11.07.16-.12a10.29,10.29,0,0,1,2-1.13c-.25.1.18-.06.26-.09s.43-.13.65-.18a2.92,2.92,0,0,1,1-.13c2,0,3.89,1.46,5.22,3.15a11.52,11.52,0,0,1,2.3,4.76,21.44,21.44,0,0,1-.26,10.49,16,16,0,0,1-1.86,4.55,6.73,6.73,0,0,1-1.19,1.6,7.67,7.67,0,0,1-.77.74c-.07.06.16-.1-.13.09s-.3.21-.45.3-.36.2-.54.28c.33-.16,0,0-.18.06l-.5.14-.22.05c-.23,0,.34,0,0,0h-.53c-.14,0-.58,0-.21,0a7.16,7.16,0,0,1-1.21-.31c-.36-.13-.05,0-.31-.13l-.6-.32a10.67,10.67,0,0,1-1.11-.76,18.75,18.75,0,0,1-2.75-2.88,1.89,1.89,0,0,0-2.65,0,1.92,1.92,0,0,0,0,2.65c2.58,3.23,6.62,6.57,11,5.18,3.79-1.18,6-4.95,7.26-8.46A25.82,25.82,0,0,0,182.19,338c-.87-4.87-4.19-10.38-9.28-11.63-3.67-.9-7.7.92-10.09,3.74a1.93,1.93,0,0,0,0,2.65,1.89,1.89,0,0,0,2.65,0Z"/></g><rect class="cls-2" width="340.16" height="425.2"/></svg>