<svg id="Capa_1" data-name="Capa 1" xmlns="http://www.w3.org/2000/svg" viewBox="0 0 340.16 425.2"><defs><style>.cls-1{fill:#1d1d1b;}.cls-2{fill:none;stroke:#fff;stroke-miterlimit:10;}</style></defs><title>personajes</title><g id="Velma"><path class="cls-1" d="M125.16,254.65c2.74,0,2.75-4.26,0-4.26s-2.74,4.26,0,4.26Z"/><path class="cls-1" d="M138.84,255.44c2.74,0,2.75-4.26,0-4.26s-2.74,4.26,0,4.26Z"/><path class="cls-1" d="M131.36,265.09c2.74,0,2.74-4.26,0-4.26s-2.75,4.26,0,4.26Z"/><path class="cls-1" d="M218,200.05a288.27,288.27,0,0,1,13.16,63.72c.43,5.08.57,10.31-1,15.22-1.4,4.42-4.21,8.24-7.29,11.64A159.17,159.17,0,0,1,200,310.88a93.85,93.85,0,0,1-12.5,8.31,37.67,37.67,0,0,1-13.41,3.93,39.53,39.53,0,0,1-15.25-1.5,44.48,44.48,0,0,1-12.46-6.36,185.87,185.87,0,0,1-24.15-19.65A60,60,0,0,1,113,285.09a26.52,26.52,0,0,1-4.2-13.5,100.08,100.08,0,0,1,1.12-16q1-8.09,2.44-16.12a301.26,301.26,0,0,1,7.45-31.63c.76-2.6,1.56-5.18,2.39-7.76,1-3.07-3.84-4.39-4.82-1.33a302.1,302.1,0,0,0-8.59,32.82,261.18,261.18,0,0,0-4.87,33.84c-.37,5.4-.2,11,1.72,16.15a39.45,39.45,0,0,0,8.16,12.63A165.19,165.19,0,0,0,138,315.47c4.08,3,8.26,6.16,12.84,8.4a44.9,44.9,0,0,0,15.23,4.25,43.15,43.15,0,0,0,16.37-1.62A47,47,0,0,0,195.77,320a192.41,192.41,0,0,0,25.4-20.5,69.14,69.14,0,0,0,10-11.33,31.06,31.06,0,0,0,5.1-14.72c.5-5.55-.21-11.16-.86-16.66S234,245.56,233,240a301.32,301.32,0,0,0-7.72-33.29c-.78-2.67-1.6-5.34-2.45-8-1-3.05-5.82-1.75-4.83,1.33Z"/><path class="cls-1" d="M215,254.65c2.74,0,2.75-4.26,0-4.26s-2.74,4.26,0,4.26Z"/><path class="cls-1" d="M201.32,255.44c2.74,0,2.74-4.26,0-4.26s-2.75,4.26,0,4.26Z"/><path class="cls-1" d="M208.81,265.09c2.74,0,2.74-4.26,0-4.26s-2.75,4.26,0,4.26Z"/><path class="cls-1" d="M140,195.22a49.2,49.2,0,0,0,31.59,6.34,48.59,48.59,0,0,0,36.58-26.51c1.06-2.16-2.17-4.06-3.24-1.89a45.61,45.61,0,0,1-18.66,19.62,44.23,44.23,0,0,1-28.22,5A45.34,45.34,0,0,1,141.93,192c-2.08-1.23-4,2-1.89,3.24Z"/><path class="cls-1" d="M93.4,194A49.2,49.2,0,0,0,125,200.36a48.59,48.59,0,0,0,36.58-26.51c1.06-2.16-2.17-4.06-3.24-1.89a45.55,45.55,0,0,1-18.66,19.62,44.24,44.24,0,0,1-28.22,5,45.48,45.48,0,0,1-16.16-5.79c-2.08-1.23-4,2-1.89,3.24Z"/><path class="cls-1" d="M185.45,196.48c6.59,3.9,14.7,5.76,22.31,6a31.63,31.63,0,0,0,21.54-7.8,33.88,33.88,0,0,0,8.4-10.76c1.07-2.15-2.16-4.06-3.23-1.89a30.88,30.88,0,0,1-15.71,14.82c-6.58,2.72-13.93,2.19-20.72.55a38.65,38.65,0,0,1-10.7-4.12c-2.08-1.23-4,2-1.89,3.24Z"/><path class="cls-1" d="M77.24,221.79c-5.78,20.08-9.19,43.39.11,63,6.44,13.57,19.08,22.59,33.47,26.17a75.41,75.41,0,0,0,24.42,1.78,2.57,2.57,0,0,0,2.5-2.5,2.51,2.51,0,0,0-2.5-2.5,80.75,80.75,0,0,1-10.55.2q-2.56-.12-5.13-.42l-.66-.09c-.74-.09.51.08-.22,0l-1.21-.18c-.92-.15-1.83-.31-2.73-.5a58.3,58.3,0,0,1-9.7-2.84l-.61-.24-.21-.09-1-.43c-.82-.37-1.64-.77-2.44-1.18a49.51,49.51,0,0,1-4.4-2.57,39,39,0,0,1-7.36-6.2q-.92-1-1.77-2a21.86,21.86,0,0,1-1.41-1.82,45,45,0,0,1-7.06-15.05,59.38,59.38,0,0,1-2-12.59c-.76-13.05,1.69-26.08,5.28-38.57.89-3.1-3.93-4.42-4.82-1.33Z"/><path class="cls-1" d="M88.24,236.78c-2.19,6.16-.47,13.53,2.33,19.22a31.39,31.39,0,0,0,12.57,13.35c2.8,1.6,5.32-2.72,2.52-4.32a26.78,26.78,0,0,1-10.6-11.21c-2.35-4.62-3.78-10.7-2-15.72a2.5,2.5,0,0,0-4.82-1.32Z"/><path class="cls-1" d="M91,253.53c-1.8,6.19-2.64,13.72,1.79,19a14.1,14.1,0,0,0,10.48,4.78c1.33,0,3-.07,3.89-1.22s-1.21-2.54-2.16-1.27a.91.91,0,0,1,.27-.28.51.51,0,0,1-.18.09s.32-.08,0,0l-.33.09-.32.06h-.14c-.3,0-.61,0-.91,0a11.75,11.75,0,0,1-4.15-.76,10.92,10.92,0,0,1-7-8.47c-.71-3.79.07-7.78,1.13-11.43a1.25,1.25,0,0,0-2.41-.66Z"/><path class="cls-1" d="M246.38,242.52c9.2-6,15.52-15.45,19.24-25.66,4.85-13.31,5.14-27.92,2.77-41.77A107.44,107.44,0,0,0,261,150,82.75,82.75,0,0,0,249.05,131a85.3,85.3,0,0,0-24.17-20.33c-14.65-8.25-31.52-12.61-48.26-13.56a116.71,116.71,0,0,0-51.94,9A87.34,87.34,0,0,0,95.09,126.4,92,92,0,0,0,85.21,139a89.37,89.37,0,0,0-10.59,23.89c-4.29,14.64-5.79,30.34-2.57,45.34,2.39,11.1,7.58,22,16,29.84a44.61,44.61,0,0,0,5.74,4.5c2.7,1.76,5.21-2.56,2.53-4.32a31.68,31.68,0,0,1-5.11-4.07,44.77,44.77,0,0,1-4.66-5.22,53.25,53.25,0,0,1-7.39-14c-4.46-12.64-4.76-26.46-2.38-39.57A101.58,101.58,0,0,1,84,151.55,79,79,0,0,1,94.9,134.18,81,81,0,0,1,118,114.85c13.9-7.79,30-11.94,45.81-12.8a111.93,111.93,0,0,1,49.48,8.41,82.42,82.42,0,0,1,28,19.22,79.49,79.49,0,0,1,19.3,34c4.09,13.78,5.74,28.62,2.77,42.79-2.2,10.48-6.85,20.51-14.58,27.79a31.35,31.35,0,0,1-4.92,3.89c-2.69,1.75-.18,6.09,2.52,4.32Z"/><path class="cls-1" d="M258.1,223.12c3.28,11.4,5.59,23.2,5.41,35.11a65.16,65.16,0,0,1-1.42,13.16,56.35,56.35,0,0,1-1.65,6,40.3,40.3,0,0,1-2.05,5.07,46.13,46.13,0,0,1-2.65,4.76,35.62,35.62,0,0,1-2.83,3.91,41.79,41.79,0,0,1-3.65,3.88c-.58.55-1.18,1.08-1.8,1.6l-.84.69c-.05,0-.62.49-.18.15l-.7.52a47.93,47.93,0,0,1-17.94,8.19q-2.81.69-5.66,1.12l-.66.09c-.29,0-.29,0,0,0l-.45.06-1.33.16c-1,.1-1.93.18-2.9.25a80,80,0,0,1-11.89-.13,2.51,2.51,0,0,0-2.5,2.5,2.56,2.56,0,0,0,2.5,2.5c14.24,1.19,29.49-1.13,41.57-9.18a46.56,46.56,0,0,0,15-16.21A59.92,59.92,0,0,0,268.37,262c.84-13.55-1.72-27.23-5.45-40.2-.89-3.09-5.71-1.78-4.82,1.33Z"/><path class="cls-1" d="M247.1,238.1c1.79,5,.35,11.1-2,15.72A26.66,26.66,0,0,1,234.5,265c-2.8,1.6-.28,5.92,2.52,4.32A31.45,31.45,0,0,0,249.59,256c2.8-5.68,4.52-13.06,2.34-19.22a2.56,2.56,0,0,0-3.08-1.75,2.53,2.53,0,0,0-1.75,3.07Z"/><path class="cls-1" d="M246.79,254.19c1.51,5.2,2.58,11.89-1,16.49a10.92,10.92,0,0,1-4.2,3.17,12.77,12.77,0,0,1-4.26,1c-.36,0-.72,0-1.07,0l-.47,0c-.24,0,.2.05-.16,0s-.45-.1-.67-.17c.25.08.18.13.05,0s.17.18.23.26c-.95-1.27-3.12,0-2.16,1.27.77,1,2.16,1.17,3.36,1.21a14.14,14.14,0,0,0,5.07-.8,13.3,13.3,0,0,0,8.84-10.15c.83-4.29.09-8.72-1.11-12.86a1.25,1.25,0,0,0-2.41.66Z"/></g><path class="cls-1" d="M203.66,285.22l-4.83-6.41a.64.64,0,0,0-1.17.32,20.33,20.33,0,0,1-1.65,7.72,11.71,11.71,0,0,1-11.78,7.4,52.08,52.08,0,0,1-6.55-1.11,41.73,41.73,0,0,0-6.4-.59,49.26,49.26,0,0,0-5.7.14c-2.29.22-4.5.77-6.75,1.21a14.35,14.35,0,0,1-9.17-.82,11.47,11.47,0,0,1-4.83-4.85,19.63,19.63,0,0,1-2.33-9.1.64.64,0,0,0-1.17-.32l-4.83,6.41c-.48.64.61,1.27,1.08.63l4.83-6.41-1.16-.31a21.5,21.5,0,0,0,1.86,8.43,12.84,12.84,0,0,0,12.26,8,30.76,30.76,0,0,0,5.95-.89,36.11,36.11,0,0,1,6.79-.83,52.39,52.39,0,0,1,6.63.19c2.55.25,5,1,7.54,1.33,5.68.79,11.07-1.1,14-6.22a20.79,20.79,0,0,0,2.63-10l-1.16.31,4.83,6.41c.48.64,1.56,0,1.08-.63Z"/><rect class="cls-2" width="340.16" height="425.2"/></svg>