<svg id="Capa_1" data-name="Capa 1" xmlns="http://www.w3.org/2000/svg" viewBox="0 0 340.16 425.2"><defs><style>.cls-1{fill:#1d1d1b;}.cls-2{fill:none;stroke:#fff;stroke-miterlimit:10;}</style></defs><title>personajes</title><path class="cls-1" d="M243.87,207.17a37.7,37.7,0,0,0-.34-6.1,61.68,61.68,0,0,0-3.7-15.12,59,59,0,0,0-11.23-18.3,63.16,63.16,0,0,0-22.19-15.5c-11.74-5-24.53-7.22-37.24-7.72-10.84-.44-22,.57-32,5a37.31,37.31,0,0,0-16.82,14.75,45,45,0,0,0-5.78,18.85,68.32,68.32,0,0,0,.58,16.66,53.05,53.05,0,0,0,1.87,8.91l.12.42,1.75-3.07a57.06,57.06,0,0,0-10.18,3,85.71,85.71,0,0,0-22.23,12.21A80.05,80.05,0,0,0,73,234.22a2.58,2.58,0,0,0,0,3.54,2.53,2.53,0,0,0,3.54,0,77.58,77.58,0,0,1,22.75-19,75.43,75.43,0,0,1,17.52-7.14c1.12-.3,2.26-.6,3.41-.79a2.52,2.52,0,0,0,1.74-3.08,51.8,51.8,0,0,1-1.43-6c-.2-1-.37-2-.52-3,0-.26-.07-.52-.11-.78-.06-.41,0-.08,0,.17l-.06-.51c-.08-.6-.15-1.21-.21-1.82a67.27,67.27,0,0,1-.35-7.9c0-1.44.09-2.88.22-4.31.07-.75.16-1.5.25-2.25-.09.75,0-.3.08-.54s.12-.76.19-1.14a44.13,44.13,0,0,1,2.56-8.85c.1-.26-.09.21-.09.21l.14-.32.21-.47c.17-.36.34-.73.52-1.09.36-.72.74-1.44,1.16-2.13s.82-1.36,1.27-2c.22-.32.44-.64.67-.95l.24-.32c-.2.26.22-.27.31-.38a32.28,32.28,0,0,1,3.51-3.7l.94-.82.45-.37.31-.24c.28-.23-.33.25,0,0,.75-.57,1.51-1.11,2.3-1.62a41.2,41.2,0,0,1,5.19-2.8l.62-.27.36-.15c.51-.2,1-.4,1.53-.58,1-.38,2.08-.71,3.14-1a63.35,63.35,0,0,1,15-2.34,106.8,106.8,0,0,1,37.26,4.71,68.29,68.29,0,0,1,13.57,5.91,62.31,62.31,0,0,1,5.55,3.57c1.07.78,1.27.93,2.24,1.73.78.63,1.55,1.29,2.29,2a55.9,55.9,0,0,1,4.13,4.16c.63.71,1.24,1.43,1.84,2.18l.37.47c.27.34-.2-.27.15.2l.82,1.1a56,56,0,0,1,5.11,8.68c.32.69.64,1.38.94,2.09-.29-.67.17.42.25.62s.27.7.41,1.06c.5,1.32.94,2.66,1.35,4a62.41,62.41,0,0,1,1.65,7.13c.08.51.15,1,.23,1.51s-.08-.64,0,.13c0,.25.07.5.09.75.09.79.16,1.58.22,2.38.06,1,.08,2,.09,3,0,.13,0,.26,0,.39-.15,3.22,4.85,3.21,5,0Z"/><path class="cls-1" d="M49.8,242.57c-5.86,2.34-11,6.25-13.82,12-2.68,5.42-3.86,12.22-1.76,18,3.69,10.25,15,14.72,25.19,15a35.74,35.74,0,0,0,17.78-4c2.84-1.51.32-5.83-2.52-4.32a30.13,30.13,0,0,1-12.89,3.28c-1.2,0-2.41,0-3.62-.06a27,27,0,0,1-3.18-.37,34.13,34.13,0,0,1-3.43-.81c-.51-.14-1-.31-1.53-.48l-.74-.28-.49-.19c-.4-.16.27.12-.13-.05A24.73,24.73,0,0,1,45.81,279c-.47-.28-.93-.57-1.38-.89a7.51,7.51,0,0,1-1-.74,19.66,19.66,0,0,1-2.24-2.23c-.07-.08-.43-.55-.21-.25q-.26-.34-.48-.69c-.29-.43-.56-.88-.81-1.34a10.16,10.16,0,0,1-1-2.58c-.13-.49-.25-1-.34-1.48,0-.1-.11-.72-.07-.37q-.06-.53-.09-1.05a20.26,20.26,0,0,1,1.19-8,20,20,0,0,1,11.75-11.95,2.57,2.57,0,0,0,1.75-3.08,2.51,2.51,0,0,0-3.08-1.74Z"/><path class="cls-1" d="M226.35,208.8c-1.14.49-.23.11.16,0a19.53,19.53,0,0,1,2-.55c.47-.11.94-.2,1.41-.28l.36-.05c.54-.09-.51,0-.19,0s.56-.06.84-.09a22,22,0,0,1,3.72,0c.26,0,1.36.22.42,0,.35.07.71.11,1.06.18a19,19,0,0,1,2.1.54l1,.37c.31.11.52.22.06,0l.65.3a18.37,18.37,0,0,1,2.17,1.2c.37.24.74.5,1.11.76s-.12-.1.14.11l.58.49a22.45,22.45,0,0,1,2.09,2.05c.34.37.66.76,1,1.16s0,0,0,0a3.81,3.81,0,0,1,.24.32c.21.27.41.55.6.83a33.48,33.48,0,0,1,1.88,3.09,39.75,39.75,0,0,1,3.16,7.74,74.54,74.54,0,0,1,2.4,10.65A152.63,152.63,0,0,1,256.77,265a88.69,88.69,0,0,1-2.18,19,47.42,47.42,0,0,1-2,6.37c0,.08-.32.78-.16.41s-.14.31-.17.39q-.27.6-.57,1.2c-.35.71-.74,1.42-1.15,2.1s-.75,1.11-1.13,1.66.4-.46.06-.06c-.1.1-.18.22-.27.33s-.37.43-.57.64a13.51,13.51,0,0,1-1.08,1.06c-.15.14-.32.27-.48.41-.35.31.44-.29.22-.17s-.17.13-.26.18c-.51.35-1.06.61-1.59.92.37-.22.56-.2,0,0l-.35.1-.12,0a2.5,2.5,0,0,0,1.33,4.82c3-.45,5.68-3.36,7.39-5.65a33,33,0,0,0,4.73-9.9,78.91,78.91,0,0,0,3.07-18.25,165.82,165.82,0,0,0-.58-27.74c-.79-7.77-2.22-15.54-5.32-22.76-3.38-7.87-9.47-15.07-18.24-16.79a23.52,23.52,0,0,0-12.79,1c-.26.09-.51.21-.76.32a2.52,2.52,0,0,0-.9,3.42,2.56,2.56,0,0,0,3.42.89Z"/><path class="cls-1" d="M143,259.82a36,36,0,0,0-4.67-5.12,69,69,0,0,0-14.21-10.11,89.39,89.39,0,0,0-25.07-8.9,126.06,126.06,0,0,0-37-1.5q-5.77.57-11.51,1.52a3,3,0,0,0-2.69,2.09,11.06,11.06,0,0,0-.35,2.87c-.05,4.69,1.73,9.34,3.75,13.48,4.4,9,11.07,16.9,17.94,24.1q3.84,4,7.93,7.84c1.48,1.4,3,2.78,4.51,4.14,1.23,1.09,2.19,2.21,4,1.95,1.53-.23,3-.53,4.55-.83a135.22,135.22,0,0,0,23.18-6.83c9.32-3.72,18.75-8.65,25.47-16.29a35.68,35.68,0,0,0,4.25-5.89c1.59-2.79-2.72-5.32-4.32-2.52a36,36,0,0,1-9.75,10.65A72.54,72.54,0,0,1,115,278.42a128.52,128.52,0,0,1-25.38,7.93c-1.8.38-3.61.74-5.43,1l2.43.64c-10.8-9.51-21.54-19.89-28.88-32.3a58.51,58.51,0,0,1-2.9-5.55l-.27-.64c-.12-.26.09.21.09.21s-.09-.2-.13-.3c-.15-.4-.31-.79-.46-1.18-.26-.72-.51-1.44-.72-2.17-.34-1.15-.55-2.31-.78-3.48-.06-.33.08.73,0,.19,0-.11,0-.21,0-.32l-.06-.72c0-.38,0-.76,0-1.13s0-.68.05-1c0-.64-.12.59,0,.21,0-.1,0-.2.06-.3a3.65,3.65,0,0,1,.14-.57L51,240.68c19.31-3.27,39.5-3.39,58.18,2.85,1.64.54,3.26,1.14,4.86,1.78,1,.42.94.38,1.88.79.78.35,1.56.7,2.33,1.08a73.6,73.6,0,0,1,7.59,4.17c1,.66,2.06,1.34,3.06,2.05l1.44,1,.62.47c.42.32-.36-.28-.09-.06l.41.32q2.15,1.7,4.13,3.6c1,.93,1.9,1.9,2.77,2.91l.69.84c.24.29-.5-.68-.14-.18a2.57,2.57,0,0,0,3.42.9A2.52,2.52,0,0,0,143,259.82Z"/><path class="cls-1" d="M224.76,219.2a108.74,108.74,0,0,1,10.37,15.9,42.83,42.83,0,0,1,4.4,12c.86,4.88.13,10.2-4,13.44-3.17,2.52-7.5,3.32-11.46,3a14.92,14.92,0,0,1-4.84-1.12c-2-.87-2.93-2.43-4-4.28a73,73,0,0,1-5.58-14.48c-.83-2.81-1.61-5.64-2.26-8.5-.18-.78-1.38-.45-1.2.34a102.86,102.86,0,0,0,7,21.32c1.08,2.27,2.3,4.94,4.57,6.26a13.8,13.8,0,0,0,4.93,1.56,18.76,18.76,0,0,0,12.41-2.31c4.36-2.73,6.21-7.56,5.94-12.57a35.3,35.3,0,0,0-3.62-12.77,99.72,99.72,0,0,0-11.63-18.48c-.48-.63-1.57,0-1.08.63Z"/><path class="cls-1" d="M200.58,243.48a55.75,55.75,0,0,1,6.89,6.68c3.49,4,7.22,9,7.44,14.49.27,6.8-6.52,11.2-12.44,12.65a8.67,8.67,0,0,1-7.26-1,12,12,0,0,1-3.85-5.54c-1.74-4.55-1.92-9.37-2.56-14.13-.1-.79-1.35-.8-1.25,0,1,7.76,1.45,22.82,12.64,22.3A20.53,20.53,0,0,0,210.42,275a12.68,12.68,0,0,0,5.45-7.3c1.35-5.71-2-11.46-5.36-15.8a54.49,54.49,0,0,0-9-9.29c-.62-.5-1.51.38-.88.88Z"/><path class="cls-1" d="M180.59,263.42a33.65,33.65,0,0,1,5.9,4.07c2.9,2.45,6.15,5.88,6.11,9.95a8.82,8.82,0,0,1-3,6,27.4,27.4,0,0,1-9.48,5.7c-4.63,1.73-9.84,2.06-14.15-.68a13.25,13.25,0,0,1-4.73-5.1c-.35-.73-1.43-.09-1.08.63a14.25,14.25,0,0,0,4.35,5c4.05,3,9.22,3.37,14,2a31.08,31.08,0,0,0,10.21-5.14,12.61,12.61,0,0,0,4.82-6.33c1.21-4.31-1.44-8.38-4.36-11.3a34.42,34.42,0,0,0-8-5.92c-.71-.38-1.34.7-.63,1.08Z"/><path class="cls-1" d="M244.89,286.75a43.87,43.87,0,0,0,.29-10.86c-.51-5.07-2.22-11.27-7.7-12.95-3.47-1.07-7.27,0-10.49,1.36-4,1.71-8.11,4.19-10.32,8.12-3.74,6.6-.45,14.37,3.38,20.11A60.64,60.64,0,0,0,231.11,305c.6.52,1.49-.36.88-.88a62.5,62.5,0,0,1-8.71-9.25c-4-5.13-8.37-12.2-6.67-19,1-3.87,3.94-6.71,7.3-8.66s7.41-3.71,11.36-3.43c5.66.41,7.83,6,8.52,10.91a43.3,43.3,0,0,1-.1,11.72c-.13.79,1.08,1.13,1.2.33Z"/><path class="cls-1" d="M218,312.05a50.93,50.93,0,0,0,.76-11.63c-.26-6-1.61-13-6.62-16.94a14.84,14.84,0,0,0-10-2.85c-3.5.15-7.48.94-9.95,3.63-4.5,4.9-1.62,12.75.79,17.92a70.64,70.64,0,0,0,8.44,13.73c.49.63,1.37-.26.88-.88l-.08-.1-.49-.66q-.82-1.12-1.62-2.28a78.72,78.72,0,0,1-4.47-7.3,41.6,41.6,0,0,1-3.86-9.31c-.7-2.7-1.1-5.81.11-8.43,1.37-3,4.55-4.29,7.63-4.81,3.56-.59,7.47-.39,10.63,1.5,5.26,3.15,6.85,9.84,7.26,15.53a49.34,49.34,0,0,1-.64,12.55c-.15.79,1.06,1.12,1.2.33Z"/><path class="cls-1" d="M186.61,315.64a51,51,0,0,0,2.54-8.45c.88-4.14,1.69-9.51-.74-13.3a7.12,7.12,0,0,0-5.22-3.16,14.23,14.23,0,0,0-4.22.15,14.11,14.11,0,0,1-3.78.59c-3.24-.33-7.17-.72-10.24.61-2,.88-1.6,3.55-1.33,5.34.84,5.56,2.89,11.06,5,16.27.29.74,1.5.41,1.2-.33a101.83,101.83,0,0,1-4.31-13.06,27.79,27.79,0,0,1-.76-4.05,4.72,4.72,0,0,1,.17-2.61c.59-.94,2.75-1,3.72-1.08a33.12,33.12,0,0,1,5.27.05,8.76,8.76,0,0,0,2.65.11,23.57,23.57,0,0,1,4.79-.84A6.83,6.83,0,0,1,187,294c2.62,3.19,1.87,8.42,1.14,12.13a50.32,50.32,0,0,1-2.68,9.18c-.31.75.9,1.07,1.2.34Z"/><path class="cls-1" d="M232.26,245.33c0,3.77-1.74,7.86-5.34,9.55s-7.28-.06-9.27-3.13a12.17,12.17,0,0,1-.72-11.57c1.58-3.3,5-5.81,8.78-4.84,4.35,1.13,6.49,5.84,6.55,10a.63.63,0,0,0,1.25,0c-.06-4.34-2.12-9-6.32-10.79-3.93-1.68-8.13.12-10.46,3.5a13.38,13.38,0,0,0-.81,13.2c1.82,3.67,5.69,6.26,9.87,5.34,5-1.12,7.66-6.48,7.72-11.25A.63.63,0,0,0,232.26,245.33Z"/><path class="cls-1" d="M176.81,132.45a27.93,27.93,0,0,0,.94,10.13A32.6,32.6,0,0,0,190.64,161a48.49,48.49,0,0,0,17.74,7.38c2.35.52,3.36-3.1,1-3.62-9.17-2-18.46-6.18-23.88-14.07a27,27,0,0,1-3.94-8.35,25.07,25.07,0,0,1-1.07-6.55,19.39,19.39,0,0,1,.07-3.32,1.88,1.88,0,0,0-3.75,0Z"/><path class="cls-1" d="M162.14,132.45a18.61,18.61,0,0,1,.09,2.69c0,1-.1,1.89-.2,2.84,0,.13,0,.27-.05.41.06-.52,0,0,0,.06,0,.29-.09.58-.14.88-.12.67-.26,1.34-.43,2a28.45,28.45,0,0,1-11.23,16.4,45.68,45.68,0,0,1-16.84,7c-2.36.52-1.36,4.14,1,3.62,10-2.2,19.72-6.84,25.81-15.35A32.29,32.29,0,0,0,166,136a19.94,19.94,0,0,0-.06-3.54,1.94,1.94,0,0,0-1.88-1.87,1.88,1.88,0,0,0-1.87,1.87Z"/><path class="cls-1" d="M150.29,145.46a78.35,78.35,0,0,1-12.08-21.12c-1.21-3.31-1.72-7.23-3.87-10.1-2.39-3.2-6.17-3.61-9.89-3.49A125,125,0,0,1,76.54,103a113.53,113.53,0,0,1-11-4.81c-1.82-.91-3.63-1.87-5.4-2.87a11.11,11.11,0,0,0-5.35-1.92,4.58,4.58,0,0,0-4.33,3.13,6.56,6.56,0,0,0,1.1,5.54,49.48,49.48,0,0,0,7,8.38A61.76,61.76,0,0,0,101,127.64a63.79,63.79,0,0,0,12.49-1.13c2-.38,4-.93,6-1.41a9.07,9.07,0,0,1,5.89.08,13.54,13.54,0,0,1,4.11,3.26c1.45,1.52,2.86,3.09,4.29,4.64L143,143l4.68,5.07c1.64,1.78,4.28-.88,2.65-2.65-5.88-6.37-11.72-12.77-17.63-19.12-2.42-2.6-5.15-5-8.83-5.39-4-.43-8.12,1.38-12,2.07a59.11,59.11,0,0,1-43.59-9.43,54.79,54.79,0,0,1-7.94-6.73q-1.78-1.83-3.39-3.81c-1-1.23-2.6-2.88-2.89-4.47-.35-1.93,1.7-1.33,2.77-.8,1.74.87,3.4,1.9,5.12,2.8q5.19,2.69,10.6,4.87a125.84,125.84,0,0,0,45.61,9.14q3,0,6-.08a14.71,14.71,0,0,1,5,.34c3.16,1,3.67,4.86,4.52,7.6a77.43,77.43,0,0,0,10.57,21c1.1,1.59,2.27,3.13,3.46,4.64a1.88,1.88,0,0,0,2.65,0A1.92,1.92,0,0,0,150.29,145.46Z"/><path class="cls-1" d="M210.26,156.32a79.2,79.2,0,0,0,11.48-19.94c.69-1.73,1.3-3.49,1.85-5.27a34.82,34.82,0,0,1,1.51-4.67,5.09,5.09,0,0,1,3-2.93,15.62,15.62,0,0,1,5.24-.34,126.21,126.21,0,0,0,46-7q5.52-2,10.84-4.4c3.5-1.61,6.8-3.59,10.24-5.3,1.08-.54,3.12-1.13,2.77.79-.29,1.59-1.91,3.25-2.9,4.48a55.1,55.1,0,0,1-7.29,7.44,58.45,58.45,0,0,1-41.81,13.24,68.12,68.12,0,0,1-11.84-2.08c-3.88-1-7.7-1.17-11.1,1.26-3.1,2.21-5.55,5.37-8.09,8.17-2.79,3.09-5.57,6.2-8.36,9.29l-4.23,4.64c-1.64,1.77,1,4.43,2.65,2.65,5.86-6.37,11.48-13,17.45-19.23a13.78,13.78,0,0,1,4.1-3.26,9.1,9.1,0,0,1,5.9-.07,88.29,88.29,0,0,0,12.39,2.29,62.38,62.38,0,0,0,44.53-13.36,55.94,55.94,0,0,0,7.73-7.58c2.19-2.6,5.62-6.17,4.4-9.88a4.57,4.57,0,0,0-4.32-3.13c-2,0-3.84,1.06-5.54,2a115.09,115.09,0,0,1-10.78,5.37,121.56,121.56,0,0,1-47.44,10c-2,0-4,0-5.93-.1a17.27,17.27,0,0,0-5.64.49c-3.6,1.12-5.33,4.22-6.37,7.62a88.36,88.36,0,0,1-3.85,10.8,75.53,75.53,0,0,1-5.74,10.43c-1.12,1.69-2.29,3.34-3.54,4.93a1.93,1.93,0,0,0,0,2.65A1.89,1.89,0,0,0,210.26,156.32Z"/><path class="cls-1" d="M255,285.12c.2.41.39.82.56,1.24-.16-.4,0,.07.09.21s.18.47.26.71a24.07,24.07,0,0,1,.77,2.5c.21.8.36,1.61.49,2.43,0,.15,0-.41,0,.1,0,.19,0,.38.05.57,0,.41.06.82.07,1.23a22.27,22.27,0,0,1-.06,2.31l-.06.54c0,.52,0-.09,0,.06-.06.39-.13.77-.21,1.16a20.36,20.36,0,0,1-.57,2.17q-.17.51-.36,1c-.06.17-.13.34-.2.51s.08-.18.08-.18-.09.22-.15.33a26.09,26.09,0,0,1-2.33,4.07l-.33.46c-.05.07-.4.53-.2.28s-.16.2-.22.27-.28.35-.43.52c-.52.63-1.08,1.23-1.65,1.81a38.31,38.31,0,0,1-3.8,3.39l-.16.12-.51.38-1.13.81c-.75.51-1.51,1-2.29,1.49q-2.41,1.47-4.95,2.72c-.88.44-1.76.85-2.65,1.24l-.65.28a1.39,1.39,0,0,1-.28.12l-1.44.59A88.17,88.17,0,0,1,221,324.23a92.91,92.91,0,0,1-24.76,2.49c-2-.07-4.06-.21-6.08-.44l-1.42-.17-.28,0-.81-.12c-1-.16-1.92-.33-2.87-.52a55.09,55.09,0,0,1-5.49-1.38c-.87-.26-1.73-.55-2.59-.86l-1.2-.46-.59-.24c-.27-.11.08,0,.11,0l-.39-.17a37.66,37.66,0,0,1-4.54-2.37c-.7-.43-1.39-.89-2-1.37l-.47-.35-.11-.09c-.32-.26-.65-.53-1-.8s-.58-.5-.84-.77a3.4,3.4,0,0,1-.29-.33s0-.11,0-.15,0-.24.29-.39c-.31.18-.08,0,.06,0-.25-.07.38.05.47.06,3.49.39,7,1,10.46,1.34,10.83,1.1,21.86,1.24,32.61-.69a56.15,56.15,0,0,0,21-7.89,40.89,40.89,0,0,0,12.17-12.26,45.2,45.2,0,0,0,5.47-12.87,77.39,77.39,0,0,0,1.82-10.7c.07-.6.13-1.19.2-1.79.11-.87-.09.55,0-.14,0-.21.07-.43.11-.64a32.09,32.09,0,0,0,.52-3.92,111.85,111.85,0,0,0-3.66-33.39c-1.54-5.18-3.8-10.92-8-14.51-4.57-3.84-10.18-3.87-15.41-1.36-9,4.33-15,13.34-21.22,20.79a198.23,198.23,0,0,1-13.6,14.94c-1.89,1.84-3.82,3.64-5.82,5.37-.88.76-1.78,1.51-2.69,2.24s-1.27,1-2.24,1.73a55.38,55.38,0,0,1-8.76,5.39l-.9.41-.45.2c-.38.17.48-.18,0,0s-1.13.44-1.71.64a24.92,24.92,0,0,1-3.05.81l-.66.12c-.72.13.51,0-.12,0-.4,0-.8.08-1.2.09-.71,0-1.4,0-2.11-.07-.3,0,.77.14.18,0l-.43-.08c-.25,0-.49-.11-.74-.18l-.62-.2c-.71-.24.48.26,0,0l-.69-.37c-.49-.27-.1-.08.18.16-2.46-2-5.79,1.14-3.54,3.53a20.64,20.64,0,0,1,4.92,7.58,9.75,9.75,0,0,1,.54,3.07,12,12,0,0,1-.06,1.47c0-.42,0,.13-.05.27s-.11.52-.17.79c-.13.47-.28.93-.45,1.39s.11-.22-.09.21c-.12.22-.22.45-.34.67-.22.4-.45.8-.7,1.18l-.35.5-.18.25c-.22.3.25-.31,0,0a23.38,23.38,0,0,1-3.21,3.16c-.14.11.46-.34.07-.07l-.3.22c-.18.14-.37.27-.56.39a7.82,7.82,0,0,1-.68.43l-.05,0c.42-.21-.35.08-.47.13-.9.3-1.82.57-2.74.8a31.59,31.59,0,0,1-5.1.86,37.69,37.69,0,0,1-18.58-3.56,61.82,61.82,0,0,1-15.25-10.15c-2.4-2.14-5.94,1.38-3.54,3.53,9.88,8.8,22.56,15.83,36.16,15.25a40.19,40.19,0,0,0,6-.73,23.59,23.59,0,0,0,6.05-1.81,11.43,11.43,0,0,0,1.66-1.11A19.78,19.78,0,0,0,163,288c2.38-7-1.48-13.89-6.2-18.9l-3.54,3.53a10.09,10.09,0,0,0,5.11,2c4.25.57,8.46-.7,12.31-2.4,7.44-3.31,13.94-8.78,19.8-14.34a182.66,182.66,0,0,0,13.26-14.14c4.23-5,8.07-10.32,12.64-15a51.28,51.28,0,0,1,4.93-4.5l0,0,.27-.21.54-.39c.37-.27.76-.54,1.14-.79a23,23,0,0,1,2.2-1.29c.32-.17.64-.32,1-.48s.42-.17,0,0l.54-.21a15.69,15.69,0,0,1,1.89-.55c.28-.07.57-.11.86-.16-.75.14.15,0,.45,0s.54,0,.81,0,1,.08.59,0,.32.06.49.1.53.13.79.21l.71.26c-.73-.25,0,0,.32.18.47.25.9.56,1.35.85.12.08-.45-.38-.09-.07l.3.25c.22.19.44.39.64.59.43.43.82.88,1.21,1.34.23.26.16.21,0-.06.08.12.17.24.26.35s.37.53.54.79a27.79,27.79,0,0,1,1.94,3.5l.41.9c.12.27.16.39,0,0,.07.19.15.37.22.55.27.67.52,1.35.75,2,.5,1.45.94,2.93,1.32,4.41a88.88,88.88,0,0,1,1.84,9.3c0,.37.11.74.16,1.11-.09-.65.06.49.09.73.09.79.18,1.58.26,2.38.16,1.47.28,2.95.38,4.43.17,2.63.27,5.27.26,7.91,0,1.83-.06,3.64-.24,5.46-.07.69,0-.16,0-.16s0,.37-.06.41c0,.2-.09.41-.13.62-.11.52-.18,1-.25,1.58-.18,1.36-.32,2.72-.49,4.08,0,.35-.22,1.57-.07.57-.06.41-.11.81-.17,1.22-.13.89-.29,1.78-.46,2.67a51.93,51.93,0,0,1-1.47,5.87c-.33,1.06-.71,2.11-1.12,3.15-.1.26-.4.95-.11.28-.12.27-.23.55-.35.82-.24.53-.49,1.05-.75,1.57-.55,1.1-1.16,2.17-1.81,3.21-.33.53-.67,1.05-1,1.56-.19.27-.38.54-.58.8l-.27.37c-.34.45.22-.27,0,0a39.87,39.87,0,0,1-5.81,5.88l-.41.33c-.39.31.06,0-.06,0q-.47.36-.93.69c-.65.47-1.31.91-2,1.34A43.1,43.1,0,0,1,222.8,307c-.4.2-.8.39-1.21.57l-.57.26-.28.12c-.83.34-1.68.67-2.54,1q-2.8,1-5.7,1.71c-9.7,2.41-19.81,2.65-30,2-3.29-.22-6.58-.54-9.85-.94-1.66-.21-3.3-.44-4.95-.69s-3.36-.42-4.9.61a5.46,5.46,0,0,0-1.06,8.14,24,24,0,0,0,4.22,3.49c6.08,4.25,13.52,6.47,20.79,7.56a91.71,91.71,0,0,0,26,0,92.71,92.71,0,0,0,24.62-6.78c6.71-2.93,13.31-6.94,18.16-12.52,4.43-5.09,7.26-11.52,6.78-18.36a29.53,29.53,0,0,0-2.94-10.57,2.52,2.52,0,0,0-3.42-.9,2.56,2.56,0,0,0-.9,3.42Z"/><rect class="cls-2" width="340.16" height="425.2"/></svg>