<svg id="Capa_1" data-name="Capa 1" xmlns="http://www.w3.org/2000/svg" viewBox="0 0 340.16 425.2"><defs><style>.cls-1{fill:#1d1d1b;}.cls-2{fill:none;stroke:#fff;stroke-miterlimit:10;}</style></defs><title>personajes</title><path class="cls-1" d="M170.26,124.46c-21.93.23-43.69,5.08-62.89,15.92C90.54,149.87,75.78,164,67.63,181.7a73.32,73.32,0,0,0-2.87,54.71c6.41,18.35,19.68,33.47,35.71,44.17,18.06,12.05,39.56,18.52,61.14,19.88a131.12,131.12,0,0,0,64.7-12.16c17.68-8.47,33.55-21.68,43.35-38.82a74,74,0,0,0,7.86-54.29c-4.62-18.68-16.61-34.69-31.7-46.32-16.95-13.07-37.61-20.68-58.74-23.35a135.17,135.17,0,0,0-16.82-1.06c-3.22,0-3.22,5,0,5,21.15,0,42.39,5,60.81,15.57,16,9.17,29.78,22.56,37.48,39.47a68.15,68.15,0,0,1,2,51.15C264.43,252.8,251.5,267.1,236.26,277c-17.42,11.31-38,17.41-58.65,18.53C156.53,296.68,135,293,116,283.68,99.12,275.49,84.06,263,74.8,246.55a68.67,68.67,0,0,1-6.91-50.92c4.55-17.39,15.91-32.45,30.23-43.24,16.29-12.28,36.1-19.63,56.3-22a149.59,149.59,0,0,1,15.84-.92C173.48,129.43,173.48,124.43,170.26,124.46Z"/><path class="cls-1" d="M180.87,256.33c0,5.39-2,11.87-7,14.62-4.63,2.52-9.36-.45-11.76-4.55a20.22,20.22,0,0,1-2.55-10.07,1.25,1.25,0,0,0-2.5,0c.05,6.34,2.51,14,8.62,17,5.7,2.79,11.56-.31,14.66-5.36a22.7,22.7,0,0,0,3.05-11.61,1.25,1.25,0,0,0-2.5,0Z"/><path class="cls-1" d="M71.78,242.42a79.6,79.6,0,0,1-31.3-42.64A63.59,63.59,0,0,1,38,185l-2.82,1.62a42,42,0,0,0,24.59,3.07,42.09,42.09,0,0,0,5.95-1.39,21.59,21.59,0,0,0,2.83-1c.44-.2,0-.12.1-.15a5.35,5.35,0,0,1,1.2,0h46.51l27.66,0c4.7,0,9.45.18,14.15,0h.21a1.93,1.93,0,0,0,1.87-1.88c.71-5.41,1.49-10.81,2.5-16.18a92.24,92.24,0,0,1,4.81-17.75,21.79,21.79,0,0,1,3.87-6.62c1.65-1.76-1-4.42-2.65-2.65-3.76,4-5.62,9.75-7.09,15a155.57,155.57,0,0,0-3.92,19.13c-.46,3-.87,6.07-1.27,9.11l1.88-1.87H120.43l-29.28,0h-22a6.38,6.38,0,0,0-2.38.57,40.6,40.6,0,0,1-24.18,1.4,31.49,31.49,0,0,1-5.56-2A1.9,1.9,0,0,0,34.22,185c.9,19.08,10.18,37.16,23.52,50.58a83.76,83.76,0,0,0,12.15,10.09c2,1.37,3.88-1.88,1.89-3.23Z"/><path class="cls-1" d="M270.27,245.65c15.56-10.62,27.74-26.72,33-44.88A68.7,68.7,0,0,0,305.94,185a1.9,1.9,0,0,0-2.83-1.62c-7.35,3.47-16,4-23.91,2.28a40.89,40.89,0,0,1-5.83-1.69,6.35,6.35,0,0,0-1.89-.57c-.46,0-.92,0-1.38,0H223.45l-27.38,0H186.6a38.88,38.88,0,0,0-4.58,0h-.21l1.88,1.87c-.77-5.8-1.58-11.59-2.67-17.34a90.57,90.57,0,0,0-5.19-18.58A24.48,24.48,0,0,0,171.4,142c-1.64-1.77-4.29.88-2.65,2.65,3.36,3.61,5,9.08,6.27,13.78a157,157,0,0,1,3.73,18.35c.43,2.8.82,5.61,1.19,8.42a1.92,1.92,0,0,0,1.87,1.88H220.1l29.46,0h19.63c.65,0,1.31,0,1.95,0a1.78,1.78,0,0,1,.4,0c.11,0-.1.08-.09.08,1,.34,2,.75,3,1.07a44.09,44.09,0,0,0,24.86.48A38.59,38.59,0,0,0,305,186.6L302.19,185c-.85,18.08-9.8,35.23-22.43,47.93a78,78,0,0,1-11.39,9.51c-2,1.35-.1,4.6,1.9,3.23Z"/><rect class="cls-2" width="340.16" height="425.2"/></svg>