<svg id="Capa_1" data-name="Capa 1" xmlns="http://www.w3.org/2000/svg" viewBox="0 0 340.16 425.2"><defs><style>.cls-1{fill:#1d1d1b;}.cls-2{fill:none;stroke:#fff;stroke-miterlimit:10;}</style></defs><title>personajes</title><path class="cls-1" d="M87.06,239.93c-4.91,11.47-8.61,23.52-9.87,36-1.21,11.87-.35,25.07,5.56,35.7a32.14,32.14,0,0,0,12.53,12.77c1.13.62,3-.12,2.82-1.61L96.2,306l-3.49.95a229.68,229.68,0,0,0,18.2,21.8,1.89,1.89,0,0,0,3.2-1.33c0-2,.16-4.07.29-6.11.06-.86.12-1.72.19-2.57,0-.34.06-.67.1-1,0-.1,0-.06-.15.3l-1.12.86h0l-1.44-.19c3.57,2.36,7.13,4.73,10.67,7.15,2,1.37,3.87-1.88,1.89-3.24s-3.69-2.5-5.54-3.74l-3.57-2.38c-1.19-.78-2.8-2.07-4-.54-.85,1.09-.65,3.27-.74,4.58-.16,2.29-.29,4.59-.35,6.89l3.2-1.32a220.92,220.92,0,0,1-17.61-21,2,2,0,0,0-2.12-.87A1.89,1.89,0,0,0,92.45,306l1.9,16.78,2.83-1.62c-9.61-5.22-14.31-15.7-15.9-26.08-1.77-11.51-.42-23.32,2.53-34.52a136,136,0,0,1,6.49-18.73,2,2,0,0,0-.67-2.57,1.89,1.89,0,0,0-2.57.68Z"/><path class="cls-1" d="M253.88,240.87V154.19c0-1.54,0-3.08-.06-4.62a103.89,103.89,0,0,0-1.56-13.28,102.73,102.73,0,0,0-5.43-19.4A85,85,0,0,0,234.49,95.1a69.63,69.63,0,0,0-21.32-18c-10.27-5.58-21.72-8.48-33.32-9.49-12.8-1.11-26.09-.23-38.44,3.48a73.14,73.14,0,0,0-27,14.68,74.25,74.25,0,0,0-16.22,20.36,95.5,95.5,0,0,0-8.45,21.33,110.25,110.25,0,0,0-3.13,17.09,70,70,0,0,0-.46,7.24c0,3.47,0,6.95,0,10.42v78.64a2.54,2.54,0,0,0,2.5,2.5H231.39c6.56,0,13.16.2,19.73,0h.26a2.53,2.53,0,0,0,2.5-2.5h0c0-3.21-5-3.22-5,0h0l2.5-2.5h-156c-2.11,0-4.28-.15-6.39,0h-.27l2.5,2.5V154.6c0-1.56,0-3.11,0-4.67s.19-3.26.36-4.89c.11-1.13.25-2.25.39-3.37-.11.83,0,0,0-.33l.15-1c.1-.65.2-1.3.32-1.94a103.35,103.35,0,0,1,5.12-19c.33-.88.68-1.76,1-2.63,0-.11.37-.87.11-.28l.27-.62c.19-.44.38-.88.58-1.32.82-1.8,1.69-3.57,2.63-5.31s2-3.55,3.11-5.26c.56-.88,1.14-1.74,1.74-2.59l.86-1.2.51-.68.25-.33a68.11,68.11,0,0,1,8.92-9.52c.86-.75,1.73-1.49,2.63-2.2.52-.41.4-.32,1.06-.81l1.42-1a67,67,0,0,1,6.13-3.85,79.1,79.1,0,0,1,31.34-9.1c12.57-1.09,25.32-.28,37.37,3.38a66.94,66.94,0,0,1,14,6,62,62,0,0,1,11.06,7.88c1.67,1.48,3.25,3,4.76,4.67.74.8,1.46,1.62,2.16,2.45l1,1.24.46.59.27.34c-.15-.19-.15-.19,0,0A76.7,76.7,0,0,1,238,109.56c.93,1.73,1.8,3.51,2.6,5.3.19.41.37.83.54,1.24l.15.35s-.17-.42-.06-.16.22.53.32.79c.35.84.68,1.69,1,2.54a98.77,98.77,0,0,1,3.17,10.07c.76,2.94,1.39,5.91,1.9,8.89.11.67.21,1.33.32,2,0,.32.09.63.13.95l.06.44c.06.39-.08-.66,0-.06.14,1.11.27,2.22.38,3.34.21,2.18.37,4.38.38,6.58,0,3.69,0,7.39,0,11.08v78C248.88,244.09,253.88,244.1,253.88,240.87Z"/><path class="cls-1" d="M88.68,219.28c3.22,0,3.23-5,0-5s-3.22,5,0,5Z"/><path class="cls-1" d="M187,225c-.1,4.94-7.11,7.24-11.06,8-6.19,1.24-13.61.7-19.06-2.75-1.68-1.06-3.42-2.64-3.72-4.71-.27-1.83.88-3.55,2.3-4.82,4.62-4.1,12.13-4.76,18-4.17a22.85,22.85,0,0,1,9.66,3c1.93,1.2,3.84,3,3.89,5.38s3.8,2.41,3.75,0c-.14-6.88-7.86-10.42-13.62-11.62-7.41-1.53-16.58-.95-22.91,3.6-2.29,1.66-4.3,3.91-4.74,6.8a9,9,0,0,0,2.91,7.72c5.43,5.29,14.47,6.46,21.67,5.59,6.52-.78,16.53-4,16.69-12.09C190.77,222.61,187,222.61,187,225Z"/><path class="cls-1" d="M127.54,228.4c-.09,3-4.67,4.38-7.08,4.86-4,.8-8.75.45-12.28-1.71-2.39-1.46-3.24-3.67-1-5.63,3-2.58,7.77-3,11.54-2.64,2.72.26,8.66,1.59,8.77,5.12.07,2.4,3.82,2.41,3.75,0-.15-5-5.41-7.56-9.64-8.45-5.23-1.1-11.67-.67-16.13,2.57a7.82,7.82,0,0,0-3.39,4.9,6.71,6.71,0,0,0,2.13,5.82c3.8,3.7,10.08,4.55,15.12,4,4.82-.57,11.73-3,11.91-8.8C131.36,226,127.61,226,127.54,228.4Z"/><path class="cls-1" d="M233.92,228.4c-.09,3-4.67,4.38-7.08,4.86-4,.8-8.75.45-12.28-1.71-2.39-1.46-3.24-3.67-.95-5.63,3-2.58,7.77-3,11.54-2.64,2.72.26,8.66,1.59,8.77,5.12.07,2.4,3.82,2.41,3.75,0-.15-5-5.41-7.56-9.64-8.45-5.23-1.1-11.67-.67-16.13,2.57a7.82,7.82,0,0,0-3.39,4.9,6.71,6.71,0,0,0,2.13,5.82c3.8,3.7,10.08,4.55,15.12,4,4.82-.57,11.74-3,11.91-8.8C237.74,226,234,226,233.92,228.4Z"/><path class="cls-1" d="M250.06,182.05a18.07,18.07,0,0,1-5.47,3.68,28,28,0,0,1-3.2,1.19,38.84,38.84,0,0,1-3.83.93,54.53,54.53,0,0,1-17.62,0c-13.26-2-26.59-7.49-36.44-16.74a41,41,0,0,1-11.66-18.47,1.89,1.89,0,0,0-3.61,0c-3.73,13.06-14.45,22.55-26.28,28.41-11.32,5.6-24.94,8.75-37.49,7.07A33.77,33.77,0,0,1,96,186a19.37,19.37,0,0,1-6-3.92,1.87,1.87,0,0,0-2.65,2.65c3.75,3.75,8.92,5.77,14,6.74a58.78,58.78,0,0,0,19.45.1c14-2,28.08-8,38.46-17.83a44.63,44.63,0,0,0,12.52-20h-3.61c4,14.06,15.44,24.5,28.25,30.77,12.19,6,26.53,9.25,40.1,7.33,5.84-.82,11.87-2.82,16.13-7.08a1.87,1.87,0,0,0-2.65-2.65Z"/><path class="cls-1" d="M250.06,202.42c-3.33,3.33-8,5.7-12.5,7.31a66.06,66.06,0,0,1-17.86,3.59c-12.48.83-26-1.19-36.38-8.7a30.65,30.65,0,0,1-11.48-16.44,1.89,1.89,0,0,0-3.61,0,30.76,30.76,0,0,1-9.84,15.16,42.19,42.19,0,0,1-16.24,8,68.39,68.39,0,0,1-37.55-.95A44.26,44.26,0,0,1,96.28,207,25.34,25.34,0,0,1,90,202.42a1.87,1.87,0,0,0-2.65,2.65c3.87,3.88,8.94,6.41,14,8.24a70,70,0,0,0,19.21,3.78c13.18.83,27.73-1.5,38.51-9.59a34.73,34.73,0,0,0,12.71-18.32h-3.61a34.13,34.13,0,0,0,10.71,16.73,46.1,46.1,0,0,0,17.74,9,72.09,72.09,0,0,0,39.9-.92c5.84-1.84,11.75-4.55,16.13-8.94a1.87,1.87,0,0,0-2.65-2.65Z"/><path class="cls-1" d="M168.16,69.72c.11,3.72,0,7.47-.27,11.19q-.36,6-1.09,11.92l-.12.88c0,.14-.12.9-.06.48l-.24,1.73q-.25,1.74-.54,3.48c-.42,2.47-.88,4.94-1.41,7.4-2.27,10.5-5.53,20.63-10.68,29.87S141.48,154.09,132,159.08a47.31,47.31,0,0,1-16,4.94,67.81,67.81,0,0,1-20.84-1c-2-.38-4-.83-5.91-1.33-2.34-.6-3.33,3-1,3.61,13.45,3.46,28.14,4.39,41.23-1,10.58-4.33,19-12.19,25.14-21.73,6-9.27,9.84-19.83,12.49-30.49a171.93,171.93,0,0,0,4.4-28.27,112.24,112.24,0,0,0,.47-14v-.2c-.07-2.41-3.82-2.42-3.75,0Z"/><path class="cls-1" d="M168.18,69.72c-.12,3.85.06,7.72.29,11.56a177.25,177.25,0,0,0,3.71,27.15c2.35,10.69,5.86,21.28,11.3,30.81s13.26,18.26,23.28,23.35c12.11,6.16,26,6.63,39.1,4.12q3-.59,6-1.37c2.34-.6,1.35-4.22-1-3.61-13,3.34-26.9,4.18-39.43-1-9.68-4.05-17.58-11.75-23.17-20.66-5.73-9.15-9.27-19.06-11.82-29.6-1.17-4.81-2.08-9.68-2.79-14.58-.08-.55-.16-1.1-.23-1.65.05.42-.05-.34-.07-.48l-.12-1c-.13-1.09-.26-2.18-.37-3.27-.22-2-.39-4-.54-6-.33-4.53-.32-9-.45-13.57,0-.07,0-.13,0-.19.07-2.42-3.68-2.42-3.75,0Z"/><path class="cls-1" d="M137.32,75a50.21,50.21,0,0,1,1.22,6c0,.21.06.43.1.65s.12.86.08.59.05.38.06.52.07.57.11.86c.12,1.14.22,2.29.29,3.44a66.4,66.4,0,0,1,0,8,47,47,0,0,1-1.15,8.35c-.34,1.5-.74,3-1.22,4.44a36,36,0,0,1-1.62,4.11,35.15,35.15,0,0,1-13.2,15c-8.07,5.11-17.72,7.17-27.14,7.76-1.55.1-3.09.16-4.63.19-2.41,0-2.42,3.79,0,3.75,10.53-.2,21.36-1.83,30.78-6.79a39.6,39.6,0,0,0,16.12-15.51,48.33,48.33,0,0,0,5.59-18.65,67,67,0,0,0-.29-15.57,45.12,45.12,0,0,0-1.49-8l0-.12c-.66-2.31-4.28-1.33-3.62,1Z"/><path class="cls-1" d="M199.31,74a50.76,50.76,0,0,0-1.26,6.22,70.87,70.87,0,0,0-.73,15.33A50.55,50.55,0,0,0,202,114.16a39,39,0,0,0,14.53,16.11c8.55,5.34,18.74,7.49,28.68,8.14,1.6.1,3.2.17,4.8.2,2.41,0,2.41-3.71,0-3.75-10-.19-20.31-1.67-29.2-6.45A35.6,35.6,0,0,1,206.1,114a37.62,37.62,0,0,1-3.37-8.47c-.4-1.46-.73-2.94-1-4.43l-.18-1.1c0-.17-.05-.33-.08-.5s-.08-.62,0-.26c-.1-.72-.18-1.44-.25-2.16a64.64,64.64,0,0,1-.22-8.23c.05-1.22.12-2.43.23-3.64.05-.56.1-1.12.16-1.67,0-.27.06-.54.1-.8s.1-.84.07-.58.05-.39.07-.54.07-.47.11-.7l.21-1.31c.13-.74.27-1.48.43-2.21s.38-1.55.55-2.33l0-.1c.66-2.33-3-3.32-3.62-1Z"/><path class="cls-1" d="M218.56,243.37l.73,0,.37,0c.49,0-.53-.12-.18,0,.51.13,1,.2,1.54.35l.69.23.38.14c.49.17-.53-.26-.07,0s1,.5,1.54.79,1,.61,1.48.94l.73.54c-.63-.46.1.09.32.27a29.59,29.59,0,0,1,2.85,2.75c.48.52.94,1.06,1.38,1.61l.28.35c.27.33-.31-.42,0,0l.67.92a41.59,41.59,0,0,1,2.39,3.74c.75,1.32,1.44,2.68,2.06,4.06l.19.45c.23.51,0,0,0,.07.15.37.31.75.45,1.12q.41,1.06.75,2.13a39.83,39.83,0,0,1,1.18,4.41c.16.75.27,1.51.4,2.26.08.47-.06-.51,0,0,0,.18,0,.36.07.54,0,.39.07.77.1,1.16a28.45,28.45,0,0,1,0,4.33c0,.32-.06.64-.09,1-.05.58,0-.08,0,0l-.09.58q-.18,1.05-.45,2.07a18.6,18.6,0,0,1-.61,1.92l-.18.47c0,.07.24-.51,0,0-.14.31-.28.61-.43.91-.32.61-.67,1.21-1.05,1.79l-.54.76c-.25.34.35-.41,0,0l-.37.45a18.17,18.17,0,0,1-1.51,1.53l-.76.64c-.42.36.32-.22,0,0l-.51.37a21.18,21.18,0,0,1-1.93,1.18c-.35.18-.7.36-1.06.53l-.55.24c-.26.12.19-.08.19-.08l-.41.17a29.62,29.62,0,0,1-5.15,1.45c-.48.09-1,.17-1.45.24-.29,0,.1,0,.13,0l-.44,0-.88.1c-1.09.1-2.18.16-3.27.19a69,69,0,0,1-16-1.67c-1.61-.33-3.21-.71-4.81-1.1a2.51,2.51,0,0,0-2.43,4.17c1.82,1.92,3.5,4,5.13,6.07.19.24.66.85.2.25l.6.79c.4.52.79,1,1.17,1.57q1.26,1.73,2.46,3.51a84.56,84.56,0,0,1,4.77,8c.37.71.72,1.41,1,2.13.17.35.34.71.5,1.07s.6,1.41.31.71c.59,1.44,1.14,2.9,1.59,4.39a35.06,35.06,0,0,1,1.08,4.5c0,.17,0,.34.08.51.11.67,0-.3,0,.07s.09.78.12,1.17c.06.72.09,1.44.09,2.17s-.06,1.42-.12,2.13c0,.19-.14.86,0,0,0,.16,0,.32-.07.48-.07.37-.14.74-.22,1.11-.16.68-.36,1.36-.59,2l-.18.46c-.21.6.14-.26,0,.06s-.32.69-.49,1a17.1,17.1,0,0,1-1.14,1.88l-.31.42c-.35.5.25-.3,0,0s-.53.63-.81.94a22.91,22.91,0,0,1-1.81,1.74l-.46.37a2.88,2.88,0,0,1-.27.22l.17-.13c-.39.28-.77.56-1.16.82a27.94,27.94,0,0,1-2.53,1.49q-.61.33-1.26.63l-.75.35-.29.13c-.27.12.34-.14-.1,0A50.5,50.5,0,0,1,194,349.9a88.75,88.75,0,0,1-18.49,2.28,135.69,135.69,0,0,1-21.52-.82,58.14,58.14,0,0,1-15-3.75c.44.18-.14-.07-.28-.13s-.45-.2-.66-.31c-.49-.22-1-.47-1.44-.72A27.31,27.31,0,0,1,134.2,345l-1.08-.77c-.28-.2.36.29.1.07l-.21-.16-.58-.48A19.71,19.71,0,0,1,130.7,342c-.26-.29-.51-.59-.76-.88s.29.41,0,0c-.13-.18-.27-.36-.39-.55a15.53,15.53,0,0,1-1.12-1.88c-.17-.32-.31-.64-.46-1,0,0,.18.5,0,0-.07-.18-.14-.35-.2-.53a19.31,19.31,0,0,1-.6-2.1c-.08-.34-.14-.69-.2-1,0-.1-.1-.69,0-.22s0-.17,0-.3c-.07-.74-.11-1.47-.11-2.21s0-1.45.1-2.17c0-.36.07-.73.11-1.09,0-.05-.08.53,0,0l.09-.58a35.1,35.1,0,0,1,1.09-4.5c.23-.77.49-1.53.77-2.28q.18-.51.39-1c.1-.27.56-1.37.28-.72a81.18,81.18,0,0,1,9.26-15.82c.39-.54.79-1.08,1.2-1.61l.53-.69c-.55.71.12-.15.27-.34.66-.85,1.34-1.69,2-2.51.87-1,1.76-2.07,2.67-3.07.12-.13.24-.27.37-.4a2.51,2.51,0,0,0-2.43-4.17A85.11,85.11,0,0,1,126.26,293a50.22,50.22,0,0,1-6.83-.15l-.78-.09c-.17,0-.8-.11-.3,0-.52-.08-1-.16-1.56-.26-.91-.17-1.82-.38-2.71-.63s-1.7-.53-2.53-.85c-.26-.1-.44-.19,0,0l-.55-.25c-.39-.18-.77-.36-1.14-.56a21.18,21.18,0,0,1-1.93-1.18l-.45-.32c-.5-.35.29.24-.05,0l-.87-.74a18.4,18.4,0,0,1-1.45-1.48l-.33-.39c-.34-.39,0,0,0,0-.22-.29-.43-.58-.63-.88a17.71,17.71,0,0,1-1-1.73c-.15-.3-.29-.6-.43-.91s-.09-.23,0,.07c-.06-.17-.14-.35-.21-.53a21.91,21.91,0,0,1-1-4c0-.17,0-.34-.08-.51-.07-.43.06.62,0,0,0-.37-.08-.74-.11-1.11,0-.71-.07-1.41-.07-2.12s0-1.43.08-2.14c0-.36.06-.72.1-1.08,0-.18,0-.36.07-.55.06-.59-.09.5,0-.11a44.64,44.64,0,0,1,.92-4.43,43.82,43.82,0,0,1,1.4-4.29q.2-.53.42-1.05c.16-.41-.23.5,0-.07.08-.2.17-.39.25-.59.31-.68.63-1.36,1-2a44.39,44.39,0,0,1,2.24-3.91c.38-.61.79-1.21,1.21-1.79.2-.29.42-.57.63-.86s0,0,0,0,.24-.31.37-.46a33.49,33.49,0,0,1,2.72-3c.47-.45,1-.9,1.47-1.32.14-.12.79-.64.47-.39l.16-.12.42-.3a23.12,23.12,0,0,1,3-1.73c.45-.22-.5.17-.12,0l.37-.14c.25-.09.5-.18.75-.25.51-.15,1-.22,1.54-.35s-.62,0-.24,0l.37,0,.79,0c3.22,0,3.22-5,0-5-5.47,0-10.34,3.56-13.87,7.42a45.88,45.88,0,0,0-9.59,16.82c-2,6-2.76,12.79-1.07,19A21.22,21.22,0,0,0,110,295.73c9.27,3.76,20.19,2.5,29.71.55,1.73-.35,3.44-.75,5.14-1.17l-2.43-4.18c-1.9,2-3.65,4.16-5.35,6.34a93.81,93.81,0,0,0-10.12,15.6c-3,5.89-5.37,12.49-5.14,19.18a21.43,21.43,0,0,0,10,17.32,40.89,40.89,0,0,0,12.9,5.32,96.31,96.31,0,0,0,20,2.49,135.64,135.64,0,0,0,22-.87,62.36,62.36,0,0,0,16.09-4c6.94-2.9,13.13-7.92,15-15.5,1.59-6.39.13-13.16-2.3-19.13a80.59,80.59,0,0,0-9.65-16.93,106.08,106.08,0,0,0-7.62-9.43q-.18-.21-.39-.42l-2.43,4.18c10.3,2.57,21.93,4.56,32.36,1.49,6.74-2,12.2-6.4,14.76-13,2.29-5.91,1.83-12.71.24-18.73a47,47,0,0,0-8.87-17.45c-3.27-4-7.8-8-13.11-8.84a14,14,0,0,0-2.14-.19c-3.22,0-3.22,5,0,5Z"/><path class="cls-1" d="M85.14,251.61a48.32,48.32,0,0,0-12.32-7.14,20.56,20.56,0,0,0-10.08-1.65,11.51,11.51,0,0,0-8.55,5.77C51.31,253.5,51,259.72,51,265.27a44,44,0,0,0,2.73,16.23,27.08,27.08,0,0,0,15.12,15.4,28,28,0,0,0,11.54,2.18h.19c1.6-.09,1.61-2.59,0-2.5A23.8,23.8,0,0,1,72,295.38a24.38,24.38,0,0,1-14.34-11.26,33.91,33.91,0,0,1-4-13.33c-.58-5.75-.56-12.07,1.18-17.62,1-3.23,3-6.38,6.35-7.48,2.9-.94,6-.42,8.89.48a44.57,44.57,0,0,1,13.21,7.19s-.23-.18,0,0c1.25,1,3-.76,1.77-1.77Z"/><path class="cls-1" d="M62.45,256a5.28,5.28,0,0,1,8.16-1.57c3.89,3.14,3.18,8.86,1.62,13L73,267c-4.59-.92-10,0-12.19,4.62-2,4.16-.38,9,2.79,12.08a18.36,18.36,0,0,0,9.27,4.53c.78.16,1.12-1,.33-1.21-4.81-1-9.87-3.6-11.53-8.55A7.81,7.81,0,0,1,64.89,269a11.21,11.21,0,0,1,7.77-.82.64.64,0,0,0,.77-.43c1.79-4.75,2.25-11.22-2.38-14.56a6.51,6.51,0,0,0-9.68,2.17.63.63,0,0,0,1.08.63Z"/><path class="cls-1" d="M250,241.82c4.6,10.75,8.13,22.2,9.34,33.86,1.16,11.09.61,23.5-4.75,33.52a28.84,28.84,0,0,1-11.47,11.95l2.82,1.62L247.8,306a1.89,1.89,0,0,0-1.38-1.81,2,2,0,0,0-2.12.87,223.94,223.94,0,0,1-17.61,21l3.2,1.32c-.06-2.25-.18-4.5-.34-6.74-.09-1.36.11-3.58-.75-4.73-1.17-1.55-2.82-.23-4,.54l-3.43,2.28q-2.85,1.9-5.68,3.84c-2,1.36-.11,4.61,1.89,3.24,3.53-2.42,7.1-4.79,10.67-7.15l-1.45.19h0l-1.12-.86c0-.06-.31-.51-.14-.25s0-.47,0,0l.09.89c.07.9.14,1.79.19,2.69.14,2,.24,4.07.3,6.11a1.89,1.89,0,0,0,3.2,1.33,229.68,229.68,0,0,0,18.2-21.8l-3.49-.95-1.91,16.78c-.17,1.49,1.7,2.23,2.83,1.61,10.18-5.52,15.68-16.56,17.51-27.63,2-12.33.78-24.94-2.37-37a140.84,140.84,0,0,0-6.93-19.84,1.89,1.89,0,0,0-2.56-.68,1.92,1.92,0,0,0-.67,2.57Z"/><path class="cls-1" d="M256.87,253.38c.26-.2,0,0,0,0l.67-.49c.81-.6,1.63-1.17,2.47-1.71a46.13,46.13,0,0,1,7.71-4.14,19.52,19.52,0,0,1,9.26-1.76,9.12,9.12,0,0,1,7.11,5c2.63,4.8,2.77,10.93,2.66,16.27a39.93,39.93,0,0,1-2.83,14.86,24.43,24.43,0,0,1-13.82,13.38,29.21,29.21,0,0,1-3.7,1.11c-.53.13-1.07.24-1.61.33l-.75.12c-.44.07-.19,0-.54.08-1.21.14-2.41.16-3.63.2h-.18c-1.61-.09-1.6,2.41,0,2.5a27.47,27.47,0,0,0,9.73-1.45,26.86,26.86,0,0,0,15.72-13A38.18,38.18,0,0,0,289.1,270c.5-6,.42-12.65-1.64-18.34-1.34-3.71-3.75-6.94-7.56-8.29-3.21-1.14-6.82-.69-10,.26a45.07,45.07,0,0,0-14.3,7.63l-.47.36c-1.26,1,.52,2.76,1.76,1.77Z"/><path class="cls-1" d="M278.88,255.35a6.51,6.51,0,0,0-9.68-2.17c-4.63,3.34-4.17,9.81-2.38,14.56a.63.63,0,0,0,.76.43c4.07-.81,8.94-.05,10.82,4.13,1.68,3.74,0,8-2.81,10.65a17.34,17.34,0,0,1-8.54,4c-.79.17-.46,1.37.33,1.21,5.36-1.09,10.82-4.18,12.5-9.72a9,9,0,0,0-4.06-10.66,12.65,12.65,0,0,0-8.57-.85l.77.43c-1.56-4.13-2.27-9.85,1.62-13A5.28,5.28,0,0,1,277.8,256c.39.7,1.47.07,1.08-.63Z"/><path class="cls-1" d="M162.45,292.15l0-.17,0-.18c0-.07,0-.38,0-.11s0-.1,0-.18,0-.23,0-.35c0-.27,0-.53,0-.8s0-.25,0-.38,0-.13,0-.2c0-.24.06-.06,0,.05.05-.07,0-.29.06-.38l.12-.41c.08-.25,0,.08,0,.08l.08-.16.09-.15s0,0,.05-.07-.17.17-.1.12a.62.62,0,0,0,.14-.14c.1-.13-.23.13-.08.06a.67.67,0,0,0,.14-.09c.12-.09-.28.08-.05,0l.17-.05c.22-.06-.13,0-.07,0a1,1,0,0,0,.25,0h.11c.14,0-.24-.05-.09,0s.35.07.52.12l.28.1.15.06h0a7,7,0,0,1,1.17.7c-.18-.13,0,0,.07.06l.23.2a6.14,6.14,0,0,1,.51.51l.39.46c-.13-.16,0,0,.05.07l.21.29a12.63,12.63,0,0,1,.66,1.12c.1.17.18.35.27.52l.12.26.05.14c.1.21-.05-.14,0,0,.13.35.27.69.39,1a20,20,0,0,1,.54,2c0,.2.08.4.11.59s.09.59,0-.07a1.29,1.29,0,0,0,1.25,1.25c.6,0,1.34-.58,1.25-1.25a15.46,15.46,0,0,0-3.4-8c-1.31-1.5-3.45-2.9-5.53-2.57-1.73.28-2.41,1.95-2.57,3.49a10.42,10.42,0,0,0,.21,3.1,1.25,1.25,0,1,0,2.41-.67Z"/><path class="cls-1" d="M180.11,292.82c.46-2.17.59-5.56-1.93-6.48-1.89-.69-4.15.68-5.46,1.94a13.06,13.06,0,0,0-3.05,5.09,17,17,0,0,0-.84,3.45c-.09.67.64,1.25,1.25,1.25a1.28,1.28,0,0,0,1.25-1.25c0,.3-.06.41,0,.13l.09-.47a16,16,0,0,1,.42-1.65c.1-.33.21-.67.33-1,.07-.17.14-.34.2-.51s-.08.18,0-.09l.14-.3a11.29,11.29,0,0,1,.57-1.09c.11-.19.23-.37.35-.55l.17-.25.15-.2.13-.15.2-.24c.16-.17.32-.34.5-.51l.23-.2s.26-.21.15-.13l.17-.12.3-.19c.2-.12.4-.23.61-.33l.14-.07s-.18.08,0,0l.34-.12c.18-.06.35-.09.53-.14s-.23,0,0,0h.28c.2,0-.25-.07-.07,0l.18,0c.25.06-.09,0-.08,0l.17.09c.19.1-.09-.09-.07-.06a.44.44,0,0,0,.13.14c.14.11-.13-.23-.05-.08l.1.17c0,.05.05.12.08.16s-.1-.29,0-.08l.12.41c0,.13,0,.25.07.38s0-.32,0-.08a1.64,1.64,0,0,1,0,.22,10,10,0,0,1-.05,1.73c0,.35,0-.3,0,0l0,.24c0,.07,0,.15-.05.22a1.29,1.29,0,0,0,.88,1.54,1.26,1.26,0,0,0,1.53-.87Z"/><path class="cls-1" d="M149.09,304.29a44,44,0,0,0,7.84,7.65,43.57,43.57,0,0,0,20.57,9.21,38,38,0,0,0,15.87-1.2l-.76-.77a38.16,38.16,0,0,1-4.49,8.31c-3.46,5-8.24,9.38-14.22,11a22.6,22.6,0,0,1-21.36-6.09c-4.31-4.64-5.36-11.15-4.84-17.25a38.07,38.07,0,0,1,2.54-11c.3-.74-.91-1.06-1.21-.33a39.23,39.23,0,0,0-2.42,9.88c-.77,6.14-.09,12.8,3.68,17.91,4.61,6.26,13.37,9.51,21,8.62,6.66-.78,12.25-4.83,16.34-10a39.63,39.63,0,0,0,6.19-10.73.63.63,0,0,0-.77-.77,37.12,37.12,0,0,1-25.94-2,49,49,0,0,1-14.57-10.46c-.61-.62-1.2-1.27-1.77-1.94-.17-.19-.32-.38-.48-.57s-.29-.37-.11-.13C149.69,303,148.6,303.65,149.09,304.29Z"/><path class="cls-1" d="M148.44,326.05l13.42-11.25-1.07-.44,1.31,21.44.19,3.12a.63.63,0,0,0,1.16.32l10.33-16.57,1.47-2.35-1.14-.15,5.47,16.31c.25.76,1.46.43,1.2-.33l-5.47-16.31a.63.63,0,0,0-1.14-.15l-10.33,16.57-1.47,2.35,1.17.31-1.31-21.44-.19-3.12a.63.63,0,0,0-1.06-.44l-13.42,11.24c-.62.52.27,1.4.88.89Z"/><path class="cls-1" d="M145.41,242.64l20.08,20.3,2.82,2.85a2.55,2.55,0,0,0,3.54,0l20-20.1,2.85-2.86c2.28-2.28-1.26-5.82-3.53-3.54L171.16,259.4l-2.85,2.85h3.54L151.77,242,149,239.1c-2.27-2.29-5.8,1.25-3.54,3.54Z"/><path class="cls-1" d="M159.85,266.87v8.87l2.13-.89-19.43-19.64-2.8-2.83a1.25,1.25,0,0,0-1.76,1.77l19.43,19.65,2.8,2.82a1.26,1.26,0,0,0,2.13-.88v-8.87a1.25,1.25,0,0,0-2.5,0Z"/><path class="cls-1" d="M178,266.87v8.87a1.26,1.26,0,0,0,2.13.88L199.56,257l2.79-2.83a1.25,1.25,0,0,0-1.76-1.77L181.15,272l-2.79,2.82,2.13.89v-8.87a1.25,1.25,0,0,0-2.5,0Z"/><rect class="cls-2" width="340.16" height="425.2"/></svg>