<svg id="Capa_1" data-name="Capa 1" xmlns="http://www.w3.org/2000/svg" viewBox="0 0 340.16 425.2"><defs><style>.cls-1{fill:#1d1d1b;}.cls-2{fill:none;stroke:#fff;stroke-miterlimit:10;}</style></defs><title>personajes</title><path class="cls-1" d="M119.34,163.82c.28,16.08-.22,32.16-.78,48.23-.5,14.46-1.1,28.94-.79,43.41.25,11.93,1,24.11,4.17,35.67,2.51,9.23,6.85,18.36,14.28,24.64,8.23,7,18.83,9.6,29.42,9.91,1.61.05,3.22,0,4.83,0,3.21-.09,3.22-5.09,0-5a59.13,59.13,0,0,1-16.72-1.56c-1.19-.3-2.38-.65-3.54-1.05-.55-.19-1.09-.39-1.63-.6l-.73-.3-.54-.24a35.34,35.34,0,0,1-5.9-3.41l-.6-.43c-.49-.36.09.08-.24-.19s-.92-.75-1.37-1.14c-.81-.72-1.58-1.47-2.32-2.26s-1.45-1.61-2.12-2.46c-.23-.3.23.3,0,0-.07-.08-.13-.17-.19-.25l-.5-.69q-.5-.69-1-1.41a46.8,46.8,0,0,1-3.29-6.07c-.11-.24-.21-.49-.32-.73,0-.07-.19-.44,0,0l-.18-.42c-.23-.57-.46-1.14-.67-1.72-.43-1.15-.82-2.3-1.18-3.47-3.39-10.95-4.23-21.91-4.61-33.36-.47-14,0-28.09.54-42.12.54-15.63,1.11-31.27,1-46.92q0-3-.07-6c-.06-3.22-5.06-3.23-5,0Z"/><path class="cls-1" d="M107.51,217.89c-8-3.28-11.82-11.15-13.23-19.25-1.65-9.44-.63-19.36.88-28.74.83-5.2,1.9-10.35,3-15.48.53-2.35-3.09-3.36-3.62-1-2.23,9.94-4.17,20-4.7,30.23-.5,9.42,0,19.89,5.1,28.16a23.92,23.92,0,0,0,11.52,9.7,1.9,1.9,0,0,0,2.31-1.31,1.93,1.93,0,0,0-1.31-2.31Z"/><path class="cls-1" d="M108.9,221.11a17.77,17.77,0,0,0,3.19-3.52,22,22,0,0,0,2-4.33,1.88,1.88,0,0,0-1.31-2.3,1.93,1.93,0,0,0-2.31,1.31c-.14.37-.29.74-.44,1.11,0,.12-.21.47,0-.07l-.12.26c-.06.15-.13.29-.2.43a13.19,13.19,0,0,1-.93,1.69l-.27.38-.12.17c-.12.16.33-.41.09-.11s-.42.49-.64.73a19.27,19.27,0,0,1-1.67,1.59,1.9,1.9,0,0,0,0,2.66,1.92,1.92,0,0,0,2.65,0Z"/><path class="cls-1" d="M110.51,213.26c1.27,5.49,5.76,9.53,8.39,14.33a1.88,1.88,0,0,0,3.24-1.9,76.35,76.35,0,0,0-4.5-6.67c-.78-1.14-1.54-2.29-2.21-3.5a11.23,11.23,0,0,1-1.3-3.25,1.88,1.88,0,0,0-3.62,1Z"/><path class="cls-1" d="M106.37,219.45a24.31,24.31,0,0,0-.23,4.35c0,2.81,0,5.63.1,8.44.23,5.85.43,12.22,2.74,17.68,1.85,4.4,4.76,8.94,9.13,11.18,1.43.73,2.69-1.43,1.26-2.16-3.68-1.88-6.1-5.59-7.78-9.25a27.34,27.34,0,0,1-2.08-7.81,117.45,117.45,0,0,1-.88-17.19c0-1.07,0-2.14.07-3.21,0-.34,0-.68,0-1,0-.13,0-.26,0-.39,0-.29-.06.29,0,0,.32-1.57-2.09-2.24-2.41-.66Z"/><path class="cls-1" d="M92.72,206.31c-1.84,15.79-2,32.81,3.9,47.83a49.8,49.8,0,0,0,15.53,21.09c1.38,1.08,2.79,2.11,4.23,3.11l1.66,1.15.78.55c.17.13.94.71.37.27a1.93,1.93,0,0,0,2.65,0,1.88,1.88,0,0,0,0-2.65c-2-1.58-4.22-3-6.28-4.5l-.41-.31c-.41-.31,0,0-.19-.15-.32-.24-.64-.5-.95-.75-.67-.54-1.32-1.1-2-1.68a47,47,0,0,1-4-4,39.68,39.68,0,0,1-3.69-5,49.66,49.66,0,0,1-3.55-6.68,65,65,0,0,1-4.7-17.83,126.28,126.28,0,0,1,.32-30.47,1.88,1.88,0,0,0-1.87-1.87,1.92,1.92,0,0,0-1.88,1.87Z"/><path class="cls-1" d="M216.62,162.89c-.3,15.86.16,31.73.71,47.58.5,14.34,1.11,28.68.89,43-.18,11.92-.78,23.53-3.67,34.95a69,69,0,0,1-2.2,7.13c-.2.54-.41,1.08-.62,1.62,0,.09-.38.9-.19.46l-.36.83c-.49,1.08-1,2.15-1.57,3.19s-1.1,1.95-1.71,2.9c-.29.45-.59.89-.89,1.33l-.5.69c-.09.12-.55.74-.24.34a35.31,35.31,0,0,1-4.51,4.8q-.58.52-1.2,1l-.33.26.09-.07-.76.56a31.55,31.55,0,0,1-2.79,1.8c-1,.59-2.06,1.12-3.12,1.61l-.72.32c.46-.2-.35.14-.45.18-.57.23-1.15.44-1.73.64a46.42,46.42,0,0,1-7.36,1.87c-1.51.26-2.24.35-3.83.5s-2.93.22-4.4.26-3.12,0-4.68,0c-3.22-.09-3.22,4.91,0,5,10.81.31,22.29-1.31,31.34-7.67,8.08-5.66,13.15-14.19,16.17-23.44,3.63-11.12,4.64-23.05,5.07-34.67.52-14.29,0-28.6-.5-42.87-.56-16-1.15-31.93-1-47.91,0-2.08,0-4.16.08-6.23.07-3.22-4.93-3.22-5,0Z"/><path class="cls-1" d="M222.84,261.1c4.37-2.24,7.28-6.77,9.14-11.18A42.63,42.63,0,0,0,234.85,234a1.25,1.25,0,0,0-2.5,0,40.82,40.82,0,0,1-2.49,14.52c-1.63,4.06-4.27,8.34-8.28,10.39-1.43.73-.17,2.89,1.26,2.16Z"/><path class="cls-1" d="M166.36,296.11a11,11,0,0,1-3,.22,17.43,17.43,0,0,1-5.64-1.21,11.22,11.22,0,0,1-2.64-1.44,11,11,0,0,1,3-.22,16.23,16.23,0,0,1,2.87.38,18.33,18.33,0,0,1,2.77.83A12,12,0,0,1,166.36,296.11Z"/><path class="cls-1" d="M163.22,302.43a17.71,17.71,0,0,1-3.72.81,29.56,29.56,0,0,1-7.44-.07,18.53,18.53,0,0,1-3.71-.89,18,18,0,0,1,3.73-.82,30.9,30.9,0,0,1,3.72-.19,28.8,28.8,0,0,1,3.71.27A18.37,18.37,0,0,1,163.22,302.43Z"/><path class="cls-1" d="M164.29,309.67a26.21,26.21,0,0,1-3.82,1.05c-1.26.27-2.52.48-3.79.66s-2.53.34-3.82.42a24.77,24.77,0,0,1-4,.07,14.8,14.8,0,0,1,3.62-1.72,21.44,21.44,0,0,1,3.86-.91,20.89,20.89,0,0,1,4-.2A14.61,14.61,0,0,1,164.29,309.67Z"/><path class="cls-1" d="M166.47,316.6a20.71,20.71,0,0,1,1.09,4.19,34.32,34.32,0,0,1,.24,8.43,20,20,0,0,1-.85,4.24,20.07,20.07,0,0,1-1.09-4.19,33.64,33.64,0,0,1-.23-8.43A20,20,0,0,1,166.47,316.6Z"/><path class="cls-1" d="M174.09,317.49a21.11,21.11,0,0,1,2,3.76,34.45,34.45,0,0,1,1.39,3.92,33.15,33.15,0,0,1,.93,4.06,20.43,20.43,0,0,1,.35,4.23,21,21,0,0,1-2-3.75,35.31,35.31,0,0,1-1.39-3.93,34.63,34.63,0,0,1-.93-4.06A21.83,21.83,0,0,1,174.09,317.49Z"/><path class="cls-1" d="M177.66,312.84a19.2,19.2,0,0,1,3.91,1.14,32.91,32.91,0,0,1,7,3.75,19.19,19.19,0,0,1,3.11,2.63,19.39,19.39,0,0,1-3.91-1.14,29.66,29.66,0,0,1-3.62-1.67,31.32,31.32,0,0,1-3.4-2.09A20.1,20.1,0,0,1,177.66,312.84Z"/><path class="cls-1" d="M178,309.58a12.44,12.44,0,0,1,3.16-1.2,19.22,19.22,0,0,1,3.28-.48,18.22,18.22,0,0,1,3.3.12,12.21,12.21,0,0,1,3.28.85,16.78,16.78,0,0,1-3.25.85,29.89,29.89,0,0,1-6.45.35A16.35,16.35,0,0,1,178,309.58Z"/><path class="cls-1" d="M180.51,301a12.73,12.73,0,0,1,3.12-.49,20,20,0,0,1,6,.7,12.4,12.4,0,0,1,2.93,1.2,12.37,12.37,0,0,1-3.12.5,20.59,20.59,0,0,1-3-.12,19.4,19.4,0,0,1-3-.59A12.16,12.16,0,0,1,180.51,301Z"/><path class="cls-1" d="M180.78,294.47a11.64,11.64,0,0,1,2.56-1.56,18.34,18.34,0,0,1,2.72-1,18,18,0,0,1,2.84-.51,11.26,11.26,0,0,1,3,.09,11.27,11.27,0,0,1-2.56,1.56,18.34,18.34,0,0,1-2.72,1,19.32,19.32,0,0,1-2.85.51A11.61,11.61,0,0,1,180.78,294.47Z"/><path class="cls-1" d="M221.17,244.47c6.51-1,11.92-5.8,15-11.48,3.64-6.77,4.18-14.67,4-22.21l-2.82,1.62,5.93,4.43c1.48,1.11,2.95-.72,2.75-2.12l-3.5-24.52a1.89,1.89,0,0,0-2.3-1.31,1.93,1.93,0,0,0-1.31,2.31l3.5,24.52,2.75-2.12-5.92-4.43c-1.16-.86-2.86.31-2.83,1.62.17,6.73-.13,13.89-3.29,20-2.63,5.07-7.15,9.18-12.92,10.08a1.89,1.89,0,0,0-1.31,2.31,1.94,1.94,0,0,0,2.31,1.31Z"/><path class="cls-1" d="M225.39,156.55q-.37.42-.78.81c-.13.12-1,.81-.49.45a11.21,11.21,0,0,1-1.81,1.13l-.35.16c-.59.28.5-.17-.12.05-.3.1-.6.21-.92.3s-.63.16-.94.23l-.49.09.17,0-.39,0a17.59,17.59,0,0,1-2.05.05l-1.06-.08c-.71-.07.53.09-.19,0l-.65-.11A20.37,20.37,0,0,1,213,159c-.42-.13-.84-.27-1.25-.42l-.46-.17-.45-.19h0c-7.83-3.38-14.17-9.78-19.08-16.69a74.29,74.29,0,0,1-8.58-15.85,2.53,2.53,0,0,0-2.75-1.79,2.47,2.47,0,0,0-2.16,2.45c.79,15.5,1.74,31.44-3.19,46.4a64.42,64.42,0,0,1-5.61,12.34h4.32a85.59,85.59,0,0,0-27.17-33.78,81.46,81.46,0,0,0-10.43-6.6,2.51,2.51,0,0,0-3,3.92c2.28,2.44,2.1,6.23.33,8.89a10.05,10.05,0,0,1-4.05,3.46,8.91,8.91,0,0,1-4.81.62c-.62-.06-1.23-.12-1.84-.2l-.84-.1-.65-.1c-1.24-.18-2.47-.4-3.7-.66a61,61,0,0,1-6.77-1.85c-1-.36-2.06-.75-3.08-1.16-.58-.23.14.07-.27-.11l-.75-.33c-.5-.22-1-.45-1.48-.69a48.05,48.05,0,0,1-5.35-3.07c-.81-.54-1.6-1.1-2.37-1.69.49.38-.09-.08-.22-.18l-.57-.46c-.37-.31-.73-.63-1.09-.95a37,37,0,0,1-3.85-4c-.16-.19-.92-1.16-.51-.62-.27-.36-.54-.72-.8-1.09-.51-.72-1-1.46-1.45-2.22s-.83-1.45-1.2-2.2c-.18-.36-.35-.73-.52-1.09-.07-.17-.34-.81-.06-.13l-.24-.59a28.67,28.67,0,0,1-1.41-4.71c-.08-.37-.15-.75-.21-1.13,0-.2-.06-.41-.1-.61-.07-.39.06.55,0-.09-.08-.81-.15-1.62-.17-2.44s0-1.62.06-2.43c0-.35.06-.71.09-1.06s.09-.63,0-.09c0-.23.06-.46.1-.68a26.21,26.21,0,0,1,1.23-4.7c.13-.37.28-.73.42-1.1,0,0-.18.41,0,0l.3-.65c.36-.75.75-1.49,1.17-2.21s.93-1.49,1.45-2.21c.11-.16.23-.31.35-.47.36-.5-.27.32.12-.17s.58-.71.88-1.05a33.66,33.66,0,0,1,4.06-3.95l.58-.48.22-.17c.28-.22-.34.25,0,0l1.33-1q1.27-.89,2.61-1.68a49.33,49.33,0,0,1,12.63-5.29c12.42-3.52,25.58-3.64,38.54-2.43A159.29,159.29,0,0,1,177,101.63a92.08,92.08,0,0,1,20.67,7.64A48.77,48.77,0,0,1,216,125.82c2.45,3.84,5,7.21,8.86,9.75,3.25,2.14,6.88,3.6,10.36,5.32a28.53,28.53,0,0,1,9.26,6.66,29.63,29.63,0,0,1,5.36,9.65c2.91,8.23,3.72,17.18,4.42,25.82a296,296,0,0,1,.56,30.81c-.23,10.34-.74,20.67-1.61,31q-.65,7.5-1.53,15l4.66-1.26-8.23-12.1a2.52,2.52,0,0,0-4.31,0c-3.66,6.18-5.92,13.05-9.53,19.25a36,36,0,0,1-6.66,8.33c-2.55,2.38-5.31,4.56-8.8,5.25a2.52,2.52,0,0,0-1.75,3.07,2.55,2.55,0,0,0,3.08,1.75c4-.8,7.42-3.27,10.4-6a41.32,41.32,0,0,0,7.46-8.9c4-6.43,6.26-13.74,10.11-20.25H243.8l8.22,12.1a2.53,2.53,0,0,0,4.66-1.26,467.78,467.78,0,0,0,3.26-64.48,184.44,184.44,0,0,0-2.92-30.4c-1.53-8.11-4.36-16.46-10.38-22.36a37.26,37.26,0,0,0-10.43-6.72c-3.59-1.7-7.47-3.26-10.54-5.84-3.43-2.87-5.28-7-7.95-10.47a50.33,50.33,0,0,0-9.81-9.64,72.43,72.43,0,0,0-21.1-10.57,138.19,138.19,0,0,0-27-6.07c-14.49-1.76-29.39-2.46-43.76.61-9.52,2-19,5.92-26.14,12.75a31.08,31.08,0,0,0-9.68,19.93,31.66,31.66,0,0,0,5.88,20.26,45.41,45.41,0,0,0,20.06,15.48,59.18,59.18,0,0,0,14.08,3.82c3.39.5,7,1.14,10.29-.13a14.65,14.65,0,0,0,8.85-9.22,12.11,12.11,0,0,0-2.65-11.61l-3,3.92a80.44,80.44,0,0,1,35.8,38.6c.79,1.77,3.45,1.48,4.32,0a71.06,71.06,0,0,0,8.49-22.93,118.73,118.73,0,0,0,1.57-24c-.1-4.77-.34-9.54-.58-14.3l-4.92.67c4.12,10.43,10.2,20.32,18.58,27.88,5.79,5.22,13.57,10.32,21.72,9.9a14.62,14.62,0,0,0,10.27-4.75c2.14-2.39-1.38-5.94-3.54-3.53Z"/><path class="cls-1" d="M228.08,132.21a40.48,40.48,0,0,1,8.22-30.46c1-1.24-.77-3-1.77-1.76a43.23,43.23,0,0,0-8.86,32.89c.23,1.58,2.64.91,2.41-.67Z"/><path class="cls-1" d="M228.37,133.8c3.58-8.69,12-13.89,20-18,1.43-.74.17-2.9-1.26-2.16-8.67,4.48-17.29,10.13-21.15,19.51-.62,1.48,1.8,2.13,2.41.66Z"/><path class="cls-1" d="M143.69,165.33c-6.7,2-11.78,8.15-13.1,15-.31,1.57,2.1,2.25,2.41.67,1.15-6,5.45-11.44,11.35-13.22,1.54-.47.89-2.88-.66-2.41Z"/><path class="cls-1" d="M196.59,167.74c5.9,1.78,10.2,7.25,11.35,13.22.31,1.57,2.72.91,2.41-.67-1.32-6.81-6.4-12.94-13.1-15-1.54-.47-2.2,1.94-.66,2.41Z"/><path class="cls-1" d="M163.76,193.37c1.2,3.4,2.6,7.28,1.6,10.9a11.57,11.57,0,0,1-2.65,4.4c-1.34,1.55-2.74,3.05-4.15,4.54-4.68,4.94-11.16,9.76-12.08,17-.84,6.59,4.09,10.83,9.84,12.72,6.15,2,13.75,2.87,19.93.59s11.38-8.78,9.76-15.72c-.37-1.57-2.78-.9-2.41.66,1.34,5.72-3.29,11-8.43,12.79-5.8,2-12.81,1.13-18.52-.84a13.07,13.07,0,0,1-6.26-4c-1.89-2.5-1.82-5.75-.74-8.57,1.17-3.05,3.48-5.48,5.73-7.76,2.46-2.47,4.91-4.94,7.26-7.51s4.83-5.2,5.39-8.82-.63-7.48-1.86-11c-.53-1.51-2.94-.86-2.41.66Z"/><path class="cls-1" d="M204.05,269.94l-4.83-6.4a.63.63,0,0,0-1.16.31,20.08,20.08,0,0,1-1.66,7.72A11.72,11.72,0,0,1,184.62,279a52.11,52.11,0,0,1-6.55-1.12,42.9,42.9,0,0,0-6.4-.59,49.26,49.26,0,0,0-5.7.15c-2.29.22-4.5.77-6.75,1.2a14.39,14.39,0,0,1-9.16-.81,11.52,11.52,0,0,1-4.84-4.86,19.72,19.72,0,0,1-2.33-9.1.63.63,0,0,0-1.16-.31l-4.83,6.4c-.49.65.6,1.27,1.08.64l4.83-6.41-1.17-.32a21.82,21.82,0,0,0,1.86,8.43,12.85,12.85,0,0,0,12.26,8,30,30,0,0,0,6-.9,37,37,0,0,1,6.79-.83,56.24,56.24,0,0,1,6.62.19c2.56.26,5,1,7.54,1.33,5.69.8,11.07-1.09,14-6.21a20.83,20.83,0,0,0,2.64-10l-1.17.32,4.83,6.41c.48.63,1.57,0,1.08-.64Z"/><rect class="cls-2" width="340.16" height="425.2"/></svg>