<svg id="Capa_1" data-name="Capa 1" xmlns="http://www.w3.org/2000/svg" viewBox="0 0 340.16 425.2"><defs><style>.cls-1{fill:#1d1d1b;}.cls-2{fill:none;stroke:#fff;stroke-miterlimit:10;}</style></defs><title>personajes</title><path class="cls-1" d="M240.85,158.4c3.22,0,3.23-5,0-5s-3.22,5,0,5Z"/><path class="cls-1" d="M93.38,137.26a215.66,215.66,0,0,1,43.17-15,211,211,0,0,1,89.91-1.31c6.9,1.41,14.37,2.73,20.6,6.15,5.28,2.9,9.58,8,9.34,14.35-.25,6.59-6.75,9.57-12.28,11.08A54,54,0,0,1,223.47,154a56.37,56.37,0,0,1-27.41-11.23c-2.49-1.93-5.22-4.09-6.68-6.93a3.63,3.63,0,0,1-.31-3.32,2.67,2.67,0,0,1,2.24-1.25c2.44-.13,4,2.55,4.28,4.89.73,6.58-5.56,11.17-11.3,12.31-7.21,1.44-15.33-.43-22.06-3-2.93-1.12-6-2.65-7.54-5.54a5.39,5.39,0,0,1-.5-4,3.43,3.43,0,0,1,1.63-2,4.86,4.86,0,0,1,5.45.21c2,1.6,2.63,4.54,2.24,7-1.07,6.54-8.33,9.2-14.15,9.27A54.89,54.89,0,0,1,137.88,149c-3.86-.77-7.68-1.74-11.45-2.87a194.55,194.55,0,0,1-22.52-8.38c-3.54-1.54-7-3.16-10.53-4.81a2.57,2.57,0,0,0-3.42.9,2.53,2.53,0,0,0,.9,3.42c16.08,7.63,32.91,14.78,50.64,17.43,8.08,1.21,17.4,1.1,23.31-5.48a14.16,14.16,0,0,0,3.78-10.06,11.89,11.89,0,0,0-4.92-9.45c-6-4-15,.4-14.65,7.79.4,9.15,10.55,12.81,18,14.69,8,2,17.69,3,25.12-1.37,6.56-3.86,10.78-12.37,7.05-19.59a8.72,8.72,0,0,0-9.34-4.82,7.42,7.42,0,0,0-6,8c.42,4.15,3.41,7.38,6.41,10a60.54,60.54,0,0,0,55,13c7.17-1.94,14.8-6,16-14.07,1.13-7.7-3.17-15-9.39-19.2-6.72-4.59-15.32-6.2-23.15-7.84a217.19,217.19,0,0,0-126.06,11.49c-4,1.62-7.88,3.33-11.75,5.16a2.52,2.52,0,0,0-.9,3.42A2.56,2.56,0,0,0,93.38,137.26Z"/><path class="cls-1" d="M89.71,134.43c-2.1,6.93-4.06,13.9-5.94,20.89l2.41-1.84h0a2.57,2.57,0,0,0-2.42,1.84c-4.38,14-8.08,28.37-9.93,42.88a55.63,55.63,0,0,0-.44,13.7l2.5-2.5c-6.63-.41-14.4,1.79-19,6.76-6.16,6.73-6.46,18.25-1.33,25.69,4.56,6.61,12.08,9.49,19.87,10.05l-2.41-1.84a37.19,37.19,0,0,0,2.35,5.65,73.75,73.75,0,0,0,7.94,12.69c11,14.27,26,24.92,42.42,32a138.77,138.77,0,0,0,33.78,10.31,27.7,27.7,0,0,0,4.14.59,28.23,28.23,0,0,0,4.37-.63q4.68-.73,9.3-1.83a119.1,119.1,0,0,0,16.4-5.17c10-4,19.74-8.57,28.58-14.77a99,99,0,0,0,18.4-16.47,81.83,81.83,0,0,0,9.93-14.22,41.59,41.59,0,0,0,3.54-7.85c0-.12.08-.23.11-.34l-2.41,1.84c6.94-.5,14-2.8,18.59-8.36a19.76,19.76,0,0,0,4.37-9.06c.93-5.6.38-11.92-3.06-16.63a20.53,20.53,0,0,0-11.9-7.55,28.45,28.45,0,0,0-8.42-.9l2.5,2.5a51.1,51.1,0,0,0-.2-11.66c-.52-4.75-1.31-9.46-2.25-14.14-1.68-8.34-3.79-16.59-6.14-24.77-.56-2-1.14-4-1.76-5.92-.95-3.06-5.78-1.75-4.82,1.33,1.57,5,3,10.09,4.29,15.18,1.15,4.43,2.22,8.89,3.16,13.37s1.83,9.25,2.35,13.52A53.6,53.6,0,0,1,249,211.9a2.51,2.51,0,0,0,2.5,2.5c.56,0,1.11,0,1.66,0s1.25.06,1.87.12l1,.11h.06l.67.11q1.29.22,2.55.57c.45.13.9.27,1.34.42.22.07.45.15.67.24s.82.33.54.21l.46.21.58.29a16.33,16.33,0,0,1,1.46.85l.56.37.31.23c.29.21-.33-.27-.05,0a14.58,14.58,0,0,1,1.25,1.11,13.63,13.63,0,0,1,1.08,1.19c-.31-.38.07.1.17.24s.35.52.52.79A17.44,17.44,0,0,1,269,223c0,.08.19.44,0,0,.06.14.11.29.17.43.12.34.23.67.33,1a15.18,15.18,0,0,1,.67,3.72,28.93,28.93,0,0,1-.18,5.18c-.12,1,.19-.89,0,.18-.11.48-.22,1-.36,1.41-.09.3-.19.59-.29.88s-.13.34-.2.51c-.23.63.19-.36-.06.15a22.76,22.76,0,0,1-1.36,2.47c-.15.24-.32.48-.48.71l-.18.24c-.39.53.34-.39-.1.13s-.83,1-1.29,1.42a20.07,20.07,0,0,1-1.54,1.37c.28-.22-.47.33-.58.4-.32.22-.64.43-1,.62a24,24,0,0,1-10.67,3.08,2.59,2.59,0,0,0-2.41,1.83c-.13.45-.3.89-.47,1.33-.09.23-.17.45-.26.67s-.12.27-.17.4.28-.63,0,0-.62,1.39-1,2.08A73.82,73.82,0,0,1,240,265.51l-.28.36-.19.24c-.22.28-.44.56-.67.83-.54.67-1.09,1.34-1.65,2q-1.72,2-3.56,3.9a96.27,96.27,0,0,1-8.77,8,111.91,111.91,0,0,1-25.22,15,133.79,133.79,0,0,1-32.47,9.95,23.28,23.28,0,0,1-3.5.52,24.17,24.17,0,0,1-3.95-.6c-3-.49-5.9-1.08-8.82-1.79a117.53,117.53,0,0,1-16-5.06c-17-6.75-32.93-16.09-44.94-30.15a74.57,74.57,0,0,1-9-13.09c-.81-1.5-1.55-3-2.24-4.59-.27-.62.12.32,0,.07s-.11-.26-.17-.4l-.27-.7c-.13-.32-.24-.64-.35-1,0-.11-.08-.23-.11-.34a2.58,2.58,0,0,0-2.41-1.83,24.93,24.93,0,0,1-9.63-2.49,16.09,16.09,0,0,1-5.55-4.56c.37.45-.14-.19-.21-.29s-.29-.41-.42-.63c-.27-.4-.51-.81-.74-1.23s-.39-.78-.58-1.17c-.3-.6.09.29-.05-.09-.07-.19-.15-.38-.23-.58-.32-.9-.5-1.8-.73-2.72-.12-.43.15,1.3,0,.19-.1-.88-.18-1.75-.21-2.63s0-1.6,0-2.4c0-.38.05-.75.09-1.12a6.15,6.15,0,0,1,.12-.8,16.74,16.74,0,0,1,.43-1.83c.09-.31.19-.61.29-.91l.17-.44c.25-.68-.12.24.05-.13a14.45,14.45,0,0,1,.82-1.56c.14-.24.29-.48.45-.71s.63-.82.29-.41a17,17,0,0,1,2.25-2.24c.35-.29,0,0,0,0l.31-.23.64-.43a14.56,14.56,0,0,1,1.38-.8c.41-.22.83-.41,1.25-.6-.59.26.08,0,.24-.1s.5-.19.76-.27a23.39,23.39,0,0,1,2.72-.77c.46-.11.93-.2,1.4-.28l.67-.1c.55-.1-.54,0,.12,0s1.47-.15,2.21-.18,1.41,0,2.12,0a2.51,2.51,0,0,0,2.5-2.5A50.61,50.61,0,0,1,78.62,200c.49-4.48,1.35-9.29,2.32-13.94,1.7-8.25,3.82-16.41,6.16-24.5.48-1.65,1-3.31,1.49-4.95l-2.41,1.83h0a2.55,2.55,0,0,0,2.41-1.83c1.89-7,3.84-14,5.94-20.89.94-3.08-3.88-4.4-4.82-1.33Z"/><path class="cls-1" d="M72,139.79a21.67,21.67,0,0,1,19.75-3.49,1.26,1.26,0,0,0,1.41-1.83c-3.61-6.2-9.1-11-15-14.89-1.35-.89-2.6,1.27-1.26,2.16,5.57,3.68,10.73,8.16,14.12,14l1.41-1.84a24,24,0,0,0-21.68,3.74c-1.26,1,0,3.13,1.27,2.16Z"/><path class="cls-1" d="M145.53,240.07l34.62-3.56,5-.51-.63-2.33L168.29,246.1l-8.51,6.52c-.65.5-1.56,1-1.65,1.88a31.26,31.26,0,0,0,.1,3.62l.32,11.9,1.58-1.2s-.13,0-.15-.06c-.14-.2.19.09-.15-.07-.52-.24-1-.48-1.53-.75a33.23,33.23,0,0,1-5-3.23,42.64,42.64,0,0,1-12.44-16c-.67-1.46-2.82-.2-2.16,1.26a44.81,44.81,0,0,0,13,16.69,30.2,30.2,0,0,0,7.73,4.59,1.26,1.26,0,0,0,1.58-1.21l-.42-15.53-.62,1.08,22.55-17.28,3.2-2.46c.85-.65.76-2.47-.63-2.33l-34.62,3.56-5,.51c-1.58.16-1.6,2.66,0,2.5Z"/><rect class="cls-2" width="340.16" height="425.2"/></svg>