<svg id="Capa_1" data-name="Capa 1" xmlns="http://www.w3.org/2000/svg" viewBox="0 0 340.16 425.2"><defs><style>.cls-1{fill:#1d1d1b;}.cls-2{fill:none;stroke:#fff;stroke-miterlimit:10;}</style></defs><title>personajes</title><path class="cls-1" d="M170.15,181.24c-21.93.23-43.69,5.08-62.9,15.92-16.82,9.49-31.58,23.62-39.73,41.32a73.27,73.27,0,0,0-2.88,54.71c6.42,18.35,19.69,33.47,35.72,44.17,18.06,12.05,39.56,18.52,61.14,19.88a131.12,131.12,0,0,0,64.7-12.16c17.67-8.47,33.54-21.68,43.34-38.83A73.9,73.9,0,0,0,277.41,252c-4.62-18.68-16.62-34.69-31.7-46.32-17-13.07-37.61-20.68-58.75-23.36a136.82,136.82,0,0,0-16.81-1c-3.22,0-3.23,5,0,5,21.15,0,42.39,5,60.81,15.57,16,9.16,29.77,22.56,37.48,39.47a68.15,68.15,0,0,1,2,51.15c-6.16,17.15-19.09,31.45-34.34,41.35-17.42,11.31-38,17.41-58.64,18.53-21.09,1.15-42.6-2.58-61.65-11.85C99,332.27,84,319.75,74.69,303.33a68.62,68.62,0,0,1-6.91-50.92C72.32,235,83.69,220,98,209.17c16.28-12.28,36.1-19.63,56.29-22a147.31,147.31,0,0,1,15.85-.92C173.36,186.21,173.37,181.21,170.15,181.24Z"/><path class="cls-1" d="M180.76,313.11c0,5.39-1.95,11.87-7,14.62-4.63,2.52-9.36-.45-11.76-4.55a20.25,20.25,0,0,1-2.55-10.07,1.25,1.25,0,0,0-2.5,0c0,6.34,2.51,14,8.62,17,5.7,2.79,11.56-.31,14.65-5.37a22.55,22.55,0,0,0,3.06-11.6,1.25,1.25,0,0,0-2.5,0Z"/><path class="cls-1" d="M196.35,156.18a102.93,102.93,0,0,0-52.34,0,1.25,1.25,0,0,0,.67,2.41,100.32,100.32,0,0,1,51,0,1.25,1.25,0,0,0,.66-2.41Z"/><path class="cls-1" d="M66.9,241.59h0c-.86,1.18.31,2.82,1.62,2.82h25.3a1.87,1.87,0,0,0,1.62-.93,102.66,102.66,0,0,1,6.37-11.65,94,94,0,0,1,17.48-21.39,46.15,46.15,0,0,1,13.56-8.53L131,198.79c-5.43,4.92-9.52,11.38-13.11,17.7a87.54,87.54,0,0,0-7.74,16.66,1.89,1.89,0,0,0,1.81,2.37h42.35a1.9,1.9,0,0,0,1.81-1.38,58,58,0,0,1,5.56-17.29A59.54,59.54,0,0,1,171.47,202h-2.65a58.3,58.3,0,0,1,9.7,14.86A58.93,58.93,0,0,1,184,234.14a1.89,1.89,0,0,0,1.81,1.38h42.35a1.9,1.9,0,0,0,1.81-2.37,87,87,0,0,0-7.75-16.66c-3.58-6.32-7.68-12.78-13.1-17.7l-1.82,3.13c9.09,3.5,16.49,10.55,22.58,18a116.68,116.68,0,0,1,12.79,19.51c.71,1.35,1.41,2.7,2,4.09a1.84,1.84,0,0,0,1.62.93h25.29a1.88,1.88,0,0,0,0-3.75H246.34l1.62.93a103.46,103.46,0,0,0-6.64-12.08c-5.06-8.1-11-15.88-18.28-22.13a50.29,50.29,0,0,0-14.74-9.08c-1.76-.68-3.16,1.92-1.82,3.13,5.2,4.72,9.08,10.88,12.51,16.95a82.14,82.14,0,0,1,7.37,15.75l1.81-2.37H185.82l1.81,1.38a62.53,62.53,0,0,0-5.87-18.2,61.33,61.33,0,0,0-10.29-15.61,1.9,1.9,0,0,0-2.65,0A62.44,62.44,0,0,0,158.47,215a61.33,61.33,0,0,0-5.95,18.2l1.81-1.38H112l1.81,2.37a82.1,82.1,0,0,1,7.36-15.75c3.44-6.07,7.31-12.23,12.52-16.95,1.33-1.21-.06-3.81-1.83-3.13C122.3,202,114.46,209,108,216.77a119.65,119.65,0,0,0-13.62,20.45c-.76,1.44-1.52,2.89-2.19,4.38l1.62-.93H68.51l1.62,2.82h0a1.88,1.88,0,0,0-.67-2.57,1.92,1.92,0,0,0-2.56.67Z"/><path class="cls-1" d="M106.13,200.9a45.25,45.25,0,0,1-2.74-5.2c-.44-.94-.85-1.9-1.27-2.85-.16-.37.23.55,0,0,0-.12-.1-.25-.16-.38l-.37-.91c-.24-.61-.48-1.22-.71-1.82-1.12-3-2.11-6-3-9a145.67,145.67,0,0,1-4.83-25A187.94,187.94,0,0,1,92.79,121a236.73,236.73,0,0,1,8.09-44.08c.56-2,1.15-4,1.75-6.07l-4.18,1.11a46.3,46.3,0,0,1,4.49,4.8c.41.49.82,1,1.22,1.49l.63.8.38.49.13.17q1.45,1.9,2.85,3.86a215.12,215.12,0,0,1,12.78,20.32c9.28,16.61,17.06,34.45,21,53.13a98.53,98.53,0,0,1,2.09,15.2c.14,2.49.17,5,.07,7.49,0,1.22-.13,2.44-.25,3.65-.14,1.44-.54,2.64,0,4l1.49-3.67A122,122,0,0,0,102.67,200c-2.72,1.7-.22,6,2.52,4.31a118.43,118.43,0,0,1,41.51-15.85c1.76-.32,2.08-2.33,1.5-3.67h0l.25,1.92c2.59-19-2.44-38.37-9.29-55.95a231.09,231.09,0,0,0-25.34-47.8c-3.52-5.07-7.23-10.37-11.83-14.54a2.53,2.53,0,0,0-4.18,1.1,254.26,254.26,0,0,0-9.51,46.16,193.13,193.13,0,0,0-.57,36.54,156.4,156.4,0,0,0,4.62,27.26,117.05,117.05,0,0,0,6.06,17.33,46.62,46.62,0,0,0,3.34,6.57l.06.08c1.73,2.71,6,.2,4.32-2.52Z"/><path class="cls-1" d="M238.34,203.42a45.26,45.26,0,0,0,2.78-5.3,111.05,111.05,0,0,0,6-16.1,151,151,0,0,0,5-26.06,187.42,187.42,0,0,0,.27-35.37,245.35,245.35,0,0,0-8.16-44.81q-.89-3.15-1.82-6.3a2.53,2.53,0,0,0-4.18-1.1c-4,3.61-7.24,8.09-10.35,12.43a216.84,216.84,0,0,0-12.91,20.52c-9.45,16.91-17.44,35.14-21.48,54.15-2.19,10.25-3.15,20.77-1.72,31.19l.25-1.92h0c-.58,1.34-.26,3.35,1.49,3.67A118.56,118.56,0,0,1,235,204.27c2.73,1.72,5.24-2.61,2.52-4.31a122,122,0,0,0-42.71-16.36l1.5,3.67c.54-1.24.2-2.19.07-3.5-.12-1.16-.21-2.32-.26-3.49-.11-2.17-.12-4.35,0-6.52a92.11,92.11,0,0,1,1.46-13.18,153.09,153.09,0,0,1,8.06-27.89,226.09,226.09,0,0,1,24.87-46.93c1.09-1.58,2.2-3.14,3.35-4.68l.8-1.07.39-.51c.33-.43-.22.29.13-.16q.75-1,1.5-1.89a51.32,51.32,0,0,1,5.09-5.53l-4.18-1.11A246.64,246.64,0,0,1,246.89,116a191.6,191.6,0,0,1,.53,36A145.87,145.87,0,0,1,243,178.21c-.86,3.21-1.84,6.39-2.95,9.51-.46,1.3-.95,2.6-1.46,3.88-.12.28-.23.57-.35.85s-.11.25-.16.38c-.23.57.15-.33,0,0-.21.5-.43,1-.65,1.5-1,2.23-2.15,4.33-3.3,6.47a.22.22,0,0,1,0,.08c-1.74,2.72,2.59,5.23,4.32,2.52Z"/><rect class="cls-2" width="340.16" height="425.2"/></svg>