<svg id="Capa_1" data-name="Capa 1" xmlns="http://www.w3.org/2000/svg" viewBox="0 0 327.38 434.6"><defs><style>.cls-1{fill:#1d1d1b;}</style></defs><title>personajes</title><path class="cls-1" d="M95.38,273.08a17.6,17.6,0,0,0-8.52-5.14c-5.59-1.36-11.54,1.64-14.28,6.65-4.79,8.77,2.1,19.49,9.31,24.47,4.63,3.19,10.44,4.7,15.93,3.06a1.25,1.25,0,0,0-.66-2.41c-8.68,2.59-17.45-3.75-21.43-11.13-1.81-3.35-2.86-7.42-1.67-11.15,1.43-4.47,6.37-7.9,11.07-7.29a14.61,14.61,0,0,1,8.48,4.71c1.08,1.19,2.85-.58,1.77-1.77Z"/><path class="cls-1" d="M206.24,274.85a15.39,15.39,0,0,1,6.87-4.36c4.83-1.4,10.06,1.3,12.22,5.79,3.63,7.53-2.82,16.71-8.87,20.78-4.06,2.72-9,4.08-13.77,2.65a1.25,1.25,0,0,0-.66,2.41c9.9,3,20.12-4.16,24.5-12.76,2-4,3.1-8.84,1.47-13.16-1.92-5.1-7.46-9.07-13-8.59a16.89,16.89,0,0,0-10.54,5.47c-1.08,1.19.69,3,1.77,1.77Z"/><path class="cls-1" d="M161.86,310.81a7.39,7.39,0,0,0-4.15-1.7c-3.55-.29-6.14,2.5-7.78,5.32H151c-1.65-2.82-4.23-5.61-7.79-5.32a7.35,7.35,0,0,0-4.15,1.7c-.61.52.28,1.4.88.88a6.89,6.89,0,0,1,3.1-1.32c3.17-.4,5.43,2.21,6.88,4.69a.64.64,0,0,0,1.08,0c1.45-2.48,3.71-5.09,6.88-4.69a6.85,6.85,0,0,1,3.09,1.32c.61.52,1.5-.36.88-.88Z"/><path class="cls-1" d="M148.42,334.76a16.22,16.22,0,0,1-7.48-.52,48.48,48.48,0,0,1-8.66-3.23,64.16,64.16,0,0,1-7.32-4,18.32,18.32,0,0,1-4.26-3.31.63.63,0,0,0-1,.27c-.84,6.15.86,12.94,6.73,16s12.37-.13,16.93-4.26c.6-.54-.29-1.42-.88-.88-4.11,3.72-10,6.94-15.42,4.06s-6.92-9-6.15-14.62l-1,.27a18.86,18.86,0,0,0,4.4,3.44,66.42,66.42,0,0,0,8,4.35c4.88,2.24,11.06,4.84,16.54,3.6.79-.18.46-1.38-.33-1.2Z"/><path class="cls-1" d="M142.3,97.29c-4.48-2.45-9.5-4.26-14.68-4.1a20.9,20.9,0,0,0-11,3.59c-5.59,3.82-9.48,9.71-12.13,15.85-4.83,11.19-4.22,23.71-3.58,35.62.62,11.63,1.82,23.23,3.17,34.8,1.48,12.76,3.19,25.49,4.77,38.24a2.58,2.58,0,0,0,2.5,2.5,2.51,2.51,0,0,0,2.5-2.5c-2.75-22.19-6-44.35-7.54-66.66-.39-5.38-.66-10.76-.76-16.15a69.71,69.71,0,0,1,1.37-17.42A40.06,40.06,0,0,1,111,110.72a30,30,0,0,1,5.53-7.44,17.77,17.77,0,0,1,4.27-3.19A15.34,15.34,0,0,1,126,98.32c4.43-.69,9.54,1,13.75,3.29,2.82,1.54,5.35-2.77,2.52-4.32Z"/><path class="cls-1" d="M132,236.92c-8.15-.29-18.7,2.78-22.47,10.76a14.3,14.3,0,0,0-1.25,7.63c.16,1.58,2.66,1.6,2.5,0-1.16-11.4,11.82-16.22,21.22-15.89,1.61.06,1.61-2.45,0-2.5Z"/><path class="cls-1" d="M143.45,100.11c1.27-4,2.49-7.45,5-10.87,2.74-3.79,7.15-7.19,11.66-7.86a19.49,19.49,0,0,1,13,2.87c4.17,2.78,5,8.42,5.1,13.21a171.94,171.94,0,0,1-1,19.51q-1,10-2.7,20a323.51,323.51,0,0,1-9.82,40.28,410.17,410.17,0,0,1-16,42.82,2.58,2.58,0,0,0,.89,3.42,2.51,2.51,0,0,0,3.42-.9c11.61-26.59,21-54.31,26.09-82.92q1.94-10.8,3-21.74a168.57,168.57,0,0,0,1.1-20.82c-.15-5.78-1.37-12.19-6.1-16a23.63,23.63,0,0,0-15.4-4.77c-6.29.23-12.11,3.79-16.08,8.56-3.41,4.11-5.31,9-6.93,14-1,3.07,3.83,4.38,4.82,1.32Z"/><path class="cls-1" d="M177.69,80.86c1.09-6.81,3.27-14,8.33-19a18.78,18.78,0,0,1,17.66-4.48c5.43,1.52,7.77,6.79,9.29,11.75,2.3,7.54,1.46,15.62.86,23.36a369.9,369.9,0,0,1-5.11,39.65,372.47,372.47,0,0,1-9.57,38.95c-4.42,14.7-9.56,29.17-15,43.51q-1.14,3-2.29,6a2.52,2.52,0,0,0,1.75,3.07,2.55,2.55,0,0,0,3.07-1.74c5.88-15.24,11.48-30.6,16.29-46.21A379.76,379.76,0,0,0,213.3,134.8a382.58,382.58,0,0,0,5.5-41.86c.64-8.27,1.46-16.87-1-24.94-1.74-5.79-4.57-11.87-10.4-14.49-6.6-3-15.06-1.91-21.13,1.87-6.56,4.1-10.36,11.41-12.29,18.69a54,54,0,0,0-1.14,5.46,2.58,2.58,0,0,0,1.75,3.08,2.51,2.51,0,0,0,3.07-1.75Z"/><path class="cls-1" d="M218.58,92.29c2.26-5,3.58-10.19,6.66-14.71a12.44,12.44,0,0,1,5.22-4.48,15.94,15.94,0,0,1,9.15-.52c.57.12,1.13.25,1.68.42l.85.28c.11,0,.78.32.44.17.51.23,1,.49,1.5.77l.6.37c.08.06.78.56.43.29a11.92,11.92,0,0,1,3.73,4.61c.13.25.25.51.37.76,0,.1.28.65.14.3.24.59.44,1.18.63,1.78a27.26,27.26,0,0,1,.84,3.46,44,44,0,0,1,.57,7.72c-.07,12.13-3.18,24.21-6.48,35.81-4.29,15-9,29.94-13.85,44.79-3.22,10-6.6,19.88-10.27,29.68-3.59,9.58-7.72,18.93-10.64,28.74a189.24,189.24,0,0,0-6.42,33.35l-2.34,21L198,317.8l-3.29,29.65-1.86,16.68-.08.79,2.5-2.5H104.63l2.5,2.5-1.64-14.74-3.93-35.38-4.72-42.49-4.12-37c-.66-6-1.29-12-2-18l0-.24c-.35-3.12-5-3.3-5,0v.66l4.91-.67c-2.52-17.87-3.94-35.91-5.41-53.9A107.2,107.2,0,0,1,84.57,149c.27-5.57,1.2-11.57,3.55-16.62,2.94-6.33,7.75-10.26,14.88-10.16,3.22,0,3.22-5,0-5a20,20,0,0,0-17.47,9.48c-3.54,5.51-5,12.18-5.68,18.62a76.65,76.65,0,0,0,.06,14.45c.7,8.41,1.39,16.82,2.16,25.22,1,11.17,2.15,22.34,3.72,33.45.4,2.84,4.91,2.08,4.91-.66v-.66h-5l1.64,14.74,3.93,35.38L96,309.72l4.11,37c.66,6,1.29,12,2,18l0,.25a2.57,2.57,0,0,0,2.5,2.5h90.59a2.57,2.57,0,0,0,2.5-2.5l1.35-12.15,3.14-28.29,3.57-32.13,2.68-24.08a206.16,206.16,0,0,1,4.36-26.46c2.47-10.09,6.16-19.64,10-29.29,3.87-9.83,7.39-19.79,10.73-29.81q8-24.14,15.21-48.56c3.58-12.1,6.86-24.56,7.57-37.2.54-9.7-.62-22.3-10.3-27.4-5.54-2.91-13-3.37-18.66-.47-5.3,2.73-8,8.3-10.19,13.57-1,2.38-1.9,5-2.87,7.11a2.57,2.57,0,0,0,.9,3.42,2.52,2.52,0,0,0,3.42-.89Z"/><path class="cls-1" d="M149.84,266.73V306.3a.63.63,0,0,0,1.25,0V266.73a.63.63,0,0,0-1.25,0Z"/></svg>