<svg id="Capa_1" data-name="Capa 1" xmlns="http://www.w3.org/2000/svg" viewBox="0 0 1400 700"><defs><style>.cls-1{fill:#fff;}.cls-2,.cls-3{fill:#1d1d1b;}.cls-3{stroke:#1d1d1b;stroke-miterlimit:10;stroke-width:0.25px;}.cls-4{fill:none;}</style></defs><title>404error</title><path class="cls-1" d="M488.36,153l-12.25,7.83-7.79,5L452.43,176l54.88,39.94-14.53,6.24-30.21,13,38.7,14.76,28.11,10.74L500,267.06,441.24,280l33.9,39.38,10.13,11.78L470,334.07l-30.53,5.86,49.14,30.13,19.6,12-22.56,4.49L436,396.43l14.57,14,12.18,11.73-16.52,3.55-49.78,10.71,29.48,37.88,5.5,7.08,8.32,10.69-13.08,3.53a188.08,188.08,0,0,1-39.75,6.31c-1.67.09-3.39.15-5.26.2l-3.06.07,0,0h-.08l-5.78-.05a185.82,185.82,0,0,1-20.82-1.65c-2-.25-4.06-.56-6.32-1l-.36,0-1.44-.26-2.58-.48-.26-.05c-1.62-.31-3.17-.62-4.64-.94-4.22-.92-8.4-2-12.41-3.14-1.33-.39-2.41-.71-3.39-1-1.74-.53-3.58-1.13-5.46-1.78-2.18-.74-4.31-1.51-6.33-2.28l-.38-.14c-.2-.07-.39-.13-.58-.21s-.56-.2-.84-.32c-2.86-1.12-5.84-2.38-8.87-3.75l-.09-.05-.09,0-.7-.33a193,193,0,0,1-112.2-177.57l-29.41-8.46a13.09,13.09,0,0,1-9-16.23L167,211.18a13.11,13.11,0,0,1,16.23-9l29.43,8.46c2.77-4.58,5.75-9.07,8.9-13.39a193.07,193.07,0,0,1,174.21-78.17,11.34,11.34,0,0,1,1.48.09c4.51.49,9,1.12,13.22,1.89.33.06.65.12,1,.2l.17,0c1.21.22,2.43.45,3.65.7,2.4.48,4.87,1,7.34,1.64,1.38.34,2.81.7,4.26,1.09l3.1.87a193.1,193.1,0,0,1,45.92,19.92Z"/><path class="cls-2" d="M498.86,700h738.58a56.75,56.75,0,0,0-15.87-5.21c-8-1.23-16.25-.11-24.35.68-11.55,1.13-23.21,1.58-34.74.3-24-2.66-47.33-12.82-71.41-10.87-13.49,1.09-27,6-40.27,3.53-17.55-3.24-31.23-18.66-48.94-20.85-9.52-1.17-19.12,1.66-28.7,1.15a47.74,47.74,0,0,1-20.39-6.09,106,106,0,0,1-15.52-13c-12.25-12.45-23.34-28.93-40.66-31.2-10.3-1.35-20.41,2.86-30,6.78-21.89,8.89-46.28,16.74-68.74,9.37-22.76-7.47-41.65-30-65.39-26.73a51.65,51.65,0,0,0-15.12,5A18.46,18.46,0,0,1,718,618a19,19,0,0,1-19,19h0a19,19,0,0,0,19-19,18.46,18.46,0,0,0-.71-5.12c-12.09,5.79-23.58,13.89-36.27,11.24h0l-.16,0c-15.09-3.26-22.78-20-35.46-28.81-17.08-11.86-40-7.74-60.68-10.28-8.31-1-26.71-7-26.71-7-26-12-42-41.43-46.22-49.87-4.14-8.21-6.06-17.35-9.5-25.87a78.41,78.41,0,0,0-27-34.27c-6.18-4.4-13.21-8.1-17.43-14.41S454.65,445.51,456,438c.87-4.8-.76-9.53-3.44-13.64a3.62,3.62,0,0,0-.22-.32l9.37-2-12-11.73L436,397c-3.29,1.71-6.52,3.4-9,2-8.84-4.88-19.25-14.85-29-18-14.89-4.81-25.92-7.59-41.37-4.35C312,386,308.06,357.82,283,352c-43-10-59.79,21.8-88-13-2.37-2.92-3.41-9-7-10.19a192.54,192.54,0,0,0,27,81,190.61,190.61,0,0,0,83,74.71l.7.34.08,0,.09,0c3,1.38,5.95,2.63,8.78,3.75.27.13.56.23.83.33l.57.21a2.79,2.79,0,0,1,.37.14c2,.76,4.1,1.53,6.26,2.28,1.86.65,3.68,1.24,5.4,1.78,1,.31,2,.62,3.35,1,4,1.16,8.09,2.22,12.26,3.14,1.47.32,3,.63,4.59.94l.26.06,2.55.48,1.42.25.37.06c2.22.39,4.26.7,6.24.95A183.72,183.72,0,0,0,372.71,502l5.71.05h.09l0,0,3-.06c1.85,0,3.54-.12,5.2-.21a183.89,183.89,0,0,0,39.29-6.31l12.88-3.52.08.08c.07.07.15.14.22.22,14,13.8,24.25,81.15,45.56,104.88,6.72,7.48,14.11,14.45,19.67,22.82,14.36,21.63,14.09,52-.66,73.34C502.23,695.56,500.51,697.75,498.86,700Z"/><path class="cls-2" d="M438.88,395.53l5.47-1.1C442.68,394.08,440.81,394.66,438.88,395.53Z"/><path class="cls-2" d="M435.27,396.25l.74.71c1-.5,1.92-1,2.87-1.43Z"/><path class="cls-3" d="M439.48,339.93,470,334.07l15.26-2.93h0l-10.14-11.78L441.24,280,500,267.06l29.39-6.46-7.76-3-20.35-7.76-19.35-7.39-19.34-7.39,30.19-13,14.54-6.24-12.79-9.31L452.43,176l15.88-10.14,7.81-5L488.35,153h0l-12.47-7.47c-.89-.54-1.79-1.06-2.69-1.58q-6.76-3.9-13.85-7.25-4.25-2-8.6-3.81t-8.79-3.4q-3-1-6-2c-2-.64-4-1.26-6-1.84l-1.51-.43-1.59-.43-1.08-.29c-1.08-.29-2.15-.56-3.18-.81-1.85-.46-3.71-.88-5.53-1.27l-1.81-.38-1.83-.35-1.82-.35-.17,0-.49-.11-.5-.08c-4.25-.77-8.69-1.41-13.21-1.89a11.8,11.8,0,0,0-1.48-.1A193.29,193.29,0,0,0,240.1,175.45c-.67.67-1.33,1.35-2,2q-3,3.09-5.79,6.31-5.67,6.45-10.77,13.46c-.79,1.08-1.56,2.17-2.32,3.27q-3.45,5-6.57,10.12l-29.43-8.46a13,13,0,0,0-10,1.13c-.42.24-.83.49-1.22.76l-.57.43a11.86,11.86,0,0,0-1.06.94q-.5.5-1,1.05l-.44.57h0a13.25,13.25,0,0,0-2,4.1l-20.48,71.25a13.08,13.08,0,0,0,.4,8.45,14.87,14.87,0,0,0,.72,1.51,13.6,13.6,0,0,0,1.46,2.13c.28.32.57.64.88.94a12.28,12.28,0,0,0,1.47,1.23c.35.25.71.48,1.08.7a13.82,13.82,0,0,0,3,1.26l29.4,8.47h0c0,1,0,2.05,0,3.06a189.52,189.52,0,0,0,4.28,40.1c.32,1.45.65,2.91,1,4.35s.76,3.09,1.18,4.63.86,3.15,1.33,4.72q1.06,3.63,2.29,7.23.92,2.7,1.92,5.37c.18.5.37,1,.56,1.49q1.38,3.63,2.94,7.22a193.83,193.83,0,0,0,96.72,99.4l.35.17.35.16.09.05.09,0c3,1.37,6,2.63,8.87,3.75.28.12.56.23.84.32l.58.21.38.14c2,.77,4.15,1.54,6.33,2.28,1.87.65,3.72,1.25,5.46,1.78,1,.31,2.06.63,3.39,1,3,.87,6.11,1.68,9.25,2.42,1.05.25,2.11.48,3.16.71l2.26.48,2.38.47.26.05,2.58.48,1.44.25.36.06c2.25.39,4.32.7,6.32,1,2.58.35,5.18.65,7.78.89s5.21.43,7.82.57c1.74.08,3.48.15,5.22.19l5.78.05h.09l0,0,3.06-.07c1.87-.05,3.59-.11,5.26-.2,6.05-.31,12.18-.92,18.26-1.82l2.6-.41c1.57-.26,3.15-.53,4.73-.83s3.15-.62,4.73-1,3.15-.71,4.73-1.09,3.14-.79,4.7-1.21l12.6-3.39.48-.13L431.4,481.4l-5.5-7.07-29.48-37.89,49.77-10.71,6.39-1.37,10.14-2.18-12.18-11.73-14.2-13.66-.37-.36,1.78-.35,47.92-9.52,22.55-4.49-19.6-12Zm-22.17,51,6,5.77,16.58,15.95,4.41,4.25-63.78,13.71,22.94,29.49,15.34,19.71,5.5,7.08a182.6,182.6,0,0,1-18,3.89,177.21,177.21,0,0,1-19.89,2.12c-1.66.09-3.33.15-5,.19-1.25,0-2.5.05-3.75.05h-1.89l-1.88,0A177.92,177.92,0,0,1,353,491.56c-2-.25-4-.55-6-.89l-2.2-.39h-.05l-2.2-.42c-1.49-.29-3-.59-4.45-.91q-5.93-1.29-11.82-3c-1.07-.31-2.16-.63-3.23-1q-2.6-.8-5.21-1.69c-2-.7-4-1.42-6-2.18-.4-.15-.8-.28-1.2-.44a1.51,1.51,0,0,1-.33-.13c-3.07-1.19-6-2.45-8.65-3.64l-.34-.17-.08,0A184.43,184.43,0,0,1,196.53,340.81a179.61,179.61,0,0,1-2.38-40.39L158,290a4.1,4.1,0,0,1-2.82-5.08l20.48-71.27a4.13,4.13,0,0,1,2-2.46,4,4,0,0,1,3.12-.35l36.18,10.4a180.45,180.45,0,0,1,11.91-18.68,184.23,184.23,0,0,1,166.56-74.47h.18a3.76,3.76,0,0,1,.57,0c4.31.46,8.68,1.07,13,1.86a.47.47,0,0,1,.24.05l.62.12c1.17.22,2.34.44,3.52.68q3.5.71,7,1.57c1.34.32,2.68.66,4,1,1,.27,2,.54,3,.83a184.59,184.59,0,0,1,43.78,19l-7.8,5-27,17.24,52.75,38.4-50.61,21.71,59.45,22.69-73.47,16.16,43.73,50.8L415,335.47l68.93,42.26Z"/><circle class="cls-2" cx="575.02" cy="554" r="15"/><circle class="cls-2" cx="557.02" cy="508" r="10"/><circle class="cls-2" cx="448.02" cy="648" r="15"/><path class="cls-1" d="M925.48,700H896.56a15,15,0,0,1,28.92,0Z"/><circle class="cls-2" cx="815.02" cy="600" r="25"/><circle class="cls-2" cx="688.02" cy="585" r="16"/><circle class="cls-1" cx="570.02" cy="663" r="15"/><path d="M890,223.3h4.24v5.84H890v8.17h-7.54v-8.17H867.1l-.36-4.52,15.6-24.93H890Zm-16.38,0h8.84V209.64l-.16,0-.77,1.68Z"/><path d="M923.55,223.69q0,6.62-3.48,10.39a11.91,11.91,0,0,1-9.2,3.77,12,12,0,0,1-9.28-3.77q-3.5-3.78-3.49-10.39V213.33q0-6.59,3.48-10.38a13.12,13.12,0,0,1,18.47,0q3.5,3.8,3.5,10.38ZM916,212.56a9.77,9.77,0,0,0-1.38-5.61,4.41,4.41,0,0,0-3.84-2,4.36,4.36,0,0,0-3.83,2,9.86,9.86,0,0,0-1.36,5.61v11.86a9.93,9.93,0,0,0,1.37,5.67,4.45,4.45,0,0,0,3.88,2,4.38,4.38,0,0,0,3.81-2,10,10,0,0,0,1.35-5.67Z"/><path d="M950.68,223.3h4.23v5.84h-4.23v8.17h-7.55v-8.17H927.81l-.36-4.52,15.61-24.93h7.62Zm-16.38,0h8.83V209.64l-.15,0-.78,1.68Z"/><path d="M1003.41,237.31h-7.55L980.7,211.94l-.16,0v25.35H973V199.69h7.54L995.71,225l.15,0V199.69h7.55Z"/><path d="M1008.6,223.07a15,15,0,0,1,3.49-10.24c2.32-2.66,5.55-4,9.66-4s7.37,1.32,9.72,4a14.92,14.92,0,0,1,3.51,10.25v.54a14.94,14.94,0,0,1-3.5,10.27q-3.51,4-9.68,4t-9.7-4a14.94,14.94,0,0,1-3.5-10.27Zm7.52.54a12.23,12.23,0,0,0,1.34,6.14,4.64,4.64,0,0,0,4.34,2.31,4.59,4.59,0,0,0,4.28-2.32,12.13,12.13,0,0,0,1.36-6.13v-.54a12,12,0,0,0-1.37-6.07,4.65,4.65,0,0,0-4.32-2.35,4.57,4.57,0,0,0-4.27,2.36,12,12,0,0,0-1.36,6.06Z"/><path d="M1048.67,202.51v6.84h4.73v5.3h-4.73v14.24a3.22,3.22,0,0,0,.69,2.32,2.37,2.37,0,0,0,1.79.7,6.38,6.38,0,0,0,1-.07,7.1,7.1,0,0,0,1-.22l.62,5.46a16.06,16.06,0,0,1-2.21.58,13,13,0,0,1-2.33.19,8,8,0,0,1-6-2.14c-1.4-1.43-2.11-3.7-2.11-6.8V214.65h-4.08v-5.3h4.08v-6.84Z"/><path d="M1093.78,221.68h-14.44v15.63h-7.54V199.69h24.62v5.81h-17.08v10.36h14.44Z"/><path d="M1099,223.07a15,15,0,0,1,3.49-10.24q3.48-4,9.66-4t9.71,4a14.88,14.88,0,0,1,3.52,10.25v.54a14.94,14.94,0,0,1-3.5,10.27q-3.51,4-9.68,4t-9.7-4a14.94,14.94,0,0,1-3.5-10.27Zm7.52.54a12.13,12.13,0,0,0,1.34,6.14,5.17,5.17,0,0,0,8.62,0,12.13,12.13,0,0,0,1.35-6.13v-.54a11.89,11.89,0,0,0-1.37-6.07,5.09,5.09,0,0,0-8.59,0,12.14,12.14,0,0,0-1.35,6.06Z"/><path d="M1147.11,233.17a9.63,9.63,0,0,1-3.28,3.47,8.71,8.71,0,0,1-4.63,1.21,8.48,8.48,0,0,1-6.91-3q-2.49-3-2.49-9.3v-16.2h7.51V225.6c0,2.45.34,4.12,1,5a3.58,3.58,0,0,0,3.09,1.36,7.49,7.49,0,0,0,3.1-.59,5.28,5.28,0,0,0,2.12-1.71V209.35h7.54v28h-6.25Z"/><path d="M1166.74,209.35l.34,4a10.18,10.18,0,0,1,3.43-3.33,8.86,8.86,0,0,1,4.58-1.19,8.34,8.34,0,0,1,6.61,2.72c1.58,1.82,2.38,4.69,2.38,8.62v17.13h-7.57V220.2a6.7,6.7,0,0,0-1-4.25,3.87,3.87,0,0,0-3.14-1.25,6.64,6.64,0,0,0-3,.63,5.87,5.87,0,0,0-2.1,1.75v20.23h-7.55v-28Z"/><path d="M1188.55,223.56q0-6.62,2.85-10.67a9.29,9.29,0,0,1,8-4,7.84,7.84,0,0,1,3.77.9,9.1,9.1,0,0,1,3,2.58V197h7.57v40.31h-6.44l-.64-3.44a9.35,9.35,0,0,1-3.13,3,8.24,8.24,0,0,1-4.13,1,9.48,9.48,0,0,1-8-3.77q-2.85-3.78-2.85-10Zm7.52.55a11.34,11.34,0,0,0,1.24,5.77,4.32,4.32,0,0,0,4,2.11,5.87,5.87,0,0,0,2.84-.66,5.25,5.25,0,0,0,2-1.93V217.49a5.82,5.82,0,0,0-2-2.05,5.25,5.25,0,0,0-2.8-.74,4.27,4.27,0,0,0-4.05,2.46,13.87,13.87,0,0,0-1.27,6.4Z"/><path d="M879,452.15a3,3,0,0,0-1.16-2.43,12.14,12.14,0,0,0-4-1.79,13.4,13.4,0,0,1-4.65-2.09,4.11,4.11,0,0,1-1.59-3.4,4.41,4.41,0,0,1,1.78-3.6,7.12,7.12,0,0,1,4.55-1.41,6.74,6.74,0,0,1,4.68,1.59,5.08,5.08,0,0,1,1.72,4.05l0,.08h-1.47A4,4,0,0,0,877.5,440a5,5,0,0,0-3.53-1.24,5.31,5.31,0,0,0-3.49,1.05,3.27,3.27,0,0,0-1.26,2.59,3,3,0,0,0,1.14,2.39,11.63,11.63,0,0,0,4,1.75,13.15,13.15,0,0,1,4.6,2.17,4.15,4.15,0,0,1,1.59,3.4,4.26,4.26,0,0,1-1.85,3.59,7.76,7.76,0,0,1-4.68,1.35,8.47,8.47,0,0,1-4.91-1.43,4.59,4.59,0,0,1-2-4.19l0-.08h1.46a3.66,3.66,0,0,0,1.66,3.3,6.84,6.84,0,0,0,3.8,1.08,5.92,5.92,0,0,0,3.57-1A3.06,3.06,0,0,0,879,452.15Z"/><path d="M889.46,457.06a5.68,5.68,0,0,1-4.47-1.94,7.31,7.31,0,0,1-1.71-5v-.72a7.45,7.45,0,0,1,1.73-5.06,5.49,5.49,0,0,1,4.31-2,5,5,0,0,1,4,1.65,6.69,6.69,0,0,1,1.41,4.47v1.22h-9.87v.43a6.4,6.4,0,0,0,1.23,4,4,4,0,0,0,3.38,1.6,6.39,6.39,0,0,0,2.39-.43,5.18,5.18,0,0,0,1.81-1.14l.67,1.07a5.9,5.9,0,0,1-2,1.31A7.5,7.5,0,0,1,889.46,457.06Zm-.14-13.38a3.85,3.85,0,0,0-3,1.3,5.64,5.64,0,0,0-1.36,3.29l0,.08h8.13V448a4.79,4.79,0,0,0-1-3.11A3.44,3.44,0,0,0,889.32,443.68Z"/><path d="M913.39,456.79q-.14-.75-.21-1.29a7.82,7.82,0,0,1-.07-1.1,5.76,5.76,0,0,1-2.06,1.91,6.06,6.06,0,0,1-3,.75,4.44,4.44,0,0,1-3.23-1.1,4,4,0,0,1-1.15-3,3.63,3.63,0,0,1,1.66-3.08,7.32,7.32,0,0,1,4.33-1.18h3.49v-1.76a3,3,0,0,0-1-2.38,3.92,3.92,0,0,0-2.72-.87,4.09,4.09,0,0,0-2.6.79,2.42,2.42,0,0,0-1,2h-1.45l0-.08a3.37,3.37,0,0,1,1.37-2.81,5.7,5.7,0,0,1,3.78-1.21,5.59,5.59,0,0,1,3.75,1.19,4.22,4.22,0,0,1,1.42,3.42v7a11.69,11.69,0,0,0,.08,1.46,9.64,9.64,0,0,0,.28,1.4Zm-5.21-1.11a5.65,5.65,0,0,0,3.13-.86,4.37,4.37,0,0,0,1.8-2.21V449.9h-3.5a5.19,5.19,0,0,0-3.16.91A2.65,2.65,0,0,0,905.2,453a2.51,2.51,0,0,0,.8,1.94A3.06,3.06,0,0,0,908.18,455.68Z"/><path d="M918.28,449.82a9.25,9.25,0,0,1,1.44-5.44,4.62,4.62,0,0,1,4-2,5.11,5.11,0,0,1,2.62.64,5.26,5.26,0,0,1,1.84,1.85l.22-2.23h1.27v14.26a5.62,5.62,0,0,1-1.49,4.18,5.8,5.8,0,0,1-4.24,1.47,10.89,10.89,0,0,1-2.18-.25,9,9,0,0,1-2-.68l.3-1.33a8.45,8.45,0,0,0,1.81.64,9.75,9.75,0,0,0,2.07.21,4.14,4.14,0,0,0,3.13-1.07,4.4,4.4,0,0,0,1-3.17v-2a4.85,4.85,0,0,1-1.83,1.63,5.52,5.52,0,0,1-2.56.57,4.69,4.69,0,0,1-4-1.9,8.16,8.16,0,0,1-1.44-5.07Zm1.58.27a7.16,7.16,0,0,0,1,4.09A3.52,3.52,0,0,0,924,455.7a4.46,4.46,0,0,0,2.51-.67,4.58,4.58,0,0,0,1.58-1.86v-6.76a5,5,0,0,0-1.53-2,4.1,4.1,0,0,0-2.54-.75,3.44,3.44,0,0,0-3.12,1.7,8.32,8.32,0,0,0-1,4.41Z"/><path d="M940.26,444l-1.11-.08a3.56,3.56,0,0,0-2.43.83,4.57,4.57,0,0,0-1.36,2.29v9.79h-1.57V442.61h1.37l.2,2.36v.15a5.1,5.1,0,0,1,1.65-2,4.13,4.13,0,0,1,2.46-.73,3.36,3.36,0,0,1,.56,0l.43.1Z"/><path d="M948.08,457.06a5.65,5.65,0,0,1-4.46-1.94,7.27,7.27,0,0,1-1.72-5v-.72a7.41,7.41,0,0,1,1.74-5.06,5.46,5.46,0,0,1,4.3-2,5,5,0,0,1,4,1.65,6.69,6.69,0,0,1,1.41,4.47v1.22h-9.87v.43a6.4,6.4,0,0,0,1.23,4,4,4,0,0,0,3.38,1.6,6.35,6.35,0,0,0,2.39-.43,5.09,5.09,0,0,0,1.81-1.14l.67,1.07a5.8,5.8,0,0,1-2,1.31A7.5,7.5,0,0,1,948.08,457.06Zm-.14-13.38a3.83,3.83,0,0,0-3,1.3,5.59,5.59,0,0,0-1.37,3.29l0,.08h8.13V448a4.79,4.79,0,0,0-1-3.11A3.44,3.44,0,0,0,947.94,443.68Z"/><path d="M956,449.82a9.32,9.32,0,0,1,1.43-5.44,4.64,4.64,0,0,1,4-2A5.14,5.14,0,0,1,964,443a5.23,5.23,0,0,1,1.83,1.85l.23-2.23h1.27v14.26a5.58,5.58,0,0,1-1.5,4.18,5.76,5.76,0,0,1-4.23,1.47,10.81,10.81,0,0,1-2.18-.25,9.11,9.11,0,0,1-2-.68l.3-1.33a8.53,8.53,0,0,0,1.82.64,9.65,9.65,0,0,0,2.06.21,4.16,4.16,0,0,0,3.14-1.07,4.4,4.4,0,0,0,1-3.17v-2a4.85,4.85,0,0,1-1.83,1.63,5.52,5.52,0,0,1-2.56.57,4.71,4.71,0,0,1-4-1.9,8.22,8.22,0,0,1-1.43-5.07Zm1.57.27a7.16,7.16,0,0,0,1,4.09,3.51,3.51,0,0,0,3.1,1.52,4.22,4.22,0,0,0,4.09-2.53v-6.76a5,5,0,0,0-1.53-2,4.07,4.07,0,0,0-2.53-.75,3.44,3.44,0,0,0-3.12,1.7,8.32,8.32,0,0,0-1.05,4.41Z"/><path d="M970.57,449.49a7.65,7.65,0,0,1,1.72-5.14,6.19,6.19,0,0,1,9.11,0,7.65,7.65,0,0,1,1.72,5.14v.43a7.66,7.66,0,0,1-1.71,5.15,6.22,6.22,0,0,1-9.12,0,7.66,7.66,0,0,1-1.72-5.15Zm1.58.43a6.76,6.76,0,0,0,1.24,4.14,4.39,4.39,0,0,0,6.91,0,6.7,6.7,0,0,0,1.26-4.14v-.43a6.7,6.7,0,0,0-1.26-4.12,4.38,4.38,0,0,0-6.91,0,6.76,6.76,0,0,0-1.24,4.12Zm6.65-13.33h1.93l0,.08-3.26,3.41h-1.4Z"/><path d="M1001.9,456.79c-.1-.5-.17-.93-.22-1.29a7.82,7.82,0,0,1-.07-1.1,5.76,5.76,0,0,1-2.06,1.91,6.06,6.06,0,0,1-3,.75,4.44,4.44,0,0,1-3.23-1.1,4,4,0,0,1-1.15-3,3.62,3.62,0,0,1,1.67-3.08,7.28,7.28,0,0,1,4.32-1.18h3.49v-1.76a3,3,0,0,0-1-2.38,3.93,3.93,0,0,0-2.72-.87,4.05,4.05,0,0,0-2.6.79,2.42,2.42,0,0,0-1,2h-1.46l0-.08a3.37,3.37,0,0,1,1.37-2.81,5.71,5.71,0,0,1,3.79-1.21,5.58,5.58,0,0,1,3.74,1.19,4.19,4.19,0,0,1,1.42,3.42v7a14,14,0,0,0,.08,1.46,8.49,8.49,0,0,0,.29,1.4Zm-5.22-1.11a5.62,5.62,0,0,0,3.13-.86,4.32,4.32,0,0,0,1.8-2.21V449.9h-3.5a5.19,5.19,0,0,0-3.16.91,2.64,2.64,0,0,0-1.24,2.19,2.5,2.5,0,0,0,.79,1.94A3.08,3.08,0,0,0,996.68,455.68Z"/><path d="M1012.54,455.74a4.31,4.31,0,0,0,2.67-.89,3,3,0,0,0,1.16-2.48h1.4l0,.08a4,4,0,0,1-1.54,3.29,5.68,5.68,0,0,1-3.71,1.32,5.3,5.3,0,0,1-4.41-2,7.92,7.92,0,0,1-1.58-5.1v-.55a7.94,7.94,0,0,1,1.57-5.08,5.3,5.3,0,0,1,4.41-2,5.49,5.49,0,0,1,3.8,1.37,4.5,4.5,0,0,1,1.46,3.62l0,.08h-1.4a3.51,3.51,0,0,0-1.12-2.72,3.88,3.88,0,0,0-2.72-1,3.71,3.71,0,0,0-3.32,1.64,7.22,7.22,0,0,0-1.09,4.1V450a7.29,7.29,0,0,0,1.09,4.14A3.71,3.71,0,0,0,1012.54,455.74Z"/><path d="M1026.35,455.74a4.29,4.29,0,0,0,2.67-.89,3,3,0,0,0,1.16-2.48h1.4l0,.08a4,4,0,0,1-1.55,3.29,5.66,5.66,0,0,1-3.71,1.32,5.3,5.3,0,0,1-4.41-2,8,8,0,0,1-1.58-5.1v-.55a7.94,7.94,0,0,1,1.58-5.08,5.26,5.26,0,0,1,4.4-2,5.47,5.47,0,0,1,3.8,1.37,4.54,4.54,0,0,1,1.47,3.62l0,.08h-1.4a3.48,3.48,0,0,0-1.12-2.72,3.88,3.88,0,0,0-2.72-1,3.72,3.72,0,0,0-3.32,1.64,7.3,7.3,0,0,0-1.08,4.1V450a7.37,7.37,0,0,0,1.08,4.14A3.73,3.73,0,0,0,1026.35,455.74Z"/><path d="M1036.73,438.55h-1.56v-2.21h1.56Zm0,18.24h-1.56V442.61h1.56Z"/><path d="M1040.45,449.82a9.25,9.25,0,0,1,1.44-5.44,4.63,4.63,0,0,1,4-2,4.9,4.9,0,0,1,4.37,2.36v-8.37h1.57v20.45h-1.29l-.22-2.06a5,5,0,0,1-1.83,1.73,5.48,5.48,0,0,1-2.62.6,4.72,4.72,0,0,1-4-1.89,8.19,8.19,0,0,1-1.44-5.08Zm1.58.27a7.16,7.16,0,0,0,1,4.09,3.48,3.48,0,0,0,3.09,1.52,4.43,4.43,0,0,0,2.53-.67,4.54,4.54,0,0,0,1.58-1.87v-6.72a5.07,5.07,0,0,0-1.52-2,4.06,4.06,0,0,0-2.56-.76,3.41,3.41,0,0,0-3.11,1.7,8.27,8.27,0,0,0-1,4.41Z"/><path d="M1061.4,457.06a5.65,5.65,0,0,1-4.47-1.94,7.27,7.27,0,0,1-1.72-5v-.72a7.41,7.41,0,0,1,1.74-5.06,5.46,5.46,0,0,1,4.3-2,5,5,0,0,1,4,1.65,6.69,6.69,0,0,1,1.41,4.47v1.22h-9.87v.43a6.4,6.4,0,0,0,1.23,4,4,4,0,0,0,3.39,1.6,6.34,6.34,0,0,0,2.38-.43,5.09,5.09,0,0,0,1.81-1.14l.67,1.07a5.8,5.8,0,0,1-2,1.31A7.48,7.48,0,0,1,1061.4,457.06Zm-.15-13.38a3.83,3.83,0,0,0-3,1.3,5.65,5.65,0,0,0-1.37,3.29l0,.08h8.13V448a4.79,4.79,0,0,0-1-3.11A3.44,3.44,0,0,0,1061.25,443.68Z"/><path d="M1071.21,442.61l.15,2.46a5.27,5.27,0,0,1,1.84-2,5.09,5.09,0,0,1,2.74-.71,4.39,4.39,0,0,1,3.52,1.41,6.65,6.65,0,0,1,1.2,4.39v8.64h-1.57v-8.62a5.11,5.11,0,0,0-.91-3.45,3.32,3.32,0,0,0-2.59-1,4.16,4.16,0,0,0-2.71.83,4.57,4.57,0,0,0-1.48,2.21v10h-1.58V442.61Z"/><path d="M1087.22,439v3.63h3.11v1.28h-3.11v9.24a3,3,0,0,0,.5,2,1.69,1.69,0,0,0,1.34.59,3.43,3.43,0,0,0,.56,0,5.07,5.07,0,0,0,.64-.11l.23,1.17a3.23,3.23,0,0,1-.78.26,4.86,4.86,0,0,1-.92.09,2.94,2.94,0,0,1-2.33-.94,4.47,4.47,0,0,1-.83-3v-9.24h-2.45v-1.28h2.45V439Z"/><path d="M1102.38,456.79c-.1-.5-.17-.93-.22-1.29a7.82,7.82,0,0,1-.07-1.1,5.76,5.76,0,0,1-2.06,1.91,6,6,0,0,1-3,.75,4.46,4.46,0,0,1-3.23-1.1,4,4,0,0,1-1.15-3,3.62,3.62,0,0,1,1.67-3.08,7.28,7.28,0,0,1,4.32-1.18h3.49v-1.76a3,3,0,0,0-1-2.38,3.93,3.93,0,0,0-2.72-.87,4.07,4.07,0,0,0-2.6.79,2.42,2.42,0,0,0-1,2h-1.46l0-.08a3.32,3.32,0,0,1,1.37-2.81,5.66,5.66,0,0,1,3.78-1.21,5.58,5.58,0,0,1,3.74,1.19,4.19,4.19,0,0,1,1.42,3.42v7a14,14,0,0,0,.08,1.46,9.67,9.67,0,0,0,.29,1.4Zm-5.22-1.11a5.62,5.62,0,0,0,3.13-.86,4.27,4.27,0,0,0,1.8-2.21V449.9h-3.5a5.21,5.21,0,0,0-3.16.91,2.64,2.64,0,0,0-1.24,2.19,2.5,2.5,0,0,0,.79,1.94A3.09,3.09,0,0,0,1097.16,455.68Z"/><path d="M1109.59,456.79H1108V436.34h1.56Z"/><path d="M1115.26,442.61l.15,2.33a4.9,4.9,0,0,1,1.81-1.91,5.07,5.07,0,0,1,2.69-.68,4.56,4.56,0,0,1,2.72.78,4.36,4.36,0,0,1,1.56,2.37,5.28,5.28,0,0,1,1.82-2.31,4.86,4.86,0,0,1,2.87-.84,4.27,4.27,0,0,1,3.5,1.5,7.26,7.26,0,0,1,1.24,4.67v8.27h-1.57v-8.3a5.72,5.72,0,0,0-.93-3.7,3.22,3.22,0,0,0-2.57-1.08,3.54,3.54,0,0,0-2.78,1.09,5.3,5.3,0,0,0-1.24,2.83v.29c0,.09,0,.21,0,.36v8.51H1123v-8.3a5.72,5.72,0,0,0-.93-3.67,3.21,3.21,0,0,0-2.58-1.11,4,4,0,0,0-2.63.83,4.44,4.44,0,0,0-1.36,2.25v10h-1.58V442.61Z"/><path d="M1143.1,457.06a5.65,5.65,0,0,1-4.47-1.94,7.27,7.27,0,0,1-1.72-5v-.72a7.41,7.41,0,0,1,1.74-5.06,5.47,5.47,0,0,1,4.3-2,5,5,0,0,1,4,1.65,6.69,6.69,0,0,1,1.41,4.47v1.22h-9.87v.43a6.4,6.4,0,0,0,1.23,4,4,4,0,0,0,3.39,1.6,6.34,6.34,0,0,0,2.38-.43,5.09,5.09,0,0,0,1.81-1.14l.67,1.07a5.8,5.8,0,0,1-2,1.31A7.48,7.48,0,0,1,1143.1,457.06Zm-.15-13.38a3.84,3.84,0,0,0-3,1.3,5.58,5.58,0,0,0-1.36,3.29l0,.08h8.13V448a4.79,4.79,0,0,0-1-3.11A3.44,3.44,0,0,0,1143,443.68Z"/><path d="M1152.91,442.61l.15,2.46a5.27,5.27,0,0,1,1.84-2,5.09,5.09,0,0,1,2.74-.71,4.39,4.39,0,0,1,3.52,1.41,6.65,6.65,0,0,1,1.2,4.39v8.64h-1.57v-8.62a5.11,5.11,0,0,0-.91-3.45,3.32,3.32,0,0,0-2.59-1,4.16,4.16,0,0,0-2.71.83,4.57,4.57,0,0,0-1.48,2.21v10h-1.58V442.61Z"/><path d="M1168.92,439v3.63H1172v1.28h-3.12v9.24a3,3,0,0,0,.5,2,1.69,1.69,0,0,0,1.34.59,3.36,3.36,0,0,0,.56,0,5.07,5.07,0,0,0,.64-.11l.23,1.17a3.23,3.23,0,0,1-.78.26,4.86,4.86,0,0,1-.92.09,2.94,2.94,0,0,1-2.33-.94,4.47,4.47,0,0,1-.83-3v-9.24h-2.45v-1.28h2.45V439Z"/><path d="M1180.49,457.06a5.65,5.65,0,0,1-4.47-1.94,7.27,7.27,0,0,1-1.72-5v-.72a7.41,7.41,0,0,1,1.74-5.06,5.47,5.47,0,0,1,4.3-2,4.93,4.93,0,0,1,4,1.65,6.69,6.69,0,0,1,1.41,4.47v1.22h-9.86v.43a6.39,6.39,0,0,0,1.22,4,4,4,0,0,0,3.39,1.6,6.34,6.34,0,0,0,2.38-.43,5.09,5.09,0,0,0,1.81-1.14l.67,1.07a5.8,5.8,0,0,1-2,1.31A7.48,7.48,0,0,1,1180.49,457.06Zm-.15-13.38a3.84,3.84,0,0,0-3,1.3,5.58,5.58,0,0,0-1.36,3.29l0,.08h8.12V448a4.79,4.79,0,0,0-1-3.11A3.43,3.43,0,0,0,1180.34,443.68Z"/><path d="M867,490a7.6,7.6,0,0,1,1.72-5.14,6.19,6.19,0,0,1,9.11,0,7.65,7.65,0,0,1,1.71,5.14v.43a7.64,7.64,0,0,1-1.71,5.15,6.19,6.19,0,0,1-9.11,0,7.6,7.6,0,0,1-1.72-5.15Zm1.57.43a6.77,6.77,0,0,0,1.25,4.15,4.41,4.41,0,0,0,6.91,0,6.71,6.71,0,0,0,1.25-4.15V490a6.67,6.67,0,0,0-1.26-4.11,4.37,4.37,0,0,0-6.9,0,6.73,6.73,0,0,0-1.25,4.11Z"/><path d="M885.27,479.51v3.63h3.12v1.29h-3.12v9.24a3.07,3.07,0,0,0,.5,2,1.7,1.7,0,0,0,1.35.58,4.8,4.8,0,0,0,.55,0c.18,0,.4-.06.64-.11l.24,1.16a3.23,3.23,0,0,1-.78.26,4.9,4.9,0,0,1-.93.1,2.93,2.93,0,0,1-2.32-1,4.4,4.4,0,0,1-.84-3v-9.24h-2.45v-1.29h2.45v-3.63Z"/><path d="M897.93,484.49l-1.11-.08a3.52,3.52,0,0,0-2.43.84,4.5,4.5,0,0,0-1.36,2.28v9.79h-1.57V483.14h1.37l.2,2.36v.16a5.07,5.07,0,0,1,1.65-2.05,4.13,4.13,0,0,1,2.46-.73,3.12,3.12,0,0,1,.55.05l.44.09Z"/><path d="M899.48,490a7.65,7.65,0,0,1,1.71-5.14,6.19,6.19,0,0,1,9.11,0A7.6,7.6,0,0,1,912,490v.43a7.64,7.64,0,0,1-1.71,5.15,6.2,6.2,0,0,1-9.12,0,7.64,7.64,0,0,1-1.71-5.15Zm1.57.43a6.77,6.77,0,0,0,1.24,4.15,4.42,4.42,0,0,0,6.92,0,6.77,6.77,0,0,0,1.25-4.15V490a6.67,6.67,0,0,0-1.26-4.11,4.38,4.38,0,0,0-6.91,0,6.73,6.73,0,0,0-1.24,4.11Z"/><path d="M923.58,479.08H922v-2.2h1.56Zm0,18.24H922V483.14h1.56Z"/><path d="M929.3,483.14l.15,2.47a4.9,4.9,0,0,1,4.59-2.73,4.38,4.38,0,0,1,3.51,1.41,6.68,6.68,0,0,1,1.2,4.4v8.63h-1.57V488.7a5.11,5.11,0,0,0-.91-3.45,3.32,3.32,0,0,0-2.59-1,4.17,4.17,0,0,0-2.7.83,4.56,4.56,0,0,0-1.49,2.21v10h-1.57V483.14Z"/><path d="M942.29,490.35a9.24,9.24,0,0,1,1.44-5.43,4.61,4.61,0,0,1,4-2,5.12,5.12,0,0,1,2.62.65,5.23,5.23,0,0,1,1.84,1.84l.22-2.23h1.27V497.4a5.62,5.62,0,0,1-1.49,4.18,5.8,5.8,0,0,1-4.24,1.47,10.13,10.13,0,0,1-2.18-.25,8.54,8.54,0,0,1-2-.68l.3-1.32a8.42,8.42,0,0,0,1.81.63,9.66,9.66,0,0,0,2.07.22,4.14,4.14,0,0,0,3.13-1.08,4.39,4.39,0,0,0,1-3.17v-2a5.1,5.1,0,0,1-1.83,1.63,5.56,5.56,0,0,1-2.57.57,4.71,4.71,0,0,1-4-1.9,8.2,8.2,0,0,1-1.44-5.07Zm1.57.28a7.13,7.13,0,0,0,1,4.08,3.5,3.5,0,0,0,3.11,1.52,4.46,4.46,0,0,0,2.51-.67,4.58,4.58,0,0,0,1.58-1.86v-6.76a5,5,0,0,0-1.53-1.94,4,4,0,0,0-2.54-.76,3.43,3.43,0,0,0-3.12,1.71,8.26,8.26,0,0,0-1,4.4Z"/><path d="M964.27,484.49l-1.11-.08a3.52,3.52,0,0,0-2.43.84,4.5,4.5,0,0,0-1.36,2.28v9.79H957.8V483.14h1.37l.2,2.36v.16a5.07,5.07,0,0,1,1.65-2.05,4.13,4.13,0,0,1,2.46-.73,3.33,3.33,0,0,1,.56.05l.43.09Z"/><path d="M972.09,497.6a5.66,5.66,0,0,1-4.46-2,7.25,7.25,0,0,1-1.72-5v-.72a7.43,7.43,0,0,1,1.74-5.06,5.46,5.46,0,0,1,4.3-2,4.94,4.94,0,0,1,4,1.66,6.64,6.64,0,0,1,1.41,4.46v1.22h-9.87v.43a6.38,6.38,0,0,0,1.23,4,4,4,0,0,0,3.38,1.6,6.56,6.56,0,0,0,2.39-.42,5.25,5.25,0,0,0,1.81-1.15l.67,1.08a5.93,5.93,0,0,1-2,1.3A7.49,7.49,0,0,1,972.09,497.6ZM972,484.22a3.82,3.82,0,0,0-3,1.29,5.62,5.62,0,0,0-1.37,3.29l0,.08h8.13v-.33a4.81,4.81,0,0,0-1-3.11A3.43,3.43,0,0,0,972,484.22Z"/><path d="M979.91,490.35a9.24,9.24,0,0,1,1.43-5.43,4.62,4.62,0,0,1,4-2,5,5,0,0,1,2.55.62,5.13,5.13,0,0,1,1.82,1.74v-8.36h1.57v20.44H990l-.23-2.06a4.88,4.88,0,0,1-1.83,1.73,5.34,5.34,0,0,1-2.62.61,4.7,4.7,0,0,1-4-1.9,8.16,8.16,0,0,1-1.43-5.07Zm1.57.28a7.13,7.13,0,0,0,1,4.08,3.47,3.47,0,0,0,3.1,1.52,4.48,4.48,0,0,0,2.53-.67,4.53,4.53,0,0,0,1.57-1.87V487a5.15,5.15,0,0,0-1.52-2,4.12,4.12,0,0,0-2.56-.76,3.42,3.42,0,0,0-3.11,1.7,8.37,8.37,0,0,0-1,4.41Z"/><path d="M997.22,479.08h-1.56v-2.2h1.56Zm0,18.24h-1.56V483.14h1.56Z"/><path d="M1006.94,497.6a5.69,5.69,0,0,1-4.47-2,7.29,7.29,0,0,1-1.71-5v-.72a7.47,7.47,0,0,1,1.73-5.06,5.49,5.49,0,0,1,4.31-2,4.94,4.94,0,0,1,4,1.66,6.64,6.64,0,0,1,1.41,4.46v1.22h-9.87v.43a6.38,6.38,0,0,0,1.23,4,4,4,0,0,0,3.38,1.6,6.59,6.59,0,0,0,2.39-.42,5.35,5.35,0,0,0,1.81-1.15l.67,1.08a6,6,0,0,1-2,1.3A7.49,7.49,0,0,1,1006.94,497.6Zm-.14-13.38a3.84,3.84,0,0,0-3,1.29,5.67,5.67,0,0,0-1.36,3.29l0,.08h8.12v-.33a4.8,4.8,0,0,0-1-3.11A3.43,3.43,0,0,0,1006.8,484.22Z"/><path d="M1016.76,483.14l.14,2.47a5.25,5.25,0,0,1,1.85-2,5.15,5.15,0,0,1,2.74-.71,4.35,4.35,0,0,1,3.51,1.41,6.63,6.63,0,0,1,1.21,4.4v8.63h-1.57V488.7a5.11,5.11,0,0,0-.92-3.45,3.3,3.3,0,0,0-2.58-1,4.21,4.21,0,0,0-2.71.83,4.63,4.63,0,0,0-1.49,2.21v10h-1.57V483.14Z"/><path d="M1032.76,479.51v3.63h3.12v1.29h-3.12v9.24a3,3,0,0,0,.51,2,1.66,1.66,0,0,0,1.34.58,5.12,5.12,0,0,0,.56,0l.63-.11.24,1.16a3.23,3.23,0,0,1-.78.26,4.9,4.9,0,0,1-.93.1,2.93,2.93,0,0,1-2.32-1,4.4,4.4,0,0,1-.84-3v-9.24h-2.45v-1.29h2.45v-3.63Z"/><path d="M1044.33,497.6a5.69,5.69,0,0,1-4.47-2,7.29,7.29,0,0,1-1.71-5v-.72a7.47,7.47,0,0,1,1.73-5.06,5.49,5.49,0,0,1,4.31-2,4.94,4.94,0,0,1,4,1.66,6.64,6.64,0,0,1,1.41,4.46v1.22h-9.87v.43a6.38,6.38,0,0,0,1.23,4,4,4,0,0,0,3.38,1.6,6.59,6.59,0,0,0,2.39-.42,5.35,5.35,0,0,0,1.81-1.15l.67,1.08a6,6,0,0,1-2,1.3A7.49,7.49,0,0,1,1044.33,497.6Zm-.14-13.38a3.84,3.84,0,0,0-3,1.29,5.67,5.67,0,0,0-1.36,3.29l0,.08H1048v-.33a4.81,4.81,0,0,0-1-3.11A3.43,3.43,0,0,0,1044.19,484.22Z"/><path d="M1068.26,497.32c-.09-.5-.16-.92-.21-1.28a8,8,0,0,1-.07-1.1,5.74,5.74,0,0,1-2.06,1.9,6,6,0,0,1-3,.76,4.44,4.44,0,0,1-3.23-1.11,4,4,0,0,1-1.15-3,3.62,3.62,0,0,1,1.66-3.08,7.39,7.39,0,0,1,4.33-1.18H1068v-1.75a3.06,3.06,0,0,0-1-2.39,3.91,3.91,0,0,0-2.72-.86,4.09,4.09,0,0,0-2.6.78,2.44,2.44,0,0,0-1,2h-1.45l0-.08a3.36,3.36,0,0,1,1.37-2.81,5.7,5.7,0,0,1,3.78-1.21,5.64,5.64,0,0,1,3.75,1.19,4.25,4.25,0,0,1,1.42,3.42v7a11.53,11.53,0,0,0,.08,1.45,9.64,9.64,0,0,0,.28,1.4Zm-5.21-1.11a5.65,5.65,0,0,0,3.13-.86,4.33,4.33,0,0,0,1.8-2.21v-2.71h-3.5a5.19,5.19,0,0,0-3.16.91,2.67,2.67,0,0,0-1.25,2.19,2.5,2.5,0,0,0,.8,1.94A3.06,3.06,0,0,0,1063.05,496.21Z"/><path d="M1082,497.32h-1.56V476.88H1082Z"/><path d="M1095.31,497.32c-.09-.5-.16-.92-.21-1.28a8,8,0,0,1-.07-1.1,5.74,5.74,0,0,1-2.06,1.9,6,6,0,0,1-3,.76,4.44,4.44,0,0,1-3.23-1.11,4,4,0,0,1-1.15-3,3.65,3.65,0,0,1,1.66-3.08,7.39,7.39,0,0,1,4.33-1.18H1095v-1.75a3.06,3.06,0,0,0-1-2.39,3.91,3.91,0,0,0-2.72-.86,4.09,4.09,0,0,0-2.6.78,2.44,2.44,0,0,0-1,2h-1.45l0-.08a3.38,3.38,0,0,1,1.37-2.81,5.7,5.7,0,0,1,3.78-1.21,5.64,5.64,0,0,1,3.75,1.19,4.25,4.25,0,0,1,1.42,3.42v7a11.53,11.53,0,0,0,.08,1.45,9.64,9.64,0,0,0,.28,1.4Zm-5.21-1.11a5.65,5.65,0,0,0,3.13-.86,4.33,4.33,0,0,0,1.8-2.21v-2.71h-3.5a5.19,5.19,0,0,0-3.16.91,2.67,2.67,0,0,0-1.25,2.19,2.5,2.5,0,0,0,.8,1.94A3.06,3.06,0,0,0,1090.1,496.21Z"/><path d="M1108.37,497.32V484.43H1106v-1.29h2.35v-2.07a4.73,4.73,0,0,1,1.07-3.3,3.88,3.88,0,0,1,3-1.17,5.27,5.27,0,0,1,.87.07,8.27,8.27,0,0,1,.92.18l-.21,1.3c-.21,0-.43-.1-.65-.13a5.69,5.69,0,0,0-.77,0,2.44,2.44,0,0,0-2,.81,3.41,3.41,0,0,0-.69,2.28v2.07h3.21v1.29h-3.21v12.89Z"/><path d="M1115,490a7.65,7.65,0,0,1,1.71-5.14,6.19,6.19,0,0,1,9.11,0,7.6,7.6,0,0,1,1.72,5.14v.43a7.64,7.64,0,0,1-1.71,5.15,5.68,5.68,0,0,1-4.54,2,5.75,5.75,0,0,1-4.58-2,7.64,7.64,0,0,1-1.71-5.15Zm1.57.43a6.77,6.77,0,0,0,1.25,4.15,4.41,4.41,0,0,0,6.91,0,6.77,6.77,0,0,0,1.25-4.15V490a6.67,6.67,0,0,0-1.26-4.11,4.07,4.07,0,0,0-3.46-1.69,4,4,0,0,0-3.44,1.69,6.73,6.73,0,0,0-1.25,4.11Zm6.66-13.32h1.92l0,.07-3.26,3.41h-1.4Z"/><path d="M1137.33,484.49l-1.11-.08a3.52,3.52,0,0,0-2.43.84,4.5,4.5,0,0,0-1.36,2.28v9.79h-1.57V483.14h1.37l.2,2.36v.16a5.07,5.07,0,0,1,1.65-2.05,4.13,4.13,0,0,1,2.46-.73,3.33,3.33,0,0,1,.56.05l.43.09Z"/><path d="M1141.35,483.14l.15,2.33a5,5,0,0,1,1.81-1.91,5.2,5.2,0,0,1,2.7-.68,4.54,4.54,0,0,1,2.71.78,4.29,4.29,0,0,1,1.56,2.38,5.4,5.4,0,0,1,1.83-2.32,4.81,4.81,0,0,1,2.86-.84,4.28,4.28,0,0,1,3.51,1.51,7.29,7.29,0,0,1,1.24,4.66v8.27h-1.58V489a5.73,5.73,0,0,0-.93-3.71,3.2,3.2,0,0,0-2.57-1.08,3.53,3.53,0,0,0-2.77,1.1,5.24,5.24,0,0,0-1.25,2.82,2.81,2.81,0,0,0,0,.29v8.87h-1.58V489a5.67,5.67,0,0,0-.94-3.68,3.18,3.18,0,0,0-2.58-1.11,3.92,3.92,0,0,0-2.62.83,4.45,4.45,0,0,0-1.37,2.25v10H1140V483.14Z"/><path d="M1173.08,495a4.81,4.81,0,0,1-1.83,1.91,5.34,5.34,0,0,1-2.71.67,4.35,4.35,0,0,1-3.52-1.52,7.33,7.33,0,0,1-1.27-4.72v-8.22h1.58v8.25a6.09,6.09,0,0,0,.88,3.72,3,3,0,0,0,2.51,1.12,4.56,4.56,0,0,0,2.82-.79,4.18,4.18,0,0,0,1.49-2.17V483.14h1.57v14.18h-1.39Z"/><path d="M1180.5,497.32h-1.56V476.88h1.56Z"/><path d="M1193.82,497.32c-.1-.5-.17-.92-.22-1.28a8,8,0,0,1-.07-1.1,5.74,5.74,0,0,1-2.06,1.9,6,6,0,0,1-3,.76,4.44,4.44,0,0,1-3.23-1.11,4,4,0,0,1-1.15-3,3.63,3.63,0,0,1,1.67-3.08,7.35,7.35,0,0,1,4.32-1.18h3.49v-1.75a3,3,0,0,0-1-2.39,3.89,3.89,0,0,0-2.71-.86,4.1,4.1,0,0,0-2.61.78,2.44,2.44,0,0,0-1,2h-1.45l0-.08a3.38,3.38,0,0,1,1.37-2.81,5.7,5.7,0,0,1,3.78-1.21,5.64,5.64,0,0,1,3.75,1.19,4.22,4.22,0,0,1,1.42,3.42v7a13.79,13.79,0,0,0,.08,1.45,9.64,9.64,0,0,0,.28,1.4Zm-5.22-1.11a5.62,5.62,0,0,0,3.13-.86,4.33,4.33,0,0,0,1.8-2.21v-2.71H1190a5.19,5.19,0,0,0-3.16.91,2.66,2.66,0,0,0-1.24,2.19,2.49,2.49,0,0,0,.79,1.94A3.08,3.08,0,0,0,1188.6,496.21Z"/><path d="M1201.18,497.32h-1.79v-2.15h1.79Z"/><path d="M1207.59,497.32h-1.8v-2.15h1.8Z"/><path d="M1214,497.32h-1.8v-2.15h1.8Z"/><rect class="cls-4" width="699" height="62"/></svg>