<svg id="Capa_1" data-name="Capa 1" xmlns="http://www.w3.org/2000/svg" viewBox="0 0 66.44 70.39"><defs><style>.cls-1{fill:#1d1d1b;}</style></defs><title>chx</title><path class="cls-1" d="M24.11,30.17a1.67,1.67,0,0,1-.56-.68.78.78,0,0,1,.3-.87c.57-.41,1.35.12,1.68.58a.16.16,0,0,0,.3-.08c.08-.81,1.17-1,1.79-.62s.11,1.23-.34,1.58c-.11.08,0,.22.07.26.6.24,1.49.85,1,1.59a1,1,0,0,1-1.55.09.16.16,0,0,0-.27.11,1.2,1.2,0,0,1-.95,1.18.84.84,0,0,1-1-.87.16.16,0,0,0-.2-.15,1,1,0,0,1-1.26-.8c0-.46.28-1.09.83-1,.21,0,.21-.3,0-.32-.76,0-1.22.8-1.14,1.45a1.31,1.31,0,0,0,1.65,1l-.2-.15a1.16,1.16,0,0,0,1.33,1.19,1.5,1.5,0,0,0,1.26-1.5l-.28.11a1.33,1.33,0,0,0,2.06-.16,1.07,1.07,0,0,0,0-1,2.28,2.28,0,0,0-1.28-1l.07.26a2,2,0,0,0,.73-1,1,1,0,0,0-.53-1.09,2,2,0,0,0-1.41-.11,1.2,1.2,0,0,0-.79,1l.3-.08c-.45-.62-1.44-1.21-2.17-.65a1.08,1.08,0,0,0-.44,1,1.66,1.66,0,0,0,.69,1C24,30.52,24.27,30.3,24.11,30.17Z"/><path class="cls-1" d="M25.63,31.06a.44.44,0,0,1-.29-.27s0,0,0,0h0v0s0,0,0-.07l0-.1,0-.05s0,0,0,0l0,0,.07-.11,0,0s0,0,0,0a.12.12,0,0,1,0-.05l0,0s0,0,0,0l.07,0h0l.08,0h.11l.09,0h0l.06,0a.55.55,0,0,1,.18.16l0,0s0,.07,0,0,0,0,0,0v0s0,0,0,0a.19.19,0,0,1,0,.08v.2s0,0,0,0a.13.13,0,0,1,0,.06.16.16,0,0,1,0,.09s0,0,0,0l0,0h0l0,0a.56.56,0,0,1-.54.08.16.16,0,1,0-.09.3.88.88,0,0,0,.71-.06.63.63,0,0,0,.23-.17.72.72,0,0,0,.09-.2,1.56,1.56,0,0,0,0-.43.66.66,0,0,0,0-.15.58.58,0,0,0-.18-.25.79.79,0,0,0-.95-.14,1,1,0,0,0-.39.57.69.69,0,0,0,0,.32.53.53,0,0,0,.19.31.7.7,0,0,0,.33.2.17.17,0,0,0,.2-.11A.15.15,0,0,0,25.63,31.06Z"/><path class="cls-1" d="M42,58.94l-2.35-.26a.15.15,0,0,0-.14.08L38.13,61l.3.08-.27-2.26a.17.17,0,0,0-.12-.16l-2.29-.62v.3l1.53-.45a.14.14,0,0,0,.11-.11L38,54.62l-.3,0,1.43,2.19a.16.16,0,0,0,.18.07l2.91-.84-.16-.26-1.63,2a.16.16,0,0,0,0,.22l1.44,1.19c.16.13.39-.09.23-.22L40.68,57.8V58l1.63-2a.16.16,0,0,0-.16-.26l-2.9.84.18.07L38,54.5c-.07-.11-.27-.1-.29,0l-.63,3.18.11-.11-1.53.45a.16.16,0,0,0,0,.3L38,59l-.12-.15.27,2.26a.16.16,0,0,0,.3.07l1.39-2.26-.14.08,2.35.27C42.21,59.28,42.21,59,42,58.94Z"/><path class="cls-1" d="M8.61,37.2a2.82,2.82,0,0,0,2.56-.14,2.38,2.38,0,0,0,1-1.87,2.68,2.68,0,0,0-2-2.5A2.39,2.39,0,0,0,8,33.27a1.84,1.84,0,0,0-.35,1.84A1.5,1.5,0,0,0,9,36.25a1.6,1.6,0,0,0,1.64-.57A1.27,1.27,0,0,0,10.07,34a.86.86,0,0,0-1,.15.47.47,0,0,0,.25.77c.21,0,.29-.27.09-.3a.17.17,0,0,1-.06-.31.51.51,0,0,1,.43-.08.82.82,0,0,1,.54.42A.84.84,0,0,1,10,35.83a1.71,1.71,0,0,1-1.45,0,1.42,1.42,0,0,1-.63-1.3,1.35,1.35,0,0,1,.77-1.3,2,2,0,0,1,1.64-.12,2.37,2.37,0,0,1,1.55,2A2.07,2.07,0,0,1,11,36.79a2.51,2.51,0,0,1-2.31.1c-.2-.07-.28.23-.09.31Z"/><g id="Scooby"><path class="cls-1" d="M52.61,41.19a14.38,14.38,0,0,0,1,2.25c.27.5.56,1,.87,1.46.15.25.31.49.48.73l.29.42c.08.13.21.26.28.39s.37.06.28-.12a4.48,4.48,0,0,0-.47-.67c-.19-.28-.38-.55-.56-.83-.31-.49-.61-1-.89-1.5a14.92,14.92,0,0,1-1-2.26c-.06-.18-.35-.06-.28.13Z"/><path class="cls-1" d="M60.13,37.84A13.72,13.72,0,0,1,61.2,40.1c.21.54.4,1.08.57,1.63.1.3.2.61.29.92a4.87,4.87,0,0,0,.23.83.15.15,0,0,0,.28-.12,3.9,3.9,0,0,1-.12-.46c0-.15-.09-.3-.13-.44s-.17-.56-.26-.84c-.17-.55-.37-1.1-.58-1.64a14.12,14.12,0,0,0-1.06-2.26c-.11-.17-.39,0-.29.12Z"/><path class="cls-1" d="M48.75,32.23a1.52,1.52,0,0,0,1.33,1.25c.05,0,.11,0,.08-.11a2,2,0,0,1-.32-1.17,1.33,1.33,0,0,0-.17-.73,8.84,8.84,0,0,0-.76-1.3c-.06-.09-.18,0-.12.09a8.43,8.43,0,0,1,.75,1.3,1.9,1.9,0,0,1,.14.4,3.09,3.09,0,0,1,0,.43,2.27,2.27,0,0,0,.33,1l.08-.1c-.63,0-1-.58-1.19-1.12,0-.1-.18-.08-.15,0Z"/><path class="cls-1" d="M55.74,29.2c.36.43.61,1.1.19,1.55h.13a2.34,2.34,0,0,0-.57-.89c-.11-.11-.25-.17-.35-.28a1.56,1.56,0,0,1-.23-.36,7.84,7.84,0,0,1-.54-1.39c0-.09-.18-.07-.15,0a8.41,8.41,0,0,0,.53,1.4,1.51,1.51,0,0,0,.49.6,2,2,0,0,1,.68,1c0,.06.1.05.13,0a1.34,1.34,0,0,0-.19-1.74c-.06-.08-.18,0-.12.1Z"/><path class="cls-1" d="M55.94,38.15a2.81,2.81,0,0,1,.52,1.17,1.88,1.88,0,0,1-1.22,2.13,3.2,3.2,0,0,1-2.93-.81c-.34-.25-.79-.55-.87-1a1.19,1.19,0,0,1,.25-.85,3.82,3.82,0,0,1,1.06-1c.12-.08,0-.25-.09-.27-.37-.08-.93-.25-.77-.73a1.28,1.28,0,0,1,.28-.43c.14-.14-.06-.38-.2-.24a1.35,1.35,0,0,0-.42.75c-.08.61.59.85,1.09,1l-.09-.27a4.12,4.12,0,0,0-1.12,1.08,1.62,1.62,0,0,0-.31,1,1.56,1.56,0,0,0,.7,1A4.08,4.08,0,0,0,55,41.84a2.23,2.23,0,0,0,1.81-2.13A3,3,0,0,0,56.17,38c-.12-.15-.35,0-.23.2Z"/><path class="cls-1" d="M54.25,34.71a2.85,2.85,0,0,0-1.35,1.37,4.44,4.44,0,0,0-.22.61.59.59,0,0,0,0,.32,1.78,1.78,0,0,0,.35.51,3,3,0,0,0,1,.79,2.48,2.48,0,0,0,3-.94,2.66,2.66,0,0,0,.1-2.24c-.09-.25-.46-.33-.69-.41a3.2,3.2,0,0,0-2.2,0c-.18.08,0,.36.14.28a2.71,2.71,0,0,1,1.82,0,3.73,3.73,0,0,1,.56.2s.12.07.13.06,0-.1-.07,0,.06.16.07.2a2.88,2.88,0,0,1,.09.4,2.31,2.31,0,0,1-.07,1.11,2.15,2.15,0,0,1-2.53,1.24,2.22,2.22,0,0,1-1-.63,4.81,4.81,0,0,1-.44-.57l0,0s0,.13,0,0a3.17,3.17,0,0,1,.15-.5A2.51,2.51,0,0,1,54.39,35C54.57,34.91,54.44,34.63,54.25,34.71Z"/><path class="cls-1" d="M52.46,32.38a1.14,1.14,0,0,0-1.09.59,1.93,1.93,0,0,0-.19.75c0,.1.15.11.15,0a1.38,1.38,0,0,1,.42-1,1,1,0,0,1,.58-.22h.12a.08.08,0,1,0,0-.15Z"/><path class="cls-1" d="M53.49,31.9s0,0,0,0a.29.29,0,0,1,0-.09,1.75,1.75,0,0,1,.11-.24.48.48,0,0,1,.56-.25,1.54,1.54,0,0,1,.64.43c.07.07.19,0,.12-.1-.27-.26-.68-.61-1.1-.47a.86.86,0,0,0-.46.54,1.21,1.21,0,0,0,0,.18c0,.1.13.12.15,0Z"/><path class="cls-1" d="M51.71,38.57A6.71,6.71,0,0,1,51,37.32a1.7,1.7,0,0,1-.11-.86c0-.78.08-1.56.1-2.35a.16.16,0,0,0-.22-.15,2,2,0,0,1-1.71,0,.89.89,0,0,1-.29-1c0-.23.17-.43.22-.65A.67.67,0,0,0,49,32a6.46,6.46,0,0,1-.11-.75c0-.43,0-1.31.68-.91a1.91,1.91,0,0,1,.65,1.63.16.16,0,0,0,.14.17l.52,0a1,1,0,0,0,.43,0c.21-.1.39-.28.6-.39s.54-.28.83-.41.55-.23.83-.33.42-.08.62-.14.21-.2.3-.3l.32-.38a.16.16,0,0,0,0-.22,2.37,2.37,0,0,1-.86-1.28c0-.23,0-.66.35-.66a1.27,1.27,0,0,1,.64.35,4.53,4.53,0,0,1,.57.59c.09.09.16.23.26.32a2.15,2.15,0,0,0,.5.19,1.41,1.41,0,0,1,.82.69c.22.65-.58,1.29-1.11,1.53a.15.15,0,0,0,0,.26c.64.51,1.31,1,2,1.46a1.84,1.84,0,0,1,.61.63A6.82,6.82,0,0,1,59,35.39c0,.19.36.14.3,0a3.82,3.82,0,0,0-1.14-2.12c-.7-.51-1.42-1-2.11-1.54l0,.26a2.11,2.11,0,0,0,1.31-1.52,1.09,1.09,0,0,0-.54-1,2.43,2.43,0,0,0-.53-.28c-.08,0-.27-.15-.37-.13s0-.05,0,0L55.87,29a2.65,2.65,0,0,0-.21-.26,5.37,5.37,0,0,0-.72-.71,1.22,1.22,0,0,0-.81-.33.71.71,0,0,0-.57.62c-.15.71.46,1.43,1,1.87l0-.21-.3.35-.18.21,0,.06c.07-.06.07-.05,0-.05a2.56,2.56,0,0,0-.64.18l-.78.3c-.26.12-.52.24-.77.38a3.55,3.55,0,0,0-.62.38s-.15.09,0,0c0,0,0,0-.06,0h-.77l.14.17a2.45,2.45,0,0,0-.62-1.8.92.92,0,0,0-.93-.23.84.84,0,0,0-.39.66,4.43,4.43,0,0,0,.15,1.62s.05-.07,0,0,0,.09-.06.12a3.13,3.13,0,0,0-.16.52A1.35,1.35,0,0,0,48.64,34a2.1,2.1,0,0,0,2.26.26l-.22-.16c0,.84-.08,1.67-.11,2.51a3.86,3.86,0,0,0,.9,2.18c.12.16.35,0,.24-.2Z"/><path class="cls-1" d="M56.89,34.27a1.43,1.43,0,0,1,.53.08c.48.19.25.72.07,1-.06.1,0,.28.15.24a2.9,2.9,0,0,1,2.13.1c.55.36.43,1.15.39,1.7a3.3,3.3,0,0,1-.82,2.1,2,2,0,0,1-2.59.12c-.16-.12-.34.13-.18.25a2.35,2.35,0,0,0,2.52.18,2.81,2.81,0,0,0,1.29-2,6.94,6.94,0,0,0,.11-1.44,1.55,1.55,0,0,0-.22-.87,1.75,1.75,0,0,0-1.45-.6,4.65,4.65,0,0,0-1.23.14l.15.24c.25-.43.5-1.07,0-1.42a1.46,1.46,0,0,0-.87-.18c-.2,0-.15.32,0,.3Z"/><path class="cls-1" d="M54.4,41.88c1,.74,2.42,1.42,3.68.91s1.65-2.06,1.68-3.31c0-.19-.31-.22-.31,0,0,1.14-.3,2.58-1.51,3.06s-2.45-.21-3.36-.88a.15.15,0,0,0-.18.25Z"/><path class="cls-1" d="M55.91,41.27a1.54,1.54,0,0,0,1.08.55,1.27,1.27,0,0,0,.95-.34,1.32,1.32,0,0,0,.36-.77,1.57,1.57,0,0,0,0-.53.08.08,0,0,0-.16,0,1.44,1.44,0,0,1-.23,1.07,1.18,1.18,0,0,1-1.58.17,1.31,1.31,0,0,1-.31-.27c-.06-.08-.18,0-.12.1Z"/><path class="cls-1" d="M62.29,43.48l.41.87c0,.11.11.21.15.32,0-.05,0,0,0,0a1.82,1.82,0,0,1,0,.4A3.23,3.23,0,0,1,61,47.62c-1.27.72-3.39,1.33-4.52,0l-.09-.11c.05.07-.06-.15-.08-.18l-.47-1-.26.16a3.62,3.62,0,0,0,2.92.93,5.65,5.65,0,0,0,2.88-1.26,3.32,3.32,0,0,0,1.14-1.69,2.24,2.24,0,0,0,0-1.06c0-.2-.35-.15-.31,0a2.53,2.53,0,0,1-.82,2.25,4.54,4.54,0,0,1-4.77,1.14,2.72,2.72,0,0,1-.84-.55c-.12-.12-.34,0-.26.16l.44.94a2.22,2.22,0,0,0,.21.37,2.55,2.55,0,0,0,1.31.84,4.72,4.72,0,0,0,3.29-.52,4,4,0,0,0,2.27-2.38,1.85,1.85,0,0,0,0-1.27l-.5-1.06C62.48,43.18,62.2,43.3,62.29,43.48Z"/><path class="cls-1" d="M62.41,51.33l-2.47-.95.07.15.87-2.42-.15.06,2.47.95L63.13,49l-.87,2.43c0,.13.17.21.22.08l.87-2.43a.11.11,0,0,0-.07-.14L60.81,48a.12.12,0,0,0-.15.07l-.87,2.42a.11.11,0,0,0,.07.15l2.47.94A.11.11,0,1,0,62.41,51.33Z"/><path class="cls-1" d="M60.62,49.85l.48-.77H61l.22.45v0l-.21.2s0,.05,0,.06l.5.18,0,0,0,.73.05,0-.83-.34v.07l.34-.29s0-.05,0-.06l-.47-.17a0,0,0,1,0,0,.07L61,50V50l-.34.29s0,0,0,.06l.83.34a0,0,0,0,0,.06,0l0-.72s0,0,0,0l-.51-.18v.07l.21-.2a.09.09,0,0,0,0,0l-.22-.45A0,0,0,0,0,61,49l-.48.76S60.59,49.89,60.62,49.85Z"/><path class="cls-1" d="M61.37,49l.32-.06a.84.84,0,0,1,.52,0c.15.09.1.31.08.45a5,5,0,0,1-.13.65c0,.12-.07.25-.11.37h.07l-.63-1.32-.09-.19s-.09,0-.07,0L62,50.27l.09.18a0,0,0,0,0,.07,0,5.43,5.43,0,0,0,.25-1c0-.15.06-.37-.07-.49a.64.64,0,0,0-.49-.1,2.22,2.22,0,0,0-.45.07S61.32,49,61.37,49Z"/><path class="cls-1" d="M61.7,49.14l.24.5,0,.07a0,0,0,0,0,.07,0,1,1,0,0,0,.05-.3.31.31,0,0,0-.22-.36.24.24,0,0,0-.16.05s0,.09,0,.06h.09a.15.15,0,0,1,.14.11.63.63,0,0,1,0,.36.29.29,0,0,1,0,.09H62l-.23-.49,0-.08S61.68,49.1,61.7,49.14Z"/><path class="cls-1" d="M59.78,47l0,0s0,0,0,0v0h0a.44.44,0,0,1,.08-.11h0l0,0,0,0a.47.47,0,0,1,.38,0,.74.74,0,0,1,.25.21,1.32,1.32,0,0,1,.27.59,1,1,0,0,1,0,.3l0,.12,0,.06s0,0,0,0l0,0s0,0,0,0h0l0,0h0s0,0,0,0h-.22l-.24-.1a.12.12,0,1,0-.08.22.72.72,0,0,0,.77,0,.74.74,0,0,0,.18-.65,1.47,1.47,0,0,0-.28-.75.93.93,0,0,0-.83-.42.64.64,0,0,0-.48.46.13.13,0,0,0,.07.15.11.11,0,0,0,.15-.07Z"/></g><path class="cls-1" d="M30.89,9.37A.19.19,0,0,0,31.05,9a.19.19,0,0,0-.16.35Z"/><path class="cls-1" d="M21.46,3.3a15.84,15.84,0,0,1,5.95,1,16.26,16.26,0,0,1,2.68,1.32,14.82,14.82,0,0,1,1.29.9,3.59,3.59,0,0,1,1,1,1.1,1.1,0,0,1-.13,1.35A1.62,1.62,0,0,1,30.93,9,4.13,4.13,0,0,1,28.64,7.4a4.25,4.25,0,0,1-.35-.58c-.09-.18-.32-.59-.19-.8a.24.24,0,0,1,.26-.09.3.3,0,0,1,.15.21.6.6,0,0,1-.07.37.9.9,0,0,1-.65.43,1.94,1.94,0,0,1-1.35-.48c-.33-.24-1.13-.84-.79-1.33.19-.28.56-.08.6.21a.68.68,0,0,1-.39.65c-.57.29-1.2-.11-1.66-.43A14.76,14.76,0,0,1,21.59,3c-.15-.18-.46,0-.3.23a11.26,11.26,0,0,0,3.33,3,1.48,1.48,0,0,0,1.64-.09,1,1,0,0,0,.22-1.28.72.72,0,0,0-1.1-.06c-.4.47-.08,1.08.27,1.45.7.73,2.29,1.68,3.07.47.26-.4.24-1.08-.29-1.22s-.8.43-.7.9a4.29,4.29,0,0,0,2.41,2.67c.91.42,2.61.73,2.81-.71a1.91,1.91,0,0,0-.58-1.55A9.89,9.89,0,0,0,30.63,5.5a16.06,16.06,0,0,0-9.21-2.59C21.18,2.92,21.22,3.3,21.46,3.3Z"/><path class="cls-1" d="M21.3,3,20.24,4.27l.22,0h0a.18.18,0,0,0-.22,0c-.39.45-.76.92-1.11,1.39A8.2,8.2,0,0,0,17.76,8l.25-.1a1.58,1.58,0,0,0-2.09.4,1.76,1.76,0,0,0,.74,2.59l-.11-.2a4.81,4.81,0,0,0,.15,1.69,8.16,8.16,0,0,0,2,3.59,11.43,11.43,0,0,0,.91.93,6.68,6.68,0,0,0,1.22.91,3.72,3.72,0,0,0,.79.22,9.84,9.84,0,0,0,1.43.2,8.74,8.74,0,0,0,4.25-.72A5,5,0,0,0,29,16.27l-.22.06a1.73,1.73,0,0,0,2.4-1.17A1.62,1.62,0,0,0,30,13.31l.09.25a7.86,7.86,0,0,0,.76-2.48c.12-.6.22-1.22.3-1.83a.19.19,0,0,0-.38-.06c-.07.59-.16,1.18-.28,1.76a7.86,7.86,0,0,1-.74,2.46.18.18,0,0,0,.09.25A1.28,1.28,0,0,1,30.79,15a1.44,1.44,0,0,1-.13.4l-.1.19c-.07.12,0,0,0,0a1.37,1.37,0,0,1-.19.22,1.4,1.4,0,0,1-1.47.18.2.2,0,0,0-.23.06,4.12,4.12,0,0,1-1.18.89,7.6,7.6,0,0,1-3.7.89,9.51,9.51,0,0,1-2.6-.33,2.82,2.82,0,0,1-.93-.57,9.94,9.94,0,0,1-.91-.81,8.61,8.61,0,0,1-2.21-3.6,4.6,4.6,0,0,1-.21-1.81.19.19,0,0,0-.11-.2A1.49,1.49,0,0,1,16,9.28,1.06,1.06,0,0,1,16,9s0,0,0,0a2.25,2.25,0,0,1,.08-.24,1.68,1.68,0,0,1,.21-.37,1.24,1.24,0,0,1,1.57-.17.2.2,0,0,0,.25-.1,8.09,8.09,0,0,1,1.37-2.27c.34-.45.69-.9,1.06-1.32l-.23.05h0a.2.2,0,0,0,.23-.05c.34-.44.7-.87,1.06-1.29A.19.19,0,0,0,21.3,3Z"/><path class="cls-1" d="M19.92,2.81a1.59,1.59,0,0,1,1.46.37.09.09,0,0,0,.15-.09A3.55,3.55,0,0,0,21,1.58c-.06-.11-.22,0-.15.11a3.44,3.44,0,0,1,.53,1.43L21.5,3a1.77,1.77,0,0,0-1.6-.41c-.12,0-.1.22,0,.19Z"/><path class="cls-1" d="M21.82,12.18l2.47.83.37.12,0-.19-1.52.38-.78.2a.24.24,0,0,0-.16.07,1.17,1.17,0,0,0-.1.26l-.35.86.14,0a3.11,3.11,0,0,1-.69-2c0-.13-.19-.1-.19,0a3.2,3.2,0,0,0,.76,2.15.1.1,0,0,0,.15,0l.45-1.11-.07.06,2.37-.6c.08,0,.13-.15,0-.18l-2.47-.82L21.9,12c-.12,0-.2.14-.08.17Z"/><path class="cls-1" d="M14.76,60.47a3.52,3.52,0,0,1-3,2.46,6.76,6.76,0,0,1-2.33-.18,4.88,4.88,0,0,1-1.9-.85,2.22,2.22,0,0,1-.73-2.24,3.86,3.86,0,0,1,.59-1.42A.16.16,0,0,0,7.29,58,5.09,5.09,0,0,1,5,55.54c-.09-.2-.37,0-.29.15a5.32,5.32,0,0,0,2.4,2.6l0-.22A3.11,3.11,0,0,0,7,61.86a3.8,3.8,0,0,0,1.59,1,7.4,7.4,0,0,0,2.59.45,4.21,4.21,0,0,0,3-1.23,3.49,3.49,0,0,0,.87-1.5c.05-.2-.27-.29-.32-.09Z"/><path class="cls-1" d="M3.57,54.47a1.38,1.38,0,0,1-.51-.82,1.16,1.16,0,0,1,.2-.91,1.5,1.5,0,0,1,1.51-.29,2,2,0,0,1,.88.48c.15.15.39-.07.24-.21a2.49,2.49,0,0,0-2-.65A1.42,1.42,0,0,0,3,52.5a1.39,1.39,0,0,0-.32,1.07,1.66,1.66,0,0,0,.68,1.17c.17.13.34-.15.17-.27Z"/><path class="cls-1" d="M13.76,60.35a1.6,1.6,0,0,0,2.09-.13,5.92,5.92,0,0,0,1.4-2.82,4.12,4.12,0,0,0,.17-2.17,1,1,0,0,0-.41-.61c-.19-.09-.37.18-.17.27s0,0,.06,0a.72.72,0,0,1,.16.25,3,3,0,0,1,0,1.67,7.11,7.11,0,0,1-1.16,2.83,1.5,1.5,0,0,1-1.27.67,1.22,1.22,0,0,1-.46-.13.57.57,0,0,1-.13-.08l0,0c-.16-.13-.4.09-.24.22Z"/><path class="cls-1" d="M9.41,55.19s0,0-.08,0a1.51,1.51,0,0,1-.28.15,4.09,4.09,0,0,1-1.13.34,7.61,7.61,0,0,1-4.48-.84l.08.14c0-.07,0-.06,0-.15a1.38,1.38,0,0,1,.3-.49,7.58,7.58,0,0,1,2.72-1.75H6.4a8.68,8.68,0,0,1,1.29.75,3.82,3.82,0,0,1,1.67,2c.05.2.37.13.32-.07C9.34,54,7.93,53,6.77,52.44a.44.44,0,0,0-.47,0,10.34,10.34,0,0,0-1.47.78,4.48,4.48,0,0,0-1.41,1.22,1.1,1.1,0,0,0-.23.62.15.15,0,0,0,.08.14c1.82.87,4.12,1.42,6,.48a1.8,1.8,0,0,0,.35-.21C9.8,55.3,9.57,55.06,9.41,55.19Z"/><path class="cls-1" d="M14.14,59.52A4.36,4.36,0,0,0,15.63,58a.93.93,0,0,0,0-.94,1.16,1.16,0,0,0-.71-.44.71.71,0,0,0-.69.13,5.23,5.23,0,0,0-1,1.34s0,.08.07,0a7.43,7.43,0,0,1,.76-1.1,1,1,0,0,1,.41-.35.81.81,0,0,1,.31,0,1.15,1.15,0,0,1,.7.33.78.78,0,0,1,.13.85,2.25,2.25,0,0,1-.47.71,7.08,7.08,0,0,1-1,.87c-.05,0,0,.09.05.06Z"/><path class="cls-1" d="M13,57.58a3.51,3.51,0,0,0,.64-.33,1.45,1.45,0,0,0,.72-.84,1.07,1.07,0,0,0-.64-1,.67.67,0,0,0-.87.18,3.09,3.09,0,0,0-.47.9s.05.07.07,0c.19-.42.47-1.31,1.12-1.08a1.24,1.24,0,0,1,.55.43.69.69,0,0,1,.17.54,1.39,1.39,0,0,1-.67.8,3.74,3.74,0,0,1-.66.34c-.05,0,0,.09,0,.07Z"/><path class="cls-1" d="M12.11,56a2.32,2.32,0,0,0,.51-.16.88.88,0,0,0,.57-.57c.08-.4-.3-.77-.59-1a1.2,1.2,0,0,0-1-.26,1,1,0,0,0-.45.25s0,.1.05.06a.92.92,0,0,1,1.17-.09,1.9,1.9,0,0,1,.54.48.7.7,0,0,1,.19.47c0,.27-.27.45-.49.56a2.63,2.63,0,0,1-.54.18c-.05,0,0,.09,0,.07Z"/><path class="cls-1" d="M16.51,55.67a2.51,2.51,0,0,1-.15.6c-.11.28-.31.65-.66.65a.94.94,0,0,1-.62-.28,1.21,1.21,0,0,1-.47-.68c-.08-.46.3-.84.64-1.1a3.73,3.73,0,0,1,.84-.5c.05,0,0-.09,0-.07a4.25,4.25,0,0,0-.8.46,1.46,1.46,0,0,0-.73,1.13,1.11,1.11,0,0,0,.36.69,1.45,1.45,0,0,0,.68.42.75.75,0,0,0,.8-.51,2.81,2.81,0,0,0,.24-.81c0-.05-.08-.05-.09,0Z"/><path class="cls-1" d="M15.27,53.61a4.89,4.89,0,0,1-.14.64,1.46,1.46,0,0,1-.64.91,1,1,0,0,1-1.22-.37c-.17-.37.18-.79.42-1a5.25,5.25,0,0,1,.72-.62s0-.1,0-.07a4.82,4.82,0,0,0-.69.58c-.26.27-.62.67-.52,1.08a.71.71,0,0,0,.43.45,1.13,1.13,0,0,0,.72.13,1.19,1.19,0,0,0,.82-.82,3.18,3.18,0,0,0,.22-.87,0,0,0,0,0-.08,0Z"/><path class="cls-1" d="M13.34,52.8a2.9,2.9,0,0,1,0,.51,1.16,1.16,0,0,1-.24.77.36.36,0,0,1-.34.11.87.87,0,0,1-.26-.08.78.78,0,0,0-.2-.11,1.56,1.56,0,0,1-.61-.19c-.06,0-.07-.07,0-.13a.83.83,0,0,1,.08-.22,6.62,6.62,0,0,1,.58-.84s0-.08-.07,0a6.19,6.19,0,0,0-.55.79c-.06.1-.17.28-.13.41s.13.12.2.15a2.29,2.29,0,0,0,.37.12l.19,0a2.2,2.2,0,0,0,.31.15.52.52,0,0,0,.44,0,.94.94,0,0,0,.35-.74,3.09,3.09,0,0,0,0-.68s-.09,0-.08,0Z"/><path class="cls-1" d="M15.12,58a.76.76,0,0,0-.21-.79.57.57,0,0,0-.72,0,.85.85,0,0,0-.3.8.6.6,0,0,0,.53.51.72.72,0,0,0,.7-.54c0-.05-.07-.08-.08,0a.67.67,0,0,1-.51.49.51.51,0,0,1-.54-.37.76.76,0,0,1,.17-.72.52.52,0,0,1,.65-.14A.66.66,0,0,1,15,58,0,0,0,0,0,15.12,58Z"/><path class="cls-1" d="M9.7,64a1.8,1.8,0,0,1,1.22-1.33,3,3,0,0,1,1.2-.12c.16,0,.16-.23,0-.24a2.78,2.78,0,0,0-1.91.46,2,2,0,0,0-.69.94,1.8,1.8,0,0,0-.06.22c0,.15.21.22.24.07Z"/><path class="cls-1" d="M8.77,63.71a1.78,1.78,0,0,0,.12-.65,2,2,0,0,0-.48-1.37,3.29,3.29,0,0,0-1-.79c-.14-.08-.27.13-.13.2a2.61,2.61,0,0,1,1.26,1.32,1.87,1.87,0,0,1,0,1,.89.89,0,0,1-.06.2c-.06.14.18.21.24.07Z"/><path class="cls-1" d="M7.89,62.4a5.61,5.61,0,0,0-1,.91,4.82,4.82,0,0,0-.38.51c-.19.28-.37.31-.7.2a8.94,8.94,0,0,0-2.95-.43,8.46,8.46,0,0,0-1.41.16.58.58,0,0,1-.18,0s-.14-.11-.12-.17.25-.18.32-.22A3.45,3.45,0,0,1,2,63.1a4,4,0,0,1,3.11.17c.43.21.76.49,1.24.27A17.38,17.38,0,0,0,8,62.61a.12.12,0,1,0-.12-.21,17.38,17.38,0,0,1-1.62.93c-.38.16-.67-.11-1-.27a5.22,5.22,0,0,0-.75-.28,4.15,4.15,0,0,0-3,.28c-.25.13-.84.4-.74.76s.81.14,1.07.1a8.35,8.35,0,0,1,3.55.24c.47.14.88.33,1.21-.12A5.9,5.9,0,0,1,8,62.61C8.14,62.52,8,62.31,7.89,62.4Z"/><path class="cls-1" d="M11.8,63.18a4.65,4.65,0,0,1,.36,1.72c0,.42.09.71.53.84a11.53,11.53,0,0,1,1.7.62,9.31,9.31,0,0,1,1.44.89c.22.18.44.37.64.56s.28.33.48.34c.47,0,.29-.54.19-.77a4,4,0,0,0-2.1-2,4.27,4.27,0,0,0-.94-.29,3.11,3.11,0,0,0-.44-.06,2,2,0,0,1-.54,0c-.33-.13-.48-.62-.62-.91l-.48-1a.12.12,0,0,0-.22.11c.25.48.48,1,.73,1.45a.94.94,0,0,0,.87.59,4.13,4.13,0,0,1,2.87,1.28,3.49,3.49,0,0,1,.41.54,1.66,1.66,0,0,1,.32.67c0,.26-.2.08-.28,0l-.28-.27c-.17-.15-.35-.3-.52-.43a8.57,8.57,0,0,0-2.65-1.37c-.23-.07-.66-.1-.8-.31s-.06-.58-.08-.8A5.29,5.29,0,0,0,12,63.07C12,62.92,11.75,63,11.8,63.18Z"/><path class="cls-1" d="M17.44,56.2c1.59-1.76-1.18-3.58-2.7-4.09a5.14,5.14,0,0,0-1.6-.29,2,2,0,0,0-1.3.32.35.35,0,0,0,.22.58c.44.1.89.14,1.33.26a5.75,5.75,0,0,1,1.79.74,2.52,2.52,0,0,1,1.2,1.84,5.23,5.23,0,0,1-.09,1.25c-.09.66-1.1,3.56-2.17,2.47a6.89,6.89,0,0,1-1-2A7.93,7.93,0,0,0,12,55.54c-.31-.36-.82-.84-1.35-.75l-.11,0,.16.28A1.2,1.2,0,0,0,11.41,54a1.37,1.37,0,0,0-.36-.73,2.46,2.46,0,0,0-1.7-.52,4.19,4.19,0,0,0-1.6.4c-.19.09,0,.37.16.28a3,3,0,0,1,2.8,0,.81.81,0,0,1,.33.44c.16.44-.16.76-.52,1-.19.1,0,.36.16.28-.09,0,0,0,0,0h.16a1.44,1.44,0,0,1,.66.42,5.79,5.79,0,0,1,1,1.44,22.93,22.93,0,0,0,1.06,2.17,1.44,1.44,0,0,0,.9.7,1,1,0,0,0,.81-.31,4.71,4.71,0,0,0,1.11-2,4,4,0,0,0,.09-2.78,3.49,3.49,0,0,0-1.9-1.74,9.06,9.06,0,0,0-2.11-.59,1.26,1.26,0,0,1-.28,0c-.11-.05-.1-.07,0-.12a1,1,0,0,1,.33-.1,3.31,3.31,0,0,1,.7-.06,5.84,5.84,0,0,1,3,1.08c.67.47,1.53,1.29,1.29,2.18a1.39,1.39,0,0,1-.33.56c-.14.16.09.4.23.24Z"/><path class="cls-1" d="M45.9,15.36a.53.53,0,0,0,.17.59.41.41,0,0,0,.55,0,.49.49,0,0,0,.11-.29,2.22,2.22,0,0,0,0-.37,2,2,0,0,0-.17-.72.12.12,0,0,0-.09,0,2,2,0,0,0-1,.38.48.48,0,0,0-.26.42.42.42,0,0,0,.3.35.56.56,0,0,0,.56-.16c.09-.09-.06-.24-.15-.14s-.29.18-.42.07a.19.19,0,0,1-.09-.15.27.27,0,0,1,.12-.18,1.66,1.66,0,0,1,1-.38l-.09,0a1.82,1.82,0,0,1,.14.52,1.42,1.42,0,0,1,0,.54.19.19,0,0,1-.29.11.36.36,0,0,1-.11-.39C46.14,15.29,45.94,15.24,45.9,15.36Z"/><path class="cls-1" d="M45.53,16a1.41,1.41,0,0,0,.4,1.55,1.06,1.06,0,0,0,1.42-.1,1.59,1.59,0,0,0,.3-.79,5.65,5.65,0,0,0,.07-1.09,5.21,5.21,0,0,0-.5-2.08.09.09,0,0,0-.09-.05,5.93,5.93,0,0,0-3,1.11c-.36.27-.76.62-.71,1.11a1.12,1.12,0,0,0,.76.88,1.56,1.56,0,0,0,1.5-.45c.1-.09-.05-.23-.15-.14A1.24,1.24,0,0,1,44,16.2a.82.82,0,0,1-.36-.64,1,1,0,0,1,.4-.69,5.53,5.53,0,0,1,3.08-1.25l-.09,0a5.11,5.11,0,0,1,.46,1.71A4.4,4.4,0,0,1,47.36,17a.76.76,0,0,1-.52.55.92.92,0,0,1-.69-.09,1.17,1.17,0,0,1-.42-1.4A.1.1,0,0,0,45.53,16Z"/></svg>