<svg id="Capa_1" data-name="Capa 1" xmlns="http://www.w3.org/2000/svg" viewBox="0 0 109.31 109.31"><defs><style>.cls-1{fill:#1d1d1b;}</style></defs><title>chx</title><path class="cls-1" d="M11.74,24.44l-1.06-1.08a.09.09,0,0,0-.1,0l-1.66.58.11.16.83-1.25a.09.09,0,0,0,0-.12L9,21.47l-.13.15,1,.39a.12.12,0,0,0,.1,0l1.68-1.35-.17-.1-.22,1.68a.11.11,0,0,0,.06.11l1.82.75,0-.19-1.66.33s-.11.06-.1.12l.22,1.18c0,.13.23.11.21,0l-.22-1.18-.09.11,1.66-.34a.1.1,0,0,0,0-.2l-1.81-.74.06.11.22-1.68a.1.1,0,0,0-.16-.1L9.79,21.83H9.9l-1-.39a.1.1,0,0,0-.13.15l.88,1.24V22.7L8.87,24a.1.1,0,0,0,.12.16l1.66-.58h-.1l1.06,1.08C11.7,24.69,11.84,24.53,11.74,24.44Z"/><path class="cls-1" d="M82.74,43,81.68,41.9a.12.12,0,0,0-.1,0l-1.67.58.12.16.83-1.25a.11.11,0,0,0,0-.12L80,40l-.13.15,1,.39a.08.08,0,0,0,.1,0l1.67-1.35-.16-.1-.22,1.69a.09.09,0,0,0,.06.1l1.82.75,0-.19-1.66.34s-.11,0-.1.11l.22,1.18c0,.13.23.11.21,0l-.22-1.18-.09.11,1.66-.34c.09,0,.14-.15,0-.19l-1.81-.75.06.11.22-1.68a.11.11,0,0,0-.17-.1l-1.67,1.35h.1l-1-.4a.11.11,0,0,0-.13.16l.88,1.24v-.13l-.83,1.25a.1.1,0,0,0,.12.16l1.66-.57-.1,0,1.06,1.08C82.7,43.23,82.83,43.07,82.74,43Z"/><path class="cls-1" d="M84.84,59.38l-1.53-.17s-.07,0-.09,0l-.9,1.47.19.06-.17-1.48a.13.13,0,0,0-.08-.1l-1.49-.41V59l1-.29a.14.14,0,0,0,.08-.07l.4-2.08-.19,0L83,58a.1.1,0,0,0,.12,0L85,57.51l-.1-.17-1.06,1.3a.09.09,0,0,0,0,.14l.93.78c.11.08.26-.06.15-.15L84,58.64v.14L85,57.49c.06-.08,0-.2-.1-.17L83,57.87l.12,0-.93-1.43a.1.1,0,0,0-.19,0l-.41,2.07.08-.07-1,.29a.1.1,0,0,0,0,.2l1.49.41-.07-.1.17,1.48a.11.11,0,0,0,.2.05l.9-1.48-.09,0,1.53.18C85,59.6,85,59.4,84.84,59.38Z"/><path class="cls-1" d="M76.9,72.46l-1.53-.17a.12.12,0,0,0-.09,0l-.9,1.48.19.05-.17-1.48a.13.13,0,0,0-.08-.1l-1.49-.4v.19l1-.29a.11.11,0,0,0,.08-.07l.4-2.08-.19,0L75,71.1a.11.11,0,0,0,.12.05l1.89-.55-.1-.17-1.06,1.29a.09.09,0,0,0,0,.14l.94.78c.1.08.25-.06.14-.15L76,71.72v.14l1.07-1.29A.11.11,0,0,0,77,70.4L75.1,71l.12,0-.93-1.44a.11.11,0,0,0-.19,0l-.41,2.08.08-.08-1,.3a.1.1,0,0,0,0,.19l1.49.41-.07-.1.17,1.48a.11.11,0,0,0,.2,0l.91-1.48-.1,0,1.53.18C77,72.68,77,72.48,76.9,72.46Z"/><path class="cls-1" d="M87.68,95.6,87,94.25a.11.11,0,0,0-.09,0l-1.76,0,.06.19,1.18-.93a.11.11,0,0,0,0-.12L86,91.93l-.17.11.78.66a.1.1,0,0,0,.1,0l2-.77-.12-.15-.75,1.53a.11.11,0,0,0,0,.12l1.49,1.27.09-.18-1.69-.18a.09.09,0,0,0-.12.07l-.18,1.19c0,.13.19.18.21.05l.17-1.19-.12.08,1.68.18c.1,0,.18-.1.1-.17L88,93.31l0,.12.74-1.52a.1.1,0,0,0-.12-.15l-2,.77.1,0L86,91.89a.1.1,0,0,0-.17.1l.44,1.45,0-.11-1.19.93a.11.11,0,0,0,.06.19l1.77,0-.09,0,.66,1.35C87.56,95.83,87.73,95.72,87.68,95.6Z"/><path class="cls-1" d="M43.81,70.22l.77-.85.78-.85,0,.1-1.87.11-.93,0-.93,0-.39,0,.33-.21,1.22-.79,1.23-.77,0,.19a9.73,9.73,0,0,1-1.86-.21,9.36,9.36,0,0,1-.91-.24,9.25,9.25,0,0,1-.88-.32l-.18-.08.19,0a6.91,6.91,0,0,0,1.24-.48,7.69,7.69,0,0,0,1.12-.73,6.17,6.17,0,0,1-1.08.8,5.68,5.68,0,0,1-1.24.54v-.13a9.06,9.06,0,0,0,.88.29,8.44,8.44,0,0,0,.9.21,10.14,10.14,0,0,0,1.83.19h.35l-.3.19c-.4.27-.81.53-1.22.79l-1.23.77-.06-.19.93,0,.93,0,1.87,0h.16l-.11.11-.82.82C44.36,69.69,44.09,70,43.81,70.22Z"/><path class="cls-1" d="M66,103.86c.26-.29.52-.57.77-.86l.78-.85,0,.1-1.86.11-.94,0-.93,0-.38,0,.32-.21,1.22-.78c.41-.27.82-.52,1.23-.78l.06.19a9.74,9.74,0,0,1-1.87-.21,7.17,7.17,0,0,1-.91-.24,9.25,9.25,0,0,1-.88-.32l-.18-.07.19-.06a6,6,0,0,0,1.24-.48,7,7,0,0,0,1.13-.73,6.65,6.65,0,0,1-1.09.8,5.68,5.68,0,0,1-1.24.54V100c.29.11.58.2.88.29s.6.15.9.21a10.23,10.23,0,0,0,1.83.18h.35l-.29.19-1.23.78-1.23.78-.06-.19.93,0,.94,0,1.86-.05h.16l-.11.1-.81.82Z"/><path class="cls-1" d="M81.14,89.44c.25-.29.51-.57.77-.86l.77-.85,0,.11-1.86.1-.94,0L79,88l-.38,0,.32-.2,1.22-.79,1.23-.78.06.2a11.64,11.64,0,0,1-1.87-.21c-.31-.07-.61-.15-.91-.24l-.88-.32-.18-.08.19,0A6.67,6.67,0,0,0,79,85.09a6.41,6.41,0,0,0,1.13-.73,6,6,0,0,1-1.08.8,5.59,5.59,0,0,1-1.25.55v-.13a8.87,8.87,0,0,0,.87.29q.45.12.9.21a10.24,10.24,0,0,0,1.83.19h.35l-.29.19-1.22.78L79.05,88,79,87.83l.94,0,.93,0,1.87-.05h.15l-.11.11c-.26.27-.54.54-.81.81Z"/><path class="cls-1" d="M75.45,32.46l.57.74.57.74-.09,0,.22-1.46.12-.74L77,31l.05-.3.11.28.44,1.09c.15.36.29.72.43,1.08h-.17a7.85,7.85,0,0,1,.49-1.41,6.11,6.11,0,0,1,.35-.67c.13-.21.26-.42.41-.63l.09-.13v.16a5.38,5.38,0,0,0,.19,1,5.31,5.31,0,0,0,.41,1,4.83,4.83,0,0,1-.47-1,3.88,3.88,0,0,1-.24-1.06l.1,0c-.14.21-.26.42-.38.64s-.22.44-.32.66A7.08,7.08,0,0,0,78,33.23l-.07.28-.1-.27c-.15-.36-.3-.72-.44-1.08L77,31.08l.17,0-.13.73-.13.73L76.6,34l0,.12L76.5,34,76,33.23Z"/><path class="cls-1" d="M42.92,26.9l.57.74.57.75-.09,0,.22-1.47.12-.73.12-.74,0-.3.11.29L45,26.54c.15.36.29.72.43,1.09h-.17a8,8,0,0,1,.49-1.42,5.19,5.19,0,0,1,.35-.66,6.81,6.81,0,0,1,.41-.63l.09-.13V25A5.25,5.25,0,0,0,46.83,26a5.13,5.13,0,0,0,.41,1,5.19,5.19,0,0,1-.47-1A4.29,4.29,0,0,1,46.53,25l.1,0c-.13.2-.26.41-.38.63s-.22.44-.32.66a7,7,0,0,0-.46,1.4L45.4,28l-.1-.26c-.15-.36-.3-.72-.44-1.08l-.43-1.09.17,0-.13.73-.13.73-.27,1.46,0,.12-.07-.1c-.18-.25-.36-.51-.53-.77S43.09,27.16,42.92,26.9Z"/><path class="cls-1" d="M54.23,41.67a1.9,1.9,0,0,0,.51,1.45.84.84,0,0,0,1.12,0,1.23,1.23,0,0,0,.28-.71,6.49,6.49,0,0,0,0-.88,5.93,5.93,0,0,0-.31-1.77.09.09,0,0,0-.17,0,3.93,3.93,0,0,0-.13,1.6,3,3,0,0,0,.55,1.47.73.73,0,0,0,1.15.09,2,2,0,0,0,.4-1.44A2.65,2.65,0,0,0,57,39.87a.09.09,0,0,0-.15.08,2.15,2.15,0,0,0,.61,1.24,1,1,0,0,0,1.09.09c.88-.52.52-1.66.22-2.4,0-.1-.2,0-.16.08.26.63.61,1.58-.06,2.11a.77.77,0,0,1-1-.09A2.09,2.09,0,0,1,57,39.91l-.15.08a2.55,2.55,0,0,1,.62,1.62c0,.45-.17,1.51-.85,1.39s-.78-1-.86-1.42a3.61,3.61,0,0,1,.08-1.76h-.17a5.31,5.31,0,0,1,.21,2.82.62.62,0,0,1-.48.53.8.8,0,0,1-.58-.17,1.74,1.74,0,0,1-.45-1.32c0-.11-.19-.11-.18,0Z"/><path class="cls-1" d="M17.46,35.24a1.87,1.87,0,0,0-1.29.81.85.85,0,0,0,.22,1.1,1.22,1.22,0,0,0,.75.12,6.45,6.45,0,0,0,.88-.14,5.93,5.93,0,0,0,1.65-.68c.07-.05,0-.17,0-.17a3.7,3.7,0,0,0-1.58.22,2.9,2.9,0,0,0-1.32.85.74.74,0,0,0,.16,1.14,2,2,0,0,0,1.49.09,2.71,2.71,0,0,0,1.43-1,.09.09,0,0,0-.11-.13,2.11,2.11,0,0,0-1.07.86,1,1,0,0,0,.15,1.09c.69.75,1.73.15,2.38-.3.09-.06,0-.2-.12-.14-.56.39-1.4.93-2.06.4a.8.8,0,0,1-.14-1.06,2.1,2.1,0,0,1,.94-.69l-.11-.13a2.51,2.51,0,0,1-1.44.95c-.44.1-1.51.16-1.54-.54s.78-1,1.2-1.15a3.56,3.56,0,0,1,1.73-.29l0-.17a5.26,5.26,0,0,1-2.69.81.63.63,0,0,1-.63-.36.78.78,0,0,1,.05-.6c.21-.45.75-.6,1.18-.73.11,0,.07-.2,0-.17Z"/><path class="cls-1" d="M54.47,50.69A1.87,1.87,0,0,0,53,51a.83.83,0,0,0-.16,1.11,1.21,1.21,0,0,0,.66.37,5,5,0,0,0,.87.17,5.91,5.91,0,0,0,1.78-.07c.08,0,.11-.14,0-.17a3.89,3.89,0,0,0-1.57-.34,3,3,0,0,0-1.53.34.74.74,0,0,0-.23,1.14,2,2,0,0,0,1.36.59,2.68,2.68,0,0,0,1.69-.44.09.09,0,0,0-.06-.16,2.15,2.15,0,0,0-1.3.44,1,1,0,0,0-.24,1.08c.4.94,1.58.73,2.34.53.11,0,.05-.19-.06-.17-.66.18-1.64.4-2.07-.34a.78.78,0,0,1,.22-1,2,2,0,0,1,1.12-.33l0-.16A2.51,2.51,0,0,1,54.1,54c-.44-.05-1.47-.37-1.26-1s1.06-.64,1.52-.67a3.83,3.83,0,0,1,1.73.32l0-.17a5.26,5.26,0,0,1-2.81-.16.64.64,0,0,1-.46-.55.77.77,0,0,1,.25-.55,1.67,1.67,0,0,1,1.36-.28c.11,0,.14-.17,0-.18Z"/><path class="cls-1" d="M97,72.18a1.65,1.65,0,0,0-1.2.42.66.66,0,0,0-.05.88c.3.31.89.28,1.28.28a5.5,5.5,0,0,0,1.61-.28.07.07,0,0,0,0-.14,3.41,3.41,0,0,0-1.9,0c-.4.12-1.09.41-1,.94s.8.62,1.23.63a2.34,2.34,0,0,0,1.56-.56.07.07,0,0,0-.07-.12,1.85,1.85,0,0,0-1,.49.74.74,0,0,0-.07.9c.45.7,1.42.39,2,.13.09,0,0-.15-.07-.12-.53.22-1.33.51-1.78,0a.61.61,0,0,1,.07-.88,1.87,1.87,0,0,1,.88-.37l-.07-.12a2.26,2.26,0,0,1-1.31.52c-.39,0-1.16-.06-1.24-.54s.73-.73,1.08-.82a3.33,3.33,0,0,1,1.6,0v-.14a5.52,5.52,0,0,1-1.22.26,3.85,3.85,0,0,1-1.22-.06.49.49,0,0,1-.25-.84A1.52,1.52,0,0,1,97,72.32c.1,0,.1-.15,0-.14Z"/><path class="cls-1" d="M33.76,24.11a.29.29,0,0,1,0-.38h0a.31.31,0,0,1,.43,0l0,0a.29.29,0,0,1,0,.38h0a.31.31,0,0,1-.43,0Z"/><path class="cls-1" d="M32.43,24.59a.16.16,0,0,1,0-.23h0a.19.19,0,0,1,.26,0l0,0a.18.18,0,0,1,0,.23h0a.19.19,0,0,1-.26,0S32.43,24.6,32.43,24.59Z"/><path class="cls-1" d="M33,23.72a.17.17,0,0,1,0-.23h0a.19.19,0,0,1,.26,0l0,0a.18.18,0,0,1,0,.23h0a.19.19,0,0,1-.26,0S33,23.73,33,23.72Z"/><path class="cls-1" d="M60.29,33.24a.32.32,0,0,1,.39,0h0a.28.28,0,0,1,0,.41s0,0,0,0a.3.3,0,0,1-.39,0h0a.29.29,0,0,1,0-.42Z"/><path class="cls-1" d="M59.78,31.94A.18.18,0,0,1,60,32h0a.17.17,0,0,1,0,.25,0,0,0,0,1,0,0,.18.18,0,0,1-.24,0h0a.19.19,0,0,1,0-.26Z"/><path class="cls-1" d="M60.68,32.46a.2.2,0,0,1,.24,0h0a.18.18,0,0,1,0,.25l0,0a.18.18,0,0,1-.23,0h0a.17.17,0,0,1,0-.25Z"/><path class="cls-1" d="M22.84,57.13a.41.41,0,0,1,.5-.05h0a.36.36,0,0,1,.09.52.1.1,0,0,1,0,0,.38.38,0,0,1-.49,0h0a.37.37,0,0,1-.09-.53Z"/><path class="cls-1" d="M22.56,56h0a.22.22,0,0,1,.06.32h0a.25.25,0,0,1-.33.06h0a.23.23,0,0,1-.06-.32h0A.24.24,0,0,1,22.56,56Z"/><path class="cls-1" d="M22,57h0a.23.23,0,0,1,.06.32h0a.25.25,0,0,1-.33.06h0a.22.22,0,0,1-.06-.32h0A.25.25,0,0,1,22,57Z"/><path class="cls-1" d="M67.63,46.86a.38.38,0,0,1,.49,0h0a.38.38,0,0,1,.09.53l0,0a.41.41,0,0,1-.5,0h0a.38.38,0,0,1-.1-.53Z"/><path class="cls-1" d="M67.35,45.74h0a.23.23,0,0,1,.06.32h0a.24.24,0,0,1-.33,0h0a.22.22,0,0,1-.06-.32h0A.24.24,0,0,1,67.35,45.74Z"/><path class="cls-1" d="M66.76,46.73h0a.22.22,0,0,1,0,.32h0a.23.23,0,0,1-.32,0h0a.23.23,0,0,1,0-.32h0A.24.24,0,0,1,66.76,46.73Z"/><path class="cls-1" d="M11.29,83.63a.39.39,0,0,1,.5,0h0a.36.36,0,0,1,.1.52l-.05.06a.4.4,0,0,1-.49,0h0a.36.36,0,0,1-.1-.52Z"/><path class="cls-1" d="M11,82.5h0a.23.23,0,0,1,.05.32h0a.24.24,0,0,1-.33.06h0a.24.24,0,0,1-.06-.32h0A.25.25,0,0,1,11,82.5Z"/><path class="cls-1" d="M10.43,83.5h0a.23.23,0,0,1,.06.32h0a.24.24,0,0,1-.33.06h0a.23.23,0,0,1-.06-.32h0A.24.24,0,0,1,10.43,83.5Z"/><path class="cls-1" d="M67.63,79.59a.39.39,0,0,1,.49,0h0a.37.37,0,0,1,.09.52l0,.05a.39.39,0,0,1-.5,0h0a.36.36,0,0,1-.1-.52S67.61,79.6,67.63,79.59Z"/><path class="cls-1" d="M67.35,78.46h0a.23.23,0,0,1,.06.32h0a.24.24,0,0,1-.33.06h0a.22.22,0,0,1-.06-.32h0A.24.24,0,0,1,67.35,78.46Z"/><path class="cls-1" d="M66.76,79.46h0a.23.23,0,0,1,0,.32h0a.24.24,0,0,1-.32.06h0a.23.23,0,0,1,0-.32h0A.23.23,0,0,1,66.76,79.46Z"/><path class="cls-1" d="M50,63.17a1.76,1.76,0,0,0,1,1.31,1.62,1.62,0,0,0,1.42-.12,1.7,1.7,0,0,0,.69-2A1.49,1.49,0,0,0,52,61.47a1.28,1.28,0,0,0-1.16.47A.93.93,0,0,0,50.7,63a1,1,0,0,0,.9.66.84.84,0,0,0,.76-.9.53.53,0,0,0-.44-.48.31.31,0,0,0-.34.41c.05.12.25.06.2-.06s.06-.17.15-.14.16.12.2.2a.54.54,0,0,1-.05.43.58.58,0,0,1-.79.26,1.05,1.05,0,0,1-.49-.78.94.94,0,0,1,.51-.8.91.91,0,0,1,1-.05,1.24,1.24,0,0,1,.65.83,1.51,1.51,0,0,1-.57,1.52,1.39,1.39,0,0,1-1.28.16,1.57,1.57,0,0,1-.88-1.19c0-.13-.22-.07-.2.06Z"/><path class="cls-1" d="M52.33,93.48a1.08,1.08,0,0,0-.5-.59.75.75,0,0,0-.75.07c-.49.35-.28,1.05,0,1.44l.1-.17a.93.93,0,0,0-1,1.18.67.67,0,0,0,.59.51,1.3,1.3,0,0,0,.8-.26l-.16-.09c0,.46.24,1,.77,1.14a.79.79,0,0,0,.88-.51.91.91,0,0,0-.09-.72l-.11.15a1,1,0,0,0,1.19-.49.75.75,0,0,0-.52-1l.06.15a.82.82,0,0,0-.36-1.19c-.4-.16-1,0-1.13.43a.1.1,0,0,0,.2,0c.08-.34.54-.41.83-.3a.62.62,0,0,1,.28.91.1.1,0,0,0,.06.15.54.54,0,0,1,.38.77.81.81,0,0,1-.94.35.11.11,0,0,0-.12.15.62.62,0,0,1-.35.93c-.55.13-.78-.53-.82-.94a.11.11,0,0,0-.16-.09c-.3.21-.91.43-1.06-.07a1,1,0,0,1,.08-.67.6.6,0,0,1,.64-.31.11.11,0,0,0,.1-.18c-.24-.29-.43-.88,0-1.14a.54.54,0,0,1,.63,0,1.12,1.12,0,0,1,.3.44C52.2,93.7,52.38,93.6,52.33,93.48Z"/><path class="cls-1" d="M52.65,94.66a.4.4,0,0,0-.06-.22.47.47,0,0,0-.14-.17.51.51,0,0,0-.21-.06.82.82,0,0,0-.41.09.45.45,0,0,0-.19.53.43.43,0,0,0,.2.29.79.79,0,0,0,.3.08h.17a.5.5,0,0,0,.17-.11.55.55,0,0,0,.17-.43.11.11,0,0,0-.11-.1s-.11,0-.1.1a.31.31,0,0,1-.09.26s0,0-.05,0l0,0h0s0,0,0,0h-.18L52,95s0,0,0,0h0l0,0v0a.22.22,0,0,1,0-.08.25.25,0,0,1,0-.12s0,0,0-.06,0,0,0,0h0v0s0,0,0,0l0,0h0l0,0h0s0,0,0,0l0,0h.16s0,0,0,0h.16s0,0,0,0a.18.18,0,0,1,.11.08.24.24,0,0,1,0,.16c0,.06.05.1.1.1A.1.1,0,0,0,52.65,94.66Z"/><path class="cls-1" d="M6.58,70.38a1.12,1.12,0,0,1-.5.59.75.75,0,0,1-.75-.08c-.49-.35-.28-1,0-1.43l.1.17a.93.93,0,0,1-1-1.19.69.69,0,0,1,.59-.51,1.31,1.31,0,0,1,.8.27l-.16.08c0-.45.23-1,.77-1.14a.8.8,0,0,1,.88.52.93.93,0,0,1-.09.71l-.12-.15a1,1,0,0,1,1.2.5.74.74,0,0,1-.52,1l.06-.15a.83.83,0,0,1-.36,1.2c-.4.16-1,0-1.13-.43,0-.13.17-.19.2-.06.08.34.54.41.83.31a.62.62,0,0,0,.28-.91.1.1,0,0,1,.06-.15c.34-.13.56-.43.37-.78a.81.81,0,0,0-.93-.35.1.1,0,0,1-.12-.15.61.61,0,0,0-.35-.92c-.55-.13-.78.52-.82.93,0,.07-.09.14-.16.09-.3-.2-.92-.42-1.07.08a1,1,0,0,0,.09.67.6.6,0,0,0,.64.31.1.1,0,0,1,.1.17c-.24.29-.44.88,0,1.14a.54.54,0,0,0,.63,0,1.19,1.19,0,0,0,.3-.44C6.45,70.16,6.63,70.26,6.58,70.38Z"/><path class="cls-1" d="M6.9,69.2a.46.46,0,0,1-.06.22.58.58,0,0,1-.14.17.41.41,0,0,1-.21,0,.68.68,0,0,1-.42-.09A.47.47,0,0,1,5.88,69a.49.49,0,0,1,.21-.28.75.75,0,0,1,.3-.09.33.33,0,0,1,.17,0,.39.39,0,0,1,.17.11.53.53,0,0,1,.17.43.12.12,0,0,1-.11.1s-.11,0-.1-.1a.3.3,0,0,0-.09-.26l0,0,0,0s0,0,0,0,0,0,0,0h0s0,0,0,0H6.39s0,0,0,0l-.06,0-.11,0h0s0,0,0,0l0,0v0L6.1,69a.31.31,0,0,0,0,.13.09.09,0,0,0,0,0s0,0,0,0v.07s0,0,0,0l0,0h0v0s0,0,0,0l0,0h0s0,0,0,0h.29s0,0,0,0a.13.13,0,0,0,.1-.07.4.4,0,0,0,.06-.16.1.1,0,0,1,.1-.11A.12.12,0,0,1,6.9,69.2Z"/><path class="cls-1" d="M73.64,10.83a1.12,1.12,0,0,0-.26-.72.73.73,0,0,0-.73-.18c-.58.16-.64.88-.49,1.35l.16-.12a1,1,0,0,0-1.36.77.66.66,0,0,0,.37.67,1.24,1.24,0,0,0,.85,0l-.12-.13c-.12.44-.16,1.05.31,1.33a.81.81,0,0,0,1-.19.89.89,0,0,0,.17-.69l-.16.1a1,1,0,0,0,1.3-.06.74.74,0,0,0-.12-1.14V12a.82.82,0,0,0,.1-1.24.85.85,0,0,0-1.22,0,.1.1,0,0,0,.17.12c.2-.29.65-.2.89,0a.62.62,0,0,1-.07.95.1.1,0,0,0,0,.16.53.53,0,0,1,.08.85.83.83,0,0,1-1,0,.1.1,0,0,0-.16.1.63.63,0,0,1-.66.75c-.57-.07-.54-.76-.43-1.16,0-.07,0-.16-.12-.14-.35.09-1,.08-1-.43a1,1,0,0,1,.32-.6.6.6,0,0,1,.71-.08.1.1,0,0,0,.15-.12c-.11-.36-.08-1,.38-1.08a.53.53,0,0,1,.58.23,1.17,1.17,0,0,1,.12.52C73.44,11,73.64,11,73.64,10.83Z"/><path class="cls-1" d="M73.51,12.05a.44.44,0,0,0,0-.23.37.37,0,0,0-.07-.2.4.4,0,0,0-.18-.13.71.71,0,0,0-.41-.05.5.5,0,0,0-.28.77,1.08,1.08,0,0,0,.24.18l.17,0a.49.49,0,0,0,.2,0,.53.53,0,0,0,.31-.34.1.1,0,0,0-.06-.13.12.12,0,0,0-.14.06.28.28,0,0,1-.17.21l-.07,0h0s0,0,0,0,0,0,0,0h-.11s0,0,0,0l-.06,0a.22.22,0,0,1-.09-.07s0,0,0,0h0v0h0V12a.28.28,0,0,1,0-.09.24.24,0,0,1,0-.12l0-.06h0l0,0,0,0s0,0,0,0l0,0h.27l.07,0,.06,0h0a.16.16,0,0,1,.07.11.25.25,0,0,1,0,.17.1.1,0,0,0,.06.13A.12.12,0,0,0,73.51,12.05Z"/><path class="cls-1" d="M64.56,64.16a1,1,0,0,1-.37-.44.51.51,0,0,1,.2-.57c.37-.27.87.08,1.09.38a.1.1,0,0,0,.19-.05c.06-.53.77-.65,1.17-.41s.07.8-.22,1a.1.1,0,0,0,0,.17c.4.16,1,.56.69,1a.65.65,0,0,1-1,.06.11.11,0,0,0-.18.07.78.78,0,0,1-.61.77c-.39.08-.63-.21-.66-.57a.09.09,0,0,0-.13-.09A.65.65,0,0,1,64,65c0-.3.17-.72.54-.69.13,0,.13-.2,0-.21-.5,0-.8.52-.75.94a.86.86,0,0,0,1.08.67l-.13-.1a.75.75,0,0,0,.86.78,1,1,0,0,0,.82-1l-.18.07a.86.86,0,0,0,1.34-.1.71.71,0,0,0,0-.68,1.46,1.46,0,0,0-.83-.65l0,.17a1.21,1.21,0,0,0,.48-.66.64.64,0,0,0-.34-.71,1.28,1.28,0,0,0-.92-.07.79.79,0,0,0-.52.67l.2-.06c-.29-.4-.93-.79-1.41-.42a.73.73,0,0,0-.29.64,1.1,1.1,0,0,0,.45.67C64.51,64.39,64.66,64.25,64.56,64.16Z"/><path class="cls-1" d="M65.54,64.74a.29.29,0,0,1-.19-.17v0h0v0a.06.06,0,0,0,0,0l0-.07v0s0,0,0,0v0a.25.25,0,0,1,0-.07v0s0,0,0,0l0,0v0h0l0,0h0s0,0,0,0h0s0,0,0,0h.07l.06,0h.06a.52.52,0,0,1,.11.1l0,0s0,0,0,0,0,0,0,0v0s0,0,0,0a.07.07,0,0,1,0,.05.37.37,0,0,1,0,.11v0h0v0s0,0,0,.06,0,0,0,0v0s0,0,0,0h0a.39.39,0,0,1-.36,0,.11.11,0,0,0-.13.07.11.11,0,0,0,.08.13.57.57,0,0,0,.46,0,.53.53,0,0,0,.15-.11l.06-.13a.88.88,0,0,0,0-.28.34.34,0,0,0,0-.1.52.52,0,0,0-.12-.17.52.52,0,0,0-.62-.08.61.61,0,0,0-.25.37.5.5,0,0,0,0,.21.35.35,0,0,0,.12.2.45.45,0,0,0,.22.13.12.12,0,0,0,.13-.07A.11.11,0,0,0,65.54,64.74Z"/><path class="cls-1" d="M67.17,89.87a1,1,0,0,1-.37-.44.51.51,0,0,1,.2-.57c.37-.27.87.08,1.09.38a.1.1,0,0,0,.19-.06c0-.53.76-.64,1.16-.4s.07.8-.22,1c-.06,0,0,.15,0,.17.39.16,1,.56.69,1a.65.65,0,0,1-1,.06.11.11,0,0,0-.18.07.78.78,0,0,1-.62.77c-.39.08-.62-.22-.65-.57a.1.1,0,0,0-.13-.1.63.63,0,0,1-.81-.51c0-.31.17-.72.53-.7.14,0,.14-.19,0-.2-.49,0-.79.52-.74.94a.86.86,0,0,0,1.08.67l-.14-.1a.76.76,0,0,0,.87.78,1,1,0,0,0,.82-1l-.18.07a.86.86,0,0,0,1.34-.1.71.71,0,0,0,0-.68,1.52,1.52,0,0,0-.83-.66l0,.17a1.21,1.21,0,0,0,.48-.66.66.66,0,0,0-.34-.71,1.27,1.27,0,0,0-.92-.06.78.78,0,0,0-.52.66l.2-.05c-.3-.4-.93-.79-1.41-.42a.7.7,0,0,0-.29.64A1,1,0,0,0,67,90C67.12,90.1,67.27,90,67.17,89.87Z"/><path class="cls-1" d="M68.15,90.45a.29.29,0,0,1-.19-.18v0h0v0a.43.43,0,0,0,0,0s0,0,0-.06l0,0s0,0,0,0v0a.25.25,0,0,1,0-.07v0h0l0,0h0l0,0h.15l.06,0s0,0,0,0l0,0a.4.4,0,0,1,.12.1v0l0,0s0,0,0,0h0a.13.13,0,0,0,0,.06.45.45,0,0,1,0,.11v0h0v0a.14.14,0,0,1,0,.06s0,0,0,0v0s0,0,0,0h0a.37.37,0,0,1-.35,0,.11.11,0,0,0-.13.07c0,.06,0,.1.07.13a.57.57,0,0,0,.46,0,.42.42,0,0,0,.15-.11.38.38,0,0,0,.06-.13.67.67,0,0,0,0-.28.43.43,0,0,0,0-.11.57.57,0,0,0-.11-.16.52.52,0,0,0-.62-.09.67.67,0,0,0-.25.37.41.41,0,0,0,0,.22.35.35,0,0,0,.12.2.57.57,0,0,0,.21.13.11.11,0,0,0,.13-.07A.1.1,0,0,0,68.15,90.45Z"/><path class="cls-1" d="M32.88,85.6a1.12,1.12,0,0,1-.37-.44.53.53,0,0,1,.2-.57c.37-.27.87.08,1.09.38a.1.1,0,0,0,.19,0c.06-.53.77-.65,1.17-.4s.07.79-.22,1a.1.1,0,0,0,0,.17c.4.16,1,.56.69,1a.65.65,0,0,1-1,.06.11.11,0,0,0-.18.07.8.8,0,0,1-.61.78.55.55,0,0,1-.65-.57.11.11,0,0,0-.14-.1.64.64,0,0,1-.81-.52c0-.3.18-.71.54-.69.13,0,.13-.2,0-.21-.5,0-.8.52-.75,1a.85.85,0,0,0,1.08.66L33,87.09a.75.75,0,0,0,.86.77,1,1,0,0,0,.82-1l-.18.07a.86.86,0,0,0,1.34-.1.69.69,0,0,0,0-.68,1.46,1.46,0,0,0-.83-.65l.05.17a1.25,1.25,0,0,0,.47-.66.64.64,0,0,0-.34-.71,1.28,1.28,0,0,0-.92-.07.77.77,0,0,0-.51.67l.19,0c-.29-.41-.93-.8-1.41-.43a.73.73,0,0,0-.29.64,1.14,1.14,0,0,0,.45.67C32.83,85.83,33,85.69,32.88,85.6Z"/><path class="cls-1" d="M33.86,86.18a.29.29,0,0,1-.19-.17v0h0v0s0,0,0,0a.19.19,0,0,1,0-.07v0h0v0l0-.08v0s0,0,0,0l0,0v0h0l.05,0h0l.05,0s0,0,0,0H34s0,0,0,0h.08l0,0a.26.26,0,0,1,.11.1h0v0s0,0,0,0v0s0,0,0,0a.07.07,0,0,1,0,.05.49.49,0,0,1,0,.12h0s0,0,0,0v0s0,0,0,.06,0,0,0,0v0s0,0,0,0h0l0,0a.42.42,0,0,1-.36,0s-.11,0-.13.07a.11.11,0,0,0,.08.13.57.57,0,0,0,.46,0,.53.53,0,0,0,.15-.11l.06-.13a.88.88,0,0,0,0-.28.34.34,0,0,0,0-.1.48.48,0,0,0-.12-.16.52.52,0,0,0-.62-.09.61.61,0,0,0-.25.37.5.5,0,0,0,0,.21.35.35,0,0,0,.12.2.45.45,0,0,0,.22.13.12.12,0,0,0,.13-.07A.11.11,0,0,0,33.86,86.18Z"/><path class="cls-1" d="M31.26,33a1.1,1.1,0,0,1-.36-.44.51.51,0,0,1,.19-.57c.37-.27.88.08,1.09.38a.11.11,0,0,0,.2,0c0-.53.76-.65,1.16-.4s.07.8-.22,1c-.07.06,0,.15,0,.18.39.15,1,.55.68,1a.64.64,0,0,1-1,.06.11.11,0,0,0-.18.07.8.8,0,0,1-.62.78.55.55,0,0,1-.65-.57.1.1,0,0,0-.13-.1.65.65,0,0,1-.82-.52c0-.3.18-.71.54-.69.14,0,.13-.2,0-.21-.49,0-.79.52-.74.95a.84.84,0,0,0,1.07.66l-.13-.09a.75.75,0,0,0,.87.77,1,1,0,0,0,.82-1l-.18.07a.85.85,0,0,0,1.33-.1.71.71,0,0,0,0-.68,1.48,1.48,0,0,0-.84-.65l0,.17a1.21,1.21,0,0,0,.48-.66.66.66,0,0,0-.34-.71,1.3,1.3,0,0,0-.93-.07.78.78,0,0,0-.51.67l.2-.05c-.3-.41-.94-.8-1.42-.43a.72.72,0,0,0-.28.64,1.1,1.1,0,0,0,.45.67C31.22,33.22,31.37,33.08,31.26,33Z"/><path class="cls-1" d="M32.25,33.57a.25.25,0,0,1-.19-.17v0h0a.43.43,0,0,1,0,0s0-.05,0-.07v0h0v0l0-.08v0s0,0,0,0l0,0,0,0h0l0,0h0l0,0h.14s0,0,0,0l0,0a.23.23,0,0,1,.12.1h0s0,0,0,0v0h0v.17h0v0a.14.14,0,0,1,0,.06s0,0,0,0l0,0s0,0,0,0,0,0,0,0l0,0a.4.4,0,0,1-.35,0,.11.11,0,0,0-.13.07.11.11,0,0,0,.07.13.57.57,0,0,0,.46,0,.33.33,0,0,0,.15-.11.31.31,0,0,0,.06-.13.88.88,0,0,0,0-.28.36.36,0,0,0,0-.1.38.38,0,0,0-.12-.16.5.5,0,0,0-.61-.09.66.66,0,0,0-.26.37.5.5,0,0,0,0,.21.39.39,0,0,0,.13.2.46.46,0,0,0,.21.13.11.11,0,0,0,.13-.07A.11.11,0,0,0,32.25,33.57Z"/><path class="cls-1" d="M58.52,7.4a.54.54,0,0,0,.16.59.41.41,0,0,0,.55,0,.56.56,0,0,0,.12-.29,2.43,2.43,0,0,0,0-.38,1.82,1.82,0,0,0-.18-.72.08.08,0,0,0-.09,0,2,2,0,0,0-1,.37.5.5,0,0,0-.27.43.43.43,0,0,0,.3.35.56.56,0,0,0,.56-.16c.1-.09,0-.24-.15-.15a.31.31,0,0,1-.42.08A.2.2,0,0,1,58,7.28a.29.29,0,0,1,.11-.18,1.7,1.7,0,0,1,1-.39l-.09,0a1.44,1.44,0,0,1,.14.53,1.24,1.24,0,0,1,0,.54.19.19,0,0,1-.29.11.33.33,0,0,1-.11-.39C58.76,7.33,58.55,7.27,58.52,7.4Z"/><path class="cls-1" d="M58.14,8a1.43,1.43,0,0,0,.4,1.56A1.06,1.06,0,0,0,60,9.48a1.52,1.52,0,0,0,.31-.79,5.76,5.76,0,0,0,.07-1.1,5.26,5.26,0,0,0-.5-2.09.09.09,0,0,0-.09,0,5.88,5.88,0,0,0-3,1.12c-.36.26-.76.62-.71,1.11a1.11,1.11,0,0,0,.76.88,1.53,1.53,0,0,0,1.5-.44A.1.1,0,0,0,58.17,8a1.24,1.24,0,0,1-1.55.27.82.82,0,0,1-.36-.64,1,1,0,0,1,.4-.7,5.49,5.49,0,0,1,3.09-1.25l-.09-.05a5.1,5.1,0,0,1,.46,1.72A4.38,4.38,0,0,1,60,9a.81.81,0,0,1-.52.57,1,1,0,0,1-.7-.1,1.21,1.21,0,0,1-.42-1.41C58.38,8,58.18,7.89,58.14,8Z"/><path class="cls-1" d="M64.82,21.55a.53.53,0,0,0,.17.59.41.41,0,0,0,.55,0,.66.66,0,0,0,.12-.3,1.53,1.53,0,0,0,0-.37,2,2,0,0,0-.17-.72.09.09,0,0,0-.09-.05,2,2,0,0,0-1,.37.52.52,0,0,0-.27.43.43.43,0,0,0,.31.35.56.56,0,0,0,.56-.16c.09-.09-.06-.24-.15-.15a.33.33,0,0,1-.42.08.2.2,0,0,1-.09-.15c0-.08.06-.13.12-.18a1.67,1.67,0,0,1,1-.39l-.09-.05a2,2,0,0,1,.14.53,1.64,1.64,0,0,1,0,.54.2.2,0,0,1-.3.11A.33.33,0,0,1,65,21.6C65.06,21.48,64.86,21.42,64.82,21.55Z"/><path class="cls-1" d="M64.44,22.17a1.41,1.41,0,0,0,.41,1.56,1.06,1.06,0,0,0,1.42-.1,1.51,1.51,0,0,0,.3-.8,5.29,5.29,0,0,0-.42-3.18s-.06-.06-.09,0a5.88,5.88,0,0,0-3,1.12,1.31,1.31,0,0,0-.7,1.11,1.07,1.07,0,0,0,.76.88,1.53,1.53,0,0,0,1.5-.44.11.11,0,0,0-.15-.15,1.23,1.23,0,0,1-1.55.27.85.85,0,0,1-.36-.64,1,1,0,0,1,.41-.7,5.43,5.43,0,0,1,3.09-1.25L66,19.75a5.34,5.34,0,0,1,.45,1.71,4.23,4.23,0,0,1-.14,1.7.79.79,0,0,1-.52.57.92.92,0,0,1-.69-.1,1.18,1.18,0,0,1-.42-1.41A.11.11,0,0,0,64.44,22.17Z"/><path class="cls-1" d="M101.14,57.82a.53.53,0,0,0,.17.59.41.41,0,0,0,.55,0,.62.62,0,0,0,.12-.29c0-.13,0-.25,0-.38a2,2,0,0,0-.17-.72.12.12,0,0,0-.09,0,2.07,2.07,0,0,0-1,.37.54.54,0,0,0-.27.43.46.46,0,0,0,.3.36.61.61,0,0,0,.57-.17c.09-.09-.06-.24-.15-.14a.34.34,0,0,1-.43.07.2.2,0,0,1-.08-.15.29.29,0,0,1,.11-.18,1.81,1.81,0,0,1,1-.39l-.09-.05a2,2,0,0,1,.14.53,1.42,1.42,0,0,1-.05.54.19.19,0,0,1-.29.11.31.31,0,0,1-.11-.38C101.38,57.75,101.18,57.7,101.14,57.82Z"/><path class="cls-1" d="M100.76,58.44a1.41,1.41,0,0,0,.41,1.56,1,1,0,0,0,1.42-.1,1.59,1.59,0,0,0,.3-.79A5.72,5.72,0,0,0,103,58a5.62,5.62,0,0,0-.5-2.1.12.12,0,0,0-.09-.05,5.88,5.88,0,0,0-3,1.12,1.31,1.31,0,0,0-.7,1.11,1.09,1.09,0,0,0,.76.89,1.56,1.56,0,0,0,1.5-.45c.09-.09-.06-.24-.15-.14a1.24,1.24,0,0,1-1.55.26.85.85,0,0,1-.36-.64,1,1,0,0,1,.41-.7,5.58,5.58,0,0,1,3.09-1.25l-.09,0a5.4,5.4,0,0,1,.45,1.72,4.24,4.24,0,0,1-.14,1.7.79.79,0,0,1-.52.56.92.92,0,0,1-.69-.1,1.2,1.2,0,0,1-.43-1.41C101,58.37,100.8,58.31,100.76,58.44Z"/><path class="cls-1" d="M22.66,69.83a.58.58,0,0,0-.61.16.39.39,0,0,0,.05.54.72.72,0,0,0,.3.11,2.43,2.43,0,0,0,.38,0,2.16,2.16,0,0,0,.75-.17.12.12,0,0,0,0-.09,1.9,1.9,0,0,0-.39-1,.49.49,0,0,0-.43-.26.42.42,0,0,0-.37.29.55.55,0,0,0,.17.55c.09.09.24,0,.15-.15a.3.3,0,0,1-.08-.41.2.2,0,0,1,.15-.08.29.29,0,0,1,.19.11,1.66,1.66,0,0,1,.4.94l.05-.09a2,2,0,0,1-.54.14,1.77,1.77,0,0,1-.56,0,.19.19,0,0,1-.11-.29A.36.36,0,0,1,22.6,70C22.73,70.06,22.79,69.86,22.66,69.83Z"/><path class="cls-1" d="M22,69.46a1.52,1.52,0,0,0-1.61.39,1,1,0,0,0,.1,1.39,1.85,1.85,0,0,0,.82.3,7,7,0,0,0,1.12.07,6.07,6.07,0,0,0,2.15-.49.09.09,0,0,0,.05-.09,5.62,5.62,0,0,0-1.14-2.92,1.37,1.37,0,0,0-1.14-.68,1.09,1.09,0,0,0-.91.74,1.45,1.45,0,0,0,.45,1.46c.1.09.25,0,.15-.14A1.17,1.17,0,0,1,21.8,68a.86.86,0,0,1,.66-.35,1,1,0,0,1,.71.39,5.16,5.16,0,0,1,1.28,3l.06-.09a5.71,5.71,0,0,1-1.76.45A4.91,4.91,0,0,1,21,71.25a.8.8,0,0,1-.57-.5.85.85,0,0,1,.1-.68A1.24,1.24,0,0,1,22,69.66.1.1,0,0,0,22,69.46Z"/><path class="cls-1" d="M96.47,40.78A1.5,1.5,0,0,0,98.1,41a1,1,0,0,0,.47-1.3,1.7,1.7,0,0,0-.62-.6,7.18,7.18,0,0,0-1-.5,5.75,5.75,0,0,0-2.17-.39.1.1,0,0,0-.08.06,5.44,5.44,0,0,0-.15,3.12,1.32,1.32,0,0,0,.76,1.08,1.16,1.16,0,0,0,1.14-.33,1.44,1.44,0,0,0,.18-1.52c0-.12-.24,0-.2.08a1.17,1.17,0,0,1-.36,1.49.9.9,0,0,1-.75.06.94.94,0,0,1-.49-.64,5.12,5.12,0,0,1,.06-3.26l-.09.06a5.79,5.79,0,0,1,1.8.28,4.92,4.92,0,0,1,1.54.8.78.78,0,0,1,.32.69.89.89,0,0,1-.37.59,1.26,1.26,0,0,1-1.49-.19C96.49,40.54,96.36,40.7,96.47,40.78Z"/><path class="cls-1" d="M41.31,101.13a1.38,1.38,0,0,0,1.45.23.9.9,0,0,0,.42-1.16,1.65,1.65,0,0,0-.56-.52,5.56,5.56,0,0,0-.88-.44,5.23,5.23,0,0,0-1.92-.35.09.09,0,0,0-.07.06,4.86,4.86,0,0,0-.13,2.75,1.17,1.17,0,0,0,.67,1,1,1,0,0,0,1-.28,1.32,1.32,0,0,0,.16-1.35c0-.1-.22,0-.17.07A1,1,0,0,1,41,102.4a.77.77,0,0,1-.66.06.83.83,0,0,1-.43-.57A4.48,4.48,0,0,1,39.92,99l-.07,0a5,5,0,0,1,1.58.25,4.11,4.11,0,0,1,1.36.71.67.67,0,0,1,.29.61.79.79,0,0,1-.33.51,1.14,1.14,0,0,1-1.32-.16C41.34,100.91,41.22,101.05,41.31,101.13Z"/><path class="cls-1" d="M8.26,53.15a1.32,1.32,0,0,0,1.44.23.87.87,0,0,0,.42-1.15,1.47,1.47,0,0,0-.55-.53,5.56,5.56,0,0,0-.88-.44,5,5,0,0,0-1.92-.34.08.08,0,0,0-.07,0,4.86,4.86,0,0,0-.13,2.75,1.15,1.15,0,0,0,.67,1,1,1,0,0,0,1-.28,1.3,1.3,0,0,0,.16-1.34c-.05-.11-.22,0-.17.06a1.05,1.05,0,0,1-.33,1.32.77.77,0,0,1-.66,0,.86.86,0,0,1-.44-.56A4.58,4.58,0,0,1,6.87,51l-.08.05a5,5,0,0,1,1.59.25,4.11,4.11,0,0,1,1.36.71.69.69,0,0,1,.28.61.72.72,0,0,1-.32.51A1.12,1.12,0,0,1,8.38,53C8.29,52.94,8.17,53.08,8.26,53.15Z"/><path class="cls-1" d="M72.62,54.91A1.48,1.48,0,0,0,71.38,56a1,1,0,0,0,.73,1.18,1.71,1.71,0,0,0,.87-.09,6.26,6.26,0,0,0,1-.44,5.66,5.66,0,0,0,1.69-1.38.09.09,0,0,0,0-.1,5.68,5.68,0,0,0-2.38-2.09A1.35,1.35,0,0,0,72,53,1.07,1.07,0,0,0,71.52,54a1.5,1.5,0,0,0,1.09,1.1.1.1,0,0,0,.07-.19,1.2,1.2,0,0,1-1-1.22.84.84,0,0,1,.42-.61,1,1,0,0,1,.82,0,5.34,5.34,0,0,1,2.55,2.11v-.1a5.27,5.27,0,0,1-1.36,1.17,4.73,4.73,0,0,1-1.61.66.84.84,0,0,1-.75-.2.87.87,0,0,1-.23-.65,1.23,1.23,0,0,1,1.09-1C72.8,55.09,72.75,54.89,72.62,54.91Z"/><path class="cls-1" d="M85.13,71.66a1.46,1.46,0,0,0-1.25,1.06,1,1,0,0,0,.74,1.19,1.73,1.73,0,0,0,.87-.1,7.72,7.72,0,0,0,1-.43A5.65,5.65,0,0,0,88.2,72a.08.08,0,0,0,0-.1,5.74,5.74,0,0,0-2.38-2.09,1.4,1.4,0,0,0-1.34-.11A1.08,1.08,0,0,0,84,70.75a1.5,1.5,0,0,0,1.1,1.1.1.1,0,0,0,.06-.19,1.2,1.2,0,0,1-1-1.22.85.85,0,0,1,.43-.61,1,1,0,0,1,.82,0A5.31,5.31,0,0,1,88,72v-.1a5.44,5.44,0,0,1-1.36,1.17,4.69,4.69,0,0,1-1.62.66.85.85,0,0,1-.75-.2.86.86,0,0,1-.22-.65,1.21,1.21,0,0,1,1.09-1A.1.1,0,0,0,85.13,71.66Z"/><path class="cls-1" d="M19.27,95.14A1.48,1.48,0,0,0,18,96.21a1,1,0,0,0,.74,1.18,1.68,1.68,0,0,0,.86-.09,6.26,6.26,0,0,0,1-.44,5.66,5.66,0,0,0,1.69-1.38.12.12,0,0,0,0-.1A5.7,5.7,0,0,0,20,93.29a1.35,1.35,0,0,0-1.33-.11,1.07,1.07,0,0,0-.47,1.06,1.5,1.5,0,0,0,1.09,1.1c.13,0,.2-.15.07-.19a1.2,1.2,0,0,1-.95-1.22.84.84,0,0,1,.42-.61,1,1,0,0,1,.82,0,5.34,5.34,0,0,1,2.55,2.11v-.1a5.4,5.4,0,0,1-1.35,1.17,4.86,4.86,0,0,1-1.62.66.85.85,0,0,1-.75-.2.87.87,0,0,1-.23-.65,1.24,1.24,0,0,1,1.1-1C19.45,95.32,19.41,95.12,19.27,95.14Z"/><path class="cls-1" d="M57.47,72.31a1.48,1.48,0,0,0-1.25,1.07A1,1,0,0,0,57,74.56a1.68,1.68,0,0,0,.86-.09,5.91,5.91,0,0,0,1-.44,5.66,5.66,0,0,0,1.69-1.38.11.11,0,0,0,0-.11,5.75,5.75,0,0,0-2.39-2.08,1.35,1.35,0,0,0-1.33-.11,1.08,1.08,0,0,0-.47,1.06,1.5,1.5,0,0,0,1.09,1.1c.13,0,.2-.15.07-.19a1.2,1.2,0,0,1-1-1.23.82.82,0,0,1,.43-.6,1.06,1.06,0,0,1,.82,0,5.44,5.44,0,0,1,2.54,2.12v-.1A5.44,5.44,0,0,1,59,73.71a4.76,4.76,0,0,1-1.62.65.82.82,0,0,1-.75-.19.93.93,0,0,1-.23-.65,1.24,1.24,0,0,1,1.1-1C57.64,72.49,57.6,72.29,57.47,72.31Z"/><path class="cls-1" d="M36.3,44.65l-1.53-.17s-.07,0-.09.05L33.78,46l.19,0-.18-1.47a.09.09,0,0,0-.07-.1l-1.49-.41v.2l1-.29a.1.1,0,0,0,.07-.08l.41-2.07-.19,0,.93,1.43a.11.11,0,0,0,.12,0l1.89-.55-.11-.17L35.28,43.9a.12.12,0,0,0,0,.15l.94.77c.11.09.25-.06.15-.14l-.94-.78v.15l1.06-1.3a.1.1,0,0,0-.1-.17l-1.89.55.12,0-.93-1.43a.11.11,0,0,0-.19,0l-.41,2.08.07-.07-1,.29a.1.1,0,0,0,0,.2l1.49.41-.08-.1.18,1.47a.11.11,0,0,0,.2.05l.9-1.47-.09,0,1.53.17C36.43,44.87,36.43,44.66,36.3,44.65Z"/><path class="cls-1" d="M39.37,57.15,37.84,57a.12.12,0,0,0-.09.05l-.9,1.48.19.05-.18-1.48a.12.12,0,0,0-.07-.1l-1.49-.4v.19l1-.29s.07,0,.07-.07l.41-2.08-.19,0,.93,1.43a.11.11,0,0,0,.12.05l1.89-.55-.11-.17-1.06,1.29a.11.11,0,0,0,0,.14l.94.78c.1.08.25-.06.15-.15l-.94-.77v.14l1.06-1.29a.1.1,0,0,0-.1-.17l-1.89.55.12,0-.93-1.44a.11.11,0,0,0-.19,0l-.41,2.08.07-.07-1,.29a.1.1,0,0,0,0,.19l1.49.41-.08-.1.18,1.48a.11.11,0,0,0,.2,0l.9-1.47-.09,0,1.53.17C39.5,57.37,39.5,57.17,39.37,57.15Z"/><path class="cls-1" d="M43.36,10.47l-1.52-.17a.09.09,0,0,0-.09,0l-.91,1.48.2.05-.18-1.48a.13.13,0,0,0-.08-.1l-1.49-.4v.19l1-.29a.1.1,0,0,0,.07-.07l.41-2.08-.19,0,.92,1.43a.12.12,0,0,0,.12.05l1.89-.55-.1-.17L42.35,9.73a.1.1,0,0,0,0,.14l.94.78c.1.08.25-.06.15-.15l-.94-.77v.14l1.06-1.29a.1.1,0,0,0-.1-.17L41.57,9l.12,0-.93-1.44c0-.07-.18-.06-.19,0l-.41,2.08.07-.08-1,.3a.1.1,0,0,0,0,.19l1.49.41-.08-.1.18,1.48a.1.1,0,0,0,.19,0l.91-1.48-.09.06,1.52.17C43.5,10.69,43.49,10.49,43.36,10.47Z"/><path class="cls-1" d="M44.72,41.53a1.82,1.82,0,0,0,1.67-.09,1.57,1.57,0,0,0,.66-1.22,1.73,1.73,0,0,0-1.3-1.63,1.58,1.58,0,0,0-1.4.37,1.23,1.23,0,0,0-.23,1.21,1,1,0,0,0,.85.74A1,1,0,0,0,46,40.54a.83.83,0,0,0-.36-1.12.56.56,0,0,0-.65.1.31.31,0,0,0,.16.5c.13,0,.19-.17.06-.19a.11.11,0,0,1,0-.2.31.31,0,0,1,.28-.05.51.51,0,0,1,.35.27.55.55,0,0,1-.21.79,1.14,1.14,0,0,1-.94,0,.94.94,0,0,1-.41-.85.87.87,0,0,1,.5-.84,1.29,1.29,0,0,1,1.07-.08,1.52,1.52,0,0,1,1,1.29,1.32,1.32,0,0,1-.56,1.13,1.59,1.59,0,0,1-1.5.07c-.13,0-.18.15-.06.2Z"/><path class="cls-1" d="M50.69,84.15a1.82,1.82,0,0,0,1.67-.09A1.56,1.56,0,0,0,53,82.84a1.74,1.74,0,0,0-1.31-1.63,1.56,1.56,0,0,0-1.4.37,1.26,1.26,0,0,0-.23,1.21,1,1,0,0,0,.85.74A1,1,0,0,0,52,83.16.84.84,0,0,0,51.65,82a.58.58,0,0,0-.66.1.31.31,0,0,0,.17.5c.13,0,.19-.17.05-.2s-.1-.14,0-.2a.34.34,0,0,1,.28,0,.57.57,0,0,1,.35.28.56.56,0,0,1-.21.79,1.14,1.14,0,0,1-.94,0,.93.93,0,0,1-.41-.85.86.86,0,0,1,.5-.85,1.31,1.31,0,0,1,1.06-.08,1.55,1.55,0,0,1,1,1.29,1.35,1.35,0,0,1-.56,1.14,1.64,1.64,0,0,1-1.51.07c-.12,0-.18.15-.06.2Z"/><path class="cls-1" d="M32.86,75.34a1.82,1.82,0,0,0,1.67-.09A1.56,1.56,0,0,0,35.2,74a1.74,1.74,0,0,0-1.31-1.63,1.56,1.56,0,0,0-1.4.38,1.23,1.23,0,0,0-.23,1.2,1,1,0,0,0,.85.74,1,1,0,0,0,1.07-.37.84.84,0,0,0-.37-1.12.56.56,0,0,0-.65.1.31.31,0,0,0,.17.5c.13,0,.19-.17.05-.19s-.1-.14,0-.2a.34.34,0,0,1,.29,0,.56.56,0,0,1,.35.27.56.56,0,0,1-.21.79,1.14,1.14,0,0,1-.94,0,1,1,0,0,1-.42-.85.88.88,0,0,1,.5-.84A1.3,1.3,0,0,1,34,72.65a1.55,1.55,0,0,1,1,1.29,1.34,1.34,0,0,1-.56,1.13,1.61,1.61,0,0,1-1.51.07c-.13,0-.18.15-.06.2Z"/><path class="cls-1" d="M90.21,19.32a1.82,1.82,0,0,0,1.67-.09A1.54,1.54,0,0,0,92.55,18a1.75,1.75,0,0,0-1.31-1.63,1.56,1.56,0,0,0-1.4.38,1.24,1.24,0,0,0-.23,1.2,1,1,0,0,0,.85.75,1,1,0,0,0,1.07-.38.83.83,0,0,0-.36-1.11.57.57,0,0,0-.66.09.32.32,0,0,0,.17.51c.13,0,.19-.18,0-.2s-.1-.14,0-.2a.34.34,0,0,1,.28-.05.58.58,0,0,1,.14,1.06,1.1,1.1,0,0,1-.94,0,1,1,0,0,1-.42-.86.88.88,0,0,1,.51-.84,1.27,1.27,0,0,1,1.06-.08,1.55,1.55,0,0,1,1,1.29,1.36,1.36,0,0,1-.56,1.14,1.64,1.64,0,0,1-1.51.07c-.12-.05-.18.14-.06.19Z"/><path class="cls-1" d="M23.77,12.55a.55.55,0,0,0-.54.3.39.39,0,0,0,.19.51.58.58,0,0,0,.32,0,2.87,2.87,0,0,0,.38-.08,2,2,0,0,0,.67-.35.12.12,0,0,0,0-.1,1.83,1.83,0,0,0-.63-.85.53.53,0,0,0-.49-.15.45.45,0,0,0-.28.38.57.57,0,0,0,.31.49c.12.06.22-.12.1-.18s-.25-.23-.18-.38a.22.22,0,0,1,.13-.12.25.25,0,0,1,.2.06,1.64,1.64,0,0,1,.64.81l0-.1a1.8,1.8,0,0,1-.49.27,1.44,1.44,0,0,1-.54.1.19.19,0,0,1-.19-.25c0-.15.21-.2.35-.2A.1.1,0,1,0,23.77,12.55Z"/><path class="cls-1" d="M23.06,12.35a1.5,1.5,0,0,0-1.44.79,1,1,0,0,0,.47,1.31,1.67,1.67,0,0,0,.86.08A5.94,5.94,0,0,0,26,13.3a.1.1,0,0,0,0-.1,5.76,5.76,0,0,0-1.89-2.53,1.37,1.37,0,0,0-1.28-.37,1.06,1.06,0,0,0-.68.94,1.45,1.45,0,0,0,.83,1.3.1.1,0,1,0,.1-.18A1.16,1.16,0,0,1,22.45,11a.83.83,0,0,1,.54-.51,1,1,0,0,1,.79.2,5.33,5.33,0,0,1,2,2.58l0-.1a5.21,5.21,0,0,1-1.58.88,4.8,4.8,0,0,1-1.72.31.81.81,0,0,1-.69-.34.85.85,0,0,1-.08-.68,1.26,1.26,0,0,1,1.28-.77A.1.1,0,1,0,23.06,12.35Z"/></svg>