<svg id="Capa_1" data-name="Capa 1" xmlns="http://www.w3.org/2000/svg" viewBox="0 0 46.77 10.12"><defs><style>.cls-1{fill:#fff;}.cls-2{fill:#1d1d1b;}</style></defs><title>chx_logo</title><g id="Monocroma"><g id="Probeta"><path id="Trazado" class="cls-1" d="M7.84,7.1l-.09.31c0,.14-.1.27-.16.4A4,4,0,0,1,6.53,9.19l-.31.23-.08.06a3.89,3.89,0,0,1-.61.31l-.18.08a3.31,3.31,0,0,1-.42.12l-.26.06a3.93,3.93,0,0,1-2.36-.32A3.9,3.9,0,0,1,.93,8.67,4,4,0,0,1,.26,7.49a2.72,2.72,0,0,1-.11-.34h0c0-.07,0-.14,0-.2h0A4,4,0,0,1,1.83,2.81L1.55,2a.08.08,0,0,1,.05-.11l1.51-.55h.07a.12.12,0,0,1,0,.05l.28.77A4,4,0,0,1,7.42,4.14h0l.14.25h0l.06.14,0,.07,0,.07v0l0,.06,0,.08a2.5,2.5,0,0,1,.07.26.85.85,0,0,1,0,.17.19.19,0,0,1,0,.08A3.89,3.89,0,0,1,7.84,7.1Z"/><circle class="cls-2" cx="1.99" cy="4.21" r="0.54"/><circle class="cls-2" cx="2.84" cy="2.88" r="0.54"/><path class="cls-2" d="M2.49,1.32A.39.39,0,0,1,2.1,1,.4.4,0,0,1,2.42.54h0a.4.4,0,0,1,.44.32.38.38,0,0,1-.07.29.39.39,0,0,1-.25.17Z"/><path class="cls-1" d="M2.49.59a.34.34,0,0,1,.06.67H2.49A.33.33,0,0,1,2.43.6h.06m0-.12H2.41A.46.46,0,0,0,2,1a.45.45,0,0,0,.45.37h.08a.44.44,0,0,0,.29-.19A.45.45,0,0,0,2.49.47Z"/><circle class="cls-2" cx="4.74" cy="4.01" r="0.34"/><path class="cls-2" d="M1.55.86A.4.4,0,0,1,1.16.53.42.42,0,0,1,1.23.24.39.39,0,0,1,1.49.07h0A.41.41,0,0,1,1.94.4a.38.38,0,0,1-.06.29.35.35,0,0,1-.26.16Z"/><path class="cls-1" d="M1.55.13a.32.32,0,0,1,.33.28A.34.34,0,0,1,1.61.8H1.55A.33.33,0,0,1,1.22.52.34.34,0,0,1,1.5.13h.05m0-.12H1.47A.43.43,0,0,0,1.18.2.46.46,0,0,0,1.1.54a.46.46,0,0,0,.45.38h.08a.45.45,0,0,0,.3-.18A.46.46,0,0,0,2,.39.45.45,0,0,0,1.55,0Z"/><path class="cls-2" d="M7.59,7.82a4,4,0,0,1-2.24,2,4.27,4.27,0,0,1-.68.18,3.93,3.93,0,0,1-2.36-.32,3.91,3.91,0,0,1-2-2.23,3.58,3.58,0,0,1-.11-.35h0c0-.07,0-.14,0-.2h0A.9.9,0,0,1,.83,6a.87.87,0,0,1,.63.13.87.87,0,0,1,.72-.7.77.77,0,0,1,.26,0l.17-.14a.87.87,0,0,1,.72-1,.89.89,0,0,1,.93.43l.17,0a.9.9,0,0,1,.66.14.89.89,0,0,1,.71-.67.82.82,0,0,1,.27,0,.92.92,0,0,1,.49-.27.9.9,0,0,1,.86.33h0l.13.25h0c.06.12.11.24.16.37A4,4,0,0,1,7.59,7.82Z"/><path class="cls-1" d="M1.75,2.07,2,2.82a.08.08,0,0,1,0,.1A3.8,3.8,0,0,0,.43,7.43a3.72,3.72,0,0,0,2,2.14,3.72,3.72,0,0,0,2.89.13h0A3.8,3.8,0,0,0,7.55,4.84,3.81,3.81,0,0,0,3.46,2.38a.09.09,0,0,1-.1,0l-.27-.75Zm2.92,8a3.94,3.94,0,0,1-2.36-.32,3.91,3.91,0,0,1-2-2.23A4,4,0,0,1,1.83,2.81L1.55,2a.08.08,0,0,1,.05-.11l1.51-.55h.07a.12.12,0,0,1,0,.05l.28.77A4,4,0,0,1,5.35,9.87h0A4.27,4.27,0,0,1,4.67,10.05Z"/></g><g id="Chemical_X" data-name="Chemical X"><path class="cls-1" d="M14,7.56a2.65,2.65,0,0,1-.47.84A2.41,2.41,0,0,1,12.8,9a1.82,1.82,0,0,1-.86.21,1.84,1.84,0,0,1-1.11-.36,2.51,2.51,0,0,1-.81-1,3.08,3.08,0,0,1-.29-1.33A3.05,3.05,0,0,1,10,5.21a2.44,2.44,0,0,1,.81-1,1.84,1.84,0,0,1,1.11-.36,1.82,1.82,0,0,1,.86.21,2.13,2.13,0,0,1,.71.57,2.65,2.65,0,0,1,.47.84l-1.15.21a1.7,1.7,0,0,0-.37-.68.66.66,0,0,0-1,0,1.74,1.74,0,0,0-.36.63,2.71,2.71,0,0,0-.14.88,2.75,2.75,0,0,0,.14.88,1.74,1.74,0,0,0,.36.63.73.73,0,0,0,.51.23A.68.68,0,0,0,12.46,8a1.77,1.77,0,0,0,.37-.68Z"/><path class="cls-1" d="M16.9,6.69V3.9h1.28V9.5H16.9V7.64h-1V9.5H14.63V4.09L15.9,3.9V6.69Z"/><path class="cls-1" d="M18.82,4.09,20,3.91h1.71v1.2H20V6.22h1.15v.89H20V8h1.71V9.18H18.82Z"/><path class="cls-1" d="M23.65,6.77V9.5H22.37V4.09l1.28-.19L24.9,7.38,26.1,3.9h1.29V9.5H26.11V6.74L25.4,8.87h-1Z"/><path class="cls-1" d="M29.24,3.89V9.18H28V4.07Z"/><path class="cls-1" d="M33.82,7.56a2.49,2.49,0,0,1-.48.84,2.37,2.37,0,0,1-.7.57,1.86,1.86,0,0,1-.87.21,1.89,1.89,0,0,1-1.11-.36,2.52,2.52,0,0,1-.8-1,2.91,2.91,0,0,1-.3-1.32,2.89,2.89,0,0,1,.3-1.33,2.52,2.52,0,0,1,.8-1,1.89,1.89,0,0,1,1.11-.36,1.86,1.86,0,0,1,.87.21,2.37,2.37,0,0,1,.7.57,2.49,2.49,0,0,1,.48.84l-1.15.21A1.77,1.77,0,0,0,32.3,5a.7.7,0,0,0-.53-.25.67.67,0,0,0-.5.23,1.62,1.62,0,0,0-.37.63,2.77,2.77,0,0,0-.13.89,2.65,2.65,0,0,0,.13.87,1.59,1.59,0,0,0,.37.64.67.67,0,0,0,1,0,1.77,1.77,0,0,0,.37-.68Z"/><path class="cls-1" d="M36.6,3.9l1.49,5.6H36.81l-.25-.94H35.35l-.25.94H33.82l1.43-5.35Zm-1,3.71h.69L36,6.3Z"/><path class="cls-1" d="M39.64,8.28H41.1v.9H38.43V4.08l1.21-.18Z"/><path class="cls-1" d="M45.2,6.94,46.59,9.5h-1.5l-.62-1.15L43.89,9.5H42.36L43.7,6.9,42.22,4.15l1.32-.25.88,1.6.82-1.6h1.5Z"/></g></g></svg>