<svg id="Capa_1" data-name="Capa 1" xmlns="http://www.w3.org/2000/svg" viewBox="0 0 109.31 109.31"><defs><style>.cls-1{fill:#1d1d1b;}</style></defs><title>chx</title><path class="cls-1" d="M86.26,17.39c.18.57.35,1.15.51,1.72a5.35,5.35,0,0,0,.61,1.69,3.58,3.58,0,0,0,1.38,1.11c.29.13.57.28.87.39l1,.32a.12.12,0,0,0,.08-.22l-.86-.29c-.28-.1-.54-.23-.81-.35a3.4,3.4,0,0,1-1.45-1.14A5.87,5.87,0,0,1,87,19q-.23-.81-.48-1.62c0-.14-.29-.1-.24,0Z"/><path class="cls-1" d="M90.71,22.6a6.06,6.06,0,0,0,2.07-2.14,4.3,4.3,0,0,0,0-2.81c0-.15-.27-.1-.23,0a4.06,4.06,0,0,1,0,2.75,5.92,5.92,0,0,1-2,2c-.13.09,0,.26.16.18Z"/><path class="cls-1" d="M87.6,18.07a1,1,0,0,1,1.17-.28c.07,0,.14-.06.07-.09a1.07,1.07,0,0,0-1.34.3c0,.06.06.13.1.07Z"/><path class="cls-1" d="M91.8,17.21a1,1,0,0,0-.69-.16,1.07,1.07,0,0,0-.67.35c0,.06,0,.12.1.07a.94.94,0,0,1,1.2-.17c.06,0,.13-.05.06-.09Z"/><path class="cls-1" d="M90.57,19.48a.37.37,0,0,0-.31.32s0,0,.06,0a.32.32,0,0,1,.26-.26s0-.07,0-.06Z"/><path class="cls-1" d="M89.54,19.73a.32.32,0,0,1,.35.15s.08,0,.06,0a.41.41,0,0,0-.42-.18s0,.07,0,.06Z"/><path class="cls-1" d="M89.13,20.83a2.07,2.07,0,0,0,.27.31,1,1,0,0,0,.29.17,1.44,1.44,0,0,0,.71.06s0-.06,0-.06a1.32,1.32,0,0,1-.68-.06.72.72,0,0,1-.27-.15,2.43,2.43,0,0,1-.26-.3s-.07,0-.05,0Z"/><path class="cls-1" d="M90.27,20.59c-.18-.16-.41-.06-.61,0l-.33.14a.31.31,0,0,1-.32,0s-.07,0,0,0c.18.14.38,0,.56-.05l.33-.13a.36.36,0,0,1,.36,0s.08,0,0,0Z"/><path class="cls-1" d="M88.93,20.89a.5.5,0,0,1,0-.13.12.12,0,0,1,0-.05l.07,0s0,0,0,0,0,0,0,0l-.07,0a.23.23,0,0,0-.07.07.39.39,0,0,0-.06.15,0,0,0,0,0,0,0s0,0,0,0Z"/><path class="cls-1" d="M91.33,20.4c0,.11-.07.23-.12.34A.7.7,0,0,1,91,21a1.29,1.29,0,0,1-.63.31s0,.07,0,.06a1.41,1.41,0,0,0,.66-.32,1.18,1.18,0,0,0,.19-.25,2.84,2.84,0,0,0,.13-.38,0,0,0,1,0,0,0Z"/><path class="cls-1" d="M91.45,20.29c0,.06-.09.13-.14.17a.57.57,0,0,1-.18.12,3.18,3.18,0,0,1-.32.16,2.46,2.46,0,0,1-.55.14,2.32,2.32,0,0,1-.53,0,2,2,0,0,1-.34,0,.64.64,0,0,1-.37-.15s-.07,0,0,0a.56.56,0,0,0,.29.14,1.57,1.57,0,0,0,.37,0,2.72,2.72,0,0,0,.64,0,2.76,2.76,0,0,0,.64-.18c.11-.06.24-.11.35-.18s.23-.16.25-.27-.05,0-.06,0Z"/><path class="cls-1" d="M90.29,20.62a.35.35,0,0,1,.32-.16c.12,0,.24,0,.36,0s.43.05.54-.14c0,0,0-.07-.05,0a.3.3,0,0,1-.32.13h-.36c-.2,0-.44,0-.55.2,0,0,0,0,.06,0Z"/><path class="cls-1" d="M91.64,20.37a.49.49,0,0,0-.12-.13.15.15,0,0,0-.07,0h-.09s0,0,0,0,0,0,0,0l.08,0,.06,0a.52.52,0,0,1,.1.11s0,0,0,0,0,0,0,0Z"/><path class="cls-1" d="M92.06,21.27A4.76,4.76,0,0,0,92.78,23a3.9,3.9,0,0,0,1.5,1.23A2,2,0,0,0,97,23a2.18,2.18,0,0,0,0-.88,1.37,1.37,0,0,0-.37-.88c-.06-.06-.18-.06-.2,0a1.58,1.58,0,0,1-.75,1c-.2.1-.43.11-.54-.12a1,1,0,0,1,0-.67,5.31,5.31,0,0,1,.46-1.07,2.39,2.39,0,0,0,.26-1.08,1.92,1.92,0,0,0-1-1.67,2.39,2.39,0,0,1-.52-.38,1.93,1.93,0,0,1-.34-.59A1.87,1.87,0,0,1,94,16.4a5.35,5.35,0,0,0-2-3.94A4.74,4.74,0,0,0,88.34,12a4.59,4.59,0,0,0-2.76,1.68,5.12,5.12,0,0,0-.45,4.19,2.76,2.76,0,0,1,.1.65,1.86,1.86,0,0,1-.46,1.11,1.89,1.89,0,0,0-.38.91,2.16,2.16,0,0,0,.7,1.78,7.43,7.43,0,0,1,.93.93c.24.34.4,1-.26.92a1.65,1.65,0,0,1-1.05-.67.13.13,0,0,0-.19,0,1.84,1.84,0,0,0,.25,1.66,2,2,0,0,0,1.47.9c1.33.14,2.29-1.13,2.55-2.27a5.06,5.06,0,0,0,0-2.05.12.12,0,0,0-.23,0,5,5,0,0,1,0,2,3.16,3.16,0,0,1-1.09,1.75,1.73,1.73,0,0,1-2,0,1.67,1.67,0,0,1-.65-.83,1.45,1.45,0,0,1-.1-1.08l-.2,0a1.93,1.93,0,0,0,.94.67.84.84,0,0,0,.89-.1.82.82,0,0,0,0-.89,3.2,3.2,0,0,0-.81-.91,2.93,2.93,0,0,1-.77-.95,1.71,1.71,0,0,1-.12-1.09,3.63,3.63,0,0,1,.58-1,1.73,1.73,0,0,0,.22-1A13.76,13.76,0,0,0,85.2,17a5,5,0,0,1,.16-2.33,3.55,3.55,0,0,1,2-2.1,5.05,5.05,0,0,1,4-.08c1.55.75,2.09,2.45,2.32,4a1.86,1.86,0,0,0,.71,1.24,2.92,2.92,0,0,1,1,.8,1.84,1.84,0,0,1,.23,1.08c-.07.8-.73,1.42-.76,2.22a.76.76,0,0,0,.42.81.91.91,0,0,0,.82-.28,1.83,1.83,0,0,0,.59-.94l-.21,0a1.39,1.39,0,0,1,.33.9,1.78,1.78,0,0,1-.15.94A1.74,1.74,0,0,1,95,24.2a2.42,2.42,0,0,1-1-.39,3.49,3.49,0,0,1-.81-.67,4.3,4.3,0,0,1-.89-1.91c0-.15-.27-.11-.24,0Z"/><path class="cls-1" d="M91.14,16c.21.57.81,1,1.23,1.38a3.08,3.08,0,0,1,1,1.72c0,.11.19.08.18,0a3.07,3.07,0,0,0-.87-1.63c-.25-.27-.53-.51-.8-.76a2,2,0,0,1-.56-.75c0-.11-.21,0-.17.08Z"/><path class="cls-1" d="M85.92,15.24a2.12,2.12,0,0,0-.25,1.55,1.06,1.06,0,0,0,.61.68,2.24,2.24,0,0,0,1.06,0A5.28,5.28,0,0,0,88.85,17,2.06,2.06,0,0,0,90,15.92c0-.14-.18-.22-.23-.08a1.72,1.72,0,0,1-.89.89,5,5,0,0,1-1.32.46c-.56.11-1.3.26-1.59-.34a1.83,1.83,0,0,1,.2-1.54c.07-.13-.16-.21-.23-.07Z"/><path class="cls-1" d="M89.6,16.53a1.9,1.9,0,0,0,1.47-.25,1.29,1.29,0,0,0,.47-.59,2.6,2.6,0,0,0,.11-.79.13.13,0,0,0-.25,0,2.09,2.09,0,0,1-.07.66,1,1,0,0,1-.42.55,1.73,1.73,0,0,1-1.3.2c-.15,0-.17.2,0,.23Z"/><path class="cls-1" d="M91.38,13.77a3.41,3.41,0,0,0-.85-.54,3.75,3.75,0,0,0-.47-.17,3,3,0,0,0-.51-.08,3.51,3.51,0,0,0-1,.07,5.34,5.34,0,0,0-1,.3,7.62,7.62,0,0,0-.9.46,3.57,3.57,0,0,0-.81.62l0,0v.06a6.31,6.31,0,0,1,.08.76v.3l.2-.23a.69.69,0,0,1,.15-.14l.17-.14.36-.25a5.6,5.6,0,0,1,1.62-.75,3.68,3.68,0,0,1,.88-.15,3.2,3.2,0,0,1,1.72.35,4.3,4.3,0,0,1,1.35,1.16A3.4,3.4,0,0,0,91.38,13.77Zm.73,1.3a3.18,3.18,0,0,0-.3-.33,3.3,3.3,0,0,0-.73-.56,3.22,3.22,0,0,0-1.78-.43,4.64,4.64,0,0,0-1.8.45,6.28,6.28,0,0,0-.81.43l-.38.26-.18.15a1,1,0,0,0-.19.17l.21.06a7,7,0,0,0-.07-.79l0,.09A3.15,3.15,0,0,1,86.8,14a5.41,5.41,0,0,1,.86-.45,4.53,4.53,0,0,1,1.88-.39,1.84,1.84,0,0,1,.47.06,2.47,2.47,0,0,1,.46.15,3,3,0,0,1,.83.49,3.45,3.45,0,0,1,1.08,1.57C92.28,15.31,92.21,15.18,92.11,15.07Z"/><g id="Scooby"><path class="cls-1" d="M80.15,81.17a11.06,11.06,0,0,0,1.15,1.41c.29.3.58.6.88.88l.48.44.28.24a2,2,0,0,1,.27.23c.1.11.27,0,.18-.14a2.88,2.88,0,0,0-.46-.39l-.54-.49c-.31-.3-.62-.6-.91-.91A11.06,11.06,0,0,1,80.33,81c-.08-.12-.26,0-.18.14Z"/><path class="cls-1" d="M84.9,77.43a9.77,9.77,0,0,1,1.16,1.41c.25.34.48.7.71,1s.25.4.36.61a6.05,6.05,0,0,0,.32.55c.09.11.27,0,.18-.14a1.54,1.54,0,0,1-.17-.31c-.06-.09-.11-.19-.17-.29s-.22-.36-.34-.54c-.22-.37-.46-.72-.71-1.07a9.77,9.77,0,0,0-1.16-1.41c-.11-.1-.29,0-.18.14Z"/><path class="cls-1" d="M75.78,75.49a1.12,1.12,0,0,0,1.17.65s.07-.06,0-.09a1.49,1.49,0,0,1-.44-.78,1,1,0,0,0-.25-.49,7.26,7.26,0,0,0-.78-.79s-.12.05-.06.1a7.09,7.09,0,0,1,.77.78,2.33,2.33,0,0,1,.17.26c0,.1,0,.21.07.31a1.87,1.87,0,0,0,.43.68l0-.09a1,1,0,0,1-1-.58c0-.06-.14,0-.11,0Z"/><path class="cls-1" d="M80.21,72.07c.33.24.63.67.41,1.07h.1a1.84,1.84,0,0,0-.57-.54c-.09,0-.21-.07-.3-.13a1.58,1.58,0,0,1-.23-.22,6.21,6.21,0,0,1-.63-.89c0-.06-.14,0-.1.05a5.51,5.51,0,0,0,.63.89,1,1,0,0,0,.45.34,1.47,1.47,0,0,1,.66.57s.08,0,.1,0a1,1,0,0,0-.45-1.2c-.06,0-.13,0-.07.09Z"/><path class="cls-1" d="M82,78.4a2.19,2.19,0,0,1,.58.74,1.38,1.38,0,0,1-.48,1.74,2.37,2.37,0,0,1-2.24,0c-.28-.12-.65-.25-.79-.54a.91.91,0,0,1,0-.65,2.8,2.8,0,0,1,.58-.92c.07-.08,0-.18-.11-.17-.29,0-.72,0-.69-.38a.86.86,0,0,1,.13-.36c.07-.12-.12-.26-.19-.13a1,1,0,0,0-.17.61c.06.45.58.5,1,.48l-.11-.18a2.81,2.81,0,0,0-.6,1,1.08,1.08,0,0,0,0,.75,1.14,1.14,0,0,0,.68.61A3,3,0,0,0,82,81.2a1.63,1.63,0,0,0,.9-1.84,2.18,2.18,0,0,0-.77-1.14c-.11-.09-.25.09-.13.18Z"/><path class="cls-1" d="M80.15,76.26a2.11,2.11,0,0,0-.72,1.22,2.59,2.59,0,0,0,0,.48.46.46,0,0,0,0,.23,1.46,1.46,0,0,0,.35.3,2.16,2.16,0,0,0,.86.38,1.83,1.83,0,0,0,2-1.22A2,2,0,0,0,82.28,76c-.11-.16-.39-.14-.57-.16a2.36,2.36,0,0,0-1.56.39c-.12.09,0,.27.14.18a2,2,0,0,1,1.3-.35,3.15,3.15,0,0,1,.43,0l.1,0s-.05-.07-.05,0,.07.1.08.13a2.29,2.29,0,0,1,.14.27,1.7,1.7,0,0,1,.15.8,1.53,1.53,0,0,1-2.39,1.07,4.63,4.63,0,0,1-.42-.32s0,0,0,0,0,.09,0,0a2.36,2.36,0,0,1,0-.38,1.85,1.85,0,0,1,.65-1.23C80.41,76.35,80.26,76.17,80.15,76.26Z"/><path class="cls-1" d="M78.45,74.93a.82.82,0,0,0-.67.62,1.51,1.51,0,0,0,0,.56c0,.07.13.06.11,0a1,1,0,0,1,.12-.78.74.74,0,0,1,.37-.26l.09,0c.07,0,0-.12,0-.11Z"/><path class="cls-1" d="M79.1,74.4h0v-.07a1.38,1.38,0,0,1,0-.2.36.36,0,0,1,.36-.27A1,1,0,0,1,80,74c.06,0,.13-.06.07-.1-.24-.13-.6-.31-.87-.13a.63.63,0,0,0-.23.46.76.76,0,0,0,0,.15c0,.07.12,0,.12,0Z"/><path class="cls-1" d="M79,79.47a5.32,5.32,0,0,1-.74-.76,1.3,1.3,0,0,1-.23-.6c-.12-.56-.22-1.12-.35-1.68a.11.11,0,0,0-.19-.07,1.49,1.49,0,0,1-1.22.29.67.67,0,0,1-.39-.66c0-.17,0-.34,0-.51a1,1,0,0,0-.09-.21,4.71,4.71,0,0,1-.21-.52c-.1-.29-.24-.93.31-.77s.66.67.76,1c0,.06.07.11.13.09l.38-.08a.8.8,0,0,0,.3-.09c.12-.11.22-.27.35-.39s.34-.3.52-.44a4.7,4.7,0,0,1,.53-.38c.13-.09.29-.14.41-.22s.12-.18.16-.26l.16-.34a.1.1,0,0,0-.06-.14,1.71,1.71,0,0,1-.85-.76c-.07-.16-.09-.48.13-.53a.86.86,0,0,1,.52.13,4.33,4.33,0,0,1,.51.31,2.35,2.35,0,0,0,.25.19,1.6,1.6,0,0,0,.39,0,1,1,0,0,1,.7.33c.28.43-.18,1-.51,1.3a.11.11,0,0,0,0,.19c.55.24,1.11.45,1.67.67A1.49,1.49,0,0,1,83,75a5.51,5.51,0,0,1,.63.89c.07.12.28,0,.21-.09a2.76,2.76,0,0,0-1.2-1.3c-.59-.24-1.19-.46-1.78-.72l0,.19a1.53,1.53,0,0,0,.66-1.32.78.78,0,0,0-.56-.6,1.6,1.6,0,0,0-.43-.11.71.71,0,0,0-.29,0s0,0,0,0l0,0c-.06-.06-.13-.1-.19-.15a4.09,4.09,0,0,0-.64-.37.89.89,0,0,0-.64-.09.53.53,0,0,0-.3.54c0,.53.6.94,1.05,1.16l-.07-.15-.15.31a1.42,1.42,0,0,0-.08.18l0,0c0-.06.05,0,0,0a1.82,1.82,0,0,0-.43.24,5.74,5.74,0,0,0-.5.36l-.48.4a2.72,2.72,0,0,0-.37.39s-.09.08,0,0h0l-.22,0-.33.07L77,75a1.87,1.87,0,0,0-.76-1.17.69.69,0,0,0-.71,0,.62.62,0,0,0-.16.54,3.2,3.2,0,0,0,.4,1.12s0-.06,0,0a.34.34,0,0,0,0,.1,2.69,2.69,0,0,0,0,.4,1,1,0,0,0,.33.78,1.54,1.54,0,0,0,1.66-.23l-.19-.07c.14.6.25,1.2.38,1.8a2.78,2.78,0,0,0,1,1.39c.11.1.25-.09.14-.18Z"/><path class="cls-1" d="M81.94,75.47a1.3,1.3,0,0,1,.4,0c.37,0,.3.47.23.73,0,.08.06.19.15.14A2.11,2.11,0,0,1,84.26,76c.46.15.51.74.58,1.14a2.38,2.38,0,0,1-.2,1.64,1.51,1.51,0,0,1-1.82.56.11.11,0,0,0-.09.21,1.75,1.75,0,0,0,1.83-.33,2.08,2.08,0,0,0,.56-1.65,5.27,5.27,0,0,0-.18-1,1.08,1.08,0,0,0-.32-.58,1.26,1.26,0,0,0-1.13-.16,3.3,3.3,0,0,0-.86.32l.15.14c.1-.35.16-.85-.28-1a1,1,0,0,0-.65,0c-.14,0,0,.25.09.2Z"/><path class="cls-1" d="M81.55,81.33a2.92,2.92,0,0,0,2.78,0,2.52,2.52,0,0,0,.6-2.66c0-.14-.26-.11-.23,0a2.32,2.32,0,0,1-.51,2.45,2.76,2.76,0,0,1-2.56,0,.11.11,0,1,0-.08.2Z"/><path class="cls-1" d="M82.51,80.63a1.17,1.17,0,0,0,.87.2,1,1,0,0,0,.61-.42.87.87,0,0,0,.12-.61,1.24,1.24,0,0,0-.09-.38c0-.07-.13,0-.1,0a1.06,1.06,0,0,1,0,.8.85.85,0,0,1-1.09.41,1,1,0,0,1-.27-.13.06.06,0,1,0-.07.09Z"/><path class="cls-1" d="M87.45,81.05l.45.54c.06.07.12.13.17.2s0,0,0,0a1.31,1.31,0,0,1,.09.28,2.39,2.39,0,0,1-.87,2.11c-.78.74-2.17,1.56-3.22.81L84,85l-.09-.11-.52-.62-.15.16a2.62,2.62,0,0,0,2.24.13,4.15,4.15,0,0,0,1.82-1.41,2.42,2.42,0,0,0,.5-1.41,1.59,1.59,0,0,0-.16-.77c-.06-.12-.27,0-.21.09a1.85,1.85,0,0,1-.18,1.75,3.33,3.33,0,0,1-3.18,1.68,2.14,2.14,0,0,1-.7-.24c-.11-.07-.24.06-.16.16l.49.58a1.55,1.55,0,0,0,.21.23,1.85,1.85,0,0,0,1.09.36,3.51,3.51,0,0,0,2.24-1,3,3,0,0,0,1.19-2.1,1.46,1.46,0,0,0-.25-.91l-.55-.66C87.53,80.8,87.36,80.94,87.45,81.05Z"/><path class="cls-1" d="M89,86.61,87,86.38l.07.1.18-1.88-.09.07,1.93.22L89,84.8l-.18,1.88a.09.09,0,0,0,.17,0l.19-1.88a.08.08,0,0,0-.08-.09l-1.93-.23a.1.1,0,0,0-.1.08l-.18,1.88a.09.09,0,0,0,.08.09l1.93.23A.09.09,0,0,0,89,86.61Z"/><path class="cls-1" d="M87.41,85.88l.21-.63h-.05l.23.28v0l-.11.18a0,0,0,0,0,0,0l.4,0,0,0,.11.53,0,0-.66-.09,0,0,.2-.26s0,0,0,0l-.36,0a0,0,0,0,0,0,.06l.37,0,0,0-.19.26s0,0,0,0l.65.09s0,0,0,0l-.1-.53,0,0-.39,0,0,0,.11-.18a0,0,0,0,0,0,0l-.24-.29a0,0,0,0,0,0,0l-.2.63S87.4,85.91,87.41,85.88Z"/><path class="cls-1" d="M87.79,85.12A.88.88,0,0,1,88,85a.63.63,0,0,1,.38-.07c.11,0,.12.21.14.31s0,.32,0,.48,0,.2,0,.29h0l-.69-.83-.1-.12s-.07,0,0,0l.68.82.1.12s0,0,0,0a4.17,4.17,0,0,0,0-.79c0-.11,0-.27-.13-.33a.55.55,0,0,0-.38,0,2.71,2.71,0,0,0-.3.13S87.76,85.13,87.79,85.12Z"/><path class="cls-1" d="M88.06,85.18l.26.32,0,0s.05,0,.05,0a.6.6,0,0,0,0-.23c0-.1-.09-.22-.22-.21a.17.17,0,0,0-.11.06s0,.06,0,0h0l0,0a.14.14,0,0,1,.12.06.55.55,0,0,1,.07.25v.07h.05l-.26-.31,0,0S88,85.15,88.06,85.18Z"/><path class="cls-1" d="M86.31,84v-.08s0,0,0,0a.42.42,0,0,1,0-.1s0,0,0,0l0,0s0,0,0,0a.33.33,0,0,1,.28,0,.55.55,0,0,1,.22.1.87.87,0,0,1,.29.37.58.58,0,0,1,.07.21v.14s0,0,0,0v0l0,0s0,0,0,0v0h0l0,0H87a.57.57,0,0,1-.18,0s-.09,0-.09.08a.08.08,0,0,0,.07.09.52.52,0,0,0,.55-.13.55.55,0,0,0,0-.5,1.06,1.06,0,0,0-.34-.48.66.66,0,0,0-.66-.14.47.47,0,0,0-.26.41.09.09,0,0,0,.08.09.1.1,0,0,0,.1-.07Z"/></g><g id="Velma"><path class="cls-1" d="M87.59,60.64c-.08-.1-.24,0-.16.12s.25,0,.16-.12Z"/><path class="cls-1" d="M87.22,60.11c-.08-.1-.25,0-.16.12a.1.1,0,0,0,.16-.12Z"/><path class="cls-1" d="M87.81,60.11c-.08-.1-.25,0-.16.12s.24,0,.16-.12Z"/><path class="cls-1" d="M82.75,58.77a14.19,14.19,0,0,1,2-2.26A1.62,1.62,0,0,1,86,56a7.61,7.61,0,0,1,1.44.25,2.71,2.71,0,0,1,1.28.6,2,2,0,0,1,.55,1.36,8.63,8.63,0,0,1-.05,1.44,1.59,1.59,0,0,1-.63,1.22,9.57,9.57,0,0,1-1.43.81c-.52.25-1,.47-1.58.67-.15.05-.06.26.09.21a13.3,13.3,0,0,0,3-1.46,1.69,1.69,0,0,0,.74-1.15,7.62,7.62,0,0,0,.1-1.51A2.66,2.66,0,0,0,89.21,57,2.16,2.16,0,0,0,88,56.15a8.71,8.71,0,0,0-1.59-.36,2.08,2.08,0,0,0-1.39.16,6.29,6.29,0,0,0-1.28,1.19,14.32,14.32,0,0,0-1.21,1.49c-.09.12.1.27.19.14Z"/><path class="cls-1" d="M84.93,57.31c-.08-.1-.25,0-.17.12s.25,0,.17-.12Z"/><path class="cls-1" d="M85.36,57.79a.1.1,0,0,0-.16.13c.08.1.25,0,.16-.13Z"/><path class="cls-1" d="M85.51,57.24c-.08-.1-.24,0-.16.12s.24,0,.16-.12Z"/><path class="cls-1" d="M84.88,61.8a2.3,2.3,0,0,0-1-1.62,2.47,2.47,0,0,0-1.76-.33c-.12,0-.09.2,0,.18a2.18,2.18,0,0,1,2.59,1.8c0,.11.2.08.18,0Z"/><path class="cls-1" d="M86.22,63.57a2.3,2.3,0,0,0-1-1.63,2.43,2.43,0,0,0-1.75-.32c-.12,0-.09.2,0,.17A2.19,2.19,0,0,1,86,63.59c0,.11.2.09.18,0Z"/><path class="cls-1" d="M83.58,60.08a2.14,2.14,0,0,0-.64-1.23,1.65,1.65,0,0,0-1.39-.34c-.11,0-.09.19,0,.17a1.46,1.46,0,0,1,1.26.32,1.87,1.87,0,0,1,.57,1.1c0,.12.2.09.18,0Z"/><path class="cls-1" d="M87.76,63.37a4.43,4.43,0,0,0,2.4-1.81,2.22,2.22,0,0,0,0-2,3.46,3.46,0,0,0-.67-1c-.1-.11-.29,0-.19.15a2.84,2.84,0,0,1,.83,1.65,2.19,2.19,0,0,1-.86,1.85,5.87,5.87,0,0,1-1.62.91c-.15.05,0,.27.09.22Z"/><path class="cls-1" d="M88,62.53a1.23,1.23,0,0,0,.66-.65,1.47,1.47,0,0,0,.14-.85.12.12,0,0,0-.24,0,1.2,1.2,0,0,1-.11.72,1,1,0,0,1-.54.53c-.15,0-.06.26.09.22Z"/><path class="cls-1" d="M88.57,61.94a1,1,0,0,0,.67-.61.64.64,0,0,0-.13-.53s-.09-.11-.16-.11-.06.12,0,.12h0s0,0,0,0h0l0,0a.48.48,0,0,1,.1.17.51.51,0,0,1-.12.51,1.18,1.18,0,0,1-.47.28.06.06,0,1,0,0,.11Z"/><path class="cls-1" d="M83.53,56.49a3.25,3.25,0,0,0-3.2,1.11,4.13,4.13,0,0,0-1.2,3.48,5.43,5.43,0,0,0,2.79,3.85,4.3,4.3,0,0,0,3.69.22c1.24-.48,2.56-1.57,2.45-3,0-.15-.25-.11-.24,0A2.92,2.92,0,0,1,86,64.75a4.18,4.18,0,0,1-3.49.18,5.21,5.21,0,0,1-3-3.39,3.72,3.72,0,0,1,.58-3.24c.71-1,2-2,3.38-1.59.15,0,.24-.17.09-.22Z"/><path class="cls-1" d="M82.44,56.62a4.15,4.15,0,0,1,2.25-1.72,2.23,2.23,0,0,1,1.84.46,3.39,3.39,0,0,1,.72.79c.09.13.28,0,.2-.14a3.15,3.15,0,0,0-1.6-1.28,2.58,2.58,0,0,0-2.19.36,5.48,5.48,0,0,0-1.41,1.39c-.09.12.1.26.19.14Z"/><path class="cls-1" d="M83.34,56.59a1.06,1.06,0,0,1,.67-.38,1.34,1.34,0,0,1,.74.08.12.12,0,0,0,.09-.22A1.56,1.56,0,0,0,84,56a1.24,1.24,0,0,0-.81.46c-.09.13.11.27.19.14Z"/><path class="cls-1" d="M84,56.14a.87.87,0,0,1,.66-.43.5.5,0,0,1,.24.06.59.59,0,0,1,.17.13l0,0v0h0a0,0,0,0,0,0,0s0,0,0,0h0c0,.07.09.11.11,0s0-.11,0-.16A.69.69,0,0,0,85,55.7a.66.66,0,0,0-.65,0,1.3,1.3,0,0,0-.46.41c-.05.06,0,.13.1.07Z"/></g><path class="cls-1" d="M86.43,56.85l-.1.36a0,0,0,0,0,0,0,.66.66,0,0,1,1,.09c.11.16.19.34.31.5a2,2,0,0,0,.35.37.6.6,0,0,1,.26.73.87.87,0,0,1-.28.35s0,.05,0,.05h.39s0-.06,0-.06H88l0,.05a.7.7,0,0,0,.23-1c-.13-.16-.32-.27-.45-.43a4.63,4.63,0,0,1-.39-.59.61.61,0,0,0-.63-.33,1,1,0,0,0-.47.19l0,0,.1-.36s0-.06-.06,0Z"/><path class="cls-1" d="M12.94,43.54c.72-1.28,1.58-2.49,2.28-3.78a3.49,3.49,0,0,0,.61-2.86,2.32,2.32,0,0,0-1.19-1.16c-.14-.08-.26.13-.12.2a2.2,2.2,0,0,1,1.06,1,1.89,1.89,0,0,1,.06,1.24A11.24,11.24,0,0,1,14,41.31c-.44.69-.87,1.39-1.28,2.11-.07.13.14.25.21.12Z"/><path class="cls-1" d="M14.73,41.6a1.32,1.32,0,0,1-.07,1.46,7.2,7.2,0,0,1-1.05,1.35c-.08.08.05.21.13.12A6.55,6.55,0,0,0,14.89,43a1.41,1.41,0,0,0,0-1.54c-.07-.09-.2,0-.13.13Z"/><path class="cls-1" d="M14.75,41.43a.83.83,0,0,0-.22.08,1.22,1.22,0,0,0-.19.12.09.09,0,0,0,0,.13.11.11,0,0,0,.13,0l0,0s0,0,0,0h0l0,0,.08,0h0l0,0,.1,0a.08.08,0,0,0,.07-.1.1.1,0,0,0-.11-.07Z"/><path class="cls-1" d="M14.49,41.72a2.55,2.55,0,0,0,0-.78.1.1,0,0,0-.09-.09.09.09,0,0,0-.09.09c0,.13,0,.25,0,.38s0,.13,0,.19a1,1,0,0,1,0,.17s0,.09.06.1a.09.09,0,0,0,.11-.06Z"/><path class="cls-1" d="M14.81,41.56A1.45,1.45,0,0,0,15,41.3q.15-.25.27-.51a1.23,1.23,0,0,0,.06-1.2c0-.07-.15,0-.11.06a1.16,1.16,0,0,1-.09,1.15,3.75,3.75,0,0,1-.24.44l-.1.17,0,.05v0c-.05.06,0,.14.08.08Z"/><path class="cls-1" d="M15.08,42.41a3.4,3.4,0,0,0,.82-3.27c-.06-.13-.13-.25-.19-.39s-.2,0-.16.09a2.88,2.88,0,0,1,.34,1.1,4,4,0,0,1-1,2.39c-.07.09.09.17.16.08Z"/><path class="cls-1" d="M8.82,41.33c.73-1.2,1.33-2.47,2-3.67.47-.79,1.09-1.84,2.07-2.07a2.21,2.21,0,0,1,1.58.35c.13.08.25-.13.12-.2a2.63,2.63,0,0,0-1.49-.42,2.21,2.21,0,0,0-1.21.55,5.68,5.68,0,0,0-1,1.26c-.37.58-.69,1.18-1,1.77-.42.78-.83,1.56-1.29,2.31-.08.13.13.25.21.12Z"/><path class="cls-1" d="M10.9,37.17a1.08,1.08,0,0,0-.65.24,2,2,0,0,0-.5.59c0,.06.06.12.1.06a1.94,1.94,0,0,1,.45-.54,1,1,0,0,1,.6-.23c.08,0,.07-.12,0-.12Z"/><path class="cls-1" d="M14.11,37a.63.63,0,0,1,.24.14.79.79,0,0,1,.18.22.68.68,0,0,1-.25-.14A.62.62,0,0,1,14.11,37Z"/><path class="cls-1" d="M14.39,36.85a1.71,1.71,0,0,1,.34.13,1.18,1.18,0,0,1,.28.22,1,1,0,0,1-.33-.13A.89.89,0,0,1,14.39,36.85Z"/><path class="cls-1" d="M14.52,36.53a2.15,2.15,0,0,1,.36.11,1.74,1.74,0,0,1,.34.16.83.83,0,0,1-.38-.07A.72.72,0,0,1,14.52,36.53Z"/><path class="cls-1" d="M14.59,36.2a1.24,1.24,0,0,1,.14-.38A1.22,1.22,0,0,1,15,35.5a1,1,0,0,1-.14.38A1.17,1.17,0,0,1,14.59,36.2Z"/><path class="cls-1" d="M14.29,36a1.33,1.33,0,0,1,0-.4,1,1,0,0,1,.15-.36,1.74,1.74,0,0,1-.05.39A1.4,1.4,0,0,1,14.29,36Z"/><path class="cls-1" d="M14,36.09a1.32,1.32,0,0,1-.25-.28,1.11,1.11,0,0,1-.16-.35,1.68,1.68,0,0,1,.25.29A1.17,1.17,0,0,1,14,36.09Z"/><path class="cls-1" d="M13.94,36.22a.65.65,0,0,1-.31-.08.7.7,0,0,1-.26-.19,1.17,1.17,0,0,1,.3.1A1.24,1.24,0,0,1,13.94,36.22Z"/><path class="cls-1" d="M13.63,36.51a.74.74,0,0,1-.27-.12.84.84,0,0,1-.21-.21.74.74,0,0,1,.27.12A1,1,0,0,1,13.63,36.51Z"/><path class="cls-1" d="M13.46,36.77a.66.66,0,0,1-.28,0,.88.88,0,0,1-.26-.12.7.7,0,0,1,.29,0A.62.62,0,0,1,13.46,36.77Z"/><path class="cls-1" d="M10.57,37.89a1.06,1.06,0,0,0-.9.12,2,2,0,0,0-.7.82h.16L9,38.51c0-.08-.14,0-.16,0l-.44,1.09c0,.1.14.14.18,0L9,38.57l-.16,0,.14.32a.09.09,0,0,0,.16,0c.27-.48.75-1.08,1.4-.85.11,0,.15-.13,0-.17Z"/><path class="cls-1" d="M8.3,41.39c.4-.12.68.24.83.55a2.93,2.93,0,0,1,.22,1.68c0,.12.15.22.22.09a4.84,4.84,0,0,1,1.77-2.2l-.18-.1a3.89,3.89,0,0,0,.62,2.52.12.12,0,0,0,.22-.09c-.05-.26.21-.44.45-.42a.79.79,0,0,1,.4.22,2.4,2.4,0,0,1,.45.45,1.76,1.76,0,0,1,.4.94,1.2,1.2,0,0,1-1,1.31,4.07,4.07,0,0,1-3-1,4.71,4.71,0,0,1-1.53-1.61,2,2,0,0,1-.2-.55c0-.19,0-.39-.07-.58a2.32,2.32,0,0,0-.49-.88c-.49-.77.1-1.78.47-2.49a19.23,19.23,0,0,1,1.73-2.66l-.23-.06.06.69a.13.13,0,0,0,.18.1c.54-.31,1.14-1,1.84-.77a.12.12,0,0,0,.06-.23c-.78-.22-1.42.45-2,.79l.18.1-.05-.68a.13.13,0,0,0-.23-.06,21.46,21.46,0,0,0-1.75,2.7,9.15,9.15,0,0,0-.56,1.29,1.8,1.8,0,0,0,0,1.1c.14.38.51.65.6,1,0,.2,0,.42.08.63a2.27,2.27,0,0,0,.2.57,4.91,4.91,0,0,0,1.68,1.77c.9.62,2.13,1.35,3.28,1a1.44,1.44,0,0,0,1-1.66,2.22,2.22,0,0,0-.69-1.21,1.31,1.31,0,0,0-.77-.47.62.62,0,0,0-.69.71l.22-.09a3.72,3.72,0,0,1-.59-2.4.12.12,0,0,0-.18-.1,5.06,5.06,0,0,0-1.86,2.28l.22.09a3.1,3.1,0,0,0-.28-1.94,1,1,0,0,0-1.06-.58.12.12,0,0,0,.06.23Z"/><path class="cls-1" d="M7.61,42.32a2,2,0,0,1-1.07,1.06c-.07,0,0,.14,0,.11a2.06,2.06,0,0,0,1.16-1.14c0-.07-.09-.1-.12,0Z"/><path class="cls-1" d="M7.64,42.25a1.94,1.94,0,0,1-1.27.27.06.06,0,1,0,0,.12,2,2,0,0,0,1.35-.31c.06,0,0-.13-.08-.08Z"/><path class="cls-1" d="M12,42.91a1,1,0,0,0,.91-.31c.05-.05,0-.14-.08-.08a.86.86,0,0,1-.8.28c-.07,0-.1.1,0,.11Z"/><path class="cls-1" d="M9.78,41.59a.8.8,0,0,1-.16-.8c0-.07-.09-.1-.12,0a.89.89,0,0,0,.2.92c.05,0,.14,0,.08-.09Z"/><path class="cls-1" d="M11.78,41.3a.71.71,0,0,1,.25-.53,2.24,2.24,0,0,1,.55-.19c.31-.09.68-.15.84-.45a.6.6,0,0,0-.18-.71A1.52,1.52,0,0,0,12.4,39a.67.67,0,0,0-.74.42c0,.07.09.1.11,0,.14-.42.67-.38,1-.21s.71.47.58.82a.69.69,0,0,1-.48.36l-.59.17a.86.86,0,0,0-.43.23,1.08,1.08,0,0,0-.18.49.06.06,0,1,0,.12,0Z"/><path class="cls-1" d="M11.9,37.24l0,.37a0,0,0,0,0,.06,0,.66.66,0,0,1,1-.29c.17.11.31.25.48.35a2.26,2.26,0,0,0,.48.21c.29.09.53.26.53.58a.92.92,0,0,1-.12.42s0,.05,0,0l.36-.15s0-.07,0,0l-.36.15,0,0a.69.69,0,0,0-.18-1,6,6,0,0,0-.59-.23,4,4,0,0,1-.58-.41.65.65,0,0,0-.72-.06,1,1,0,0,0-.36.35H12l0-.37s-.07,0-.06,0Z"/><path class="cls-1" d="M53.5,68.27a.46.46,0,0,1,0-.36s0,0,0,0,0,0,0,0a.48.48,0,0,0,.06.4s.07,0,0,0Z"/><path class="cls-1" d="M53.16,68.62a.61.61,0,0,0-.42,0s0,0,0,0,0,0,0,0a.48.48,0,0,1,.37,0s.07,0,0-.06Z"/><path class="cls-1" d="M56.28,68.05a1,1,0,0,1-.81,1c-.07,0,0,.12,0,.11A1.12,1.12,0,0,0,56.4,68c0-.08-.13-.07-.12,0Z"/><path class="cls-1" d="M53.23,71.58a1.09,1.09,0,0,0,1-1c0-.07-.11-.1-.12,0a1,1,0,0,1-.87.91.06.06,0,1,0,0,.11Z"/><path class="cls-1" d="M51.27,71.89a3.18,3.18,0,0,1-1-.72.65.65,0,0,1,.1-1c.06,0,0-.15-.07-.1a.75.75,0,0,0-.2,1,2.76,2.76,0,0,0,1.16.85.06.06,0,1,0,.05-.1Z"/><path class="cls-1" d="M50.87,68.68h.4s0,0,0,0a.84.84,0,0,1-.29-.47.56.56,0,0,1,.18-.49c.17-.18.39-.31.56-.51s.4-.79.86-.79a.83.83,0,0,1,.52.21s.06,0,.05,0l-.07-.38s-.07,0-.06,0l.07.38,0,0a.74.74,0,0,0-1,0,6.18,6.18,0,0,0-.36.53,4.88,4.88,0,0,1-.53.48.67.67,0,0,0-.26.7,1,1,0,0,0,.29.43v0l-.39,0a0,0,0,0,0,0,.06Z"/><path class="cls-1" d="M50.94,71a6.11,6.11,0,0,0,.28,1,4.41,4.41,0,0,0,.62.75A9.9,9.9,0,0,0,53.21,74a2.8,2.8,0,0,0,1.59.59,3.36,3.36,0,0,0,1.6-.3,1.83,1.83,0,0,0,.5-.5c.1-.12-.09-.28-.19-.16a1.66,1.66,0,0,1-.32.38,2.92,2.92,0,0,1-2.94-.14,7.27,7.27,0,0,1-1.26-1.15,9.67,9.67,0,0,1-.67-.75,3.8,3.8,0,0,1-.34-1.05c-.06-.14-.3-.06-.24.08Z"/><path class="cls-1" d="M56.4,70.08a3.29,3.29,0,0,1,1.65-1.81,1.78,1.78,0,0,1,1.65.14,1.55,1.55,0,0,1,.65,1.43A3.58,3.58,0,0,1,59.05,72a9,9,0,0,1-1.48,1.2,3,3,0,0,1-1.62.56c-.16,0-.14.24,0,.24a3.12,3.12,0,0,0,1.53-.47,8,8,0,0,0,1.44-1.09,4.45,4.45,0,0,0,1.63-2.34A1.8,1.8,0,0,0,60,68.34,1.93,1.93,0,0,0,58.24,68a3.38,3.38,0,0,0-2.07,2,.13.13,0,0,0,.23.11Z"/><path class="cls-1" d="M59,68a2.93,2.93,0,0,0-.78-.83,9.77,9.77,0,0,1-.76-.92,1.08,1.08,0,0,0-.81-.35c-.4,0-.8.05-1.2.08-.12,0-.11.18,0,.18.36,0,.71-.07,1.07-.08a1,1,0,0,1,.93.46,4.88,4.88,0,0,0,.61.75,3,3,0,0,1,.78.81c0,.11.2,0,.15-.1Z"/><path class="cls-1" d="M56.23,65.9a1,1,0,0,1-.19-.21,2.88,2.88,0,0,0-.22-.27.89.89,0,0,0-.71-.31,1.43,1.43,0,0,0-.61.21c-.07,0,0,.14.07.1a.94.94,0,0,1,.89-.12,1.41,1.41,0,0,1,.48.46c.07.08.13.17.2.24s.15,0,.09-.1Z"/><path class="cls-1" d="M56.9,66.92a1.48,1.48,0,0,0,0,.86,2.25,2.25,0,0,0,.14.44,1.14,1.14,0,0,0,.19.34s.09.06.13,0a.1.1,0,0,0,0-.13,1.56,1.56,0,0,1-.31-.71,2,2,0,0,1-.06-.42.73.73,0,0,1,0-.33.09.09,0,0,0-.17-.08Z"/><path class="cls-1" d="M56.74,70a1.8,1.8,0,0,0-1.85.42.12.12,0,0,0,.07.2l.67.14,0-.23a2,2,0,0,0-1.3,1A2.45,2.45,0,0,0,54.1,73l.12-.13a.87.87,0,0,1-.35-.13,4.48,4.48,0,0,1-.58-.29,6.24,6.24,0,0,1-.73-.45,14.69,14.69,0,0,1-1.18-.9,4.86,4.86,0,0,1-1.94-3A2.83,2.83,0,0,1,50.26,66l-.11,0c.13,0,.21-.15.29-.23a4.48,4.48,0,0,1,.4-.36,3.37,3.37,0,0,1,.75-.4A2.82,2.82,0,0,1,53.14,65a6.44,6.44,0,0,1,2.67,1.53c.34.3.66.61,1,.93.11.11.27-.07.16-.18a12.11,12.11,0,0,0-2.12-1.79,4,4,0,0,0-3-.74,3.34,3.34,0,0,0-1.73,1.1l.11,0c-.16,0-.3.26-.39.37a5.19,5.19,0,0,0-.31.5,2.8,2.8,0,0,0-.3,1,3.22,3.22,0,0,0,.47,1.83,9,9,0,0,0,2.64,2.6,9.54,9.54,0,0,0,.82.52,6.77,6.77,0,0,0,.66.33,1.23,1.23,0,0,0,.46.14.12.12,0,0,0,.11-.13,2.22,2.22,0,0,1,.16-1.32,1.73,1.73,0,0,1,1.18-.87c.13,0,.09-.21,0-.23L55,70.38l.07.2a1.56,1.56,0,0,1,1.57-.36c.15,0,.25-.16.1-.22Z"/><path class="cls-1" d="M30.19,51.68a.88.88,0,0,0-.48,0,.62.62,0,0,0-.46.58c0,.47.52.77.94.82a.89.89,0,0,0,.75-.21c.06-.05,0-.14-.08-.09a1,1,0,0,1-1.17,0,.69.69,0,0,1-.32-.43.51.51,0,0,1,.32-.54.76.76,0,0,1,.47,0c.07,0,.11-.08,0-.11Z"/><path class="cls-1" d="M35,49.35a.72.72,0,0,1,.2-.32.51.51,0,0,1,.65,0c.33.23.26.75.09,1.06a.83.83,0,0,1-.54.41c-.07,0,0,.13,0,.11a1.06,1.06,0,0,0,.77-1.06.81.81,0,0,0-.24-.59.69.69,0,0,0-.74-.07.81.81,0,0,0-.33.46.06.06,0,1,0,.11,0Z"/><path class="cls-1" d="M33.89,51.81a.55.55,0,0,0-.22,0,.4.4,0,0,0-.21.39l0,0a.43.43,0,0,0-.45-.05.32.32,0,0,0-.14.16s0,0,.06,0a.31.31,0,0,1,.1-.13.39.39,0,0,1,.4,0s.05,0,.05,0a.34.34,0,0,1,.19-.35.3.3,0,0,1,.16,0s.06,0,0-.06Z"/><path class="cls-1" d="M33.84,53.1a.81.81,0,0,1-.34.15,3.15,3.15,0,0,1-.43,0h-.41a1.11,1.11,0,0,1-.25,0s0,0,0,0a.72.72,0,0,0,.64.52.74.74,0,0,0,.64-.54s0-.06-.06,0a.66.66,0,0,1-.57.5.65.65,0,0,1-.59-.48l0,0a1.17,1.17,0,0,0,.27.05h.44a1.35,1.35,0,0,0,.79-.2s0-.07,0,0Z"/><path class="cls-1" d="M28.29,43.34a1.17,1.17,0,0,0-1.08.48,1.53,1.53,0,0,0-.21.91,3.44,3.44,0,0,0,.57,1.5c.29.48.6,1,.92,1.41l1.13,1.59c.08.12.3,0,.21-.11A37.44,37.44,0,0,1,27.69,46a2.39,2.39,0,0,1-.43-1.55.92.92,0,0,1,1-.83c.15,0,.17-.23,0-.23Z"/><path class="cls-1" d="M31,49.38a1.13,1.13,0,0,0-.73.93.7.7,0,0,0,.12.35c0,.06.15,0,.11,0-.31-.45.14-.94.55-1.13.08,0,0-.13-.05-.1Z"/><path class="cls-1" d="M28.4,43.43c-.1-.57,0-1.21.72-1.3.39-.05.6.22.76.53a9.88,9.88,0,0,1,.47,1.05,16.11,16.11,0,0,1,.95,4.61c0,.15.25.16.24,0a17,17,0,0,0-.8-4.24c-.11-.33-.24-.66-.38-1a4.65,4.65,0,0,0-.44-.86,1,1,0,0,0-1.34-.17,1.32,1.32,0,0,0-.41,1.4c0,.15.26.1.23,0Z"/><path class="cls-1" d="M29.44,41.88a1.52,1.52,0,0,1,0-1,.87.87,0,0,1,.82-.51,1.2,1.2,0,0,1,.71.58,6.73,6.73,0,0,1,.42.9,16.72,16.72,0,0,1,1,3.45c.15.78.26,1.57.35,2.35,0,.15.25.1.23,0a22.78,22.78,0,0,0-.86-4.41,17,17,0,0,0-.76-1.94c-.23-.5-.69-1.25-1.37-1.1a1.13,1.13,0,0,0-.8.64,1.63,1.63,0,0,0,0,1.17c0,.15.28.1.23,0Z"/><path class="cls-1" d="M31.45,41.48a5,5,0,0,1,0-.77.67.67,0,0,1,.6-.53c.51-.08.81.46,1,.83a8,8,0,0,1,.46,1.66c.16.77.3,1.55.43,2.33s.18,1.9.41,2.82a9.27,9.27,0,0,0,.41,1.26l.91,2.3.81,2,0-.16L33.07,55l-.49.24.16,0-1.35-2-2.15-3.12-.5-.72c-.08-.12-.28,0-.21.11v0l.2-.13c-.57-.79-1.12-1.6-1.63-2.43-.31-.51-.66-1.44.05-1.79.14-.07,0-.28-.11-.21-.81.4-.56,1.37-.21,2,.2.37.45.71.68,1.06.34.52.68,1,1,1.53.08.11.26,0,.2-.13l0,0-.21.11,1.35,2L32,54.64l.5.72c0,.06.1.09.16,0l3.4-1.71.49-.25a.12.12,0,0,0,.05-.16L34.93,49a8.46,8.46,0,0,1-.45-1.4c-.11-.5-.14-1-.2-1.52s-.14-1-.22-1.47c-.13-.75-.26-1.49-.42-2.24a6.31,6.31,0,0,0-.55-1.69A1.09,1.09,0,0,0,31.85,40a.87.87,0,0,0-.66.61,2.82,2.82,0,0,0,0,.87c0,.15.25.17.24,0Z"/><path class="cls-1" d="M32.39,50.24l.77,1.44.11.21s.07,0,.06,0l-.78-1.45-.11-.2s-.07,0,0,0Z"/><path class="cls-1" d="M58.45,98.11a5.11,5.11,0,0,0-.63,2.22,1.94,1.94,0,0,0,.79,1.76.09.09,0,0,0,.14-.07l0-.79-.18,0a12.13,12.13,0,0,0,.82,1.07.09.09,0,0,0,.16,0,1.38,1.38,0,0,1,.06-.46l-.14,0,.5.37c.09.07.19-.08.1-.15l-.5-.37a.09.09,0,0,0-.13,0,1.46,1.46,0,0,0-.07.51l.16-.06a9.71,9.71,0,0,1-.79-1c-.05-.07-.18-.06-.18,0l0,.79.14-.06a1.85,1.85,0,0,1-.7-1.76,5,5,0,0,1,.59-2c0-.1-.1-.2-.15-.1Z"/><path class="cls-1" d="M66.5,98.61l.25-4.09a4.37,4.37,0,0,0-.8-2.84,3.8,3.8,0,0,0-2.53-1.4,4.37,4.37,0,0,0-3.16.64,4.18,4.18,0,0,0-1.61,3c-.09,1.34-.16,2.69-.24,4v.15a.13.13,0,0,0,.12.13l2.66.15,4.22.23,1,.06a.12.12,0,0,0,.12-.11h0a.12.12,0,0,0-.24,0h0l.13-.11-2.66-.15-4.22-.24-1-.06.12.13.24-4a4.21,4.21,0,0,1,1-2.54,3.5,3.5,0,0,1,2.59-1.15,4.06,4.06,0,0,1,3,1,4,4,0,0,1,1.06,3c-.06,1.35-.16,2.69-.24,4v.14C66.25,98.75,66.5,98.76,66.5,98.61Z"/><path class="cls-1" d="M58.59,97.15a.12.12,0,0,0,0-.24.12.12,0,1,0,0,.24Z"/><path class="cls-1" d="M63.32,97.68c0,.24-.37.33-.57.35a1.37,1.37,0,0,1-.89-.17.39.39,0,0,1-.18-.24.26.26,0,0,1,.13-.22,1.2,1.2,0,0,1,.87-.15c.21,0,.64.16.64.43a.09.09,0,1,0,.18,0c0-.32-.34-.5-.62-.58a1.5,1.5,0,0,0-1.12.11.41.41,0,0,0-.14.66,1.31,1.31,0,0,0,1,.34c.32,0,.8-.15.84-.53C63.51,97.58,63.33,97.57,63.32,97.68Z"/><path class="cls-1" d="M60.44,97.68c0,.14-.25.19-.36.21a.93.93,0,0,1-.59-.12c-.11-.07-.14-.18,0-.26a.75.75,0,0,1,.57-.09c.13,0,.41.09.41.26s.17.12.18,0-.24-.37-.44-.42a1,1,0,0,0-.78.07.41.41,0,0,0-.19.22.36.36,0,0,0,.08.28,1,1,0,0,0,.73.23c.23,0,.57-.11.6-.38C60.63,97.58,60.45,97.57,60.44,97.68Z"/><path class="cls-1" d="M65.57,98c0,.14-.24.19-.36.21a.9.9,0,0,1-.58-.12c-.11-.07-.15-.17,0-.26a.8.8,0,0,1,.57-.09c.13,0,.41.09.4.26a.1.1,0,0,0,.19,0c0-.23-.24-.37-.44-.42a1,1,0,0,0-.79.07.39.39,0,0,0-.18.22.32.32,0,0,0,.08.28.91.91,0,0,0,.73.23c.23,0,.57-.11.6-.38C65.77,97.87,65.59,97.86,65.57,98Z"/><path class="cls-1" d="M66.48,95.84a2.17,2.17,0,0,1-2,0,2.53,2.53,0,0,1-1.69-1.63.1.1,0,0,0-.18,0,2.52,2.52,0,0,1-1.87,1.43,2.18,2.18,0,0,1-2-.27c-.07-.08-.21,0-.13.12a2.35,2.35,0,0,0,2.16.32,2.73,2.73,0,0,0,2-1.54h-.18a2.72,2.72,0,0,0,1.82,1.76A2.36,2.36,0,0,0,66.61,96c.08-.07,0-.2-.13-.13Z"/><path class="cls-1" d="M66.43,96.8a2.71,2.71,0,0,1-2,.39,1.88,1.88,0,0,1-1.73-1.28.09.09,0,0,0-.17,0A1.9,1.9,0,0,1,60.64,97a2.69,2.69,0,0,1-1.94-.62c-.08-.09-.22,0-.14.12a2.91,2.91,0,0,0,2.16.67,2.05,2.05,0,0,0,2-1.19h-.18a2,2,0,0,0,1.82,1.41,2.93,2.93,0,0,0,2.22-.43.09.09,0,1,0-.12-.13Z"/><path class="cls-1" d="M62.84,90.35A6.86,6.86,0,0,1,62.57,92a3.5,3.5,0,0,1-1.7,2.39,3,3,0,0,1-2.1,0,.09.09,0,0,0-.06.17,3.32,3.32,0,0,0,2,.07,2.52,2.52,0,0,0,1.26-.91,5.72,5.72,0,0,0,1-2.73c0-.23.06-.46.07-.69a.1.1,0,0,0-.19,0Z"/><path class="cls-1" d="M62.85,90.35a7.16,7.16,0,0,0,.08,1.85,3.55,3.55,0,0,0,1.54,2.62,3.19,3.19,0,0,0,2.15.24c.12,0,.08-.19,0-.17a3.08,3.08,0,0,1-1.94-.18,2.5,2.5,0,0,1-1-1.06A5.72,5.72,0,0,1,63,91c0-.21,0-.41,0-.62s-.17-.12-.18,0Z"/><path class="cls-1" d="M61.34,90.51a2.14,2.14,0,0,1-.87,2.39,3,3,0,0,1-1.57.29.09.09,0,0,0,0,.18,2.58,2.58,0,0,0,2.32-.91,3,3,0,0,0,.31-2,.09.09,0,0,0-.18,0Z"/><path class="cls-1" d="M64.34,90.63A2.31,2.31,0,0,0,65,93.32a3.21,3.21,0,0,0,1.59.48.09.09,0,1,0,0-.17,2.33,2.33,0,0,1-2.06-1.12A2.38,2.38,0,0,1,64.42,91c0-.11,0-.22.09-.33s-.13-.16-.17-.06Z"/><path class="cls-1" d="M64.79,98.63c.46,0,.74.65.84,1s.06,1.08-.5,1.26a2.76,2.76,0,0,1-1.53-.13.12.12,0,0,0-.13.19c.48.55,1.35,1.87.43,2.4a3,3,0,0,1-1.5.26,4.5,4.5,0,0,1-1.71-.3.89.89,0,0,1-.57-.65,1.29,1.29,0,0,1,.18-.77,4,4,0,0,1,.84-1.07.12.12,0,0,0-.11-.2c-.6.1-1.72.24-2-.52a1.59,1.59,0,0,1,.45-1.42.77.77,0,0,1,.59-.32.12.12,0,0,0,0-.24c-.58,0-1,.61-1.2,1.07a1.17,1.17,0,0,0,.45,1.58,2.93,2.93,0,0,0,1.71.08l-.1-.21c-.67.62-1.7,2-.68,2.71a3.16,3.16,0,0,0,1.57.46,4.8,4.8,0,0,0,1.85-.12,1.22,1.22,0,0,0,.76-.66,1.36,1.36,0,0,0,0-.89,4,4,0,0,0-.79-1.35l-.13.19c.72.22,1.9.44,2.3-.39a1.76,1.76,0,0,0-.3-1.73,1,1,0,0,0-.71-.47.12.12,0,1,0,0,.23Z"/><path class="cls-1" d="M58.32,98.65c-.36-.31-1.1-.76-1.48-.23a1.44,1.44,0,0,0-.2.76,1.88,1.88,0,0,0,.08.78,1.29,1.29,0,0,0,.68.77,1.37,1.37,0,0,0,.57.14c.08,0,.08-.12,0-.12a1.22,1.22,0,0,1-1.06-.63,1.46,1.46,0,0,1-.17-.64,2.28,2.28,0,0,1,.1-.82.54.54,0,0,1,.34-.35.71.71,0,0,1,.43,0,2,2,0,0,1,.43.23l.14.1,0,0c.06,0,.15,0,.09-.08Z"/><path class="cls-1" d="M57.22,98.8a.25.25,0,0,1,.4,0c.17.15.12.42,0,.61l0,0a.45.45,0,0,0-.5.75.8.8,0,0,0,.44.24s.06,0,0,0c-.28-.07-.58-.27-.55-.58s.33-.37.57-.3c0,0,0,0,0,0a.57.57,0,0,0-.07-.69.33.33,0,0,0-.48.07s0,.07.06,0Z"/><path class="cls-1" d="M66.31,98.64a4.94,4.94,0,0,1,.35,2,1.84,1.84,0,0,1-.9,1.66l.13.09.14-.78c0-.1-.12-.12-.17-.06a10.1,10.1,0,0,1-.91.94l.15.07a1.46,1.46,0,0,0,0-.51A.1.1,0,0,0,65,102l-.54.31a.09.09,0,0,0,.08.16l.54-.31-.13-.06a1.77,1.77,0,0,1,0,.46.09.09,0,0,0,.15.07,9.55,9.55,0,0,0,.94-1l-.16,0-.14.78c0,.07.07.11.13.08a2,2,0,0,0,1-1.66,5.09,5.09,0,0,0-.36-2.28c0-.1-.2,0-.16.08Z"/><path class="cls-1" d="M66.61,99.2l0,0,.12-.07a1.84,1.84,0,0,1,.38-.17c.29-.1.64-.12.79.2a1.62,1.62,0,0,1,.08.79,1.82,1.82,0,0,1-.19.68,1.29,1.29,0,0,1-1.2.63.06.06,0,1,0,0,.11,1.35,1.35,0,0,0,1.28-.62,1.71,1.71,0,0,0,.22-.67,2,2,0,0,0,0-.87.61.61,0,0,0-.33-.39.87.87,0,0,0-.48,0,2,2,0,0,0-.75.34c-.06,0,0,.13.08.08Z"/><path class="cls-1" d="M67.67,99.36a.31.31,0,0,0-.46-.13.57.57,0,0,0-.16.67s0,0,0,0c.25,0,.54.07.53.36s-.33.48-.61.52c0,0,0,.06,0,.06a.77.77,0,0,0,.64-.43.43.43,0,0,0-.17-.51.64.64,0,0,0-.41-.06l0,0a.53.53,0,0,1,.11-.6.27.27,0,0,1,.4.09s.07,0,0,0Z"/><path class="cls-1" d="M61.94,100.76h0v-.06h0s0,0,0,0v0s0,0,0,0h0s0,0,0,0h0s0,0,0,0H62l0,0h0l0,0,0,0h0l0,.06v0h0a.43.43,0,0,0,0,0,.3.3,0,0,1,0,.1v0h0a.06.06,0,0,0,.06.06s.06,0,.06,0a.77.77,0,0,0-.14-.39.33.33,0,0,0-.26-.13c-.09,0-.12.08-.14.15a.76.76,0,0,0,0,.15s0,0,.07,0,.05,0,0-.07Z"/><path class="cls-1" d="M62.8,100.84c0-.1,0-.26-.08-.31a.34.34,0,0,0-.27.08.73.73,0,0,0-.16.23,1,1,0,0,0,0,.16s0,.06.06.06a.06.06,0,0,0,.06,0h0v0l0-.07s0,0,0,0v0s0,0,0,0h0l0,0,0,0h0s0,0,0,0h0l0,0h0s0,0,0,0h0l0,0h.07s0,0,0,0h0s0,0,0,0h0s0,0,0,0h0s0,0,0,0v0h0v.08s0,0,0,0v0h0a.06.06,0,0,0,0,.07.07.07,0,0,0,.08,0Z"/><path class="cls-1" d="M61.26,101.3a2.09,2.09,0,0,0,2.1.85l0,0a1.45,1.45,0,0,1-1,.86,1.13,1.13,0,0,1-1-.36,1,1,0,0,1-.17-.82,1.8,1.8,0,0,1,.15-.5s0-.05-.06,0a1.37,1.37,0,0,0,0,1.33,1.15,1.15,0,0,0,1,.44,1.2,1.2,0,0,0,.81-.41,1.85,1.85,0,0,0,.34-.5,0,0,0,0,0,0,0,1.91,1.91,0,0,1-1.5-.32,2.15,2.15,0,0,1-.53-.51S61.24,101.27,61.26,101.3Z"/><path class="cls-1" d="M61.17,102.32l.68-.49-.05,0V103a0,0,0,0,0,.06,0l.62-.86h0l.22.78s.07,0,.06,0l-.22-.78s0,0-.06,0l-.62.85,0,0v-1.15a0,0,0,0,0,0,0l-.68.49s0,.07,0,0Z"/><path class="cls-1" d="M61.26,98.4l1,1.14a.12.12,0,0,0,.17,0l1.17-1c.12-.1,0-.28-.16-.18l-1.17,1h.17l-1-1.15a.12.12,0,0,0-.18.16Z"/><path class="cls-1" d="M61.89,99.57l0,.42.11,0-.88-1L61,98.84c-.05-.06-.14,0-.09.08l.88,1,.13.14a.06.06,0,0,0,.11,0l0-.41c0-.08-.12-.08-.12,0Z"/><path class="cls-1" d="M62.77,99.62l0,.42a.06.06,0,0,0,.1,0l1-.86.14-.13C64,99,64,99,63.9,99l-1,.87-.14.13.1,0,0-.41c0-.08-.12-.08-.12,0Z"/><path class="cls-1" d="M16.64,83.18c0,.15.21.2.24,0s-.21-.19-.24,0Z"/><path class="cls-1" d="M18.93,76.55a9.78,9.78,0,0,1,.28,3.77,9.55,9.55,0,0,1-.4,1.82c-.1.31-.22.62-.35.92a2.32,2.32,0,0,1-.48.78.67.67,0,0,1-.84.12,1,1,0,0,1-.25-.81,2.55,2.55,0,0,1,.62-1.63,2.83,2.83,0,0,1,.3-.3c.1-.08.31-.28.46-.23a.15.15,0,0,1,.09.14.23.23,0,0,1-.11.13.36.36,0,0,1-.23,0,.56.56,0,0,1-.36-.33,1.28,1.28,0,0,1,.09-.9c.1-.23.34-.8.69-.67.2.07.13.33,0,.39a.41.41,0,0,1-.45-.14c-.26-.3-.11-.74,0-1.07a8.76,8.76,0,0,1,1.17-2c.09-.12-.1-.27-.19-.15a7.15,7.15,0,0,0-1.35,2.48.93.93,0,0,0,.3,1,.62.62,0,0,0,.8-.06.45.45,0,0,0-.12-.68c-.35-.18-.67.11-.84.38-.34.54-.68,1.64.17,1.94.28.1.69,0,.7-.36s-.38-.43-.65-.29a2.68,2.68,0,0,0-1.27,1.86c-.12.61-.05,1.69.85,1.6a1.18,1.18,0,0,0,.86-.59A6.12,6.12,0,0,0,19,82.45a10.08,10.08,0,0,0,.2-6C19.12,76.32,18.89,76.4,18.93,76.55Z"/><path class="cls-1" d="M19.1,76.4,18.16,76l.06.13h0a.14.14,0,0,0-.06-.13c-.33-.17-.67-.32-1-.47a5.3,5.3,0,0,0-1.6-.49l.1.14a1,1,0,0,0-.55-1.21,1.1,1.1,0,0,0-1.47.83l.11-.09a3,3,0,0,0-1,.34,5.16,5.16,0,0,0-1.89,1.73,6,6,0,0,0-.42.69,3.23,3.23,0,0,0-.37.88,1.73,1.73,0,0,0,0,.51,5.9,5.9,0,0,0,1.16,3.38,3.14,3.14,0,0,0,1,.84l-.06-.12a1.07,1.07,0,0,0,1.07,1.28,1,1,0,0,0,.95-.94l-.14.09a4.92,4.92,0,0,0,1.62.09c.39,0,.78-.05,1.16-.09a.12.12,0,1,0,0-.23q-.55.06-1.11.09a5.06,5.06,0,0,1-1.6-.09.12.12,0,0,0-.14.09.82.82,0,0,1-.66.76l-.26,0-.13,0c-.09,0,0,0,0,0l-.17-.08a.9.9,0,0,1-.32-.87.15.15,0,0,0-.07-.13,2.66,2.66,0,0,1-.72-.58,4.78,4.78,0,0,1-1.09-2.12,6,6,0,0,1-.19-1.63,1.91,1.91,0,0,1,.21-.65,4.83,4.83,0,0,1,.36-.67,5.37,5.37,0,0,1,1.85-1.88,3,3,0,0,1,1.07-.4.12.12,0,0,0,.11-.09.91.91,0,0,1,.61-.7,1.08,1.08,0,0,1,.19,0h0l.16,0a.72.72,0,0,1,.25.07.78.78,0,0,1,.34.93.13.13,0,0,0,.1.14,4.62,4.62,0,0,1,1.58.49c.32.13.65.28,1,.44L18,76h0a.11.11,0,0,0,.07.12l.94.45a.12.12,0,0,0,.11-.21Z"/><path class="cls-1" d="M19,75.54a1,1,0,0,1,0,.94.06.06,0,0,0,.08.08,2.17,2.17,0,0,0,.84-.57c.05,0,0-.13-.1-.07a2,2,0,0,1-.79.53l.08.08a1.08,1.08,0,0,0,0-1c0-.07-.15,0-.11,0Z"/><path class="cls-1" d="M13.59,78.09l-.14,1.63,0,.24h.12l-.46-.87-.23-.44s0-.07-.07-.09a.5.5,0,0,0-.17,0l-.57-.09,0,.08a1.91,1.91,0,0,1,1.13-.72c.07,0,0-.13-.05-.11a2,2,0,0,0-1.19.78.07.07,0,0,0,0,.09l.75.11,0,0L13.44,80s.11.05.11,0l.14-1.63v-.24c0-.07-.11-.09-.11,0Z"/><path class="cls-1" d="M39.19,95.22a2.58,2.58,0,0,1-1.62,2.35,4.86,4.86,0,0,1-1.68.36,3.33,3.33,0,0,1-1.5-.2,1.65,1.65,0,0,1-1-1.42,3,3,0,0,1,.12-1.12.11.11,0,0,0-.08-.14,3.68,3.68,0,0,1-2.11-1.27c-.1-.11-.27,0-.17.17a3.93,3.93,0,0,0,2.22,1.33l-.09-.15A2.29,2.29,0,0,0,34,97.81a2.86,2.86,0,0,0,1.32.36,5.6,5.6,0,0,0,1.91-.23,3.08,3.08,0,0,0,1.87-1.49,2.52,2.52,0,0,0,.3-1.23c0-.15-.25-.15-.24,0Z"/><path class="cls-1" d="M30.11,93.33a1,1,0,0,1-.53-.46.85.85,0,0,1,0-.68,1.1,1.1,0,0,1,1-.52,1.61,1.61,0,0,1,.72.16c.13.07.26-.13.12-.2a1.78,1.78,0,0,0-1.53,0,1.08,1.08,0,0,0-.52.47,1.06,1.06,0,0,0,0,.82,1.24,1.24,0,0,0,.72.68c.15,0,.21-.17.07-.23Z"/><path class="cls-1" d="M38.46,95.35a1.16,1.16,0,0,0,1.44-.53,4.42,4.42,0,0,0,.4-2.27A3.08,3.08,0,0,0,40,91a.75.75,0,0,0-.42-.34c-.15,0-.22.2-.06.22s0,0,.06,0a.5.5,0,0,1,.16.14A2.18,2.18,0,0,1,40,92.22a5.05,5.05,0,0,1-.22,2.22,1.11,1.11,0,0,1-.75.74,1,1,0,0,1-.35,0l-.11,0s-.09,0,0,0c-.15,0-.27.15-.13.21Z"/><path class="cls-1" d="M34.34,92.63l0,.05-.16.16a3.14,3.14,0,0,1-.73.47,5.6,5.6,0,0,1-3.31.34l.08.08a.34.34,0,0,1,0-.11,1.46,1.46,0,0,1,.11-.41,5.74,5.74,0,0,1,1.54-1.79l-.11,0a7.46,7.46,0,0,1,1.06.26,2.76,2.76,0,0,1,1.57,1c.08.13.29,0,.21-.12a3.85,3.85,0,0,0-2.62-1.38c-.15,0-.22,0-.34.06a8.73,8.73,0,0,0-.87.85A3.41,3.41,0,0,0,30,93.31a.79.79,0,0,0,0,.48.1.1,0,0,0,.09.08,5.11,5.11,0,0,0,4.31-.9,2.09,2.09,0,0,0,.2-.22C34.64,92.63,34.43,92.51,34.34,92.63Z"/><path class="cls-1" d="M38.56,94.69a3.2,3.2,0,0,0,.73-1.37.68.68,0,0,0-.21-.65.9.9,0,0,0-.59-.16.51.51,0,0,0-.46.24,4,4,0,0,0-.42,1.14s0,0,.06,0A5.82,5.82,0,0,1,38,93a.74.74,0,0,1,.22-.33.57.57,0,0,1,.22-.07.9.9,0,0,1,.56.09.59.59,0,0,1,.27.57,1.77,1.77,0,0,1-.19.59,5.14,5.14,0,0,1-.54.83s0,.06.05,0Z"/><path class="cls-1" d="M37.38,93.56a2.67,2.67,0,0,0,.38-.37,1.1,1.1,0,0,0,.33-.73c0-.32-.37-.53-.66-.59a.49.49,0,0,0-.58.3,2.55,2.55,0,0,0-.14.73s0,0,.06,0c0-.33.06-1,.55-1a1,1,0,0,1,.49.19.52.52,0,0,1,.22.35,1,1,0,0,1-.3.69,3.5,3.5,0,0,1-.39.38s0,.06,0,0Z"/><path class="cls-1" d="M36.4,92.63a1.9,1.9,0,0,0,.33-.22.65.65,0,0,0,.28-.52c0-.29-.37-.47-.62-.57a.87.87,0,0,0-.74,0,.7.7,0,0,0-.27.27s0,.06.06,0a.55.55,0,0,1,.17-.2.72.72,0,0,1,.62-.11,1.53,1.53,0,0,1,.48.23.55.55,0,0,1,.23.29.52.52,0,0,1-.23.49,1.61,1.61,0,0,1-.34.24s0,.07,0,0Z"/><path class="cls-1" d="M39.42,91.5a1.68,1.68,0,0,1,0,.45c0,.22-.08.52-.33.59a.76.76,0,0,1-.49-.06.87.87,0,0,1-.47-.39.92.92,0,0,1,.22-.9,3,3,0,0,1,.49-.52,0,0,0,0,0,0,0,3.61,3.61,0,0,0-.47.49,1.06,1.06,0,0,0-.28,1,.86.86,0,0,0,.39.41,1.13,1.13,0,0,0,.57.15c.28,0,.41-.28.45-.52a1.62,1.62,0,0,0,0-.62s-.06,0-.06,0Z"/><path class="cls-1" d="M38.12,90.31a2.59,2.59,0,0,1,0,.48,1.08,1.08,0,0,1-.26.77.66.66,0,0,1-.45.15.63.63,0,0,1-.48-.16c-.2-.22,0-.59.08-.81a3.92,3.92,0,0,1,.37-.59s0-.07,0,0a3.25,3.25,0,0,0-.36.55,1,1,0,0,0-.14.87.55.55,0,0,0,.39.23,1,1,0,0,0,.53-.06.89.89,0,0,0,.41-.75,2.46,2.46,0,0,0,0-.66s-.06,0-.06,0Z"/><path class="cls-1" d="M36.6,90.14a2.53,2.53,0,0,1,.12.36.85.85,0,0,1,0,.59.3.3,0,0,1-.21.15.66.66,0,0,1-.2,0,.51.51,0,0,0-.17,0,1.18,1.18,0,0,1-.46,0c-.05,0-.07,0-.07-.08a1,1,0,0,1,0-.17,4.52,4.52,0,0,1,.23-.71s0,0-.06,0a3.93,3.93,0,0,0-.22.66.5.5,0,0,0,0,.32.23.23,0,0,0,.18.06,1.22,1.22,0,0,0,.27,0,.76.76,0,0,1,.15,0,1.87,1.87,0,0,0,.25,0,.41.41,0,0,0,.3-.1.67.67,0,0,0,.09-.6,2,2,0,0,0-.14-.47s-.07,0-.06,0Z"/><path class="cls-1" d="M38.93,93.43a.54.54,0,0,0-.3-.51.43.43,0,0,0-.51.17.6.6,0,0,0,0,.62.46.46,0,0,0,.48.25.54.54,0,0,0,.37-.53,0,0,0,0,0-.06,0,.48.48,0,0,1-.26.45.38.38,0,0,1-.45-.15.57.57,0,0,1,0-.54.38.38,0,0,1,.43-.23.46.46,0,0,1,.31.47A0,0,0,0,0,38.93,93.43Z"/><path class="cls-1" d="M36.37,98.73A1.32,1.32,0,0,1,37,97.54a2.61,2.61,0,0,1,.81-.33c.12,0,.07-.19,0-.17a2.07,2.07,0,0,0-1.25.72,1.46,1.46,0,0,0-.28.8.48.48,0,0,0,0,.17c0,.11.19.11.18,0Z"/><path class="cls-1" d="M35.66,98.73a1.29,1.29,0,0,0,0-.48,1.49,1.49,0,0,0-.62-.86,2.51,2.51,0,0,0-.86-.35c-.11,0-.16.15-.05.17a1.89,1.89,0,0,1,1.16.66,1.34,1.34,0,0,1,.24.71.38.38,0,0,1,0,.15c0,.11.17.11.18,0Z"/><path class="cls-1" d="M34.78,98a4,4,0,0,0-.54.85,3.34,3.34,0,0,0-.17.44c-.07.23-.19.29-.44.28a6.57,6.57,0,0,0-2.16.31,5.34,5.34,0,0,0-.95.41s-.08.06-.12.06-.13,0-.12-.09.14-.19.17-.23A2.88,2.88,0,0,1,33,99.17c.34.06.63.19.92-.06s.64-.66.95-1c.08-.08,0-.21-.13-.12-.31.32-.61.69-1,1s-.49.06-.75,0a2.83,2.83,0,0,0-.58,0,3,3,0,0,0-2,.81c-.15.15-.51.46-.36.69s.59-.07.77-.15a6,6,0,0,1,2.54-.56c.35,0,.67,0,.81-.34a4.35,4.35,0,0,1,.69-1.29C35,98,34.85,97.91,34.78,98Z"/><path class="cls-1" d="M37.68,97.73a3.59,3.59,0,0,1,.61,1.14c.09.29.2.47.54.47a9.65,9.65,0,0,1,1.32.08,6.18,6.18,0,0,1,1.19.33l.57.26a.61.61,0,0,0,.4.14c.34-.07.1-.44,0-.58a3,3,0,0,0-1.9-1,3.37,3.37,0,0,0-.71,0l-.32.05a1.89,1.89,0,0,1-.39.07c-.26,0-.47-.33-.63-.51l-.53-.57c-.08-.08-.21,0-.13.12.27.29.53.58.81.87a.69.69,0,0,0,.73.23,3,3,0,0,1,2.28.31,2.19,2.19,0,0,1,.39.29c.11.09.33.26.37.4s-.13.1-.2.07l-.25-.14-.46-.19a6.15,6.15,0,0,0-2.13-.41c-.18,0-.49.07-.63,0s-.16-.39-.22-.55a4,4,0,0,0-.56-1C37.74,97.52,37.61,97.65,37.68,97.73Z"/><path class="cls-1" d="M40.18,91.68c.75-1.57-1.56-2.27-2.74-2.31a3.86,3.86,0,0,0-1.17.13c-.27.07-.73.23-.85.5a.25.25,0,0,0,.27.35c.33,0,.66-.08,1-.09a4.21,4.21,0,0,1,1.41.15,1.82,1.82,0,0,1,1.22,1,3.93,3.93,0,0,1,.19.89c.08.49,0,2.72-1,2.18a4.87,4.87,0,0,1-1.14-1.17,6.11,6.11,0,0,0-1.14-1c-.29-.18-.75-.42-1.1-.24a.18.18,0,0,0-.07.05l.17.16a.88.88,0,0,0,.28-.94,1,1,0,0,0-.41-.43,1.74,1.74,0,0,0-1.29,0,3.1,3.1,0,0,0-1,.61c-.12.1.05.27.17.17a2.16,2.16,0,0,1,2-.59.57.57,0,0,1,.32.25c.2.27,0,.56-.16.79s.05.26.17.16c0,0,0,0,0,0l.11,0a1.1,1.1,0,0,1,.56.16,4.1,4.1,0,0,1,1,.8c.41.41.74.92,1.19,1.3a1.06,1.06,0,0,0,.77.3.75.75,0,0,0,.51-.39,3.42,3.42,0,0,0,.37-1.6,3,3,0,0,0-.51-2,2.51,2.51,0,0,0-1.69-.82,6.19,6.19,0,0,0-1.61,0l-.2,0c-.08,0-.08,0,0-.09a.74.74,0,0,1,.21-.13,2.53,2.53,0,0,1,.48-.19,4.2,4.2,0,0,1,2.33.14c.57.18,1.34.58,1.35,1.25a1,1,0,0,1-.11.47c-.06.14.15.26.21.12Z"/><path class="cls-1" d="M56.71,23a1.24,1.24,0,0,1,1.76.85l.15-.14a.79.79,0,0,0-.87.33,3.26,3.26,0,0,0-.35,1.35,1.25,1.25,0,0,1-.84,1,.9.9,0,0,1-1.08-.6c-.06-.14-.27,0-.22.11a1.19,1.19,0,0,0,.89.75,1.25,1.25,0,0,0,1.09-.41A2.15,2.15,0,0,0,57.7,25c0-.41.21-1.31.85-1.11a.11.11,0,0,0,.15-.14,1.34,1.34,0,0,0-.74-1,1.55,1.55,0,0,0-1.36,0c-.14.06,0,.27.11.2Z"/><path class="cls-1" d="M46.59,23.13a.92.92,0,0,1-1.23-.05,1.24,1.24,0,0,1-.15-1.32,3.58,3.58,0,0,0,.49-1.28.77.77,0,0,0-.54-.77l0,.19a1.25,1.25,0,0,1,1.95.25c.08.13.3,0,.21-.11a1.51,1.51,0,0,0-1.14-.74,1.43,1.43,0,0,0-1.18.43.12.12,0,0,0,.05.2c.65.17.27,1,.08,1.38a2.08,2.08,0,0,0-.31,1.26,1.2,1.2,0,0,0,.68.92,1.18,1.18,0,0,0,1.16-.15c.13-.08,0-.29-.11-.21Z"/><path class="cls-1" d="M50.34,26.66a5.53,5.53,0,0,0,5.54-1.17,3.34,3.34,0,0,0,.91-2.41,4.1,4.1,0,0,0-1-2.46,6.43,6.43,0,0,0-5.68-2.1A4,4,0,0,0,46.36,22c-.13,2,1.43,3.63,3.17,4.39a5.6,5.6,0,0,0,.81.3.12.12,0,0,0,.07-.23c-1.8-.54-3.55-1.93-3.79-3.85a3.17,3.17,0,0,1,.66-2.33,4.21,4.21,0,0,1,2.24-1.38,6.23,6.23,0,0,1,5.59,1.39A3.62,3.62,0,0,1,56,24.9c-1.17,1.79-3.69,2.08-5.63,1.53C50.26,26.39,50.19,26.62,50.34,26.66Z"/><path class="cls-1" d="M46.49,22.62c1.64.24,3.81,1,4,2.86a1.61,1.61,0,0,1,0,.31c0,.08.13.13.17.05a2,2,0,0,1,.62-.65,3.34,3.34,0,0,1,2.27-.49,7.5,7.5,0,0,1,2.27.66c.1.05.2-.1.09-.15-1.57-.71-3.88-1.24-5.19.24a1.25,1.25,0,0,0-.21.3l.17,0a2.17,2.17,0,0,0-.18-1,3.51,3.51,0,0,0-1.74-1.72,7.83,7.83,0,0,0-2.29-.66c-.12,0-.12.16,0,.18Z"/><path class="cls-1" d="M51.69,20.58a.81.81,0,0,1,.53-.56.43.43,0,0,1,.48.37.87.87,0,0,1,0,.48.06.06,0,0,0,.12,0,.86.86,0,0,0-.17-.88.55.55,0,0,0-.75,0,1,1,0,0,0-.3.48c0,.07.09.11.11,0Z"/><path class="cls-1" d="M52.61,43.29c-1.84.6-3.62,2-3.87,4a3.37,3.37,0,0,0,.66,2.5,4.31,4.31,0,0,0,2.26,1.46,6.45,6.45,0,0,0,5.9-1.4A3.89,3.89,0,0,0,58.63,45c-1-1.69-3.3-2.2-5.18-1.87a8.52,8.52,0,0,0-.84.2.12.12,0,0,0,.08.22,5.28,5.28,0,0,1,5.37,1.08,3.17,3.17,0,0,1,.82,2.28,4,4,0,0,1-1,2.38,6.23,6.23,0,0,1-5.41,1.94A3.75,3.75,0,0,1,49,47.89c-.09-2.13,1.82-3.76,3.74-4.38C52.84,43.47,52.76,43.24,52.61,43.29Z"/><path class="cls-1" d="M55.05,49a.75.75,0,0,1-.1.75.44.44,0,0,1-.61,0,.9.9,0,0,1-.27-.42c0-.07-.14,0-.12,0a.9.9,0,0,0,.65.63.54.54,0,0,0,.6-.45,1.07,1.07,0,0,0,0-.56.06.06,0,0,0-.12,0Z"/><path class="cls-1" d="M53.45,41.79a5.14,5.14,0,0,0-2.41.76c-.07,0,0,.13.07.09a5.1,5.1,0,0,1,2.35-.73c.07,0,.07-.12,0-.12Z"/><path class="cls-1" d="M48.75,47.47h0c0,.07.06.12.12.11L50,47.21s.06,0,.06-.06a3.67,3.67,0,0,1,1.11-2.4l-.13-.11a3.9,3.9,0,0,0-.45,1.83.09.09,0,0,0,.12.08l1.95-.6s.07-.05.06-.09A2.87,2.87,0,0,1,53,44.2l-.12,0A3,3,0,0,1,54,45.46a.11.11,0,0,0,.11,0l2-.6a.1.1,0,0,0,0-.14,4,4,0,0,0-1.47-1.23l0,.16A3.88,3.88,0,0,1,57,45a.08.08,0,0,0,.09,0l1.16-.36a.09.09,0,0,0,0-.17L57,44.86h.09a4,4,0,0,0-2.47-1.36c-.09,0-.11.13,0,.16A4.09,4.09,0,0,1,56,44.85l0-.13-2,.61.11,0a3.21,3.21,0,0,0-1.25-1.28.1.1,0,0,0-.12,0,3,3,0,0,0-.25,1.75l.06-.09-2,.61.12.08a3.66,3.66,0,0,1,.43-1.75c0-.07-.06-.17-.13-.12a3.81,3.81,0,0,0-1.18,2.51L50,47l-1.17.37.12.1h0c0-.11-.14-.14-.18,0Z"/><path class="cls-1" d="M50,45.09a3.6,3.6,0,0,1-.68-.78,7.75,7.75,0,0,1-1.12-2.59,11.41,11.41,0,0,1-.29-2.4l-.17.11a4.32,4.32,0,0,1,.88.58,11,11,0,0,1,1.19,1.08,7.86,7.86,0,0,1,1.11,1.4,4.41,4.41,0,0,1,.4.78c0,.12.09.25.13.38a.7.7,0,0,0,.08.29l0-.19a6.17,6.17,0,0,0-1.73,1.35c-.1.11.08.27.18.15A5.79,5.79,0,0,1,51.64,44a.12.12,0,0,0,0-.19s0-.08,0-.09a.74.74,0,0,0,0-.14,2.81,2.81,0,0,0-.1-.31,5.5,5.5,0,0,0-.28-.6,7.06,7.06,0,0,0-.8-1.14,10.81,10.81,0,0,0-1.87-1.77,4.1,4.1,0,0,0-.76-.49.12.12,0,0,0-.18.11A8.63,8.63,0,0,0,49.53,45a1.6,1.6,0,0,0,.26.26c.12.1.29-.07.17-.17Z"/><path class="cls-1" d="M56.08,43.3a3.6,3.6,0,0,0,.09-1.09,7.87,7.87,0,0,0-.67-2.81,11.55,11.55,0,0,0-1.21-2.14.12.12,0,0,0-.21,0,5.87,5.87,0,0,0-.58,1.79,8.89,8.89,0,0,0-.2,2.72,6.37,6.37,0,0,0,.13.74c0,.11.06.22.1.34l.06.16s.08.16.08.12,0,.15.12.14a6,6,0,0,1,2.15.11c.15,0,.2-.19.05-.23A6.31,6.31,0,0,0,53.78,43l.13.15c0-.1-.07-.2-.11-.29a2.4,2.4,0,0,1-.12-.38,5,5,0,0,1-.15-.86,8.75,8.75,0,0,1,.07-1.77,11.37,11.37,0,0,1,.32-1.54,4.82,4.82,0,0,1,.37-1h-.21a8.35,8.35,0,0,1,1.82,5.54,1.75,1.75,0,0,1,0,.33c0,.15.19.2.23,0Z"/><path class="cls-1" d="M34.26,67.93a5.52,5.52,0,0,0-5.29,2,3.36,3.36,0,0,0-.52,2.52,4.16,4.16,0,0,0,1.39,2.28,6.42,6.42,0,0,0,5.94,1.22,4,4,0,0,0,3.15-4c-.18-2-2-3.37-3.83-3.86a6.25,6.25,0,0,0-.84-.17.12.12,0,1,0,0,.23c1.87.26,3.82,1.38,4.36,3.23a3.14,3.14,0,0,1-.28,2.4,4.14,4.14,0,0,1-2,1.71A6.25,6.25,0,0,1,30.56,75a3.64,3.64,0,0,1-1.66-4.44c.88-2,3.32-2.61,5.32-2.36A.12.12,0,1,0,34.26,67.93Z"/><path class="cls-1" d="M33.89,74.13a.78.78,0,0,1-.44.64.45.45,0,0,1-.53-.29.9.9,0,0,1-.05-.49c0-.07-.11-.09-.12,0a.85.85,0,0,0,.3.84.55.55,0,0,0,.73-.15,1.06,1.06,0,0,0,.23-.52.06.06,0,0,0-.12,0Z"/><path class="cls-1" d="M28.75,72.78a3.56,3.56,0,0,1-1.23-2.89l-.15,0a2.11,2.11,0,0,0,1.07.31c.19,0,.38-.06.57-.06a7.86,7.86,0,0,1,.83.11l2.73.37.7.09a.09.09,0,0,0,.1-.07c.09-.32.19-.65.31-1a2,2,0,0,1,.5-.86.09.09,0,0,0-.11-.14,2.17,2.17,0,0,0-.54.88c-.13.34-.24.7-.34,1l.1-.07L29.13,70a.59.59,0,0,0-.23,0,2.06,2.06,0,0,1-1.42-.22c-.05,0-.14,0-.14,0a3.76,3.76,0,0,0,1.3,3.06.09.09,0,0,0,.11-.14Z"/><path class="cls-1" d="M38.24,74.21a3.83,3.83,0,0,0,2.12-2.59c0-.07-.07-.11-.13-.09a1.94,1.94,0,0,1-1.28-.1,1.32,1.32,0,0,0-.31-.12l-.87-.12-2.68-.36-.67-.09.08.1a10.29,10.29,0,0,0,0-1.11,2.08,2.08,0,0,0-.26-1,.09.09,0,0,0-.15.11,2,2,0,0,1,.24,1c0,.33,0,.67,0,1a.1.1,0,0,0,.07.1l4.21.56a5.1,5.1,0,0,1,.5.19,2.13,2.13,0,0,0,1.2,0l-.12-.09a3.66,3.66,0,0,1-2,2.45c-.1,0,0,.21.07.16Z"/><path class="cls-1" d="M10.36,22.79,9.3,21.72a.09.09,0,0,0-.1,0l-1.66.57.11.16.83-1.24a.12.12,0,0,0,0-.13L7.6,19.84,7.48,20l.95.39a.08.08,0,0,0,.1,0L10.2,19l-.16-.1L9.82,20.6a.1.1,0,0,0,.06.11l1.81.75,0-.2-1.65.34c-.06,0-.11,0-.1.11l.22,1.17c0,.13.23.11.21,0l-.22-1.17-.09.11,1.65-.34c.1,0,.14-.15,0-.19L10,20.53l.06.11L10.25,19c0-.08-.1-.16-.17-.1L8.41,20.21h.11l-1-.39a.1.1,0,0,0-.13.15l.88,1.23v-.12l-.83,1.24a.11.11,0,0,0,.12.16l1.66-.57-.1,0L10.23,23C10.32,23,10.45,22.89,10.36,22.79Z"/><path class="cls-1" d="M82.82,37.87,81.76,36.8a.09.09,0,0,0-.1,0L80,37.35l.12.16.82-1.24a.09.09,0,0,0,0-.12l-.88-1.23-.13.15,1,.39a.14.14,0,0,0,.11,0l1.67-1.34L82.5,34l-.22,1.67a.13.13,0,0,0,.06.11l1.82.74,0-.19-1.66.33a.1.1,0,0,0-.09.11L82.65,38c0,.12.24.11.21,0l-.22-1.18-.09.11,1.66-.33a.11.11,0,0,0,0-.2l-1.81-.74.06.11L82.71,34c0-.08-.09-.16-.16-.1l-1.67,1.34H81l-1-.39a.1.1,0,0,0-.13.15l.88,1.23v-.12L80,37.38a.1.1,0,0,0,.11.16L81.73,37l-.1,0L82.69,38C82.78,38.12,82.92,38,82.82,37.87Z"/><path class="cls-1" d="M90.31,48.26l-1.52-.18a.11.11,0,0,0-.09.05l-.91,1.47.2,0-.18-1.46a.1.1,0,0,0-.08-.1l-1.48-.41v.2l1-.29a.12.12,0,0,0,.07-.07l.41-2.07-.19,0,.92,1.42a.12.12,0,0,0,.12.05l1.89-.55-.11-.17-1,1.29a.09.09,0,0,0,0,.14l.93.77c.11.08.25-.06.15-.14l-.94-.77v.14l1.06-1.29c.06-.07,0-.2-.1-.16l-1.88.54.11,0-.92-1.43c0-.06-.17-.06-.19,0l-.41,2.06.07-.07-1,.29a.1.1,0,0,0,0,.2l1.49.4-.08-.09.18,1.46a.1.1,0,0,0,.19.05l.91-1.46-.09,0,1.52.17C90.44,48.47,90.44,48.27,90.31,48.26Z"/><path class="cls-1" d="M91.62,97.59,91,96.25a.12.12,0,0,0-.09,0l-1.76,0,.06.19,1.18-.93a.11.11,0,0,0,.05-.11L90,94l-.17.1.78.66a.09.09,0,0,0,.1,0l2-.77-.12-.14-.75,1.52a.1.1,0,0,0,0,.12l1.48,1.25.09-.17-1.68-.18a.11.11,0,0,0-.13.07l-.17,1.18c0,.13.19.18.2,0l.18-1.18-.13.07,1.68.19a.11.11,0,0,0,.1-.18L92,95.32l0,.12.75-1.52c0-.07,0-.18-.13-.14l-2,.76.1,0-.78-.66a.11.11,0,0,0-.17.11l.44,1.44,0-.12-1.18.93c-.08.06-.06.19.06.18l1.75,0-.09,0,.66,1.34C91.5,97.82,91.68,97.71,91.62,97.59Z"/><path class="cls-1" d="M45,56.67l.77-.85c.26-.28.51-.57.78-.84l0,.1-1.86.11-.93,0-.93.05h-.38l.32-.2,1.22-.78,1.23-.78.05.2a11.64,11.64,0,0,1-1.86-.21q-.46-.1-.9-.24A9.25,9.25,0,0,1,41.7,53l-.18-.08.19-.05A6.48,6.48,0,0,0,43,52.35a6.72,6.72,0,0,0,1.12-.73,6,6,0,0,1-1.08.8,5.68,5.68,0,0,1-1.24.54v-.12c.29.1.58.2.88.28a8.86,8.86,0,0,0,.89.21,10.14,10.14,0,0,0,1.83.19h.35l-.3.19-1.22.78L43,55.26l-.06-.19.93,0,.93,0,1.86,0h.15l-.1.11-.82.81C45.58,56.14,45.31,56.41,45,56.67Z"/><path class="cls-1" d="M73.93,86.56l.77-.85c.26-.29.51-.57.78-.85l0,.1-1.86.11-.93.05-.93,0-.39,0,.32-.21L73,84.19l1.23-.77.06.19a9.74,9.74,0,0,1-1.87-.21,7,7,0,0,1-.9-.24c-.3-.09-.59-.2-.88-.31l-.18-.08.19,0A6.41,6.41,0,0,0,73,81.51a6,6,0,0,1-1.08.79,5.72,5.72,0,0,1-1.24.55v-.13c.29.11.58.2.88.29s.59.15.89.21a10.23,10.23,0,0,0,1.83.18h.35l-.29.18-1.22.78-1.23.77L71.8,85l.93,0,.93,0,1.86,0h.15l-.1.1c-.27.28-.54.54-.82.81Z"/><path class="cls-1" d="M67,26.74c.2.24.38.49.57.73l.57.75-.09,0,.22-1.46.12-.73.12-.73,0-.3.11.28.44,1.08c.15.36.29.72.43,1.08h-.17a8.13,8.13,0,0,1,.49-1.41c.1-.22.22-.44.34-.66s.27-.42.41-.62l.09-.13,0,.15a4.81,4.81,0,0,0,.18,1.05,5,5,0,0,0,.41,1,4.83,4.83,0,0,1-.47-1,4.58,4.58,0,0,1-.24-1.05l.11,0a6.65,6.65,0,0,0-.39.63c-.11.21-.22.43-.32.65a7.55,7.55,0,0,0-.46,1.39l-.06.27-.11-.26-.43-1.08-.43-1.07.17,0-.13.73-.13.72-.27,1.45,0,.12-.07-.1-.52-.76C67.35,27.25,67.18,27,67,26.74Z"/><path class="cls-1" d="M59,35.6A1.87,1.87,0,0,0,59.47,37a.84.84,0,0,0,1.12,0,1.19,1.19,0,0,0,.27-.7,5.2,5.2,0,0,0,0-.88,6.06,6.06,0,0,0-.3-1.75.1.1,0,0,0-.18,0,3.93,3.93,0,0,0-.12,1.6,2.89,2.89,0,0,0,.54,1.46.74.74,0,0,0,1.15.08,2,2,0,0,0,.4-1.43,2.65,2.65,0,0,0-.65-1.6c-.06-.07-.17,0-.16.08a2.16,2.16,0,0,0,.61,1.22,1,1,0,0,0,1.09.09c.88-.52.52-1.65.22-2.38,0-.1-.2,0-.16.08.26.63.6,1.57-.06,2.09a.78.78,0,0,1-1-.08,2.08,2.08,0,0,1-.47-1.06l-.15.08a2.49,2.49,0,0,1,.61,1.6c0,.45-.17,1.51-.85,1.38s-.77-1-.86-1.41a3.84,3.84,0,0,1,.08-1.75h-.17a5.21,5.21,0,0,1,.22,2.79c-.07.25-.2.5-.48.54a.8.8,0,0,1-.58-.17,1.74,1.74,0,0,1-.45-1.31c0-.11-.19-.12-.18,0Z"/><path class="cls-1" d="M97,69.63a1.7,1.7,0,0,0-1.2.42.65.65,0,0,0,0,.87c.29.31.89.28,1.28.28a5.49,5.49,0,0,0,1.6-.28.07.07,0,0,0,0-.14,3.61,3.61,0,0,0-1.9,0c-.4.13-1.08.41-.95.94s.79.62,1.22.62a2.36,2.36,0,0,0,1.56-.55.07.07,0,0,0-.07-.12,1.84,1.84,0,0,0-1,.48.73.73,0,0,0-.08.9c.45.7,1.42.38,2,.13.09,0,0-.15-.08-.12-.52.22-1.31.51-1.77,0a.61.61,0,0,1,.08-.88,2,2,0,0,1,.87-.37l-.07-.11a2.22,2.22,0,0,1-1.31.51c-.39,0-1.15-.06-1.23-.54S96.65,71,97,70.9a3.42,3.42,0,0,1,1.59,0v-.14a5,5,0,0,1-1.21.26A3.85,3.85,0,0,1,96.17,71a.5.5,0,0,1-.25-.85A1.54,1.54,0,0,1,97,69.77c.09,0,.09-.15,0-.14Z"/><path class="cls-1" d="M34,19.12a.29.29,0,0,1,0-.38h0a.3.3,0,0,1,.42,0,.08.08,0,0,1,0,0,.28.28,0,0,1,0,.37h0a.3.3,0,0,1-.42,0Z"/><path class="cls-1" d="M32.64,19.6a.17.17,0,0,1,0-.23h0a.19.19,0,0,1,.26,0l0,0a.18.18,0,0,1,0,.23h0a.19.19,0,0,1-.26,0Z"/><path class="cls-1" d="M33.19,18.73a.17.17,0,0,1,0-.23h0a.19.19,0,0,1,.26,0s0,0,0,0a.18.18,0,0,1,0,.23h0a.19.19,0,0,1-.26,0Z"/><path class="cls-1" d="M56.7,27.85a.3.3,0,0,1,.39,0h0a.28.28,0,0,1,0,.41s0,0,0,0a.33.33,0,0,1-.39,0h0a.3.3,0,0,1,0-.42Z"/><path class="cls-1" d="M56.19,26.56a.2.2,0,0,1,.24,0h0a.19.19,0,0,1,0,.25l0,0a.21.21,0,0,1-.24,0h0a.17.17,0,0,1,0-.25Z"/><path class="cls-1" d="M57.09,27.08a.2.2,0,0,1,.24,0h0a.18.18,0,0,1,0,.25l0,0a.2.2,0,0,1-.24,0h0a.18.18,0,0,1,0-.26A0,0,0,0,0,57.09,27.08Z"/><path class="cls-1" d="M23.08,51.92a.41.41,0,0,1,.49,0h0a.37.37,0,0,1,.1.52l-.05.06a.4.4,0,0,1-.49,0h0A.37.37,0,0,1,23,52Z"/><path class="cls-1" d="M22.8,50.8h0a.22.22,0,0,1,.06.31h0a.24.24,0,0,1-.33.06h0a.23.23,0,0,1-.06-.32h0A.25.25,0,0,1,22.8,50.8Z"/><path class="cls-1" d="M22.22,51.8h0a.24.24,0,0,1,.06.32h0a.25.25,0,0,1-.33.05h0a.22.22,0,0,1-.06-.32h0A.24.24,0,0,1,22.22,51.8Z"/><path class="cls-1" d="M67.75,41.73a.39.39,0,0,1,.49,0h0a.36.36,0,0,1,.1.52l0,0a.4.4,0,0,1-.49,0h0a.38.38,0,0,1-.1-.53Z"/><path class="cls-1" d="M67.47,40.61h0a.22.22,0,0,1,.06.31h0a.24.24,0,0,1-.33.06h0a.23.23,0,0,1-.06-.32h0A.24.24,0,0,1,67.47,40.61Z"/><path class="cls-1" d="M66.89,41.6h0a.23.23,0,0,1,.06.32h0a.24.24,0,0,1-.33,0h0a.22.22,0,0,1-.06-.32h0A.25.25,0,0,1,66.89,41.6Z"/><path class="cls-1" d="M23.21,74.79a.39.39,0,0,1,.49,0h0a.36.36,0,0,1,.1.52s0,0-.05,0a.39.39,0,0,1-.49.05h0a.36.36,0,0,1-.1-.52Z"/><path class="cls-1" d="M22.93,73.67h0A.24.24,0,0,1,23,74h0a.25.25,0,0,1-.33.06h0a.22.22,0,0,1-.06-.32h0A.25.25,0,0,1,22.93,73.67Z"/><path class="cls-1" d="M22.35,74.67h0a.22.22,0,0,1,.06.31h0a.24.24,0,0,1-.33.06h0a.22.22,0,0,1-.06-.32h0A.24.24,0,0,1,22.35,74.67Z"/><path class="cls-1" d="M67.75,74.24a.39.39,0,0,1,.49,0h0a.36.36,0,0,1,.1.52.12.12,0,0,1,0,0,.39.39,0,0,1-.49,0h0a.37.37,0,0,1-.1-.52Z"/><path class="cls-1" d="M67.47,73.12h0a.23.23,0,0,1,.06.32h0a.24.24,0,0,1-.33.06h0a.23.23,0,0,1-.06-.32h0A.25.25,0,0,1,67.47,73.12Z"/><path class="cls-1" d="M66.89,74.12h0a.22.22,0,0,1,.06.31h0a.24.24,0,0,1-.33.06h0a.22.22,0,0,1-.06-.32h0A.24.24,0,0,1,66.89,74.12Z"/><path class="cls-1" d="M62.68,81.42a1.85,1.85,0,0,0,1.67-.08A1.57,1.57,0,0,0,65,80.12a1.71,1.71,0,0,0-1.3-1.61,1.52,1.52,0,0,0-1.4.37,1.22,1.22,0,0,0-.23,1.19,1,1,0,0,0,.85.74A1,1,0,0,0,64,80.44a.82.82,0,0,0-.36-1.11.56.56,0,0,0-.65.1.31.31,0,0,0,.16.5c.14,0,.19-.17.06-.2s-.1-.14,0-.2a.39.39,0,0,1,.28,0,.52.52,0,0,1,.35.28.54.54,0,0,1-.2.78,1.14,1.14,0,0,1-.94,0,.93.93,0,0,1-.42-.84.88.88,0,0,1,.5-.84,1.3,1.3,0,0,1,1.07-.08,1.53,1.53,0,0,1,1,1.28,1.34,1.34,0,0,1-.56,1.13,1.62,1.62,0,0,1-1.5.07c-.13,0-.18.15-.06.19Z"/><path class="cls-1" d="M63.05,62.82a1.74,1.74,0,0,0,1,1.31A1.66,1.66,0,0,0,65.44,64a1.68,1.68,0,0,0,.69-1.94,1.51,1.51,0,0,0-1.08-.94,1.3,1.3,0,0,0-1.16.47,1,1,0,0,0-.18,1.09,1,1,0,0,0,.9.66.84.84,0,0,0,.76-.89.53.53,0,0,0-.43-.48c-.22,0-.44.19-.35.4s.26.06.2-.06.07-.16.15-.14a.32.32,0,0,1,.2.21.47.47,0,0,1,0,.43.57.57,0,0,1-.78.25,1,1,0,0,1-.49-.78.94.94,0,0,1,.5-.79.93.93,0,0,1,1,0,1.24,1.24,0,0,1,.65.83,1.5,1.5,0,0,1-.56,1.51,1.47,1.47,0,0,1-1.29.16,1.56,1.56,0,0,1-.87-1.19c0-.13-.23-.07-.2.06Z"/><path class="cls-1" d="M52.49,88a1.09,1.09,0,0,0-.5-.58.77.77,0,0,0-.75.07c-.48.35-.28,1,0,1.43l.1-.17a.93.93,0,0,0-1,1.18.65.65,0,0,0,.58.5,1.28,1.28,0,0,0,.8-.26l-.16-.08c0,.45.24,1,.77,1.13a.79.79,0,0,0,.88-.51.93.93,0,0,0-.09-.71l-.12.15a1,1,0,0,0,1.2-.5.74.74,0,0,0-.52-1l.06.14a.81.81,0,0,0-.36-1.18c-.4-.16-1,0-1.13.43,0,.12.17.18.2.05.08-.34.54-.41.83-.3a.62.62,0,0,1,.28.9.1.1,0,0,0,.06.15c.34.12.56.43.37.77a.81.81,0,0,1-.93.35.11.11,0,0,0-.12.15.61.61,0,0,1-.35.92c-.55.13-.77-.53-.82-.93,0-.07-.08-.14-.15-.09-.3.2-.92.42-1.07-.07a1,1,0,0,1,.09-.68.58.58,0,0,1,.63-.3.1.1,0,0,0,.1-.17c-.23-.29-.43-.88,0-1.14a.53.53,0,0,1,.62,0,1.12,1.12,0,0,1,.3.44C52.36,88.26,52.54,88.16,52.49,88Z"/><path class="cls-1" d="M52.81,89.22a.43.43,0,0,0-.06-.22.58.58,0,0,0-.14-.17.38.38,0,0,0-.21,0,.72.72,0,0,0-.41.08.45.45,0,0,0-.19.53.5.5,0,0,0,.2.29,1,1,0,0,0,.3.08.37.37,0,0,0,.18,0,.42.42,0,0,0,.16-.11.52.52,0,0,0,.17-.42.11.11,0,0,0-.11-.1c-.05,0-.11,0-.1.1a.32.32,0,0,1-.09.26l0,0,0,0h0s0,0,0,0h-.18l-.11,0h0s0,0,0,0,0,0,0,0h0L52,89.38a.5.5,0,0,1,0-.12V89.2h0v0s0,0,0,0l0,0s0,0,0,0v0h0s0,0,0,0l0,0h.06l0,0h.23s0,0,0,0a.19.19,0,0,1,.1.08.24.24,0,0,1,.05.16s0,.1.1.1A.1.1,0,0,0,52.81,89.22Z"/><path class="cls-1" d="M8.74,61.76a1.06,1.06,0,0,1-.49.59.75.75,0,0,1-.75-.08c-.49-.34-.28-1,0-1.42l.1.17a.93.93,0,0,1-1-1.18.69.69,0,0,1,.59-.51,1.27,1.27,0,0,1,.79.26l-.15.09c0-.46.23-1,.76-1.13a.79.79,0,0,1,.88.51.89.89,0,0,1-.09.71l-.11-.15a1,1,0,0,1,1.19.49.74.74,0,0,1-.52,1L10,61a.82.82,0,0,1-.36,1.19c-.4.16-1,0-1.13-.43a.1.1,0,0,1,.2-.05c.08.34.55.4.83.3a.62.62,0,0,0,.28-.91s0-.12.06-.14c.34-.13.56-.43.37-.77a.79.79,0,0,0-.93-.35.11.11,0,0,1-.12-.15.61.61,0,0,0-.34-.92c-.56-.13-.78.52-.82.93,0,.07-.09.14-.16.09-.3-.2-.92-.42-1.07.07a1,1,0,0,0,.09.67.59.59,0,0,0,.63.31.11.11,0,0,1,.11.17c-.24.29-.44.88,0,1.13a.54.54,0,0,0,.63,0,1.3,1.3,0,0,0,.29-.44C8.62,61.54,8.8,61.65,8.74,61.76Z"/><path class="cls-1" d="M9.06,60.59a.37.37,0,0,1-.06.22.36.36,0,0,1-.14.16.32.32,0,0,1-.21.06.73.73,0,0,1-.41-.09.45.45,0,0,1-.19-.52.47.47,0,0,1,.2-.29.84.84,0,0,1,.3-.08.37.37,0,0,1,.18,0,.39.39,0,0,1,.16.1.55.55,0,0,1,.17.43s0,.1-.1.1a.11.11,0,0,1-.11-.1.34.34,0,0,0-.08-.26l-.06,0,0,0h0s0,0,0,0H8.49l-.11,0h0s0,0,0,0l0,0v0a.25.25,0,0,0,0,.07.35.35,0,0,0,0,.13v.05h0v.07s0,0,0,0l0,0h0l0,0h0l0,0H8.7a.17.17,0,0,0,.1-.07.27.27,0,0,0,0-.16A.11.11,0,0,1,9,60.48.1.1,0,0,1,9.06,60.59Z"/><path class="cls-1" d="M73.31,5.43a1.12,1.12,0,0,0-.26-.72.77.77,0,0,0-.73-.18c-.58.16-.64.88-.48,1.35L72,5.75a1,1,0,0,0-1.35.77.65.65,0,0,0,.37.67,1.34,1.34,0,0,0,.84,0l-.12-.14A1.14,1.14,0,0,0,72,8.41a.81.81,0,0,0,1-.19.89.89,0,0,0,.17-.69l-.16.1a1,1,0,0,0,1.3,0,.74.74,0,0,0-.13-1.14v.17a.83.83,0,0,0,.09-1.24.84.84,0,0,0-1.21,0,.1.1,0,0,0,.17.12c.19-.29.65-.2.88,0a.61.61,0,0,1-.06.94.1.1,0,0,0,0,.16.53.53,0,0,1,.07.85.83.83,0,0,1-1,0,.1.1,0,0,0-.16.1.63.63,0,0,1-.66.75c-.56-.07-.54-.76-.43-1.15A.11.11,0,0,0,71.81,7c-.35.09-1,.08-1-.43a1,1,0,0,1,.33-.6.57.57,0,0,1,.7-.07A.11.11,0,0,0,72,5.79c-.12-.35-.09-1,.37-1.07A.54.54,0,0,1,73,5a1.17,1.17,0,0,1,.12.52C73.11,5.6,73.31,5.56,73.31,5.43Z"/><path class="cls-1" d="M73.18,6.64a.44.44,0,0,0,0-.23.48.48,0,0,0-.07-.2A.32.32,0,0,0,73,6.09.64.64,0,0,0,72.54,6a.5.5,0,0,0-.28.77.74.74,0,0,0,.25.17.52.52,0,0,0,.16.06.46.46,0,0,0,.2,0,.55.55,0,0,0,.31-.34.11.11,0,0,0-.06-.13.12.12,0,0,0-.14.06.28.28,0,0,1-.17.21l-.07,0h-.15l-.06,0-.09-.07s0,0,0,0h0v0h0v0a.28.28,0,0,1,0-.09.25.25,0,0,1,0-.12l0-.05s0,0,0,0h0l0,0,0,0h0l0,0s0,0,0,0h.27l.07,0,.06,0h0s0,0,0,0a.13.13,0,0,1,.07.1.25.25,0,0,1,0,.17A.1.1,0,0,0,73,6.7.12.12,0,0,0,73.18,6.64Z"/><path class="cls-1" d="M67.84,53.7a1.06,1.06,0,0,1-.37-.44.52.52,0,0,1,.2-.56c.37-.27.87.08,1.09.37A.1.1,0,0,0,69,53c0-.52.76-.64,1.16-.39s.07.79-.22,1c-.07.05,0,.14,0,.17.39.15,1,.55.68,1a.63.63,0,0,1-1,.06.11.11,0,0,0-.18.08.8.8,0,0,1-.62.77.55.55,0,0,1-.65-.57.1.1,0,0,0-.13-.1.64.64,0,0,1-.81-.52c0-.29.18-.7.54-.68.13,0,.13-.2,0-.2a.8.8,0,0,0-.74.93.85.85,0,0,0,1.07.67l-.13-.1a.75.75,0,0,0,.86.77,1,1,0,0,0,.82-1l-.18.07A.86.86,0,0,0,70.8,55a.72.72,0,0,0,0-.68,1.48,1.48,0,0,0-.84-.65l.05.17a1.27,1.27,0,0,0,.48-.66.64.64,0,0,0-.35-.7,1.25,1.25,0,0,0-.91-.07.78.78,0,0,0-.52.66l.2-.05c-.3-.4-.93-.78-1.41-.42a.69.69,0,0,0-.28.63,1.08,1.08,0,0,0,.44.67C67.79,53.93,67.94,53.79,67.84,53.7Z"/><path class="cls-1" d="M68.82,54.28a.27.27,0,0,1-.19-.17v0h0v0s0,0,0,0a.19.19,0,0,0,0-.07l0,0s0,0,0,0v0a.3.3,0,0,1,0-.08v0s0,0,0,0l0,0h0s0,0,0,0l0,0h.07s0,0,0,0h.15l0,0a.23.23,0,0,1,.12.1h0l0,0s0,0,0,0v0h0v0a.48.48,0,0,1,0,.12h0v0a.14.14,0,0,1,0,.06s0,0,0,0v0s0,0,0,0,0,0,0,0h0a.37.37,0,0,1-.35.05.1.1,0,1,0-.06.2.57.57,0,0,0,.46,0,.42.42,0,0,0,.15-.11.38.38,0,0,0,.06-.13.88.88,0,0,0,0-.28.36.36,0,0,0,0-.1.46.46,0,0,0-.11-.16.52.52,0,0,0-.62-.09.67.67,0,0,0-.25.37.38.38,0,0,0,0,.21.35.35,0,0,0,.12.2.57.57,0,0,0,.21.13.11.11,0,0,0,.13-.07A.1.1,0,0,0,68.82,54.28Z"/><path class="cls-1" d="M41.08,62.55a1.1,1.1,0,0,1-.36-.44.49.49,0,0,1,.19-.56c.37-.27.88.07,1.09.37a.11.11,0,0,0,.2-.05c0-.53.76-.64,1.16-.4s.07.8-.22,1a.1.1,0,0,0,0,.17c.39.16,1,.55.69,1a.65.65,0,0,1-1,.06.11.11,0,0,0-.18.07.78.78,0,0,1-.61.77.55.55,0,0,1-.65-.57.11.11,0,0,0-.13-.09.66.66,0,0,1-.82-.52c0-.3.18-.71.54-.69.13,0,.13-.19,0-.2-.49,0-.79.52-.74.94a.85.85,0,0,0,1.07.66l-.13-.1a.76.76,0,0,0,.86.78,1,1,0,0,0,.82-1l-.18.07a.86.86,0,0,0,1.34-.1.71.71,0,0,0,0-.68,1.49,1.49,0,0,0-.83-.64l0,.17a1.21,1.21,0,0,0,.48-.66.65.65,0,0,0-.34-.71,1.27,1.27,0,0,0-.92-.06.77.77,0,0,0-.51.66l.19,0c-.29-.41-.93-.79-1.41-.42a.71.71,0,0,0-.28.63,1.1,1.1,0,0,0,.45.67C41,62.78,41.19,62.64,41.08,62.55Z"/><path class="cls-1" d="M42.06,63.13a.29.29,0,0,1-.18-.18v0h0v0a.11.11,0,0,1,0,0,.14.14,0,0,1,0-.06v0s0,0,0,0v0l0-.07,0,0s0,0,0,0l0,0v0h0l0,0h0s0,0,0,0h0s0,0,0,0h.06l.06,0h.06l.12.1v0s0,0,0,0v0s0,0,0,0V63s0,0,0,0v0s0,0,0,.06h0v0s0,0,0,0h0a.38.38,0,0,1-.36.05.09.09,0,0,0-.12.07c0,.06,0,.1.07.12a.57.57,0,0,0,.46,0,.53.53,0,0,0,.15-.11l.06-.13a.88.88,0,0,0,0-.28.31.31,0,0,0,0-.1.52.52,0,0,0-.12-.17.53.53,0,0,0-.62-.08.65.65,0,0,0-.25.37.34.34,0,0,0,.1.4.38.38,0,0,0,.22.13.11.11,0,0,0,.13-.07A.1.1,0,0,0,42.06,63.13Z"/><path class="cls-1" d="M27.65,24.92a1.1,1.1,0,0,1-.36-.44.5.5,0,0,1,.19-.56c.37-.27.87.08,1.09.37a.1.1,0,0,0,.19-.05c.06-.52.76-.64,1.16-.4s.07.8-.22,1c-.07.05,0,.14.05.16.39.16,1,.56.68,1a.63.63,0,0,1-1,.06.11.11,0,0,0-.18.08.78.78,0,0,1-.61.76A.54.54,0,0,1,28,26.4a.11.11,0,0,0-.14-.1.64.64,0,0,1-.81-.52c0-.3.18-.7.54-.68.13,0,.13-.2,0-.21-.5,0-.79.52-.74.94a.85.85,0,0,0,1.07.67l-.13-.1a.76.76,0,0,0,.86.77,1,1,0,0,0,.82-1l-.18.07a.86.86,0,0,0,1.33-.1.72.72,0,0,0,0-.68,1.48,1.48,0,0,0-.84-.65l.05.17a1.21,1.21,0,0,0,.48-.66.65.65,0,0,0-.34-.7,1.28,1.28,0,0,0-.92-.07.78.78,0,0,0-.52.66l.2,0c-.29-.4-.93-.78-1.41-.42a.69.69,0,0,0-.28.63,1.08,1.08,0,0,0,.44.67C27.61,25.15,27.75,25,27.65,24.92Z"/><path class="cls-1" d="M28.63,25.5a.29.29,0,0,1-.19-.17v0h0v0a.06.06,0,0,0,0,0,.25.25,0,0,0,0-.07l0,0s0,0,0,0v0l0-.08v0s0,0,0,0l0,0h0s0,0,0,0l0,0h0l0,0s0,0,0,0h.15l0,0a.23.23,0,0,1,.12.1h0s0,0,0,0,0,0,0,0v0h0a.43.43,0,0,1,0,.05.37.37,0,0,1,0,.11v0h0v0s0,0,0,.06,0,0,0,0v0s0,0,0,0,0,0,0,0h0a.37.37,0,0,1-.35.05.11.11,0,0,0-.13.07.12.12,0,0,0,.08.13.55.55,0,0,0,.45,0,.35.35,0,0,0,.15-.11.38.38,0,0,0,.06-.13.67.67,0,0,0,0-.28.18.18,0,0,0,0-.1.36.36,0,0,0-.11-.16.52.52,0,0,0-.62-.09.63.63,0,0,0-.25.37.5.5,0,0,0,0,.21.35.35,0,0,0,.12.2.54.54,0,0,0,.22.13.1.1,0,0,0,.12-.07A.1.1,0,0,0,28.63,25.5Z"/><path class="cls-1" d="M58.66,7.39a.52.52,0,0,0,.17.58.41.41,0,0,0,.55,0,.49.49,0,0,0,.11-.29,2.31,2.31,0,0,0,0-.37,2,2,0,0,0-.17-.72.12.12,0,0,0-.09,0,2.07,2.07,0,0,0-1,.37.49.49,0,0,0-.26.42.42.42,0,0,0,.3.36.61.61,0,0,0,.56-.16c.09-.1-.06-.24-.15-.15s-.29.18-.42.08a.2.2,0,0,1-.09-.15c0-.08.06-.13.12-.18a1.74,1.74,0,0,1,1-.39l-.09,0a2,2,0,0,1,.14.53,1.37,1.37,0,0,1-.05.53.19.19,0,0,1-.29.11.32.32,0,0,1-.11-.38C58.9,7.32,58.7,7.26,58.66,7.39Z"/><path class="cls-1" d="M58.28,8a1.43,1.43,0,0,0,.41,1.55,1.06,1.06,0,0,0,1.42-.09,1.67,1.67,0,0,0,.3-.79,5.71,5.71,0,0,0,.07-1.09A5.21,5.21,0,0,0,60,5.5a.09.09,0,0,0-.09,0,5.84,5.84,0,0,0-3,1.11c-.36.26-.76.62-.71,1.1a1.09,1.09,0,0,0,.76.88,1.53,1.53,0,0,0,1.5-.44A.1.1,0,0,0,58.31,8a1.23,1.23,0,0,1-1.54.26.8.8,0,0,1-.36-.64,1,1,0,0,1,.4-.69,5.52,5.52,0,0,1,3.08-1.24L59.8,5.6a5.05,5.05,0,0,1,.46,1.7A4.36,4.36,0,0,1,60.12,9a.77.77,0,0,1-.52.56.92.92,0,0,1-.69-.1,1.16,1.16,0,0,1-.42-1.39A.11.11,0,0,0,58.28,8Z"/><path class="cls-1" d="M101.17,55.39a.52.52,0,0,0,.17.58.41.41,0,0,0,.55,0,.58.58,0,0,0,.12-.29,1.53,1.53,0,0,0,0-.37,1.81,1.81,0,0,0-.17-.72.11.11,0,0,0-.09,0,2,2,0,0,0-1,.37c-.14.11-.29.24-.27.42a.42.42,0,0,0,.3.36.61.61,0,0,0,.56-.16.11.11,0,0,0-.15-.15.33.33,0,0,1-.42.08.19.19,0,0,1-.08-.15c0-.08.06-.13.11-.18a1.74,1.74,0,0,1,1-.39l-.09-.05a1.67,1.67,0,0,1,.14.53,1.57,1.57,0,0,1,0,.53.2.2,0,0,1-.3.11.32.32,0,0,1-.1-.38A.11.11,0,0,0,101.17,55.39Z"/><path class="cls-1" d="M100.8,56a1.43,1.43,0,0,0,.4,1.56,1.07,1.07,0,0,0,1.42-.1,1.63,1.63,0,0,0,.3-.79,5,5,0,0,0,.07-1.09,5.37,5.37,0,0,0-.49-2.08.12.12,0,0,0-.09,0,5.87,5.87,0,0,0-3,1.11,1.31,1.31,0,0,0-.7,1.1,1.09,1.09,0,0,0,.75.89,1.56,1.56,0,0,0,1.5-.45c.1-.09,0-.23-.15-.14a1.23,1.23,0,0,1-1.54.26.83.83,0,0,1-.36-.64,1,1,0,0,1,.41-.69,5.46,5.46,0,0,1,3.08-1.24l-.09,0a5.35,5.35,0,0,1,.45,1.7,4.18,4.18,0,0,1-.14,1.69.77.77,0,0,1-.52.56.88.88,0,0,1-.69-.1,1.17,1.17,0,0,1-.42-1.39C101,55.93,100.83,55.88,100.8,56Z"/><path class="cls-1" d="M16.88,58.86a.57.57,0,0,0-.61.16.39.39,0,0,0,.05.54.52.52,0,0,0,.29.11l.39,0a2.1,2.1,0,0,0,.74-.17.11.11,0,0,0,.05-.09,1.76,1.76,0,0,0-.39-1A.49.49,0,0,0,17,58.2a.41.41,0,0,0-.36.29.53.53,0,0,0,.16.54c.1.1.25-.05.15-.14a.33.33,0,0,1-.08-.41A.25.25,0,0,1,17,58.4a.29.29,0,0,1,.18.11,1.63,1.63,0,0,1,.4.93l.05-.09a1.66,1.66,0,0,1-.54.14,1.68,1.68,0,0,1-.55,0,.18.18,0,0,1-.11-.29.34.34,0,0,1,.39-.1C17,59.1,17,58.9,16.88,58.86Z"/><path class="cls-1" d="M16.24,58.5a1.5,1.5,0,0,0-1.6.39,1,1,0,0,0,.1,1.37,1.64,1.64,0,0,0,.82.3,6,6,0,0,0,1.12.07,5.85,5.85,0,0,0,2.14-.48s.06-.06.05-.09a5.52,5.52,0,0,0-1.14-2.9,1.36,1.36,0,0,0-1.14-.68,1.1,1.1,0,0,0-.91.73,1.46,1.46,0,0,0,.46,1.46.11.11,0,0,0,.15-.15A1.14,1.14,0,0,1,16,57a.84.84,0,0,1,.65-.35,1,1,0,0,1,.72.39,5.16,5.16,0,0,1,1.27,3l.06-.09a5.62,5.62,0,0,1-1.76.44,4.65,4.65,0,0,1-1.74-.13.8.8,0,0,1-.57-.5.85.85,0,0,1,.1-.68,1.26,1.26,0,0,1,1.44-.41A.1.1,0,1,0,16.24,58.5Z"/><path class="cls-1" d="M96.51,38.82a1.55,1.55,0,0,0,1.63.26,1,1,0,0,0,.47-1.3,1.53,1.53,0,0,0-.62-.59,7.18,7.18,0,0,0-1-.5,5.9,5.9,0,0,0-2.16-.39.1.1,0,0,0-.08.06,5.46,5.46,0,0,0-.15,3.1,1.31,1.31,0,0,0,.76,1.07,1.13,1.13,0,0,0,1.14-.32,1.47,1.47,0,0,0,.18-1.51c-.05-.12-.25-.05-.2.07a1.15,1.15,0,0,1-.37,1.48.84.84,0,0,1-.74.07,1,1,0,0,1-.49-.64,5.06,5.06,0,0,1,.06-3.24l-.09.06a5.68,5.68,0,0,1,1.79.28,4.62,4.62,0,0,1,1.54.8.75.75,0,0,1,.32.68.85.85,0,0,1-.37.58,1.27,1.27,0,0,1-1.49-.18C96.54,38.57,96.41,38.73,96.51,38.82Z"/><path class="cls-1" d="M41.61,84.37a1.36,1.36,0,0,0,1.44.23.89.89,0,0,0,.42-1.15,1.47,1.47,0,0,0-.56-.52,5.56,5.56,0,0,0-.88-.44,4.94,4.94,0,0,0-1.91-.34.08.08,0,0,0-.07,0,4.83,4.83,0,0,0-.13,2.74,1.15,1.15,0,0,0,.67.94,1,1,0,0,0,1-.28,1.26,1.26,0,0,0,.16-1.34.09.09,0,0,0-.17.07,1,1,0,0,1-.32,1.31.8.8,0,0,1-.66,0,.88.88,0,0,1-.44-.56,4.52,4.52,0,0,1,.06-2.86l-.08,0a4.93,4.93,0,0,1,1.58.25,4.08,4.08,0,0,1,1.36.7.7.7,0,0,1,.29.61.79.79,0,0,1-.33.51,1.12,1.12,0,0,1-1.31-.16A.09.09,0,1,0,41.61,84.37Z"/><path class="cls-1" d="M73.89,45.79a1.46,1.46,0,0,0-1.24,1.05A1,1,0,0,0,73.39,48a1.69,1.69,0,0,0,.86-.09,7.21,7.21,0,0,0,1-.43A5.62,5.62,0,0,0,77,46.12a.12.12,0,0,0,0-.1,5.78,5.78,0,0,0-2.38-2.08,1.41,1.41,0,0,0-1.33-.11,1.09,1.09,0,0,0-.47,1.06A1.51,1.51,0,0,0,73.88,46a.1.1,0,0,0,.07-.19c-.53-.17-1-.62-1-1.21a.84.84,0,0,1,.42-.61,1,1,0,0,1,.82,0,5.35,5.35,0,0,1,2.54,2.1V46a5.44,5.44,0,0,1-1.36,1.17,4.91,4.91,0,0,1-1.61.65.85.85,0,0,1-.75-.2.9.9,0,0,1-.23-.65,1.22,1.22,0,0,1,1.1-1A.1.1,0,1,0,73.89,45.79Z"/><path class="cls-1" d="M35,35.74l-1.52-.17a.09.09,0,0,0-.09,0l-.9,1.46.19.06-.17-1.47a.12.12,0,0,0-.08-.1L31,35.17v.19l1-.29A.1.1,0,0,0,32,35l.4-2.06-.19,0,.93,1.42a.11.11,0,0,0,.12,0l1.88-.55-.1-.16L34,35a.1.1,0,0,0,0,.14l.94.77c.1.09.25-.06.15-.14L34.15,35v.14l1.06-1.28a.11.11,0,0,0-.11-.17l-1.88.54.12.05-.93-1.42a.11.11,0,0,0-.19,0L31.81,35l.08-.07-1,.29a.1.1,0,0,0,0,.19l1.48.41-.07-.1.17,1.47a.11.11,0,0,0,.2,0l.9-1.47-.09.05,1.52.17C35.14,36,35.14,35.75,35,35.74Z"/><path class="cls-1" d="M43.55,10.54,42,10.37a.12.12,0,0,0-.1.05L41,11.89l.2,0-.18-1.47a.11.11,0,0,0-.08-.09L39.49,10v.19l1-.28a.12.12,0,0,0,.07-.07L41,7.74l-.19,0,.92,1.43s.08.06.12,0l1.88-.54-.1-.17L42.54,9.8a.1.1,0,0,0,0,.15l.93.77c.1.08.25-.06.15-.15l-.94-.77V10l1.06-1.29a.1.1,0,0,0-.1-.17L41.75,9l.12,0L41,7.66c-.05-.07-.18-.06-.19,0l-.41,2.06.07-.07-1,.29a.1.1,0,0,0,0,.19l1.49.41-.08-.1L41,11.94a.1.1,0,0,0,.19.05l.91-1.47-.09.06,1.52.17C43.68,10.76,43.68,10.56,43.55,10.54Z"/><path class="cls-1" d="M45.28,34.21a1.8,1.8,0,0,0,1.66-.09,1.52,1.52,0,0,0,.67-1.21,1.73,1.73,0,0,0-1.3-1.62,1.58,1.58,0,0,0-1.4.37,1.24,1.24,0,0,0-.23,1.2,1,1,0,0,0,.85.74,1,1,0,0,0,1.06-.37.82.82,0,0,0-.36-1.11.56.56,0,0,0-.65.1.31.31,0,0,0,.16.5c.13,0,.19-.18.06-.2a.11.11,0,0,1,0-.2.34.34,0,0,1,.28,0,.51.51,0,0,1,.35.27.56.56,0,0,1-.21.79,1.14,1.14,0,0,1-.94,0,1,1,0,0,1-.41-.84.88.88,0,0,1,.5-.84,1.29,1.29,0,0,1,1.07-.08,1.51,1.51,0,0,1,1,1.28A1.34,1.34,0,0,1,46.84,34a1.62,1.62,0,0,1-1.5.07c-.13-.05-.18.14-.06.19Z"/><path class="cls-1" d="M19.44,8.22a.57.57,0,0,0-.54.31.39.39,0,0,0,.19.5.58.58,0,0,0,.32,0L19.79,9a2.32,2.32,0,0,0,.66-.35.1.1,0,0,0,0-.1,1.93,1.93,0,0,0-.64-.86.53.53,0,0,0-.48-.14.45.45,0,0,0-.28.38.57.57,0,0,0,.31.48.1.1,0,1,0,.1-.18c-.12-.07-.25-.22-.18-.37a.22.22,0,0,1,.13-.12.25.25,0,0,1,.2.06,1.72,1.72,0,0,1,.64.8l0-.1a1.42,1.42,0,0,1-.48.27,1.44,1.44,0,0,1-.54.1.19.19,0,0,1-.19-.25.35.35,0,0,1,.35-.2A.1.1,0,1,0,19.44,8.22Z"/><path class="cls-1" d="M18.73,8a1.5,1.5,0,0,0-1.44.78,1,1,0,0,0,.47,1.3,1.71,1.71,0,0,0,.87.08A6.56,6.56,0,0,0,19.72,10a5.84,5.84,0,0,0,2-1,.12.12,0,0,0,0-.1,5.61,5.61,0,0,0-1.88-2.51A1.39,1.39,0,0,0,18.53,6a1.08,1.08,0,0,0-.68.94,1.47,1.47,0,0,0,.83,1.29.1.1,0,0,0,.1-.18,1.16,1.16,0,0,1-.66-1.38.84.84,0,0,1,.54-.5,1,1,0,0,1,.79.2,5.28,5.28,0,0,1,2,2.56l0-.09a5.67,5.67,0,0,1-1.58.87,5,5,0,0,1-1.71.31.82.82,0,0,1-.69-.35A.83.83,0,0,1,17.45,9a1.24,1.24,0,0,1,1.28-.76A.1.1,0,1,0,18.73,8Z"/></svg>