<svg id="Capa_1" data-name="Capa 1" xmlns="http://www.w3.org/2000/svg" viewBox="0 0 66.44 70.39"><defs><style>.cls-1{fill:#1d1d1b;}</style></defs><title>chx</title><path class="cls-1" d="M53.79,43.31a1.36,1.36,0,0,0-.73-.17,1,1,0,0,0-.86.75c-.15.71.58,1.31,1.2,1.51a1.46,1.46,0,0,0,1.21-.12.09.09,0,0,0-.1-.16,1.49,1.49,0,0,1-1.77-.32,1,1,0,0,1-.37-.74.77.77,0,0,1,.63-.73,1.14,1.14,0,0,1,.7.14c.1.06.19-.1.09-.16Z"/><path class="cls-1" d="M61.7,41.09a1.1,1.1,0,0,1,.39-.44.79.79,0,0,1,1,.13c.43.44.18,1.22-.16,1.63a1.17,1.17,0,0,1-.92.48c-.12,0-.11.18,0,.18a1.62,1.62,0,0,0,1.45-1.41,1.14,1.14,0,0,0-.2-.95,1,1,0,0,0-1.11-.31,1.25,1.25,0,0,0-.62.6c0,.11.11.19.16.09Z"/><path class="cls-1" d="M59.36,44.52a.62.62,0,0,0-.33,0,.67.67,0,0,0-.44.54l.08,0a.66.66,0,0,0-.67-.2.52.52,0,0,0-.26.2s0,.1.08,0a.49.49,0,0,1,.19-.16.6.6,0,0,1,.6.18s.07,0,.07,0c0-.21.15-.43.39-.47a.51.51,0,0,1,.25,0s.09-.05,0-.08Z"/><path class="cls-1" d="M58.94,46.47a1.3,1.3,0,0,1-.55.12,3.82,3.82,0,0,1-.68,0,6,6,0,0,1-.61-.12,2,2,0,0,1-.38-.14,0,0,0,0,0-.06,0,1,1,0,0,0,1.94.31s-.05-.09-.08,0a1,1,0,0,1-1,.61,1,1,0,0,1-.76-.88l-.07,0a1.47,1.47,0,0,0,.4.14,3.85,3.85,0,0,0,.66.13,2,2,0,0,0,1.25-.1c.06,0,0-.1-.05-.07Z"/><path class="cls-1" d="M53.17,30.13a1.85,1.85,0,0,0-1.78.44,2.44,2.44,0,0,0-.56,1.33,5.24,5.24,0,0,0,.46,2.43c.3.8.65,1.6,1,2.39s.85,1.81,1.28,2.72c.1.21.45.1.35-.11-.83-1.78-1.73-3.54-2.39-5.39a3.83,3.83,0,0,1-.23-2.47,1.4,1.4,0,0,1,1.77-1c.24.05.32-.31.09-.35Z"/><path class="cls-1" d="M55.58,40a1.74,1.74,0,0,0-1.36,1.22,1.08,1.08,0,0,0,.08.56c.05.1.23,0,.18-.05-.34-.77.48-1.38,1.15-1.56.12,0,.06-.2-.05-.17Z"/><path class="cls-1" d="M53.31,30.3c0-.88.38-1.82,1.45-1.77.6,0,.85.49,1,1s.3,1.14.42,1.72a25.24,25.24,0,0,1,.19,7.26c0,.23.33.31.36.08a26,26,0,0,0-.06-6.65c-.08-.53-.18-1.06-.31-1.59a6.49,6.49,0,0,0-.44-1.42,1.49,1.49,0,0,0-2-.62,2,2,0,0,0-1,2c0,.24.37.22.37,0Z"/><path class="cls-1" d="M55.31,28.24a2.25,2.25,0,0,1,.22-1.57,1.3,1.3,0,0,1,1.38-.56,1.82,1.82,0,0,1,.91,1.07,8.32,8.32,0,0,1,.41,1.48,26.33,26.33,0,0,1,.64,5.52c0,1.23,0,2.45-.12,3.67,0,.23.36.22.37,0A34.25,34.25,0,0,0,59,30.9a25.63,25.63,0,0,0-.62-3.14c-.21-.83-.71-2.09-1.79-2.06a1.8,1.8,0,0,0-1.38.76,2.53,2.53,0,0,0-.28,1.79c0,.23.41.22.37,0Z"/><path class="cls-1" d="M58.47,28.17A6.46,6.46,0,0,1,58.62,27a1,1,0,0,1,1.05-.65c.79,0,1.1.91,1.25,1.53a11.72,11.72,0,0,1,.27,2.64c0,1.22,0,2.44,0,3.65,0,1.47-.24,2.94-.15,4.4a13.84,13.84,0,0,0,.29,2l.76,3.74.67,3.29.12-.23-5.63,1.68-.81.24.24.12-1.52-3.34-2.42-5.33-.55-1.23c-.1-.21-.43-.12-.36.11v0l.34-.15c-.66-1.34-1.26-2.73-1.81-4.13-.34-.86-.62-2.36.55-2.71a.18.18,0,0,0-.11-.35c-1.33.4-1.22,1.94-.86,3,.21.61.49,1.21.75,1.8.37.87.75,1.74,1.17,2.6.09.19.39,0,.33-.15v0l-.36.11L53.36,43l2.42,5.33.55,1.23a.2.2,0,0,0,.24.12L62.2,48l.8-.24a.17.17,0,0,0,.12-.22l-1.42-7a13.07,13.07,0,0,1-.29-2.25c0-.79.06-1.58.1-2.36s.06-1.53.06-2.29c0-1.17,0-2.34,0-3.51a9.61,9.61,0,0,0-.38-2.72c-.25-.75-.78-1.49-1.69-1.39a1.35,1.35,0,0,0-1.17.76,4.49,4.49,0,0,0-.2,1.32c0,.23.34.32.36.09Z"/><path class="cls-1" d="M57.51,41.72l.78,2.4.11.34c0,.06.11,0,.09,0L57.71,42l-.11-.34a0,0,0,0,0-.09,0Z"/><path class="cls-1" d="M32.78,8.89a1.89,1.89,0,0,1,2.71,1.31l.24-.22a1.23,1.23,0,0,0-1.34.51,5,5,0,0,0-.54,2.08,2,2,0,0,1-1.3,1.57,1.41,1.41,0,0,1-1.67-.94c-.09-.22-.42,0-.33.17a1.81,1.81,0,0,0,1.36,1.16,1.92,1.92,0,0,0,1.68-.63A3.25,3.25,0,0,0,34.31,12c.07-.62.32-2,1.31-1.7a.19.19,0,0,0,.24-.22,2.15,2.15,0,0,0-1.14-1.53,2.44,2.44,0,0,0-2.11,0c-.22.1,0,.42.17.32Z"/><path class="cls-1" d="M17.17,9.17a1.43,1.43,0,0,1-1.9-.08,1.89,1.89,0,0,1-.21-2,5.42,5.42,0,0,0,.74-2A1.19,1.19,0,0,0,15,3.89l.07.3a1.91,1.91,0,0,1,3,.38c.13.2.46,0,.33-.17a2.34,2.34,0,0,0-1.76-1.13,2.19,2.19,0,0,0-1.82.66.18.18,0,0,0,.07.3c1,.27.42,1.56.12,2.13a3.17,3.17,0,0,0-.47,1.94,1.83,1.83,0,0,0,1,1.42,1.85,1.85,0,0,0,1.8-.23c.19-.13,0-.45-.18-.32Z"/><path class="cls-1" d="M23,14.61c2.88.81,6.43.49,8.54-1.8a5.22,5.22,0,0,0,1.41-3.72A6.42,6.42,0,0,0,31.36,5.3,9.91,9.91,0,0,0,22.6,2.06C19.73,2.45,17,4.4,16.83,7.38S19,13,21.72,14.15a10.18,10.18,0,0,0,1.24.46.18.18,0,0,0,.1-.35c-2.77-.83-5.47-3-5.83-5.94a4.82,4.82,0,0,1,1-3.59A6.46,6.46,0,0,1,21.7,2.6a9.6,9.6,0,0,1,8.61,2.14c2,1.82,3,4.75,1.45,7.15-1.82,2.77-5.7,3.22-8.7,2.37A.18.18,0,1,0,23,14.61Z"/><path class="cls-1" d="M17,8.37c2.52.38,5.86,1.55,6.2,4.43a1.84,1.84,0,0,1,0,.47.14.14,0,0,0,.26.07,3,3,0,0,1,1-1,5.1,5.1,0,0,1,3.5-.76,11.21,11.21,0,0,1,3.49,1c.16.07.31-.16.15-.23-2.43-1.1-6-1.92-8,.37a2.42,2.42,0,0,0-.34.45l.26.07a3.25,3.25,0,0,0-.27-1.5,5.36,5.36,0,0,0-2.68-2.65A12,12,0,0,0,17,8.1c-.17,0-.18.25,0,.27Z"/><path class="cls-1" d="M25,5.24a1.24,1.24,0,0,1,.82-.87.66.66,0,0,1,.74.57,1.47,1.47,0,0,1,0,.75c0,.11.14.16.18,0a1.35,1.35,0,0,0-.25-1.36.86.86,0,0,0-1.16.07,1.57,1.57,0,0,0-.47.74c0,.11.14.16.17,0Z"/><path class="cls-1" d="M33.82,56a1.61,1.61,0,0,1-.56-.68.77.77,0,0,1,.3-.87c.57-.41,1.34.12,1.67.58a.16.16,0,0,0,.3-.08c.08-.81,1.18-1,1.79-.61s.11,1.22-.34,1.57c-.1.08,0,.22.07.26.61.24,1.5.85,1.06,1.59a1,1,0,0,1-1.55.09.17.17,0,0,0-.28.11,1.21,1.21,0,0,1-.94,1.19.86.86,0,0,1-1-.88.15.15,0,0,0-.2-.15,1,1,0,0,1-1.25-.79c0-.47.27-1.1.82-1.06a.16.16,0,1,0,0-.31c-.76-.05-1.21.79-1.14,1.44a1.32,1.32,0,0,0,1.66,1L34,58.3a1.16,1.16,0,0,0,1.33,1.19A1.5,1.5,0,0,0,36.6,58l-.27.11A1.33,1.33,0,0,0,38.39,58a1.09,1.09,0,0,0,0-1.05,2.26,2.26,0,0,0-1.28-1l.07.26a1.9,1.9,0,0,0,.74-1,1,1,0,0,0-.53-1.09A2,2,0,0,0,36,54a1.19,1.19,0,0,0-.79,1l.3-.08c-.45-.62-1.43-1.21-2.17-.65a1.1,1.1,0,0,0-.44,1,1.67,1.67,0,0,0,.69,1C33.75,56.38,34,56.16,33.82,56Z"/><path class="cls-1" d="M35.33,56.92a.42.42,0,0,1-.29-.27v0h0v0a.64.64,0,0,0,0-.07l0-.1,0,0h0v0l.07-.12,0,0h0l0,0,0,0s0,0,0,0l.06,0h0l.08,0h.11s0,0,0,0l.1,0h0l.06,0a.52.52,0,0,1,.18.15l0,0,0,0s0,0,0,0v0h0a.22.22,0,0,0,0,.08,1.09,1.09,0,0,1,0,.18v0s0,0,0,0a.07.07,0,0,0,0,0l0,.09s0,0,0,0,0,0,0,0,0,0,0,0h0l0,0a.58.58,0,0,1-.54.07.16.16,0,0,0-.2.11.16.16,0,0,0,.11.19.84.84,0,0,0,.71-.06.55.55,0,0,0,.23-.17.52.52,0,0,0,.09-.2,1,1,0,0,0,0-.43.4.4,0,0,0,0-.15A.62.62,0,0,0,36.1,56a.81.81,0,0,0-1-.14,1,1,0,0,0-.38.57.61.61,0,0,0,0,.33.52.52,0,0,0,.18.3.67.67,0,0,0,.33.2.16.16,0,0,0,.2-.11A.16.16,0,0,0,35.33,56.92Z"/><path class="cls-1" d="M11.56,31.43l-2.35-.26a.15.15,0,0,0-.14.08L7.68,33.51l.3.07-.27-2.26a.17.17,0,0,0-.12-.15l-2.3-.62v.3l1.53-.45a.15.15,0,0,0,.12-.11l.63-3.18-.3,0L8.7,29.34a.16.16,0,0,0,.18.07l2.91-.84-.16-.26-1.63,2a.16.16,0,0,0,0,.22l1.44,1.19c.16.13.39-.09.23-.22l-1.44-1.19v.22l1.63-2a.16.16,0,0,0-.16-.26l-2.91.84.19.07L7.55,27a.17.17,0,0,0-.3,0l-.62,3.18.11-.11-1.53.45a.15.15,0,0,0,0,.3l2.29.63-.12-.16.28,2.26a.16.16,0,0,0,.3.08L9.35,31.4l-.14.08,2.35.27C11.76,31.77,11.76,31.45,11.56,31.43Z"/><path class="cls-1" d="M46.66,23.68,49,23.42a.16.16,0,0,1,.14.07l1.39,2.26-.3.08.27-2.26a.17.17,0,0,1,.12-.15l2.29-.62v.3l-1.53-.45a.14.14,0,0,1-.11-.11l-.63-3.18.3,0-1.43,2.19a.16.16,0,0,1-.18.07l-2.91-.84.16-.26,1.63,2a.16.16,0,0,1,0,.22L46.78,24c-.16.13-.39-.09-.23-.22L48,22.54v.22l-1.63-2a.16.16,0,0,1,.16-.26l2.9.84-.18.07,1.43-2.19c.07-.11.27-.1.29,0l.63,3.19-.11-.11L53,22.8a.16.16,0,0,1,0,.3l-2.29.62.11-.15-.27,2.26a.16.16,0,0,1-.3.08l-1.39-2.26.14.08L46.66,24C46.46,24,46.46,23.7,46.66,23.68Z"/><path class="cls-1" d="M29.05,34.79a2.82,2.82,0,0,0,2.56-.13,2.4,2.4,0,0,0,1-1.88,2.68,2.68,0,0,0-2-2.49,2.4,2.4,0,0,0-2.15.57,1.88,1.88,0,0,0-.36,1.85,1.53,1.53,0,0,0,1.31,1.14,1.6,1.6,0,0,0,1.64-.58,1.26,1.26,0,0,0-.56-1.7.86.86,0,0,0-1,.14.48.48,0,0,0,.25.78c.2,0,.29-.27.09-.31a.16.16,0,0,1-.06-.3.5.5,0,0,1,.43-.08.89.89,0,0,1,.22,1.63,1.75,1.75,0,0,1-1.45,0,1.43,1.43,0,0,1-.63-1.31,1.32,1.32,0,0,1,.77-1.29,2,2,0,0,1,1.64-.12,2.34,2.34,0,0,1,1.54,2,2.06,2.06,0,0,1-.86,1.75,2.53,2.53,0,0,1-2.32.1c-.19-.08-.27.23-.08.3Z"/><g id="Velma"><path class="cls-1" d="M5.36,60.08c.18.1.34-.17.16-.27s-.33.18-.16.27Z"/><path class="cls-1" d="M6.22,60.61c.18.09.33-.18.16-.27s-.34.17-.16.27Z"/><path class="cls-1" d="M5.38,61a.16.16,0,0,0,.16-.28c-.18-.09-.34.18-.16.28Z"/><path class="cls-1" d="M13.36,59.82a21.74,21.74,0,0,1-1.43,4.4,2.6,2.6,0,0,1-1.52,1.54,11.12,11.12,0,0,1-2.2.5A4.09,4.09,0,0,1,6,66.17a3,3,0,0,1-1.6-1.59,11.91,11.91,0,0,1-.8-2.08,2.45,2.45,0,0,1,.16-2.11,14.88,14.88,0,0,1,1.54-2,23.45,23.45,0,0,1,1.84-1.89c.18-.16-.08-.42-.26-.25a20.28,20.28,0,0,0-3.39,3.89,2.58,2.58,0,0,0-.36,2.07A11.61,11.61,0,0,0,4,64.41a3.88,3.88,0,0,0,1.29,1.75,3.29,3.29,0,0,0,2.22.56,14.57,14.57,0,0,0,2.46-.44A3.18,3.18,0,0,0,11.8,65.2a9.51,9.51,0,0,0,1.11-2.45,20.12,20.12,0,0,0,.81-2.85.18.18,0,0,0-.36-.08Z"/><path class="cls-1" d="M11.16,63.21a.16.16,0,0,0,.16-.28c-.18-.09-.34.18-.16.28Z"/><path class="cls-1" d="M10.25,62.78c.17.1.33-.18.15-.27a.15.15,0,0,0-.15.27Z"/><path class="cls-1" d="M10.37,63.66c.18.09.34-.18.16-.27a.16.16,0,0,0-.16.27Z"/><path class="cls-1" d="M8.51,56.8A3.58,3.58,0,0,0,11,58.48a3.77,3.77,0,0,0,2.69-.6c.15-.1,0-.33-.13-.23a3.36,3.36,0,0,1-4.76-1c-.09-.15-.34,0-.25.14Z"/><path class="cls-1" d="M5.55,55.1A3.56,3.56,0,0,0,8,56.78a3.78,3.78,0,0,0,2.69-.6c.15-.1,0-.33-.14-.23a3.36,3.36,0,0,1-4.76-1c-.09-.15-.33,0-.24.14Z"/><path class="cls-1" d="M11.4,58.46a3.24,3.24,0,0,0,1.65,1.35,2.53,2.53,0,0,0,2.18-.34c.15-.1,0-.33-.14-.23a2.29,2.29,0,0,1-2,.31,3,3,0,0,1-1.47-1.23c-.09-.15-.33,0-.24.14Z"/><path class="cls-1" d="M3.49,56.32a6.77,6.77,0,0,0-2.32,4,3.5,3.5,0,0,0,1.16,2.83,5.59,5.59,0,0,0,1.54,1c.22.09.41-.23.19-.32A4.41,4.41,0,0,1,1.89,62,3.34,3.34,0,0,1,2,58.83a8.68,8.68,0,0,1,1.75-2.26.18.18,0,0,0-.26-.25Z"/><path class="cls-1" d="M3.64,57.66A1.91,1.91,0,0,0,3.08,59a2.32,2.32,0,0,0,.32,1.29c.12.2.45,0,.32-.19A2,2,0,0,1,3.45,59a1.56,1.56,0,0,1,.45-1.08c.19-.16-.08-.41-.26-.25Z"/><path class="cls-1" d="M3.2,58.82a1.55,1.55,0,0,0-.59,1.28,1,1,0,0,0,.5.67.36.36,0,0,0,.3.06c.11,0,0-.21-.09-.16h0l-.06,0a.66.66,0,0,1-.24-.2.76.76,0,0,1-.14-.78A1.86,1.86,0,0,1,3.33,59c.09-.08,0-.21-.13-.13Z"/><path class="cls-1" d="M13.63,63.52c1.91-.17,3.26-1.85,3.89-3.5a6.43,6.43,0,0,0-.41-5.67,8.4,8.4,0,0,0-6.27-3.78,6.66,6.66,0,0,0-5.37,1.91C4,53.91,2.77,56.25,3.79,58.22c.11.2.43,0,.32-.19-.81-1.57,0-3.5,1.11-4.76a6.49,6.49,0,0,1,4.85-2.38,8.11,8.11,0,0,1,6.27,3,5.78,5.78,0,0,1,1.13,5c-.41,1.85-1.69,4.1-3.84,4.29-.24,0-.24.38,0,.36Z"/><path class="cls-1" d="M15.1,62.69a6.38,6.38,0,0,1-2.16,3.79,3.4,3.4,0,0,1-2.87.46,5.23,5.23,0,0,1-1.52-.69c-.19-.13-.38.19-.18.32a4.93,4.93,0,0,0,3,.86,4,4,0,0,0,2.89-1.84,8.83,8.83,0,0,0,1.17-2.82c.06-.23-.3-.31-.36-.08Z"/><path class="cls-1" d="M13.84,63.26a1.54,1.54,0,0,1-.72.94,2,2,0,0,1-1.09.35.18.18,0,0,0,0,.36,2.44,2.44,0,0,0,1.3-.41,2,2,0,0,0,.86-1.15c0-.23-.32-.32-.36-.09Z"/><path class="cls-1" d="M13.23,64.28a1.42,1.42,0,0,1-.68,1,.89.89,0,0,1-.39.06,1.4,1.4,0,0,1-.31-.09l-.07,0,0,0s0,0,0,0l0,0s0,0,0,0,0,0,0,0-.2-.11-.19,0,.1.15.17.19a1.4,1.4,0,0,0,.36.13,1,1,0,0,0,.94-.35,2.08,2.08,0,0,0,.41-.86c0-.11-.16-.15-.18,0Z"/></g><path class="cls-1" d="M9.3,64.77l-.07-.58s-.07-.06-.09,0a1,1,0,0,1-1.47.47c-.26-.17-.47-.38-.74-.54a3.12,3.12,0,0,0-.73-.3c-.44-.13-.81-.39-.8-.89a1.42,1.42,0,0,1,.18-.66s0-.08-.06-.06L5,62.43c-.06,0,0,.1,0,.08l.54-.24-.06-.06a1.07,1.07,0,0,0,.27,1.52c.28.16.61.2.9.34a6.18,6.18,0,0,1,.9.61,1,1,0,0,0,1.1.08,1.53,1.53,0,0,0,.55-.55l-.09,0,.08.58c0,.06.1,0,.09,0Z"/></svg>