<svg id="Capa_1" data-name="Capa 1" xmlns="http://www.w3.org/2000/svg" viewBox="0 0 35 35"><defs><style>.cls-1{fill:#fff;}</style></defs><title>redes</title><path class="cls-1" d="M25.59,7.68a1.79,1.79,0,1,0,1.79,1.79A1.79,1.79,0,0,0,25.59,7.68Z"/><path class="cls-1" d="M17.63,10a7.52,7.52,0,1,0,7.52,7.52A7.53,7.53,0,0,0,17.63,10Zm0,12.34a4.82,4.82,0,1,1,4.81-4.82A4.82,4.82,0,0,1,17.63,22.32Z"/><path class="cls-1" d="M23.6,32.77H11.4A9.18,9.18,0,0,1,2.23,23.6V11.4A9.18,9.18,0,0,1,11.4,2.23H23.6a9.18,9.18,0,0,1,9.17,9.17V23.6A9.18,9.18,0,0,1,23.6,32.77ZM11.4,5.1a6.31,6.31,0,0,0-6.3,6.3V23.6a6.31,6.31,0,0,0,6.3,6.3H23.6a6.31,6.31,0,0,0,6.3-6.3V11.4a6.31,6.31,0,0,0-6.3-6.3Z"/></svg>